<?xml version="1.0" encoding="utf-8"?>
<!-- Generator: Adobe Illustrator 16.0.0, SVG Export Plug-In . SVG Version: 6.00 Build 0)  -->
<!DOCTYPE svg PUBLIC "-//W3C//DTD SVG 1.1//EN" "http://www.w3.org/Graphics/SVG/1.1/DTD/svg11.dtd">
<svg version="1.1" id="Layer_1" xmlns="http://www.w3.org/2000/svg" xmlns:xlink="http://www.w3.org/1999/xlink" x="0px" y="0px"
	 width="800px" height="800px" viewBox="0 0 800 800" enable-background="new 0 0 800 800" xml:space="preserve">
<path fill-rule="evenodd" clip-rule="evenodd" fill="#FFFFFF" d="M703.967,190.953c-45.484-12.581-87.924-31.852-129.58-52.749
	c-59.447-29.819-116.193-63.805-171.373-100.11c-5.6-3.683-9.2-3.532-14.599,0.087c-15.572,10.443-31.49,20.446-47.491,30.302
	c-60.682,37.377-122.755,72.528-189.376,99.812c-25.41,10.409-51.792,18.697-78.807,28.336c0.054,0.613,0.14,2.376,0.366,4.123
	c4.616,35.524,10.134,70.971,13.656,106.59c4.668,47.252,13.03,93.799,24.401,140.002c20.604,83.734,63.453,155.279,131.61,212.529
	c47.097,39.555,96.619,76.371,149.318,109.25c3.886,2.424,5.808,0.754,8.604-0.977c48.49-29.977,93.643-64.066,137.615-99.557
	c49.664-40.088,89.645-87.352,115.09-144.426c30.537-68.486,43.471-140.876,51.141-214.329c3.139-30.094,7.119-60.109,10.832-90.146
	c1.023-8.3,2.455-16.555,3.711-24.919C713.504,193.366,708.703,192.263,703.967,190.953z"/>
<g>
	<g>
		<linearGradient id="SVGID_1_" gradientUnits="userSpaceOnUse" x1="319.6055" y1="289.7793" x2="481.2627" y2="289.7793">
			<stop  offset="0" style="stop-color:#EE3968"/>
			<stop  offset="1" style="stop-color:#D02241"/>
		</linearGradient>
		<path fill-rule="evenodd" clip-rule="evenodd" fill="url(#SVGID_1_)" d="M472.654,225.26
			c-17.546-41.176-45.304-75.359-73.122-111.083c-24.629,30.62-47.682,60.765-65.418,94.73
			c-16.992,32.532-19.495,65.525-5.192,99.555c20.556,48.919,41.363,97.741,53.071,149.823c0.617,2.754,4.883,6.426,7.681,6.641
			c10.451,0.787,20.985,0.316,32.422,0.316c3.605-14.871,5.835-28.578,10.269-41.541c13.344-39.06,27.53-77.831,41.43-116.694
			C483.595,279.601,484.287,252.572,472.654,225.26z"/>
		<linearGradient id="SVGID_2_" gradientUnits="userSpaceOnUse" x1="159.5986" y1="384.6694" x2="366.8364" y2="384.6694">
			<stop  offset="0" style="stop-color:#EE3968"/>
			<stop  offset="1" style="stop-color:#D02241"/>
		</linearGradient>
		<path fill-rule="evenodd" clip-rule="evenodd" fill="url(#SVGID_2_)" d="M307.498,331.29
			c-14.419-15.122-31.671-24.472-52.994-26.879c-33.562-3.779-69.869,12.574-84.445,39.307
			c-16.789,30.815-13.011,73.728,8.78,99.703c15.837,18.875,43.892,27.287,62.985,18.654c-2.659-3.609-5.469-7.057-7.868-10.771
			c-10.207-15.805-10.869-30.467-2.049-41.893c9.447-12.23,22.441-15.909,40.605-9.955c28.368,9.297,46.982,29.1,58.451,56.291
			c1.514,3.576,4.675,8.615,7.628,9.023c8.652,1.213,17.58,0.432,28.247,0.432C355.834,415.291,342.847,368.393,307.498,331.29z"/>
		<linearGradient id="SVGID_3_" gradientUnits="userSpaceOnUse" x1="435.4473" y1="384.8066" x2="643.5088" y2="384.8066">
			<stop  offset="0" style="stop-color:#EE3968"/>
			<stop  offset="1" style="stop-color:#D02241"/>
		</linearGradient>
		<path fill-rule="evenodd" clip-rule="evenodd" fill="url(#SVGID_3_)" d="M561.766,463.871
			c4.947-9.553,10.729-18.035,13.894-27.395c6.449-19.09-7.564-39.063-27.691-39.396c-29.387-0.48-48.572,17.402-65.332,38.744
			c-2.489,3.16-4.481,6.779-6.316,10.383c-3.071,6.039-4.59,16.146-8.985,17.545c-8.749,2.795-19.02,0.824-31.887,0.824
			c6.025-21.031,10.685-41.359,17.691-60.834c12.496-34.753,29.15-67.12,61.639-88.023c32.445-20.879,85.769-12.874,110.206,16.351
			c25.666,30.685,24.58,84.896-2.745,113.424C605.561,462.92,585.14,468.938,561.766,463.871z"/>
		<linearGradient id="SVGID_4_" gradientUnits="userSpaceOnUse" x1="326.1724" y1="596.5645" x2="478.8906" y2="596.5645">
			<stop  offset="0" style="stop-color:#EE3968"/>
			<stop  offset="1" style="stop-color:#D02241"/>
		</linearGradient>
		<path fill-rule="evenodd" clip-rule="evenodd" fill="url(#SVGID_4_)" d="M472.793,601.08
			c-20.351-9.082-33.526-25.248-41.351-45.684c-5.053-13.166-8.932-26.793-13.58-40.961c-3.957,0-7.979,0-12,0
			c-22.953,0.008-23.252-0.074-29.608,21.955c-7.895,27.363-20.51,51.012-46.493,65.641c-2.444,1.375-4.251,7.523-3.356,10.596
			c4.413,15.158,15.975,22.365,30.67,26.303c4.038,1.066,7.54,5.285,10.585,8.691c8.774,9.766,16.876,20.168,26.006,29.576
			c1.807,1.859,8.555,2.031,10.381,0.26c9.438-9.164,18.893-18.566,26.483-29.219c3.633-5.094,5.593-9.1,12.639-10.482
			c14.276-2.799,26.743-9.391,33.759-23.34C479.91,608.479,480.187,604.385,472.793,601.08z"/>
		<linearGradient id="SVGID_5_" gradientUnits="userSpaceOnUse" x1="324.1802" y1="490.002" x2="478.9346" y2="490.002">
			<stop  offset="0" style="stop-color:#EE3968"/>
			<stop  offset="1" style="stop-color:#D02241"/>
		</linearGradient>
		<path fill-rule="evenodd" clip-rule="evenodd" fill="url(#SVGID_5_)" d="M324.18,476.992c0,9.291,0,17.607,0,26.02
			c52.031,0,103.23,0,154.754,0c0-9.041,0-17.066,0-26.02C426.416,476.992,375.241,476.992,324.18,476.992z"/>
		<linearGradient id="SVGID_6_" gradientUnits="userSpaceOnUse" x1="274.7139" y1="547.6426" x2="368.1929" y2="547.6426">
			<stop  offset="0" style="stop-color:#EE3968"/>
			<stop  offset="1" style="stop-color:#D02241"/>
		</linearGradient>
		<path fill-rule="evenodd" clip-rule="evenodd" fill="url(#SVGID_6_)" d="M333.508,527.912c-3.758-2.904-6.191-5.025-8.845-6.801
			c-13.98-9.355-33.527-5.426-44.239,8.83c-9.401,12.514-7.028,28.613,5.888,40.035c15.4,13.605,39.694,13.883,54.352-0.172
			c15.367-14.734,23.557-33.354,27.528-54.783c-10.296,0-19.845,0-29.363,0C337.122,519.15,335.62,522.797,333.508,527.912z"/>
		<linearGradient id="SVGID_7_" gradientUnits="userSpaceOnUse" x1="433.4355" y1="547.6006" x2="526.9893" y2="547.6006">
			<stop  offset="0" style="stop-color:#EE3968"/>
			<stop  offset="1" style="stop-color:#D02241"/>
		</linearGradient>
		<path fill-rule="evenodd" clip-rule="evenodd" fill="url(#SVGID_7_)" d="M433.436,514.98c9.908,0,19.167,0,29.229,0
			c1.544,3.584,3.231,7.502,5.436,12.607c2.904-2.111,5.311-3.838,7.693-5.598c13.708-10.09,32.958-7.133,44.566,6.848
			c10.399,12.52,8.414,29.158-4.892,41.1c-15.909,14.268-41.503,13.699-56.24-1.771C445.179,553.428,437.339,535.496,433.436,514.98
			z"/>
	</g>
	<g>
		<path fill-rule="evenodd" clip-rule="evenodd" fill="#FFFFFF" d="M370.307,94.649c-0.004,0.702-0.109,1.407-0.172,2.118
			c-9.847,0-19.44,0-29.269,0"/>
		<path fill-rule="evenodd" clip-rule="evenodd" fill="#FFFFFF" d="M269.695,533.658c-0.03,2.443,0.897,3.539,3.466,3.535
			c31.562-0.037,63.125-0.047,94.687-0.055c0.744-1.203,1.467-2.416,2.176-3.635c-9.917-0.01-19.833-0.023-29.749-0.023
			c-21.232,0-42.468,0.023-63.701,0.035c-0.992,0.002-1.985,0-3.226,0c0-5.135-0.007-9.891,0.004-14.65
			c0.002-1.059-0.082-1.883-0.291-2.525c-1.189,1.188-2.303,2.443-3.344,3.752C269.726,524.756,269.754,529.213,269.695,533.658z"/>
		<path fill-rule="evenodd" clip-rule="evenodd" fill="#FFFFFF" d="M401.125,533.762c-0.831-0.084-1.661-0.234-2.492-0.236
			c-8.448-0.012-16.896-0.014-25.345-0.02c-0.313,1.217-0.665,2.428-1.06,3.633c9.632-0.004,19.265-0.006,28.896-0.008
			C401.125,536.006,401.125,534.883,401.125,533.762z"/>
		<path fill-rule="evenodd" clip-rule="evenodd" fill="#FFFFFF" d="M370.025,533.504c-0.709,1.219-1.432,2.432-2.176,3.635
			c1.46,0,2.92,0,4.38,0c0.395-1.205,0.747-2.416,1.06-3.633C372.2,533.506,371.113,533.504,370.025,533.504z"/>
		<path fill-rule="evenodd" clip-rule="evenodd" fill="#FFFFFF" d="M357.862,551.695c0.993-1.324,1.971-2.66,2.932-4.002
			c-33.299-0.002-66.596-0.004-99.894-0.006c0.093,1.33,0.25,2.668,0.486,4.012c13.844-0.012,27.688-0.023,41.533-0.025
			C321.234,551.672,339.548,551.682,357.862,551.695z"/>
		<path fill-rule="evenodd" clip-rule="evenodd" fill="#FFFFFF" d="M401.125,547.799c-0.842-0.035-1.676-0.104-2.519-0.104
			c-10.313-0.002-20.626-0.002-30.94-0.002c-0.725,1.35-1.496,2.686-2.313,4.008c11.924,0.01,23.847,0.02,35.771,0.027
			C401.125,550.418,401.125,549.104,401.125,547.799z"/>
		<path fill-rule="evenodd" clip-rule="evenodd" fill="#FFFFFF" d="M360.794,547.693c-0.961,1.342-1.939,2.678-2.932,4.002
			c2.497,0.002,4.995,0.004,7.492,0.006c0.816-1.322,1.588-2.658,2.313-4.008C365.376,547.693,363.085,547.693,360.794,547.693z"/>
		<path fill-rule="evenodd" clip-rule="evenodd" fill="#FFFFFF" d="M287.899,504.639c-0.004-4.012-0.722-4.738-4.726-4.742
			c-14.594-0.004-29.181,0-43.774,0.004c-1.364,0-2.729,0-4.184,0c0-5.918,0-11.393,0-16.941c0.999-0.188,1.86-0.35,2.659-0.502
			c0-2.883,0-5.686,0-8.463c-2.648,0.752-5.373,1.236-7.919,1.449c-0.412,0.066-0.825,0.113-1.237,0.174c0,2.279,0,4.584,0,6.982
			c2.691-0.539,2.199,1.4,2.208,2.986c0.01,4.305,0.003,8.605,0.006,12.906c0.008,4.982,0.527,5.51,5.39,5.508
			c14.593,0,29.181,0.002,43.769,0.002c1.167,0,2.332,0,3.356,0c0.184,0.678,0.273,0.852,0.273,1.033
			c0.006,1.15,0.009,2.301,0.013,3.451c1.35-0.713,2.74-1.357,4.165-1.932C287.899,505.916,287.899,505.277,287.899,504.639z"/>
		<path fill-rule="evenodd" clip-rule="evenodd" fill="#FFFFFF" d="M377.367,518.992c-0.826,0-1.652,0-2.479-0.002
			c0.056,1.363,0.041,2.723-0.021,4.078c0.221,0.002,0.442,0.002,0.663,0.002C376.169,521.719,376.781,520.361,377.367,518.992z"/>
		<path fill-rule="evenodd" clip-rule="evenodd" fill="#FFFFFF" d="M374.889,518.99c-6.955-0.002-13.911-0.006-20.865-0.006
			c-20.937-0.002-41.878-0.004-62.818-0.008c-0.991,0-1.985,0-3.307,0c0-4.344,0.002-8.4,0-12.422
			c-1.425,0.574-2.815,1.219-4.165,1.932c0.013,3.432,0.021,6.863,0.039,10.291c0.019,3.311,1.021,4.346,4.302,4.34
			c11.409-0.027,22.815-0.104,34.226-0.102c17.523,0.006,35.045,0.031,52.568,0.053C374.929,521.713,374.944,520.354,374.889,518.99
			z"/>
		<path fill-rule="evenodd" clip-rule="evenodd" fill="#FFFFFF" d="M401.125,519.164c-0.834-0.059-1.674-0.166-2.508-0.166
			c-7.083-0.006-14.167-0.004-21.25-0.006c-0.586,1.369-1.198,2.727-1.836,4.078c8.531,0.01,17.062,0.016,25.594,0.025
			C401.125,521.785,401.125,520.475,401.125,519.164z"/>
		<path fill-rule="evenodd" clip-rule="evenodd" fill="#FFFFFF" d="M237.874,473.994c0-1.893,0-3.775,0-5.656
			c-3.138,0-6.084,0-9.156,0c0,2.449,0,4.85,0,7.279c0.412-0.061,0.825-0.107,1.237-0.174
			C232.501,475.23,235.226,474.746,237.874,473.994z"/>
		<path fill-rule="evenodd" clip-rule="evenodd" fill="#FFFFFF" d="M374.617,96.318c-0.012,2.687-1.335,3.988-3.885,3.977
			c-9.807-0.04-19.614-0.089-29.417-0.128c-3.655-0.013-4.566-0.936-4.616-4.646"/>
		<path fill-rule="evenodd" clip-rule="evenodd" fill="#FFFFFF" d="M340.866,96.767c9.829,0,19.422,0,29.269,0
			c0.063-0.71,0.168-1.416,0.172-2.118"/>
		<path fill-rule="evenodd" clip-rule="evenodd" fill="#FFFFFF" d="M401.125,224.99c-2.335,0.039-4.676,0.093-7.007,0.105
			c-3.541,0.011-4.329-0.679-4.979-4.505c-4.684,0-9.426,0-14.171,0c-3.272,0-6.547-0.007-9.824-0.02
			c-3.415-0.003-4.397-1.028-4.397-4.534c0-29.274-0.01-58.562-0.01-87.84c0-1.107,0-2.216,0-3.516c-10.547,0-20.87,0-31.37,0
			c-0.108,0.802-0.215,1.585-0.339,2.511c-4.761,0-9.39,0-14.218,0c0-3.018,0-5.964,0-9.267c4.243,0,8.505-0.002,12.771,0.018
			c0.348,0,0.923,0.125,1.013,0.356c1.354,3.319,4.217,1.951,6.475,1.969c8.783,0.077,17.563-0.019,26.346-0.071
			c2.303-0.019,3.103,1.424,3.259,3.36c0.137,1.671,0.027,3.363,0.027,5.045c-0.004,28.162,0.032,56.325-0.062,84.479
			c-0.009,2.698,0.756,3.493,3.451,3.424c6.823-0.183,13.657-0.063,20.484-0.051c4.114,0.012,4.739,0.568,5.447,5.166
			c2.316,0,4.711,0,7.105,0C401.125,222.74,401.125,223.863,401.125,224.99z"/>
		<path fill-rule="evenodd" clip-rule="evenodd" fill="#FFFFFF" d="M401.125,254.181c-5.238,0-10.479,0.012-15.714,0.012
			c-4.841,0.005-5.027-0.14-5.885-4.924c-1.057,0-2.165,0-3.272,0c-10.104,0-20.207,0.016-30.306-0.009
			c-3.304-0.003-4.275-1.032-4.275-4.352c-0.003-29.377-0.003-58.749-0.003-88.128c0-1.103,0-2.206,0-3.474
			c-4.168,0-8.054,0-12.147,0c-0.187,0.796-0.381,1.647-0.597,2.573c-4.719,0-9.351,0-14.146,0c0-3.096,0-6.04,0-9.175
			c4.683,0,9.314,0,14.139,0c0.152,0.757,0.315,1.537,0.499,2.437c0.296,0.082,0.639,0.27,0.987,0.27
			c3.65,0.031,7.296,0,10.95,0.046c3.062,0.036,3.941,0.96,3.941,4.055c0,29.38,0,58.744,0,88.121c0,1.021,0,2.032,0,3.497
			c1.229,0,2.215,0,3.202,0c10.103,0,20.202-0.007,30.306,0.005c4.364,0,4.933,0.503,5.633,5.113c5.521,0,11.104,0,16.688,0
			C401.125,251.561,401.125,252.875,401.125,254.181z"/>
		<path fill-rule="evenodd" clip-rule="evenodd" fill="#FFFFFF" d="M401.125,239.577c-4.39,0.04-8.788,0.11-13.182,0.11
			c-3.172-0.007-2.869-2.53-3.216-4.902c-0.947-0.042-1.921-0.132-2.901-0.132c-8.699-0.011-17.403,0-26.103,0
			c-3.862,0-4.521-0.667-4.521-4.555c-0.007-29.097-0.007-58.191-0.007-87.285c0-1.115,0-2.214,0-3.731c-4.465,0-8.733,0-13,0
			c-2.059,0-4.122,0.114-6.173-0.04c-1.794-0.134-3.096,0.154-3.077,2.329c-4.77,0-9.335,0-14.115,0c0-3.099,0-6.124,0-9.308
			c4.717,0,9.35,0,14.124,0c0.16,0.927,0.312,1.806,0.5,2.892c6.902,0,13.718,0.009,20.535,0c4.527,0,4.933,0.427,4.933,4.984
			c-0.004,29.469-0.004,58.946,0.007,88.413c0,0.812,0.095,1.626,0.165,2.75c2.497,0,4.811,0,7.128,0c7.203,0,14.409-0.011,21.611,0
			c3.617,0.007,4.414,0.663,5.152,4.552c3.985,0,8.069,0,12.143,0C401.125,236.961,401.125,238.271,401.125,239.577z"/>
		<path fill-rule="evenodd" clip-rule="evenodd" fill="#FFFFFF" d="M365.02,669.615c-0.292,0.346-0.801,0.588-1.67,0.641
			c-0.159,0.01-0.378,0.783-0.385,1.203"/>
		<path fill-rule="evenodd" clip-rule="evenodd" fill="#FFFFFF" d="M372.312,683.799c0-3.682,0-7.279,0-10.869"/>
		<path fill-rule="evenodd" clip-rule="evenodd" fill="#FFFFFF" d="M372.312,672.93c0-0.881,0-1.764,0-2.645
			c-0.937-0.174-1.731-0.322-2.511-0.467c0-29.832,0-59.514,0-89.461c10.59,0,20.96,0,31.325,0c0-1.123,0-2.244,0-3.367
			c-10.568-0.033-21.132-0.08-31.696-0.088c-3.445-0.004-4.19,0.797-4.19,4.273c0,28.432,0.015,56.861-0.035,85.295
			c0,0.986,0.488,2.348-0.184,3.145"/>
		<path fill-rule="evenodd" clip-rule="evenodd" fill="#FFFFFF" d="M401.125,282.812c-9.155,0.056-18.319,0.201-27.476,0.11
			c-2.188-0.019-3.447-1.41-3.315-3.932c0.17-3.345,0.043-6.708,0.043-10.361c-1.56-0.137-2.91-0.372-4.262-0.372
			c-20.944,0.032-41.893,0.099-62.843,0.145c-4.104,0.011-4.885-0.8-4.893-4.911c-0.008-1.396,0-2.788,0-4.43
			c-4.153,0-8.115,0-12.224,0c-0.152,0.756-0.315,1.552-0.52,2.565c-4.586,0-9.21,0-14.085,0c0-2.932,0-5.861,0-9.231
			c4.36,0,8.801-0.008,13.243,0.013c0.257,0,0.71,0.144,0.738,0.285c0.625,3.373,3.266,1.848,5.081,1.993
			c2.79,0.213,5.607,0.16,8.407,0.088c2.344-0.058,3.147,1.151,3.131,3.263c-0.019,2.136-0.004,4.269-0.004,6.601
			c1.104,0.074,1.915,0.168,2.727,0.168c21.786-0.003,43.581-0.016,65.373-0.032c3.434-0.008,4.366,0.867,4.377,4.252
			c0.012,3.168,0.005,6.331,0.005,9.86c8.995,0,17.746,0,26.497,0C401.125,280.192,401.125,281.5,401.125,282.812z"/>
		<path fill-rule="evenodd" clip-rule="evenodd" fill="#FFFFFF" d="M353.119,372.248c-2.16,0-4.217,0-6.268,0
			c2.244,4.554,4.341,9.144,6.268,13.778C353.119,381.285,353.119,376.742,353.119,372.248z"/>
		<path fill-rule="evenodd" clip-rule="evenodd" fill="#FFFFFF" d="M401.125,374.319c0-1.497,0-2.993,0-4.49
			c-4.02,0.019-8.042,0.042-12.061,0.059c-3.308,0.01-4.11,0.771-4.138,4.097c-0.031,3.427-0.012,6.854-0.012,10.513
			c-3.596,0-6.849-0.015-10.095,0.005c-3.397,0.019-4.485,1.121-4.493,4.529c-0.012,3.321-0.003,6.64-0.003,9.839
			c-4.242,0-8.29,0-12.281,0c0.47,1.33,0.925,2.662,1.374,3.996c3.552,0,7.106,0.006,10.657-0.004
			c3.322-0.004,4.532-1.217,4.55-4.516c0.012-3.137,0-6.271,0-9.353c3.682,0,6.898,0,10.298,0c0,1.974-0.038,3.737,0.013,5.501
			c0.077,2.953,0.963,3.812,3.856,3.841c4.11,0.045,8.224,0.082,12.334,0.125c0-1.498,0-2.996,0-4.493c-3.996,0-7.998,0-12.221,0
			c0-6.479,0-12.931,0-19.651C392.995,374.319,397.059,374.319,401.125,374.319z"/>
		<path fill-rule="evenodd" clip-rule="evenodd" fill="#FFFFFF" d="M350.596,398.871c0-4.117,0-8.018,0-11.969
			c0.961-0.232,1.812-0.436,2.522-0.608c0-0.09,0-0.178,0-0.269c27.146,65.293,28.349,56.467-6.268-13.778c-1.049,0-2.097,0-3.154,0
			c0,4.831,0,9.463,0,14.042c0.921,0.271,1.67,0.492,2.426,0.717c0,3.931-0.007,7.67,0.008,11.408
			c0.011,3.273,1.228,4.453,4.584,4.455c2.901,0.002,5.801-0.002,8.702-0.002c-0.448-1.334-0.904-2.666-1.374-3.996
			C355.547,398.871,353.07,398.871,350.596,398.871z"/>
		<path fill-rule="evenodd" clip-rule="evenodd" fill="#FFFFFF" d="M401.125,139.089c-8.691,0-17.388,0-26.08-0.008
			c-3.752-0.006-4.722-1.014-4.719-4.844c0-8.022,0-16.039,0-24.291c-13.765,0-27.265,0-40.952,0
			c-0.117,0.877-0.224,1.673-0.348,2.617c-4.703,0-9.332,0-14.191,0c0-2.928,0-5.857,0-9.063c4.724,0,9.339,0,14.145,0
			c0.124,0.727,0.257,1.522,0.463,2.746c5.534,0,11.106,0,16.687,0c8.212-0.012,16.428-0.035,24.64-0.012
			c2.606,0,3.834,1.272,3.846,3.998c0.035,7.104,0.007,14.209,0.007,21.307c0,1.016,0,2.031,0,3.62c8.997,0,17.748,0,26.501,0
			C401.125,136.464,401.125,137.774,401.125,139.089z"/>
		<path fill-rule="evenodd" clip-rule="evenodd" fill="#FFFFFF" d="M398.256,90.792c-0.121,1.762-0.009,3.544-0.028,5.326
			c-0.03,3.074-1.111,4.155-4.215,4.178c-3.237,0.022-6.474,0.003-9.697,0.003c0,2.146,0,3.881,0,5.913
			c3.407,0,6.65-0.029,9.898,0.011c2.838,0.036,3.993,1.248,4.014,4.126c0.02,1.777,0.02,3.55,0,5.327
			c-0.026,3.025-0.722,3.704-3.864,3.728c-3.335,0.028-6.667,0.004-10.086,0.004c0,2.113,0,3.864,0,6.208c5.7,0,11.276,0,16.848,0
			c0,1.122,0,2.243,0,3.37c-6.075,0.054-12.143,0.146-18.214,0.135c-2.004,0-3.053-1.17-3.053-3.213c0-2.149-0.02-4.296,0.003-6.449
			c0.024-2.373,1.292-3.605,3.619-3.643c3.546-0.051,7.093-0.011,10.814-0.011c0-2.009,0-3.825,0-5.968
			c-3.222,0-6.364,0.011-9.515-0.008c-4.25-0.021-4.921-0.681-4.914-4.78c0.004-1.496-0.026-2.99-0.004-4.492
			c0.036-2.72,1.124-3.837,3.927-3.876c3.438-0.052,6.874-0.011,10.486-0.011c0-2.031,0-3.769,0-5.904c-3.338,0-6.67,0.016-9.998,0"
			/>
		<path fill-rule="evenodd" clip-rule="evenodd" fill="#FFFFFF" d="M364.705,293.476c0-2.214-0.012-4.059,0-5.904
			c0.01-2.55-1.191-3.73-3.791-3.683c-4.395,0.081-8.79,0.023-13.181,0.023c-14.959,0-29.921,0-44.883-0.011
			c-0.722-0.004-1.447-0.113-2.119-0.169c-0.213-0.967-0.393-1.758-0.557-2.481c-4.79,0-9.414,0-14.017,0c0,3.154,0,6.087,0,9.043
			c4.833,0,9.45,0,14.02,0c0.23-1.007,0.409-1.799,0.613-2.698c19.981,0,39.849,0,60.081,0c0,1.919,0.011,3.586-0.004,5.256
			c-0.036,3.465,0.791,4.314,4.379,4.321c7.951,0.012,15.903-0.028,23.854,0.004c4.004,0.018,8.017,0.152,12.025,0.229
			c0-1.308,0-2.619,0-3.931C389.092,293.476,377.065,293.476,364.705,293.476z"/>
		<path fill-rule="evenodd" clip-rule="evenodd" fill="#FFFFFF" d="M401.125,125.615c-5.572,0-11.148,0-16.848,0
			c0-2.345,0-4.096,0-6.208c3.419,0,6.751,0.024,10.086-0.004c3.143-0.024,3.838-0.702,3.864-3.728c0.02-1.777,0.02-3.55,0-5.327
			c-0.021-2.878-1.176-4.09-4.014-4.126c-3.248-0.04-6.491-0.011-9.898-0.011c0-2.032,0-3.767,0-5.913
			c3.224,0,6.46,0.019,9.697-0.003c3.104-0.023,4.185-1.104,4.215-4.178c0.02-1.781-0.093-3.564,0.028-5.326"/>
		<path fill-rule="evenodd" clip-rule="evenodd" fill="#FFFFFF" d="M372.066,453.396c-0.098-0.156-0.192-0.316-0.284-0.477
			c0.028,0.158,0.058,0.316,0.085,0.477C371.934,453.396,372,453.396,372.066,453.396z"/>
		<path fill-rule="evenodd" clip-rule="evenodd" fill="#FFFFFF" d="M358.134,444.162c0,3.18,0,6.186,0,9.234
			c4.729,0,9.229,0,13.733,0c-0.027-0.16-0.058-0.318-0.085-0.477c-0.019-0.033-0.04-0.064-0.058-0.098
			c0.012-0.008,0.024-0.016,0.036-0.023c-0.505-2.889-1.043-5.766-1.605-8.637C366.096,444.162,362.137,444.162,358.134,444.162z"/>
		<path fill-rule="evenodd" clip-rule="evenodd" fill="#FFFFFF" d="M388.678,456.287c0-6.227,0-12.195,0.006-18.164
			c0.002-5.223-0.657-5.871-5.998-5.867c-3.265,0.006-6.529,0-9.407,0c-0.849-0.938-1.427-2.154-2.051-2.178
			c-1.372-0.053-2.746-0.076-4.123-0.09c0.731,3.098,1.419,6.209,2.071,9.33c1.011,0,2.014,0,3.034,0
			c0.168-0.912,0.325-1.77,0.46-2.518c4.192,0,8.153,0,12.251,0c0,6.4,0.013,12.568-0.007,18.734
			c-0.012,4.803,0.386,5.213,5.269,5.223c3.648,0.008,7.297,0.012,10.941,0.02c0-1.496,0-2.994,0-4.49
			C397.054,456.287,392.978,456.287,388.678,456.287z"/>
		<path fill-rule="evenodd" clip-rule="evenodd" fill="#FFFFFF" d="M358.043,429.99c0,3.293,0,6.238,0,9.328
			c3.752,0,7.428,0,11.133,0c-0.651-3.121-1.339-6.232-2.071-9.33C364.11,429.957,361.099,429.99,358.043,429.99z"/>
		<path fill-rule="evenodd" clip-rule="evenodd" fill="#FFFFFF" d="M374.597,331.653c0.605-4.045-1.763-4.716-4.878-4.54
			c0-2.653,0-5.139,0-7.611c0.967-0.248,1.813-0.469,2.503-0.646c0-4.682,0-9.119,0-13.503c-3.177,0-6.122,0-9.132,0
			c0,4.649,0,9.097,0,13.542c0.303-0.078,0.61-0.159,0.911-0.236c0.41,0.918,1.014,1.803,1.185,2.767
			c0.208,1.177,0.052,2.421,0.052,3.638c0.008,4.826,0.172,5.03,4.871,6.061c0.573,4.227,1.333,4.848,5.775,4.867
			c8.415,0.041,16.825,0.102,25.241,0.154c0-1.497,0-2.993,0-4.492C392.354,331.653,383.586,331.653,374.597,331.653z"/>
		<path fill-rule="evenodd" clip-rule="evenodd" fill="#FFFFFF" d="M357.399,411.033c-4.553,0-9.085,0-13.699,0
			c0,3.158,0,6.105,0,9.188c4.732,0,9.271,0,13.926,0c0.175-0.945,0.335-1.801,0.519-2.777c1.841,0,3.513,0,5.186,0
			c0.196,0,0.372,0,0.555-0.002c-0.404-1.451-0.826-2.896-1.251-4.342C360.645,413.244,358.439,414.182,357.399,411.033z"/>
		<path fill-rule="evenodd" clip-rule="evenodd" fill="#FFFFFF" d="M370.054,412.496c10.337,0,20.707,0,31.071,0
			c0-1.311,0-2.619,0-3.93c-10.092,0.029-20.188,0.057-30.275,0.084c-4.291,0.012-4.852,0.414-6.187,4.846
			c-0.602-0.4-1.301-0.449-2.03-0.396c0.426,1.445,0.848,2.891,1.251,4.342C368.552,417.422,368.814,417.104,370.054,412.496z"/>
		<path fill-rule="evenodd" clip-rule="evenodd" fill="#FFFFFF" d="M309.99,96.748c-0.02,0.574-1.001,1.561-1.592,1.604
			c-2.494,0.183-5.011,0.081-7.697,0.081"/>
		<path fill-rule="evenodd" clip-rule="evenodd" fill="#FFFFFF" d="M295.233,98.256c-3.065,0-6,0-9.117,0"/>
		<path fill-rule="evenodd" clip-rule="evenodd" fill="#FFFFFF" d="M388.937,350.743c-0.681-3.68-1.618-4.451-5.09-4.449
			c-3.715,0.007-7.432,0.003-11.211,0.003c-0.143-1.077-0.256-1.871-0.362-2.641c-4.882,0-9.574,0-14.183,0c0,3.196,0,6.146,0,9.135
			c4.823,0,9.452,0,14.104,0c0.212-1.014,0.39-1.881,0.563-2.706c4.07,0,7.966,0,11.827,0c0.874,4.975,0.917,4.994,5.896,5.017
			c3.548,0.013,7.098,0.084,10.646,0.13c0-1.496,0-2.995,0-4.49C397.044,350.743,392.96,350.743,388.937,350.743z"/>
		<path fill-rule="evenodd" clip-rule="evenodd" fill="#FFFFFF" d="M373.602,360.285c-1.205-1.029-1.901-2.14-2.635-2.168
			c-4.259-0.17-8.528-0.084-12.923-0.084c0,3.261,0,6.195,0,9.288c4.839,0,9.529,0,14.178,0c0.184-0.979,0.33-1.762,0.476-2.542
			c9.6,0,19.018,0,28.427,0c0-1.498,0-2.994,0-4.493C391.713,360.285,382.294,360.285,373.602,360.285z"/>
		<path fill-rule="evenodd" clip-rule="evenodd" fill="#FFFFFF" d="M382.228,683.949c2.818,0,5.482,0,8.241,0
			c-2.685-1.779-5.296-3.559-8.241-5.338C382.228,680.385,382.228,682.158,382.228,683.949z"/>
		<path fill-rule="evenodd" clip-rule="evenodd" fill="#FFFFFF" d="M401.125,657.271c0-1.309,0-2.619,0-3.93
			c-4.017-0.008-8.029-0.023-12.045-0.023c-3.463,0.004-4.135,0.705-4.158,4.311c-0.022,3.828-0.019,7.654-0.053,11.482
			c0,0.242-0.219,0.486-0.331,0.721c-0.824,0.168-1.596,0.328-2.31,0.471c0,2.824,0,5.568,0,8.309
			c2.945,1.779,5.556,3.559,8.241,5.338c0.308,0,0.611,0,0.922,0c0-4.607,0-9.049,0-13.59c-0.868-0.223-1.719-0.439-2.478-0.635
			c0-4.129,0-8.088,0-12.453C393.136,657.271,397.133,657.271,401.125,657.271z"/>
		<path fill-rule="evenodd" clip-rule="evenodd" fill="#FFFFFF" d="M401.125,393.97c-3.996,0-7.998,0-12.221,0
			c0-6.479,0-12.931,0-19.651c4.091,0,8.154,0,12.221,0C401.125,380.871,401.125,387.421,401.125,393.97z"/>
		<path fill-rule="evenodd" clip-rule="evenodd" fill="#FFFFFF" d="M401.125,326.601c-5.314-0.068-10.619-0.15-15.933-0.2
			c-4.503-0.04-5.256-0.78-5.334-5.375c-0.01-0.459-0.046-0.917-0.076-1.563c-0.877-0.172-1.742-0.341-2.698-0.531
			c0-4.548,0-8.985,0-13.599c3.054,0,5.999,0,9.393,0c0,4.216,0.023,8.464-0.042,12.708c-0.004,0.385-0.605,0.747-0.91,1.136
			c-0.581,0.743-1.14,1.497-1.707,2.25c0.19,0.229,0.378,0.457,0.573,0.685c5.582,0,11.155,0,16.732,0
			C401.125,323.609,401.125,325.103,401.125,326.601z"/>
		<path fill-rule="evenodd" clip-rule="evenodd" fill="#FFFFFF" d="M401.125,162.664c-2.335,0.012-4.666,0.028-7,0.024
			c-3.442,0-4.315-0.749-4.947-4.193c-2.122-0.974-2.812,0.185-2.887,2.154c-4.593,0-9.035,0-13.633,0c0-3.19,0-6.223,0-9.476
			c4.47,0,8.907,0,13.556,0c0.153,0.796,0.325,1.665,0.543,2.798c3.22,0.181,7.428-0.768,7.037,4.896
			c2.552,0.151,4.938,0.288,7.331,0.436C401.125,160.414,401.125,161.545,401.125,162.664z"/>
		<path fill-rule="evenodd" clip-rule="evenodd" fill="#FFFFFF" d="M401.125,191.869c-2.055,0-4.11,0-6.164,0
			c-4.599,0.008-5.069-0.383-5.814-4.887c-0.699,0-1.424,0-2.333,0c-0.176,0.8-0.366,1.667-0.583,2.66c-4.479,0-8.921,0-13.548,0
			c0-3.019,0-5.962,0-9.359c4.215,0,8.456-0.004,12.708,0.021c0.26,0,0.732,0.136,0.749,0.264c0.393,3.25,2.931,1.899,4.699,2.236
			c2.55,0.472,2.966,2.44,2.97,5.132c2.533,0,4.924,0,7.316,0C401.125,189.241,401.125,190.553,401.125,191.869z"/>
		<path fill-rule="evenodd" clip-rule="evenodd" fill="#FFFFFF" d="M401.125,177.268c-2.051,0-4.104,0.008-6.157,0.008
			c-4.652,0-5.092-0.358-5.829-4.874c-0.686-0.039-1.404-0.086-2.262-0.132c-0.23,0.927-0.434,1.778-0.667,2.74
			c-4.505,0-8.938,0-13.548,0c0-3.083,0-6.02,0-9.171c4.453,0,8.888,0,13.551,0c0.156,0.785,0.327,1.642,0.534,2.66
			c3.136,0.234,7.039-0.651,7.105,4.84c2.493,0,4.88,0,7.272,0C401.125,174.643,401.125,175.958,401.125,177.268z"/>
		<path fill-rule="evenodd" clip-rule="evenodd" fill="#FFFFFF" d="M388.913,619.096c0,5.063,0,9.932,0,15.16
			c4.082,0,8.146,0,12.212,0c0-5.055,0-10.107,0-15.16C397.133,619.096,393.139,619.096,388.913,619.096z"/>
		<path fill-rule="evenodd" clip-rule="evenodd" fill="#FFFFFF" d="M401.125,619.096c0-1.311,0-2.621,0-3.932
			c-4.298-0.006-8.598,0.063-12.892-0.053c-2.343-0.063-3.245,1.248-3.279,3.199c-0.099,5.602-0.086,11.209-0.009,16.816
			c0.028,2.01,0.979,3.266,3.293,3.201c4.294-0.125,8.595-0.104,12.887-0.145c0-1.313,0-2.619,0-3.928c-4.066,0-8.13,0-12.212,0
			c0-5.229,0-10.098,0-15.16C393.139,619.096,397.133,619.096,401.125,619.096z"/>
		<path fill-rule="evenodd" clip-rule="evenodd" fill="#FFFFFF" d="M401.125,427.092c-3.073,0-6.142,0-9.409,0
			c-0.109,0.9-0.203,1.695-0.313,2.66c-4.707,0-9.347,0-14.214,0c0-2.961,0-5.984,0-9.186c4.622,0,9.254,0,14.114,0
			c-0.066,2.168,1.364,2.297,3.096,2.191c2.238-0.135,4.48-0.111,6.727-0.154C401.125,424.098,401.125,425.598,401.125,427.092z"/>
		<path fill-rule="evenodd" clip-rule="evenodd" fill="#FFFFFF" d="M391.736,596.078c-0.148-1.246-0.246-2.059-0.352-2.906
			c-4.845,0-9.543,0-14.23,0c0,3.17,0,6.115,0,9.117c4.828,0,9.458,0,14.18,0c0.167-0.914,0.308-1.695,0.517-2.844
			c3.154,0,6.219,0,9.274,0c0-1.123,0-2.246,0-3.367C397.994,596.078,394.858,596.078,391.736,596.078z"/>
		<path fill-rule="evenodd" clip-rule="evenodd" fill="#FFFFFF" d="M401.125,268.217c-1.567,0.105-3.131,0.215-4.84,0.334
			c-0.139,0.858-0.272,1.654-0.436,2.638c-4.493,0-8.996,0-13.657,0c0-3.051,0-5.979,0-9.095c4.534,0,8.968,0,13.585,0
			c0.168,0.799,0.352,1.654,0.585,2.75c1.631,0,3.194,0,4.762,0C401.125,265.971,401.125,267.093,401.125,268.217z"/>
		<path fill-rule="evenodd" clip-rule="evenodd" fill="#FFFFFF" d="M312.792,468.713c1.216-0.117,2.485-0.174,3.799-0.182
			c0.001-4.945-0.001-9.893,0-14.838c-1.152-2.379-2.419-4.764-3.792-7.127C312.798,453.949,312.795,461.332,312.792,468.713z"/>
		<path fill-rule="evenodd" clip-rule="evenodd" fill="#FFFFFF" d="M249.569,409.785c0.001-0.824-0.001-1.627-0.011-2.424
			c-0.032-2.602-1.127-3.727-3.713-3.732c-11.583-0.016-23.164-0.016-34.749-0.006c-2.784,0-3.729,0.994-3.764,3.906
			c-0.023,1.824-0.003,3.648-0.003,5.539c-1.221,0.055-1.958,0.121-2.699,0.121c-16.777,0.002-33.556,0.012-50.334,0.014
			c0.37,1.418,0.746,2.83,1.128,4.238c16.997,0,33.993,0,50.99-0.002c3.551,0,4.443-0.9,4.461-4.449
			c0.011-1.637,0.003-3.275,0.003-4.947c11.821,0,23.171,0,34.71,0c0,1.391-0.002,2.525,0,3.641c0.125-0.078,0.238-0.162,0.367-0.24
			C247.156,410.805,248.361,410.26,249.569,409.785z"/>
		<path fill-rule="evenodd" clip-rule="evenodd" fill="#FFFFFF" d="M311.981,413.195c-10.292-0.006-20.585-0.004-30.878-0.006
			c2.226,1.248,4.41,2.674,6.542,4.254c7.222,0,14.443,0,21.666,0c1.081,0,2.161,0,3.499,0c0,1.432,0,2.443,0,3.455
			c-0.003,8.557-0.006,17.111-0.009,25.668c1.372,2.363,2.64,4.748,3.792,7.127c0.002-11.945,0.006-23.893,0-35.84
			C316.592,414.176,315.632,413.197,311.981,413.195z"/>
		<path fill-rule="evenodd" clip-rule="evenodd" fill="#FFFFFF" d="M326.321,469.049c0-1.332,0-2.547,0-3.83
			c5.248,0,10.291-0.018,15.332,0.006c2.414,0.014,3.584-1.158,3.604-3.541c0.017-1.682,0.031-3.367,0.028-5.051
			c-0.016-4.23-0.465-4.666-4.638-4.658c-4.747,0.01-9.483,0.002-14.354,0.002c0-2.09,0-3.82,0-5.836
			c5.19,0,10.22-0.014,15.252,0.006c2.545,0.006,3.729-1.305,3.75-3.771c0.016-1.963,0.043-3.93,0.016-5.895
			c-0.051-3.084-1.174-4.209-4.216-4.223c-4.855-0.012-9.708-0.004-14.767-0.004c0-1.82,0-3.434,0-5.236
			c1.711,0,3.202,0.006,4.688,0c3.795-0.01,4.722-0.945,4.727-4.83c0.003-6.922-0.012-13.846-0.012-20.77
			c-0.004-4.84-0.004-9.682-0.004-14.565c1.132-0.199,2.005-0.348,2.812-0.489c0-4.851,0-9.477,0-14.146c-3.151,0-6.099,0-9.171,0
			c0,4.804,0,9.439,0,14.167c0.944,0.195,1.798,0.372,2.535,0.524c0,12.035,0,23.861,0,35.832c-2.196,0-4.154,0.033-6.115-0.008
			c-2.262-0.047-3.221,1.139-3.233,3.281c-0.007,2.15-0.016,4.299,0,6.453c0.023,3.482,0.625,4.09,4.068,4.094
			c4.929,0.012,9.857,0.004,14.902,0.004c0,1.986,0,3.617,0,5.627c-1.141,0-2.143,0-3.143-0.002c-4.211,0-8.418,0.025-12.63-0.012
			c-2.214-0.025-3.291,0.92-3.214,3.199c0.071,2.055,0.004,4.117,0.012,6.174c0.016,3.516,0.605,4.127,4.014,4.137
			c4.932,0.006,9.87,0.002,14.912,0.002c0,2.09,0,3.885,0,5.91c-5.136,0-10.088,0.004-15.029-0.002
			c-3.252-0.004-3.869,0.607-3.892,3.934c-0.002,0.318,0,0.637,0,0.955c0.145-0.027,0.281-0.043,0.402-0.043
			c-0.121,0-0.257,0.016-0.402,0.043c-0.001,0.754-0.001,1.506,0,2.26C323.796,468.832,325.054,468.936,326.321,469.049z"/>
		<path fill-rule="evenodd" clip-rule="evenodd" fill="#FFFFFF" d="M207.333,451.658c-0.016,4.301-0.003,8.605-0.011,12.91
			c0,6.408,0,6.465-6.316,6.561c-1.77,0.027-2.808,0.648-3.25,1.883c2.038,0.672,4.116,1.252,6.232,1.723
			c0.503,0,0.995,0.006,1.479,0.039c4.333,0.299,5.631-0.83,5.456-5.408c-0.226-5.953-0.055-11.92-0.055-18.016
			c12.917,0,25.588,0,38.42,0c-0.796-1.467-1.608-2.961-2.412-4.471c-11.639-0.002-23.278-0.004-34.921-0.002
			C208.009,446.879,207.341,447.561,207.333,451.658z"/>
		<path fill-rule="evenodd" clip-rule="evenodd" fill="#FFFFFF" d="M249.557,467.684c-0.001-2.389,0.001-4.777-0.002-7.166
			c-0.004-2.965-1.085-4.088-3.969-4.092c-8.233-0.018-16.464-0.006-24.693,0.018c-2.843,0.006-3.994,1.17-4.009,4.078
			c-0.024,5.262-0.015,10.523-0.013,15.785c1.194,0.031,2.393,0.035,3.595,0.006c-0.004-3.943-0.002-7.889-0.005-11.832
			c0-1.18,0-2.359,0-3.492c8.609,0,16.783,0,25.128,0c0,3.287,0,6.541,0,9.785C247.104,469.871,248.451,468.84,249.557,467.684z"/>
		<path fill-rule="evenodd" clip-rule="evenodd" fill="#FFFFFF" d="M372.11,506.174c-0.437-0.016-0.875-0.029-1.311-0.047
			c-0.317,0.676-0.549,1.66-0.877,3.102c-24.041,0-48.09,0-72.376,0c0-1.84,0.002-3.629,0.004-5.402
			c-1.421,0.191-2.824,0.471-4.206,0.854c0.001,1.578,0.003,3.148,0.009,4.713c0.012,3.113,1.073,4.152,4.212,4.154
			c6.449,0.008,12.898-0.002,19.353-0.004c17.391-0.01,34.788-0.059,52.18,0c2.902,0.012,4.201-0.189,4.947-1.605
			c-0.293-1.496-0.642-2.996-1.091-4.494C372.789,506.945,372.496,506.529,372.11,506.174z"/>
		<path fill-rule="evenodd" clip-rule="evenodd" fill="#FFFFFF" d="M297.538,494.33c-0.011-2.93-1.138-4.025-4.047-4.025
			c-13.376-0.008-26.75-0.008-40.13-0.01c-1.181,0-2.366,0-3.797,0c0-1.291,0-2.207,0-3.121c0-6.496-0.002-12.994-0.006-19.49
			c-1.106,1.156-2.453,2.188-3.969,3.09c0,6.389,0,12.719,0,19.041c0.009,3.736,0.5,4.258,4.177,4.262
			c13.286,0.01,26.571,0,39.853-0.004c1.177,0,2.35,0,3.729,0c0,3.707-0.005,7.189-0.002,10.607
			c1.382-0.383,2.784-0.662,4.206-0.854C297.554,500.605,297.556,497.463,297.538,494.33z"/>
		<path fill-rule="evenodd" clip-rule="evenodd" fill="#FFFFFF" d="M372.11,506.174c0.386,0.355,0.679,0.771,0.845,1.27
			c0.45,1.498,0.798,2.998,1.091,4.494c0.382-0.725,0.622-1.764,0.852-3.27c2.288,0,4.585,0,6.943,0
			c0.148,0.939,0.273,1.729,0.406,2.551c4.629,0,9.078,0,13.665,0c0-1.414,0-2.793,0-4.17
			C388.066,506.668,380.049,506.461,372.11,506.174z"/>
		<path fill-rule="evenodd" clip-rule="evenodd" fill="#FFFFFF" d="M283.594,312.56c-1.166,0-2.176,0-3.186,0
			c-8.793,0-17.583-0.011-26.376,0.006c-2.765,0.004-3.884,1.104-3.919,3.823c-0.035,2.809-0.015,5.614-0.015,8.422
			c-0.004,5.125-0.004,5.125,4.881,6.413c0,2.279,0,4.576,0,6.907c-1.009,0.217-1.868,0.401-2.582,0.556c0,4.84,0,9.464,0,14.082
			c3.183,0,6.123,0,9.201,0c0-4.82,0-9.46,0-14.263c-2.231,0.244-2.603-0.977-2.414-2.728c0.107-1.019,0.027-2.057,0.027-3.083
			c-0.009-4.939-0.012-4.939-4.86-5.849c0-3.203,0-6.432,0-9.995c1.187,0,2.192,0,3.194,0c8.419,0,16.838,0.005,25.253-0.004
			c4.335-0.006,5.104-0.774,5.101-5.027c0-2.332,0-4.682,0-7.068c-1.411-0.606-2.85-1.156-4.305-1.67
			C283.594,306.263,283.594,309.29,283.594,312.56z"/>
		<path fill-rule="evenodd" clip-rule="evenodd" fill="#FFFFFF" d="M240.503,312.557c-2.149,0-3.993,0.003-5.838,0
			c-2.535,0-3.739,1.295-3.733,3.797c0.008,2.805-0.006,5.61-0.006,8.416c0.006,5.181,0.006,5.181,4.951,6.456
			c0,2.264,0,4.56,0,6.946c-0.995,0.164-1.867,0.306-2.757,0.45c0,4.819,0,9.461,0,14.215c3.135,0,6.1,0,9.242,0
			c0-4.807,0-9.522,0-14.238c-0.889-0.156-1.595-0.278-2.515-0.44c0-2.527-0.082-4.946,0.028-7.359
			c0.105-2.404-0.656-3.819-3.32-3.63c-0.42,0.031-0.865-0.133-1.282-0.209c0-3.399,0-6.621,0-10.084
			c1.779,0,3.354,0.013,4.928-0.003c3.234-0.031,4.409-1.162,4.436-4.348c0.03-3.342,0.008-6.683,0.008-10.144
			c12.504,0,24.678,0,36.869,0c-2.459-0.781-4.976-1.44-7.56-1.94c-4.472-0.846-9.047-1.691-13.684-2.469c-3.967,0-7.935,0-11.902,0
			c-1.108,0-2.212,0-3.517,0c0-0.746,0-1.479,0-2.217c-1.448-0.167-2.898-0.319-4.349-0.457c0,3.053-0.002,6.106,0,9.159
			C240.503,307.053,240.503,309.648,240.503,312.557z"/>
		<path fill-rule="evenodd" clip-rule="evenodd" fill="#FFFFFF" d="M281.515,302.383c0.693,0,1.386,0,2.079,0
			c0,0.236,0,0.464,0,0.698c1.456,0.514,2.894,1.064,4.305,1.67c0-0.826,0-1.641,0-2.482c19.615,0,38.812,0,58.123,0
			c0,7.459,0,14.617,0,21.127c-1.128,0.983-2.353,1.544-2.379,2.152c-0.167,4.178-0.09,8.364-0.09,12.551c3.463,0,6.563,0,9.617,0
			c0-4.71,0-9.169,0-13.628c-0.89-0.125-1.612-0.228-2.7-0.384c0-1.663,0.013-3.056,0-4.45c-0.042-5.797-0.002-11.598-0.163-17.389
			c-0.09-3.191-1.147-4.169-4.3-4.229c-4.948-0.085-9.905-0.044-14.862-0.044c-23.622-0.003-47.249,0-70.873,0
			c4.636,0.777,9.211,1.623,13.684,2.469C276.539,300.943,279.055,301.602,281.515,302.383z"/>
		<path fill-rule="evenodd" clip-rule="evenodd" fill="#FFFFFF" d="M304.803,425.039c-2.862,0-5.644,0-8.4,0
			c2.838,2.836,5.528,5.91,8.039,9.133c0.121,0,0.241,0,0.362,0C304.803,431.004,304.803,428.057,304.803,425.039z"/>
		<path fill-rule="evenodd" clip-rule="evenodd" fill="#FFFFFF" d="M200.697,427.758c-5.991,0-11.976-0.01-17.962,0.002
			c-3.62,0.006-4.582,0.988-4.59,4.662c-0.011,5.518-0.003,11.037-0.003,16.557c0,0.902,0,1.807,0,2.994
			c-2.332,0-4.284-0.057-6.228,0.018c-1.138,0.045-2.059,0.311-2.651,0.924c1.063,1.418,2.188,2.775,3.373,4.072
			c-0.001-0.426-0.001-0.854-0.001-1.297c2.217,0,4.068,0.023,5.917-0.008c2.348-0.039,3.646-1.178,3.646-3.607
			c0.002-3.461,0.002-6.922,0.002-10.385c0-3.23,0-6.467,0-9.857c19.451,0,38.727,0,57.967,0c-0.423-1.383-0.767-2.744-1.001-4.074
			C226.342,427.758,213.518,427.758,200.697,427.758z"/>
		<path fill-rule="evenodd" clip-rule="evenodd" fill="#FFFFFF" d="M317.483,591.967c0.001,2.799,0.002,5.594,0.003,8.385
			c1.177-1.922,2.598-3.783,4.282-5.566c0-1.406,0.001-2.813,0.001-4.219c-0.587,0.277-1.186,0.563-1.815,0.877
			C319.127,591.641,318.304,591.814,317.483,591.967z"/>
		<path fill-rule="evenodd" clip-rule="evenodd" fill="#FFFFFF" d="M316.65,562.256c-14.206-0.008-28.412-0.014-42.619-0.012
			c-3.715,0.004-4.312,0.611-4.316,4.455c-0.001,1.467-0.001,2.934-0.001,4.4c1.135,1.652,2.352,3.236,3.648,4.74
			c-0.001-3.098-0.002-6.217-0.002-9.381c14.854,0,29.306,0,44.121,0c0,8.635,0,17.1,0.002,25.508
			c0.821-0.152,1.644-0.326,2.472-0.523c0.629-0.314,1.228-0.6,1.815-0.877c0.002-7.678,0.005-15.354,0.007-23.029
			C321.777,563.127,320.956,562.262,316.65,562.256z"/>
		<path fill-rule="evenodd" clip-rule="evenodd" fill="#FFFFFF" d="M377.183,559.443c-0.176,0.953-0.325,1.75-0.516,2.801
			c-6.39,0-12.69-0.008-18.982,0.002c-2.034,2.418-4.202,4.764-6.484,7.027c-0.008,11.063-0.002,22.127-0.017,33.188
			c0,0.982-0.089,1.967-0.133,2.873c-9.921,0-19.498,0-29.285,0c0-1.246,0-2.266,0-3.285c0-2.422,0.001-4.842,0.002-7.264
			c-1.684,1.783-3.105,3.645-4.282,5.566c0.001,1.549,0.001,3.1,0.002,4.646c0,3.654,0.721,4.385,4.426,4.387
			c9.445,0.016,18.893,0.014,28.341,0.01c4.235,0,4.641-0.412,4.649-4.621c0.003-11.689,0.003-23.383,0.011-35.076
			c0-0.998,0-1.998,0-3.154c7.42,0,14.49,0,21.482,0c0.503,0.74,0.96,2.012,1.447,2.029c4.526,0.154,9.058,0.092,13.597,0.092
			c0-3.334,0-6.209,0-9.221C386.615,559.443,381.905,559.443,377.183,559.443z"/>
		<path fill-rule="evenodd" clip-rule="evenodd" fill="#FFFFFF" d="M355.56,562.248c-3.319,0.006-4.357,1.031-4.357,4.293
			c-0.001,0.91-0.001,1.82-0.001,2.732c2.282-2.264,4.45-4.609,6.484-7.027C356.978,562.246,356.268,562.246,355.56,562.248z"/>
		<path fill-rule="evenodd" clip-rule="evenodd" fill="#FFFFFF" d="M182.262,388.793c4.208,0.003,4.966-0.732,4.977-4.837
			c0.004-1.47,0-2.938,0-4.588c27.62,0,54.924,0,82.477,0c0,2.154-0.05,4.008,0.011,5.863c0.075,2.248,0.943,3.669,3.549,3.575
			c3.365-0.121,6.734-0.026,10.104-0.04c3.563-0.012,4.519-0.937,4.522-4.419c0.011-9.264,0-18.526,0-27.788
			c0-2.114,0-4.227,0-6.612c7.483,0,14.621,0,21.837,0c0.226,1.121,0.402,1.987,0.573,2.846c4.602,0,9.051,0,13.566,0
			c0-3.181,0-6.198,0-9.228c-4.686,0-9.151,0-13.578,0c-0.193,0.951-0.358,1.75-0.562,2.744c-7.276,0-14.451-0.012-21.626,0.004
			c-3.353,0.009-4.336,0.992-4.34,4.288c-0.013,7.85-0.003,15.701-0.003,23.553c0,3.344,0,6.686,0,10.144c-3.6,0-6.892,0-10.425,0
			c0-1.31-0.107-2.429,0.021-3.521c0.565-4.724-1.287-6.334-5.959-5.791c-0.451,0.051-0.916-0.001-1.381-0.001
			c-26.373-0.007-52.745-0.008-79.113-0.023c-2.579-0.003-3.733,1.354-3.792,3.794c-0.039,1.84-0.004,3.682-0.004,5.56
			c-11.597,0-23.151,0-34.694,0c0.191,1.488,0.401,2.977,0.633,4.467c8.168,0.001,16.336,0.002,24.504,0.003
			C176.459,388.787,179.361,388.792,182.262,388.793z"/>
		<path fill-rule="evenodd" clip-rule="evenodd" fill="#FFFFFF" d="M201.316,398.4c0.013-1.641,0-3.277,0-4.992
			c18.161,0,35.86,0,53.814,0c0,1.843-0.003,3.416,0.008,4.986c0.015,3.42,1.052,4.463,4.535,4.465
			c12.723,0.014,25.448,0.016,38.168,0.008c3.631-0.004,4.383-0.756,4.388-4.439c0.015-10.2,0.007-20.396,0.007-30.593
			c0-0.992,0-1.983,0-3.007c2.768,0,5.151,0,7.634,0c0.157,0.947,0.286,1.731,0.419,2.525c4.631,0,9.077,0,13.577,0
			c0-3.175,0-6.178,0-9.245c-4.633,0-9.017,0-13.399,0c0.07,0.267,0.145,0.53,0.214,0.793c-1.096,0.473-2.153,1.17-3.299,1.356
			c-1.455,0.242-2.979,0.07-4.476,0.07c-3.549,0.006-4.524,0.935-4.528,4.408c-0.011,10.386,0,20.768,0,31.154
			c0,0.992,0,1.982,0,3.084c-13.188,0-25.971,0-39.17,0c0-2.176-0.091-4.038,0.022-5.887c0.145-2.394-1.046-3.414-3.268-3.522
			c-0.838-0.042-1.685-0.006-2.523-0.006c-8.485,0.001-16.963,0.006-25.441,0.005c-9.074,0-18.148-0.005-27.222-0.008
			c-2.29,0-3.44,1.04-3.319,3.438c0.097,1.932,0.02,3.876,0.02,5.956c-15.555,0-31.063,0-46.557,0
			c0.273,1.307,0.557,2.611,0.851,3.914c14.997,0,29.995,0,44.992-0.002C200.232,402.859,201.29,401.803,201.316,398.4z"/>
		<path fill-rule="evenodd" clip-rule="evenodd" fill="#FFFFFF" d="M304.83,472.938c0-0.637,0-1.26,0-1.885
			c-0.834,0.527-1.584,1.146-2.226,1.885C303.346,472.938,304.087,472.938,304.83,472.938z"/>
		<path fill-rule="evenodd" clip-rule="evenodd" fill="#FFFFFF" d="M192.706,441.266c-0.054,2.242,0.011,4.488,0.011,6.732
			c0.004,4.447,0,8.893,0,13.574c-2.028,0-3.602-0.002-5.175,0c-3.404,0-4.368,0.928-4.391,4.252c0,0.047,0,0.094,0,0.139
			c1.328,0.881,2.692,1.705,4.092,2.477c0-1.02,0-2.072,0-3.225c1.595,0,2.881,0.004,4.168,0c4.941-0.01,5.417-0.484,5.417-5.443
			c0-5.965,0-11.928,0-17.994c15.916,0,31.671,0,47.427,0c-0.731-1.49-1.423-2.982-2.057-4.467c-15.189,0-30.379-0.002-45.569,0.01
			C194.013,437.322,192.769,438.574,192.706,441.266z"/>
		<path fill-rule="evenodd" clip-rule="evenodd" fill="#FFFFFF" d="M226.007,364.634c14.316,0.018,28.628,0.02,42.938,0.013
			c3.292-0.003,4.438-1.211,4.438-4.605c-0.008-8.513-0.019-17.024-0.027-25.536c-0.004-1.18,0-2.358,0-3.725
			c8.435,0,16.468,0.007,24.497-0.003c3.771-0.005,4.363-0.596,4.376-4.369c0.014-4.438,0.009-8.879,0.008-13.483
			c-1.228-0.881-2.477-1.728-3.747-2.537c-0.076,0.507-0.109,1.095-0.111,1.779c-0.008,4.925,0,9.847,0,15.022
			c-7.837,0-15.301,0.003-22.766,0c-5.907-0.005-5.907-0.011-5.907,6.035c0,7.952,0.004,15.904,0.004,23.854
			c0,0.995,0,1.989,0,3.019c-14.913,0-29.435,0-44.077,0c0-21.96,0-43.763,0-65.582c-1.419-0.008-2.835,0.005-4.247,0.043
			c0.002,21.809,0.003,43.616,0.008,65.425C221.398,363.63,222.366,364.628,226.007,364.634z"/>
		<path fill-rule="evenodd" clip-rule="evenodd" fill="#FFFFFF" d="M302.237,311.697c10.127,0,19.895,0,30.015,0
			c0,3.202-0.078,6.261,0.028,9.314c0.07,2.084-0.059,3.808-2.824,3.365c0,4.77,0,9.29,0,13.773c3.163,0,6.105,0,9.151,0
			c0-4.648,0-9.1,0-13.576c-0.974-0.23-1.833-0.437-2.838-0.682c0-4.14-0.013-8.139,0.004-12.139
			c0.011-2.976-1.24-4.258-4.192-4.256c-9.538,0.008-19.072,0.015-28.611,0.025c-2.975,0.001-4.144,0.63-4.479,2.866
			c1.27,0.809,2.519,1.656,3.747,2.537C302.237,312.515,302.237,312.11,302.237,311.697z"/>
		<path fill-rule="evenodd" clip-rule="evenodd" fill="#FFFFFF" d="M278.797,216.45c12.561,0,25,0,37.436,0
			c2.154,0,4.306,0.032,6.459,0.004c2.217-0.035,3.359,1.196,3.384,3.239c0.086,7.292,0.073,14.593,0.024,21.896
			c-0.012,2.347-1.719,2.893-3.663,2.893c-11.136,0.013-22.27,0.079-33.398-0.078c-2.063-0.021-3.456,0.051-3.328,2.616
			c-4.835,0-9.471,0-14.253,0c0-3.072,0-6.032,0-9.215c4.77,0,9.465,0,14.296,0c0.094,0.886,0.179,1.692,0.282,2.667
			c12.107,0,24.122,0,36.323,0c0-6.554,0-13.043,0-19.883c-1.075,0-2.075,0-3.072,0c-13.566-0.012-27.134-0.012-40.701-0.026
			c-3.356,0-4.315-0.971-4.331-4.278c-0.004-1.875,0-3.747-0.004-5.615c-0.009-2.534,1.236-3.747,3.779-3.743
			c8.793,0.011,17.591-0.012,26.383-0.012c8.798-0.004,17.587-0.004,26.384-0.004c4.256,0,4.958,0.753,4.958,5.128
			c-0.021,13.094-0.021,26.192-0.024,39.291c0,1.013,0,2.026,0,3.385c5.662,0,11.063,0.067,16.457-0.09
			c0.599-0.007,1.17-1.251,1.973-2.176c3.997,0,8.373,0,12.982,0c0,3.016,0,5.952,0,9.15c-4.434,0-8.945,0-13.555,0
			c-0.129-0.834-0.254-1.641-0.437-2.789c-5.534,0-11.029,0.005-16.522,0c-3.804-0.007-4.5-0.724-4.5-4.629
			c-0.004-13.098-0.004-26.193-0.004-39.299c0-1.111,0-2.226,0-3.844c-1.232,0-2.305,0-3.374,0c-15.438,0-30.875,0-46.314,0
			C277.854,211.038,277.702,211.244,278.797,216.45z"/>
		<path fill-rule="evenodd" clip-rule="evenodd" fill="#FFFFFF" d="M172.633,369.833c0.007-1.649,0-3.297,0-5.185
			c1.498,0,2.605,0,3.713,0c8.508-0.001,17.022,0.03,25.536-0.024c3.404-0.021,4.511-1.125,4.515-4.266
			c0.007-21.46,0.006-42.921-0.003-64.381c-1.361,0.232-2.715,0.494-4.058,0.789c-0.091,20.208-0.063,40.415-0.07,60.618
			c0,0.9,0,1.803,0,2.795c-1.153,0.095-1.975,0.221-2.798,0.22c-8.976-0.015-17.955-0.063-26.932-0.066
			c-2.722-0.003-3.897,1.182-3.944,3.853c-0.029,1.835-0.004,3.669-0.004,5.512c-7.116,0-14.196,0-21.261,0
			c0.023,1.495,0.078,2.995,0.159,4.499c6.933-0.003,13.866-0.001,20.799-0.008C171.566,374.186,172.619,373.071,172.633,369.833z"
			/>
		<path fill-rule="evenodd" clip-rule="evenodd" fill="#FFFFFF" d="M307.934,576.881c-8.229-0.023-16.458-0.016-24.696,0.01
			c-3.146,0.012-3.956,0.836-3.96,3.936c0,0.291,0,0.58,0,0.871c1.17,0.984,2.384,1.91,3.634,2.781c0-0.115,0-0.23,0-0.344
			c0-1.172,0-2.344,0-3.51c8.566,0,16.65,0,25.012,0c0,1.215,0,2.223,0,3.23c0,2.965,0.001,5.93,0,8.896
			c1.418,0.031,2.854-0.008,4.304-0.113c0.001-3.814-0.003-7.629,0-11.445C312.231,577.75,311.438,576.891,307.934,576.881z"/>
		<path fill-rule="evenodd" clip-rule="evenodd" fill="#FFFFFF" d="M351.063,619.111c0,9.113,0,17.781,0,26.512
			c-0.953,0.25-1.797,0.473-2.468,0.646c0,4.861,0,9.48,0,14.055c3.197,0,6.136,0,9.125,0c0-4.859,0-9.502,0-14.16
			c-0.943-0.16-1.744-0.293-2.629-0.441c-0.067-0.666-0.161-1.207-0.165-1.75c-0.007-8.23,0.016-16.461-0.011-24.695
			c-0.011-3.355-0.811-4.131-4.048-4.133c-11.883-0.008-23.761-0.008-35.641-0.008c-0.729-0.002-1.476,0-2.27,0
			c-0.066,1.32-0.057,2.646,0.028,3.975c11.685,0.004,23.377,0,35.064,0C349.035,619.111,350.014,619.111,351.063,619.111z"/>
		<path fill-rule="evenodd" clip-rule="evenodd" fill="#FFFFFF" d="M149.438,346.329c-0.002,0.638-0.002,1.278-0.002,1.928
			c0.526-2.266,1.161-4.504,1.91-6.712C149.786,342.068,149.444,343.36,149.438,346.329z"/>
		<path fill-rule="evenodd" clip-rule="evenodd" fill="#FFFFFF" d="M153.566,351.294c0.011-1.838,0.004-3.674,0.004-5.76
			c1.399,0,2.418,0,3.427,0c8.607,0.003,17.212,0.014,25.819,0c2.882-0.002,4.375-1.136,4.396-3.488
			c0.055-7.204,0.005-14.406,0.024-21.608c0.003-1.982-1.014-2.872-2.899-3.004c-0.626-0.044-1.251-0.17-1.983-0.272
			c0-2.522,0-4.907,0-7.326c0.948-0.176,1.747-0.326,2.636-0.491c0-2.188,0-4.348,0-6.507c-3.189,1.607-6.279,3.488-9.252,5.673
			c0.248,0.847,0.871,1.416,2.405,1.382c0,1.967-0.006,3.736,0,5.506c0.003,5.148,0.011,5.15,4.804,6.222c0,6.591,0,13.008,0,19.594
			c-1.139,0-2.067,0-2.995,0c-8.513,0-17.029-0.007-25.542,0.003c-1.347,0.002-2.336,0.081-3.063,0.326
			c-0.749,2.208-1.383,4.446-1.91,6.712c0.001,0.754,0.002,1.521,0.002,2.319c-0.168,0-0.331,0-0.498,0
			c-0.299,1.499-0.557,3.007-0.769,4.526c0.53-0.003,1.059-0.002,1.589-0.007C152.204,355.072,153.55,353.807,153.566,351.294z"/>
		<path fill-rule="evenodd" clip-rule="evenodd" fill="#FFFFFF" d="M184.988,295.809c-3.148,0-6.097,0-9.386,0
			c0,3.668,0.049,7.197-0.019,10.722c-0.014,0.723-0.014,1.413,0.152,1.98c2.973-2.185,6.063-4.066,9.252-5.673
			C184.988,300.505,184.988,298.173,184.988,295.809z"/>
		<path fill-rule="evenodd" clip-rule="evenodd" fill="#FFFFFF" d="M157.56,425.115c-3.754,0-7.396,0-11.021,0
			c0,3.168,0,6.113,0,9.158c4.586,0,9.006,0,13.653,0c-0.077-0.277-0.165-0.549-0.237-0.83
			C159.162,430.701,158.357,427.922,157.56,425.115z"/>
		<path fill-rule="evenodd" clip-rule="evenodd" fill="#FFFFFF" d="M172.626,442.162c0.031-3.457,0.031-6.92,0-10.381
			c-0.025-2.828-1.187-3.963-4.117-4.012c-2.415-0.039-4.826-0.006-7.279-0.006c-0.248-1.1-0.443-1.947-0.603-2.648
			c-1.034,0-2.052,0-3.067,0c0.798,2.807,1.602,5.586,2.396,8.328c0.073,0.281,0.161,0.553,0.237,0.83c0.26,0,0.513,0,0.774,0
			c-0.629-2.391,0.765-2.635,2.504-2.537c0.93,0.053,1.871,0.064,2.803-0.004c1.634-0.117,2.425,0.455,2.333,2.221
			c-0.101,2.055-0.065,4.115-0.006,6.172c0.051,1.584-0.631,2.123-2.183,2.082c-1.145-0.031-2.29-0.029-3.435-0.031
			c0.599,1.359,1.25,2.68,1.944,3.965c1.292-0.002,2.583,0.002,3.875-0.002C171.469,446.127,172.602,444.928,172.626,442.162z"/>
		<path fill-rule="evenodd" clip-rule="evenodd" fill="#FFFFFF" d="M163.073,360.973c0.039-1.845,0.008-3.694,0.008-5.871
			c1.29,0,2.289,0,3.296,0c8.325-0.004,16.65,0.002,24.976-0.027c0.897-0.004,1.799-0.235,2.695-0.36
			c-1.209-1.169-2.421-2.338-3.634-3.505c-0.335-0.143-0.671-0.41-1.007-0.41c-9.079-0.03-18.149-0.078-27.226-0.002
			c-2.073,0.017-3.129,1.439-3.187,3.486c-0.053,1.935-0.012,3.872-0.012,5.84c-3.824,0-7.598,0-11.359,0
			c-0.121,1.493-0.206,2.994-0.256,4.501c4.022-0.005,8.044,0.002,12.067-0.006C161.817,364.615,163.026,363.324,163.073,360.973z"
			/>
		<path fill-rule="evenodd" clip-rule="evenodd" fill="#FFFFFF" d="M324.023,670.328c-2.085-0.174-2.82-1.158-1.758-3.229
			c4.503,0,8.984-0.018,13.464,0.002c4.258,0.025,5.164-0.865,5.17-5.221c0.001-0.83-0.001-1.662,0-2.492
			c-1.524-0.791-3.023-1.629-4.491-2.527c0,1.896,0,3.797,0,5.682c-0.329,0.145-0.489,0.279-0.655,0.279
			c-3.831,0.033-7.664,0.066-11.493,0.068c-6.435,0.01-6.429,0-6.867,6.387c-0.015,0.166-0.16,0.322-0.332,0.65
			c-0.682,0.1-1.47,0.209-2.292,0.324"/>
		<path fill-rule="evenodd" clip-rule="evenodd" fill="#FFFFFF" d="M336.499,639.186c-0.156-0.016-0.3-0.182-0.535-0.332
			c0-0.742,0-1.531,0-2.303c0.971-0.219,1.771-0.4,2.59-0.584c0-4.73,0-9.352,0-14.092c-3.127,0-6.067,0-9.165,0
			c0,4.789,0,9.414,0,14.131c0.938,0.203,1.796,0.393,2.593,0.566c0.38,5.641,0.38,5.641,4.428,6.797c0,4.512,0,9.01,0,13.492
			c1.467,0.898,2.966,1.736,4.491,2.527c0.005-5.152,0.004-10.301,0-15.455C340.897,640.031,340.469,639.576,336.499,639.186z"/>
		<path fill-rule="evenodd" clip-rule="evenodd" fill="#FFFFFF" d="M252.357,578.643c0.831-0.129,1.635-0.25,2.601-0.4
			c0-3.842,0-7.629,0-11.854c-1.848,0-3.672,0-5.505,0c-6.079,0-12.153-0.006-18.228,0.006c-1.252,0.004-2.721-0.391-2.955,1.627
			c-0.028,0.273-0.854,0.646-1.315,0.654c-4.188,0.051-8.38,0.029-12.768,0.029c0-3.174,0-6.105,0-9.236c4.615,0,9.161,0,13.919,0
			c0.21,0.766,0.452,1.613,0.776,2.779c5.143,0,10.348-0.004,15.56,0c3.553,0,7.102-0.018,10.657,0.008
			c3.014,0.021,4.043,1.012,4.084,3.975c0.042,3.271-0.009,6.545,0.035,9.814c0.015,0.709,0.187,1.986,0.44,2.027
			c3.104,0.504,1.96,2.881,2.051,4.59c0.124,2.609-0.02,5.232,0.04,7.852c0.031,1.598-0.485,2.451-2.24,2.391
			c-2.316-0.078-4.633-0.02-7.152-0.02C252.357,588.084,252.357,583.541,252.357,578.643z"/>
		<path fill-rule="evenodd" clip-rule="evenodd" fill="#FFFFFF" d="M329.406,573.713c0.942,0.178,1.738,0.322,2.722,0.502
			c0,2.705-0.072,5.354-0.041,7.982c1.21-1.334,2.423-2.676,3.637-4.025c0.011-1.301,0.022-2.604,0.022-3.916
			c1.061-0.221,1.935-0.4,2.847-0.588c0-4.781,0-9.41,0-14.154c-3.164,0-6.173,0-9.187,0
			C329.406,564.389,329.406,569.027,329.406,573.713z"/>
		<path fill-rule="evenodd" clip-rule="evenodd" fill="#FFFFFF" d="M332.178,585.23c0.117,2.166-0.468,3.352-2.734,3.223
			c0,4.756,0,9.283,0,13.77c3.164,0,6.106,0,9.156,0c0-4.664,0-9.113,0-12.844c-1.251-1.209-2.7-1.947-2.75-2.768
			c-0.085-1.459-0.121-2.92-0.134-4.387c-1.174,0.83-2.361,1.635-3.557,2.424C332.168,584.842,332.167,585.037,332.178,585.23z"/>
		<path fill-rule="evenodd" clip-rule="evenodd" fill="#FFFFFF" d="M335.723,578.172c-1.213,1.35-2.426,2.691-3.637,4.025
			c0.01,0.818,0.039,1.635,0.074,2.451c1.196-0.789,2.383-1.594,3.557-2.424C335.705,580.877,335.712,579.527,335.723,578.172z"/>
		<path fill-rule="evenodd" clip-rule="evenodd" fill="#FFFFFF" d="M198.945,295.781c-3.095,0-5.966,0-9.024,0
			c0,1.617,0,3.213,0,4.813c2.941-1.2,5.954-2.194,9.024-3.007C198.945,296.982,198.945,296.388,198.945,295.781z"/>
		<path fill-rule="evenodd" clip-rule="evenodd" fill="#FFFFFF" d="M192.583,309.955c0.047,0.896,0.12,1.637,0.12,2.377
			c0,11.883-0.073,23.767,0.055,35.647c0.019,1.959-0.621,2.833-2.343,3.231c1.213,1.167,2.425,2.335,3.634,3.505
			c2.457-0.258,2.807-1.922,2.803-3.977c-0.035-12.82-0.05-25.635,0.043-38.454c0.013-1.116,0.883-2.22,1.354-3.329
			c0.229,0.076,0.464,0.153,0.698,0.231c0-3.844,0-7.697,0-11.599c-3.07,0.813-6.083,1.807-9.024,3.007c0,2.901,0,5.796,0,8.725
			C190.819,309.537,191.672,309.739,192.583,309.955z"/>
		<path fill-rule="evenodd" clip-rule="evenodd" fill="#FFFFFF" d="M300.685,161.021c3.164,0,6.096,0,9.207,0
			c0,4.65,0,9.157,0,13.903c-3.042,0-6.035,0-9.207,0C300.685,170.331,300.685,165.818,300.685,161.021z"/>
	</g>
</g>
<g>
	<linearGradient id="SVGID_8_" gradientUnits="userSpaceOnUse" x1="66.5908" y1="400.2256" x2="734.8154" y2="400.2256">
		<stop  offset="0" style="stop-color:#EE3968"/>
		<stop  offset="1" style="stop-color:#D02241"/>
	</linearGradient>
	
		<path fill-rule="evenodd" clip-rule="evenodd" fill="#FFFFFF" stroke="url(#SVGID_8_)" stroke-width="20" stroke-miterlimit="10" d="
		M708.458,188.31c-45.484-12.581-87.923-31.852-129.58-52.749c-59.446-29.819-116.192-63.805-171.373-100.11
		c-5.599-3.683-9.199-3.532-14.599,0.087c-15.571,10.443-31.489,20.446-47.49,30.302c-60.682,37.377-122.755,72.528-189.376,99.812
		c-25.41,10.409-51.792,18.697-78.807,28.336c0.054,0.613,0.14,2.376,0.366,4.123c4.616,35.524,10.134,70.971,13.656,106.59
		c4.668,47.252,13.03,93.799,24.401,140.002c20.604,83.734,63.453,155.279,131.61,212.529
		c47.097,39.555,96.619,76.371,149.318,109.25c3.886,2.424,5.808,0.754,8.604-0.977c48.49-29.977,93.642-64.066,137.614-99.557
		c49.664-40.088,89.645-87.352,115.091-144.426c30.536-68.486,43.47-140.877,51.14-214.33c3.14-30.094,7.12-60.109,10.832-90.146
		c1.024-8.3,2.455-16.555,3.712-24.919C717.996,190.723,713.195,189.62,708.458,188.31z M683.001,246.855
		c-3.282,27.398-6.146,54.842-9.527,82.231c-8.722,70.641-21.339,140.461-57.279,204.199
		c-23.65,41.941-56.197,77.252-94.978,107.678c-37.229,29.215-74.946,57.764-115.325,83.063c-3.111,1.953-5.45,3.826-9.834,1.082
		c-47.102-29.521-91.459-62.449-133.421-98.025c-58.488-49.582-95.874-111.324-114.261-183.449
		c-10.983-43.086-18.727-86.571-23.049-130.714c-3.075-31.414-8.054-62.661-12.168-93.987c-0.142-1.08-0.114-2.184-0.178-3.566
		c53.861-13.196,102.834-35.67,149.812-61.67c44.728-24.754,88.015-51.824,131.767-78.125c4.508-2.709,7.367-2.622,11.66,0.178
		c63.894,41.671,129.542,80.583,200.188,111.496c26.08,11.413,52.693,21.53,81.201,27.945
		C686.041,225.855,684.263,236.327,683.001,246.855z"/>
</g>
</svg>
