<?xml version="1.0" encoding="utf-8"?>
<!-- Generator: Adobe Illustrator 16.0.0, SVG Export Plug-In . SVG Version: 6.00 Build 0)  -->
<!DOCTYPE svg PUBLIC "-//W3C//DTD SVG 1.1//EN" "http://www.w3.org/Graphics/SVG/1.1/DTD/svg11.dtd">
<svg version="1.1" id="Layer_1" xmlns="http://www.w3.org/2000/svg" xmlns:xlink="http://www.w3.org/1999/xlink" x="0px" y="0px"
	 width="800px" height="800px" viewBox="0 0 800 800" enable-background="new 0 0 800 800" xml:space="preserve">
<g>
	<path fill-rule="evenodd" clip-rule="evenodd" fill="none" d="M401.45,801.9c-131.984,0-263.967-0.019-395.951,0.094
		c-3.749,0.004-4.594-0.845-4.593-4.594c0.103-263.967,0.103-527.934,0-791.901C0.905,1.751,1.751,0.905,5.5,0.907
		c263.967,0.103,527.934,0.103,791.901,0c3.749-0.001,4.595,0.844,4.594,4.593c-0.104,263.967-0.103,527.934,0,791.901
		c0.001,3.749-0.845,4.598-4.594,4.594C665.417,801.882,533.434,801.9,401.45,801.9z M402.12,25.997
		c-5.236-0.285-9.572,2.15-13.768,4.96c-22.829,15.293-46.236,29.67-69.776,43.827c-53.094,31.931-107.403,61.521-164.867,84.973
		c-26.18,10.685-53.122,19.259-79.808,28.533c-3.875,1.346-5.188,3.228-4.527,7.234c1,6.066,1.528,12.208,2.335,18.308
		c2.837,21.425,5.86,42.827,8.525,64.273c2.89,23.265,5.052,46.627,8.265,69.845c4.534,32.758,11.077,65.158,18.725,97.34
		c19.344,81.389,58.175,151.688,120.303,208.105c50.539,45.893,105.688,85.86,163.275,122.489
		c7.841,4.987,14.738,4.943,22.652-0.011c51.915-32.499,100.85-69.075,147.787-108.307c40.927-34.207,75.025-74.251,99.212-122.09
		c33.199-65.66,48.344-136.374,57.304-208.725c2.721-21.963,4.978-43.984,7.603-65.96c3.138-26.269,6.13-52.563,10.545-78.657
		c0.677-3.998-0.798-5.126-4.227-5.895c-17.217-3.86-34.118-8.825-50.74-14.756c-52.523-18.743-101.912-44.144-150.589-71.023
		c-38.931-21.497-76.707-44.912-113.868-69.324C412.112,28.269,407.659,25.735,402.12,25.997z"/>
	<path fill-rule="evenodd" clip-rule="evenodd" fill="#FFFFFF" d="M402.12,25.997c5.539-0.261,9.992,2.272,14.36,5.141
		c37.161,24.412,74.938,47.828,113.868,69.324c48.677,26.879,98.065,52.28,150.589,71.023c16.622,5.932,33.523,10.896,50.74,14.756
		c3.429,0.769,4.903,1.897,4.227,5.895c-4.415,26.094-7.407,52.388-10.545,78.657c-2.625,21.976-4.882,43.997-7.603,65.96
		c-8.96,72.351-24.104,143.065-57.304,208.725c-24.187,47.839-58.285,87.883-99.212,122.09
		c-46.938,39.231-95.872,75.808-147.787,108.307c-7.914,4.954-14.811,4.998-22.652,0.011
		c-57.587-36.629-112.736-76.597-163.275-122.489c-62.128-56.417-100.959-126.717-120.303-208.105
		c-7.648-32.183-14.191-64.583-18.725-97.34c-3.213-23.218-5.375-46.58-8.265-69.845c-2.665-21.447-5.688-42.848-8.525-64.273
		c-0.808-6.1-1.335-12.242-2.335-18.308c-0.661-4.007,0.652-5.888,4.527-7.234c26.687-9.274,53.628-17.849,79.808-28.533
		c57.463-23.453,111.772-53.042,164.867-84.973c23.541-14.157,46.947-28.534,69.776-43.827
		C392.548,28.146,396.884,25.712,402.12,25.997z M713.769,205.956c1.401-3.739-1.12-4.273-3.417-4.882
		c-44.423-11.777-86.143-30.358-127.153-50.671c-61.074-30.25-119.576-64.955-176.437-102.464c-3.25-2.145-5.503-2.32-8.859-0.1
		c-13.741,9.088-27.628,17.965-41.62,26.664c-83.12,51.678-168.754,98.189-262.804,127.299c-3.623,1.121-3.784,3.161-3.319,6.389
		c2.653,18.419,5.284,36.846,7.558,55.315c2.925,23.757,5.195,47.597,8.307,71.327c4.82,36.753,11.918,73.094,20.697,109.118
		c19.619,80.505,59.76,148.688,122.491,203.044c46.503,40.296,95.922,76.759,147.822,109.854c3.813,2.432,6.374,2.421,10.188,0.005
		c49.183-31.154,95.653-66.015,140.324-103.249c41.657-34.723,75.965-75.569,99.405-124.843
		c30.015-63.092,43.817-130.484,52.05-199.292c2.668-22.295,5.096-44.62,7.753-66.916
		C709.018,243.564,711.452,224.596,713.769,205.956z"/>
	<path fill-rule="evenodd" clip-rule="evenodd" fill="none" d="M713.769,205.956c-2.316,18.64-4.751,37.608-7.014,56.598
		c-2.657,22.296-5.085,44.621-7.753,66.916c-8.232,68.808-22.035,136.2-52.05,199.292c-23.44,49.273-57.748,90.12-99.405,124.843
		c-44.671,37.234-91.142,72.095-140.324,103.249c-3.814,2.416-6.375,2.427-10.188-0.005
		c-51.9-33.095-101.319-69.558-147.822-109.854c-62.73-54.356-102.872-122.539-122.491-203.044
		c-8.779-36.023-15.877-72.364-20.697-109.118c-3.112-23.73-5.382-47.57-8.307-71.327c-2.273-18.469-4.905-36.896-7.558-55.315
		c-0.465-3.228-0.304-5.268,3.319-6.389c94.05-29.109,179.685-75.621,262.804-127.299c13.992-8.699,27.878-17.576,41.62-26.664
		c3.356-2.221,5.609-2.045,8.859,0.1c56.86,37.51,115.362,72.214,176.437,102.464c41.011,20.313,82.73,38.894,127.153,50.671
		C712.648,201.683,715.17,202.217,713.769,205.956z M402.662,66.861c-5.27-0.238-9.472,2.111-13.639,4.63
		c-42.587,25.744-84.84,52.053-128.376,76.199c-46.682,25.891-94.907,48.035-147.01,60.828c-9.208,2.26-9.189,2.338-8.303,11.894
		c0.031,0.331,0.083,0.661,0.131,0.99c5.94,40.792,10.825,81.717,15.657,122.652c4.644,39.333,12.392,78.108,23.173,116.205
		c17.996,63.588,50.625,118.59,99.31,163.429c45.445,41.856,95.34,77.982,147.378,111.203c7.879,5.03,14.903,4.684,22.694-0.25
		c42.844-27.126,83.376-57.44,122.804-89.225c44.875-36.176,80.489-79.76,104.403-132.597
		c26.695-58.979,37.21-121.804,44.872-185.348c2.31-19.156,4.658-38.311,6.642-57.501c1.933-18.707,4.795-37.277,7.582-55.86
		c0.468-3.123-0.464-4.056-3.25-4.613c-9.292-1.86-18.46-4.24-27.521-7.025c-42.626-13.098-82.616-32.322-122.051-52.773
		c-45.401-23.545-88.961-50.23-131.785-78.14C411.412,68.977,407.396,66.706,402.662,66.861z"/>
	<path fill-rule="evenodd" clip-rule="evenodd" fill="#FFFFFF" d="M402.662,66.861c4.733-0.155,8.75,2.116,12.713,4.698
		c42.824,27.909,86.384,54.594,131.785,78.14c39.435,20.451,79.425,39.675,122.051,52.773c9.061,2.785,18.229,5.165,27.521,7.025
		c2.786,0.557,3.718,1.491,3.25,4.613c-2.787,18.583-5.649,37.153-7.582,55.86c-1.983,19.191-4.332,38.345-6.642,57.501
		c-7.662,63.544-18.177,126.369-44.872,185.348c-23.914,52.837-59.528,96.421-104.403,132.597
		c-39.428,31.784-79.96,62.099-122.804,89.225c-7.791,4.934-14.814,5.28-22.694,0.25c-52.039-33.221-101.934-69.347-147.378-111.203
		c-48.685-44.839-81.314-99.841-99.31-163.429c-10.782-38.097-18.53-76.872-23.173-116.205
		c-4.833-40.935-9.717-81.86-15.657-122.652c-0.048-0.33-0.1-0.659-0.131-0.99c-0.887-9.556-0.906-9.634,8.303-11.894
		c52.103-12.792,100.328-34.937,147.01-60.828c43.536-24.146,85.789-50.455,128.376-76.199
		C393.19,68.972,397.392,66.623,402.662,66.861z M125.706,227.749c0.093,1.19,0.106,1.86,0.201,2.518
		c4.61,31.749,8.766,63.546,12.124,95.464c3.775,35.886,10.604,71.276,18.675,106.459c16.482,71.841,50.493,133.553,105.765,182.71
		c42.516,37.813,88.336,71.356,136.296,101.981c3.085,1.969,5.05,0.966,7.587-0.645c39.416-25.045,76.584-53.189,113.162-82.132
		c40.741-32.238,74.33-70.454,97.761-117.201c26.151-52.173,37.992-108.264,45.743-165.482c2.813-20.764,5.218-41.585,7.661-62.398
		c2.328-19.822,4.133-39.707,7.328-59.421c0.45-2.781,0.068-4.483-3.264-5.364c-40.08-10.604-77.548-27.791-114.56-46.029
		c-52.925-26.081-103.369-56.475-152.711-88.729c-3.962-2.59-6.724-2.522-10.607-0.122c-18.972,11.729-38.077,23.246-57.206,34.72
		c-40.818,24.484-81.726,48.813-125.047,68.746c-27.219,12.524-55.097,23.265-84.043,31.144
		C128.482,224.538,125.053,224.287,125.706,227.749z"/>
	<path fill-rule="evenodd" clip-rule="evenodd" fill="none" d="M125.706,227.749c-0.653-3.462,2.776-3.211,4.866-3.78
		c28.946-7.879,56.824-18.62,84.043-31.144c43.321-19.933,84.229-44.262,125.047-68.746c19.129-11.474,38.234-22.991,57.206-34.72
		c3.884-2.4,6.646-2.469,10.607,0.122c49.342,32.254,99.786,62.648,152.711,88.729c37.012,18.239,74.479,35.425,114.56,46.029
		c3.332,0.881,3.714,2.583,3.264,5.364c-3.195,19.714-5,39.599-7.328,59.421c-2.443,20.813-4.849,41.634-7.661,62.398
		c-7.751,57.218-19.592,113.309-45.743,165.482c-23.431,46.747-57.02,84.963-97.761,117.201
		c-36.578,28.942-73.746,57.087-113.162,82.132c-2.537,1.61-4.502,2.613-7.587,0.645c-47.959-30.625-93.78-64.169-136.296-101.981
		c-55.272-49.157-89.283-110.869-105.765-182.71c-8.072-35.183-14.9-70.573-18.675-106.459
		c-3.357-31.918-7.513-63.715-12.124-95.464C125.812,229.609,125.799,228.939,125.706,227.749z M333.615,218.532
		c-4.729,6.788-4.989,13.806-4.741,20.98c0.125,3.607,0.697,7.574-4.302,8.81c-1.127,0.279-1.21,1.432-1.301,2.465
		c-0.317,3.639-0.561,7.289-1.049,10.906c-0.525,3.9,0.865,5.197,4.895,5.143c14.326-0.19,28.656-0.038,42.985,0.025
		c6.374,0.028,7.039,0.755,7.072,7.264c0.004,0.833,0.097,1.68-0.015,2.497c-0.441,3.234,0.851,4.409,4.155,4.309
		c6.325-0.192,12.661,0,18.992-0.012c1.944-0.003,3.205,0.518,3.165,2.797c-0.037,2.075-1.241,2.436-2.944,2.433
		c-8.164-0.013-16.329,0.032-24.492,0.005c-2.861-0.01-4.221-1.64-4.286-4.416c-0.043-1.832-0.207-3.687,0.006-5.493
		c0.434-3.662-1.348-4.555-4.639-4.518c-13.494,0.152-26.992,0.237-40.486,0.141c-3.6-0.026-4.867,1.356-4.292,4.747
		c0.222,1.312,0.757,2.636,0.668,3.921c-0.315,4.595,2.052,5.382,6.094,5.298c10.658-0.221,21.325,0.007,31.988-0.016
		c3.957-0.008,6.619,1.25,6.075,5.772c-0.402,3.347,0.989,4.253,4.205,4.2c9.661-0.159,19.326-0.023,28.99-0.011
		c1.588,0.002,3.016,0.078,3.099,2.251c0.078,2.072-1.102,2.557-2.815,2.56c-0.5,0.001-1,0.04-1.499,0.034
		c-10.656-0.122-21.312-0.352-31.967-0.313c-3.483,0.012-5.047-1.543-4.894-4.721c0.19-3.951-1.78-4.629-5.21-4.548
		c-8.826,0.209-17.662,0.227-26.49,0.089c-6.69-0.104-5.521,0.938-4.097,6.445c0.535,2.069,2.222,2.177,3.969,2.173
		c3.999-0.01,7.999-0.044,11.996,0.055c10.357,0.255,10.639,0.578,10.657,10.776c0.006,3.832,0.034,7.664,0.125,11.494
		c0.031,1.304-0.198,3.055,0.522,3.828c3.777,4.056,1.53,8.813,1.82,13.236c0.135,2.051-1.677,2.319-3.214,2.084
		c-2.458-0.375-6.246,1.615-7.109-1.483c-1.073-3.852-1.782-8.563,0.521-12.121c1.74-2.688,1.845-5.171,1.85-7.944
		c0.023-14.884,0.014-14.901-14.672-13.743c-1.095,0.086-2.996-0.705-2.827,1.626c0.122,1.693,1.306,2.157,2.821,2.097
		c2.317-0.091,4.666,0.293,5.083,2.937c0.938,5.964-0.429,12.087,2.909,17.983c1.37,2.42,1.058,6.342,2.361,9.435
		c2.713,6.432,5.407,12.875,7.916,19.387c4.896,12.711,9.691,25.461,14.448,38.225c0.779,2.09,1.67,3.558,4.237,3.141
		c2.643-0.429,1.54-2.477,1.804-3.928c0.088-0.484,0.014-0.998,0.016-1.498c0.036-8.481,0.133-8.578,8.749-8.607
		c0.667-0.002,1.341-0.072,1.998,0.008c2.905,0.356,3.835-1.1,3.757-3.785c-0.365-12.574,1.266-10.958,11.973-11.055
		c0.333-0.003,0.671,0.039,0.999-0.001c3.188-0.384,4.542,0.931,4.437,4.219c-0.159,4.993,0.074,9.998-0.045,14.993
		c-0.287,12.061,2.416,10.259-11.051,10.562c-4.098,0.092-6.42-1.4-6.212-5.681c0.229-4.692-3.087-3.531-5.767-3.803
		c-3.759-0.381-3.438,2.042-3.386,4.43c0.032,1.499,0.007,2.999-0.008,4.499c-0.029,2.92-1.357,4.66-4.379,5.062
		c-1.394,0.186-3.825-0.843-3.412,2.105c0.331,2.364,2.206,2.465,4.171,2.455c8.331-0.04,16.663-0.067,24.991,0.075
		c1.842,0.032,4.812-1.273,4.881,2.389c0.075,3.958-3.089,2.708-5.113,2.747c-7.495,0.146-14.996,0.173-22.491,0.062
		c-2.944-0.043-3.86,0.681-2.761,3.697c1.418,3.892,2.458,7.924,3.59,11.916c0.54,1.9,1.242,2.992,3.648,3.124
		c10.873,0.595,10.867,0.705,10.867,11.765c0,0.334-0.009,0.667,0.001,1c0.114,3.478-0.886,7.62,0.672,10.241
		c1.47,2.471,5.853,0.667,8.941,0.896c1.841,0.134,2.778,0.675,2.732,2.629c-0.042,1.753-0.569,2.873-2.569,2.841
		c-2.499-0.04-4.999,0.035-7.497,0.016c-6.361-0.047-7.03-0.682-7.179-7.229c-0.105-4.664-0.056-9.33-0.091-13.995
		c-0.026-3.514-2.649-2.676-4.675-2.715c-3.215-0.062-1.742,1.989-1.41,3.392c1.188,5.01,2.41,10.011,3.685,14.999
		c1.638,6.407,4.71,8.961,11.25,9.068c8.33,0.137,16.664-0.042,24.989,0.189c3.15,0.088,4.24-1.042,4.908-4.059
		c2.974-13.459,5.507-27.04,10.158-40.078c13.177-36.929,26.333-73.864,39.513-110.792c4.207-11.785,7.372-23.783,8.271-36.336
		c1.536-21.407-4.157-41.075-13.525-60.071c-16.103-32.649-38.092-61.285-60.382-89.741c-1.697-2.167-3.46-4.281-5.928-7.33
		c0.208,3.569,0.224,5.884,0.505,8.166c0.405,3.29-0.435,5.062-4.224,4.689c-2.804-0.275-5.661-0.09-8.491,0.008
		c-2.236,0.078-3.454,2.061-3.535,3.597c-0.119,2.238,2.23,1.226,3.485,1.312c2.82,0.194,5.664,0.018,8.493,0.13
		c1.857,0.074,4.321-0.578,4.205,2.692c-0.108,3.054-2.561,2.431-4.05,2.125c-14.024-2.881-22.997,3.468-29.016,15.489
		c-0.441,0.882-1.096,1.673-1.731,2.44c-1.122,1.354-1.49,2.871-1.486,4.621c0.038,16.662,0.066,33.323-0.014,49.984
		c-0.015,3.048,1.182,4.114,4.168,4.049c6.329-0.139,12.662-0.048,18.993-0.023c1.818,0.007,4.212-0.325,4.854,1.68
		c1.065,3.325,3.27,3.656,6.092,3.439c1.088-0.083,1.97,0.373,2.09,1.622c0.095,0.983,0.26,2.42-0.927,2.484
		c-3.41,0.184-7.735,1.868-9.987-0.931c-2.499-3.105-5.143-2.955-8.213-2.954c-4.999,0.003-9.997,0.058-14.995,0.018
		c-6.023-0.049-7.03-0.979-7.061-6.957c-0.066-12.829-0.024-25.659-0.027-38.489c0-2.39,0-4.781,0-8.341
		c-3.262,3.466-4.979,5.925-4.946,9.62c0.141,15.994,0.154,31.991-0.007,47.984c-0.039,3.847,1.146,5.438,5.114,5.323
		c6.492-0.189,12.998-0.134,19.491,0.064c3.595,0.11,7.956-1.313,9.721,3.86c0.159,0.464,1.78,0.555,2.731,0.6
		c1.996,0.094,3.999,0.087,5.997,0.036c1.892-0.049,3.278,0.302,3.227,2.663c-0.052,2.385-1.581,2.585-3.388,2.575
		c-3.166-0.018-6.332,0.011-9.497-0.006c-1.569-0.008-3.292-0.305-3.65-1.989c-0.696-3.268-3.024-2.971-5.377-2.962
		c-7.831,0.029-15.662-0.013-23.492,0.061c-3.7,0.035-5.656-1.457-5.44-5.354c0.101-1.828,0.008-3.665,0.008-5.498
		c-0.001-13.923,0-27.847,0-42.921c-2.95,3.811-4.638,6.638-4.592,10.606c0.177,15.493,0.278,30.994-0.048,46.482
		c-0.103,4.888,1.735,5.873,6.055,5.768c8.657-0.212,17.327-0.043,25.989,0.078c2.096,0.03,5.026-0.387,5.743,1.982
		c1.152,3.807,3.732,3.532,6.588,3.459c2.664-0.068,5.332-0.002,7.997,0.001c1.547,0.002,3.052-0.059,3.079,2.2
		c0.026,2.218-1.385,2.298-2.986,2.296c-4.999-0.006-9.998,0.044-14.995-0.023c-0.941-0.013-2.493-0.212-2.717-0.756
		c-2.099-5.104-6.485-3.621-10.246-3.669c-6.83-0.086-13.662,0.046-20.493,0.044c-8.374-0.003-9.224-0.84-9.232-9.052
		c-0.013-13.933-0.003-27.866-0.003-43.195c-2.411,3.935-5.032,6.521-4.833,9.827c0.76,12.654,0.135,25.304,0.322,37.952
		c0.127,8.557,0.031,8.29,8.529,8.497c6.63,0.161,12.707-3.469,19.466-2.26c2.125,0.38,3.616,0.726,3.393,3.12
		c-0.23,2.473,1.449,6.155-1.797,7.018c-3.756,1-8.673,1.816-11.673-0.304c-3.153-2.229-5.989-2.018-9.136-2.152
		c-2.328-0.1-4.675-0.158-6.995,0.019c-4.656,0.356-6.611-1.453-6.518-6.33C333.771,243.697,333.615,231.434,333.615,218.532z
		 M564.233,466.1c26.035,6.703,52.428-4.175,67.615-27.795c12.255-19.059,15.395-40.137,12.469-62.221
		c-2.094-15.802-7.753-30.306-18.482-42.364c-22.603-25.4-67.243-34.579-99.471-19.973c-22.144,10.035-37.824,27.371-50.228,47.84
		c-19.138,31.584-27.865,66.987-37.26,102.143c-0.505,1.888-0.397,2.853,1.77,2.967c7.141,0.379,14.269,1.472,21.426,0.834
		c5.053-0.45,9.977-1.336,11.642-7.429c4.526-16.568,15.411-28.903,27.478-40.297c13.814-13.044,29.855-20.826,49.417-20.145
		c14.547,0.506,27.254,12.465,28.596,26.996c0.882,9.536-3.091,17.496-7.28,25.466C569.47,456.789,566.846,461.366,564.233,466.1z
		 M385.852,668.71c0.299-4.08,0.507-6.878,0.708-9.677c0.155-2.166,1.222-3.37,3.482-3.363c3.664,0.01,7.329,0.026,10.992,0
		c1.613-0.012,2.48,0.585,2.461,2.329c-0.02,1.633-0.704,2.485-2.362,2.513c-1.998,0.034-4.002,0.202-5.992,0.096
		c-3.001-0.16-3.998,1.063-4.014,4.101c-0.019,3.686,1.323,6.68,2.617,10.031c2.543,6.59,8.734,8.664,13.885,3.615
		c9.281-9.093,18.563-18.22,25.814-29.088c3.535-5.299,8.043-8.333,14.377-9.669c13.823-2.915,24.97-9.884,31.262-23.161
		c3.061-6.461,2.196-9.506-4.176-12.411c-20.931-9.543-34.315-25.824-42.022-47.044c-4.306-11.856-8.006-23.931-12.031-35.89
		c-0.533-1.586-0.358-3.874-2.979-3.895c-9.156-0.071-18.328-0.308-27.399,1.233c-1.089,0.185-2.709,0.445-3.219,2.813
		c3.427,0,6.711-0.271,9.923,0.092c2.212,0.252,6.188-1.874,6.154,2.568c-0.032,4.219-3.819,1.895-5.864,2.185
		c-2.94,0.417-6.044,0.503-8.966,0.032c-5.189-0.836-7.055,1.81-8.105,6.249c-0.676,2.858,0.242,3.451,2.878,3.387
		c5.493-0.136,10.992-0.042,16.489,0c1.605,0.013,3.539-0.37,3.642,2.193c0.11,2.728-1.934,2.2-3.487,2.218
		c-5.163,0.058-10.383,0.513-15.475-0.088c-5.424-0.64-7.313,1.872-8.312,6.521c-0.536,2.494-0.064,3.188,2.481,3.146
		c7.161-0.116,14.324-0.006,21.486-0.002c1.845,0.001,3.318,0.35,3.374,2.656c0.06,2.411-1.484,2.586-3.306,2.583
		c-6.329-0.009-12.659,0.027-18.988,0.042c-9.095,0.021-9.095,0.02-11.352,9.38c2.491,0,6.092,1.037,7.198-0.184
		c4.241-4.685,9.347-1.736,13.95-2.51c2.485-0.418,3.316,1.261,2.981,3.375c-0.373,2.357,1.684,6.203-2.215,6.633
		c-4.312,0.476-8.853,1.299-13.175-0.865c-4.048-2.027-11.864-0.825-13.782,1.539c-5.761,7.099-9.076,14.843-7.584,24.245
		c0.438,2.762,0.069,5.652,0.067,8.484c-0.005,7.608-0.006,7.616-7.877,7.678c-5.996,0.047-11.993,0.044-17.988,0.131
		c-1.061,0.016-2.588-0.236-2.511,1.572c0.053,1.253,0.688,2.234,2.127,2.322c1.162,0.072,2.327,0.128,3.491,0.138
		c5.663,0.049,11.326,0.104,16.989,0.108c3.982,0.003,6.179,1.372,5.848,5.926c-0.35,4.806-0.099,9.655-0.06,14.486
		c0.01,1.266-0.443,2.897,1.225,3.447c2.945,0.971,5.134,3.277,8.196,4.842c0-2.346,0-4.174,0-6.001
		c0-18.321,0.056-36.645-0.045-54.967c-0.02-3.571,0.944-5.956,4.873-5.943c9.323,0.03,18.646,0.11,27.965,0.317
		c1.593,0.035,4.138-0.479,3.876,2.505c-0.223,2.537-2.422,1.853-3.914,1.876c-7.494,0.114-14.993,0.246-22.484,0.073
		c-3.655-0.084-4.85,1.073-4.816,4.859c0.182,20.318,0.083,40.641,0.091,60.962c0,1.643-0.159,3.26,1.11,4.7
		C377.3,658.627,381.132,663.191,385.852,668.71z M450.991,518.196c0,0.019,0,0.036,0,0.055c-3.826,0-7.655,0.068-11.479-0.024
		c-2.656-0.063-3.545,0.813-2.907,3.583c4.167,18.118,11.373,34.7,24.361,48.33c15.47,16.234,41.09,16.864,57.432,1.525
		c9.394-8.817,12.756-21.026,8.728-31.683c-4.399-11.633-17.002-20.395-29.146-20.977c-9.651-0.463-17.448,3.296-24.56,9.18
		c-2.263,1.872-4.262,2.408-4.923-1.099c-1.594-8.445-7.122-10.075-14.514-8.911C453.009,518.329,451.989,518.196,450.991,518.196z
		 M403.98,505.584c0,0.059,0,0.117,0,0.177c24.144,0,48.287-0.071,72.43,0.08c3.514,0.021,4.61-0.937,4.434-4.448
		c-0.285-5.646-0.285-11.329,0-16.976c0.177-3.525-0.954-4.512-4.455-4.459c-13.816,0.206-27.638,0.105-41.459,0.126
		c-34.466,0.054-68.933,0.18-103.399,0.078c-4.128-0.012-5.583,1.081-5.296,5.285c0.352,5.138,0.32,10.332,0.006,15.475
		c-0.232,3.818,1.126,4.762,4.811,4.74C355.361,505.51,379.671,505.584,403.98,505.584z M337.712,373.392
		c-2.517-4.246-5.165-8.29-7.372-12.56c-1.968-3.807-4.494-5.591-8.955-4.819c-4.339,0.751-8.151-1.123-12.27-2.524
		c-4.628-1.576-10.208-0.23-15.363-0.427c-2.919-0.111-3.665,1.025-3.611,3.771c0.151,7.658,0.095,15.321,0.041,22.982
		c-0.089,12.65,2.009,12.242-12.428,12.396c-4.377,0.046-6.796-1.333-6.708-5.782c0.063-3.207-1.536-3.851-4.313-3.836
		c-24.148,0.126-48.297,0.199-72.446,0.211c-2.853,0.001-4.263,0.815-4.232,3.959c0.042,4.248-2.528,5.646-6.555,5.521
		c-5.656-0.176-11.329,0.126-16.983-0.079c-3.216-0.117-4.403,0.844-4.318,4.208c0.081,3.193,1.04,4.424,4.34,4.373
		c9.324-0.146,18.654-0.125,27.978,0.051c3.165,0.06,4.652-0.804,4.322-4.19c-0.357-3.663,1.647-4.993,5.155-4.976
		c17.487,0.082,34.974,0.1,52.46,0.061c3.104-0.007,5.46,0.851,5.348,4.315c-0.101,3.113,1.7,3.273,4.016,3.769
		c9.741,2.086,19.59,0.556,29.36,1.192c3.818,0.249,4.812-1.118,4.715-4.799c-0.244-9.32-0.082-18.65-0.072-27.977
		c0.002-2.225,0.137-5.154,2.726-5.167c6.966-0.035,13.372-4.002,20.486-2.605c1.483,0.292,3.253,0.035,3.052,2.236
		c-0.229,2.511,1.451,6.542-1.138,7.211c-4.106,1.062-9.033,1.895-12.953-0.636c-2.182-1.409-4.163-1.446-5.992-0.813
		c-1.828,0.632-1.008,2.927-1.021,4.492c-0.073,8.993-0.06,17.986-0.04,26.979c0.01,4.22-1.563,6.569-6.26,6.224
		c-3.744-0.273-7.523-0.055-11.288-0.055c7.003,3.945,12.333,10.472,21.646,9.58c9.975-0.954,10.71-0.148,9.825,10.027
		c-0.644,7.398,3.414,12.161,6.656,17.625c0.413,0.696,0.964,1.208,1.983,1.188c4.329-0.083,8.659-0.05,12.989-0.066
		c1.569-0.007,2.463-0.633,2.457-2.379c-0.007-1.885-1.162-2.151-2.622-2.155c-3.664-0.009-7.331-0.117-10.99-0.003
		c-5.112,0.161-5.558-3.092-5.351-6.954c0.197-3.681-1.021-8.357,5.221-7.928c3.223,0.223,4.406-0.892,4.339-4.209
		c-0.179-8.989-0.058-17.984-0.064-26.979c-0.001-1.654-0.63-2.925-1.505-4.443c-2.418-4.195-1.382-9.096-0.793-13.564
		C331.553,373.063,335.467,375.523,337.712,373.392z M318.483,344.624c-3.067-4.348-7.239-8.573-11.37-12.824
		c-0.715-0.735-1.781-2.089-2.634-0.191c-1.254,2.791-3.673,2.467-5.966,2.484c-5.829,0.044-11.667,0.239-17.482-0.042
		c-3.815-0.185-5.302,0.844-5.125,4.926c0.317,7.313,0.12,14.65,0.077,21.977c-0.035,5.929-1.081,7.002-6.97,7.029
		c-12.988,0.059-25.978,0.074-38.967,0.063c-6.257-0.006-7.291-1.023-7.304-7.199c-0.03-14.487-0.01-28.976-0.011-43.463
		c0-7.625,0.059-7.43-7.364-5.152c-4.565,1.401-6.575,3.544-6.401,8.748c0.439,13.141,0.161,26.306,0.138,39.461
		c-0.011,6.549-1.036,7.605-7.429,7.653c-7.161,0.053-14.325,0.179-21.48-0.005c-3.417-0.088-5.398,0.493-4.999,4.56
		c0.326,3.32-1.621,4.832-4.938,4.668c-1.661-0.082-3.335-0.082-4.994,0.025c-4.036,0.261-2.654,3.442-2.952,5.676
		c-0.324,2.429,0.493,3.696,3.258,3.618c5.324-0.149,10.656-0.038,15.985-0.027c1.569,0.003,2.751-0.061,3.123-2.211
		c1.321-7.64,1.425-7.543,9.346-7.628c25.47-0.274,50.934,1.081,76.406,0.253c3.605-0.117,5.561,1.724,5.638,5.458
		c0.029,1.406-0.655,3.106,1.019,4.066c3.61,2.072,8.223-0.444,8.249-4.535c0.058-9.326,0.034-18.651,0.052-27.977
		c0.006-2.891,0.433-5.29,4.255-5.331C299.398,348.599,309.374,350.214,318.483,344.624z M280.981,314.77
		c-8.687-4.797-18-6.715-27.642-7.707c-5.221-0.537-6.898,1.181-6.211,6.202c0.542,3.961-0.497,7.012-5.428,6.94
		c-1.36-0.02-3.419-0.577-3.481,1.68c-0.065,2.383-1.444,5.732,0.957,6.96c3.441,1.76,3.028,4.314,3.079,7.095
		c0.024,1.318-0.34,3.218,0.37,3.855c4.6,4.132,2.016,9.352,2.175,14.008c0.124,3.602-3.436,2.203-5.476,2.284
		c-1.717,0.069-4.758,1.041-4.479-2.165c0.412-4.73-2.024-9.746,1.81-14.274c1.266-1.495,1.524-4.63-1.51-5.843
		c-2.31-0.923-2.653-2.872-2.754-4.865c-0.151-2.989-0.104-5.992-0.058-8.988c0.057-3.658,1.785-5.549,5.628-5.227
		c2.08,0.174,3.819,0.17,3.995-2.903c0.216-3.778-0.989-5.364-4.771-4.531c-10.296,2.268-8.906-1.089-8.969,9.967
		c-0.076,13.331,0.091,26.664-0.09,39.992c-0.048,3.572,0.806,5.08,4.675,5.019c11.161-0.175,22.331-0.142,33.491,0.088
		c4.054,0.084,5.172-1.565,5.071-5.326c-0.193-7.16,0.151-14.336-0.116-21.492c-0.167-4.498,1.503-6.355,5.994-6.218
		c6.327,0.193,12.664,0.034,18.994,0.166c2.778,0.058,4.229-0.825,3.379-3.763c-0.528-1.827-8.364-7.029-10.111-6.607
		c-9.048,2.183-18.23,0.376-27.315,1.088c-1.732,0.136-4.703-1.322-4.905,1.671c-0.176,2.603-2.08,6.159,1.986,7.828
		c1.187,0.487,2.063,1.223,2.148,2.495c0.462,6.965,3.913,13.514,2.778,20.725c-0.293,1.861-0.539,3.418-2.789,3.159
		c-2.486-0.287-6.781,1.419-7.079-1.337c-0.502-4.654-2.78-9.857,1.507-14.449c1.572-1.683,2.318-4.904-1.237-6.409
		c-2.35-0.995-3.037-2.794-2.923-5.211c0.125-2.66,0.174-5.341-0.007-7.995c-0.292-4.282,1.508-6.057,5.831-5.961
		C265.323,314.893,273.153,314.77,280.981,314.77z M341.438,382.249c1.652,5.463-4.319,8.753-3.459,14.183
		c0.798,5.034,0.17,10.294,0.17,15.455c0,3.663-0.191,7.338,0.047,10.984c0.314,4.801-0.849,7.945-6.51,7.288
		c-1.792-0.208-2.809,0.441-2.73,2.494c0.072,1.887,1.174,2.102,2.646,2.094c3.662-0.018,7.333,0.153,10.986-0.022
		c5.333-0.259,5.322,3.329,5.289,6.987c-0.034,3.697,0.43,7.689-5.322,7.454c-4.366-0.178-8.745-0.035-13.187-0.035
		c1.092,7.177,6.083,5.313,9.877,5.277c8.357-0.079,9.224,0.654,8.607,8.878c-0.062,0.821-0.206,1.652-0.436,2.443
		c-0.464,1.594,0.267,2.09,1.719,2.087c6.382-0.01,12.765-0.004,19.325-0.004c-0.358-2.179-0.491-3.679-0.865-5.115
		c-0.838-3.222-0.729-7.369-6.085-6.433c-1.205,0.21-1.935-0.869-1.652-1.92c0.743-2.763-2.434-6.774,2.761-8.217
		c1.537-0.427,0.539-2.627-0.059-2.876c-4.358-1.818-2.677-5.537-2.716-8.504c-0.129-9.805-1.397-11.472-10.797-11.528
		c-3.516-0.021-4.263-1.456-4.059-4.477c0.177-2.615-0.584-5.567,3.783-5.313c1.642,0.096,4.309,1.068,4.805-1.156
		c0.478-2.14-0.389-4.987-2.524-6.082c-2.966-1.521-3.476-3.739-3.28-6.566C348.234,392.942,344.419,387.825,341.438,382.249z
		 M341.101,573.818c5.488-5.086,9.426-9.886,12.974-15.028c0.633-0.918,1.872-1.854,1.392-3.012
		c-0.649-1.566-2.335-0.852-3.546-0.854c-12.979-0.014-25.959,0.046-38.939,0.092c-10.317,0.037-20.635,0.054-30.952,0.16
		c-1.468,0.015-3.624-0.699-3.624,2.068c0,3.849,3.555,7.324,7.558,7.342c8.653,0.038,17.307,0.005,25.959,0.077
		c13.379,0.111,12.495-1.729,12.167,12.292c-0.118,5.079,1.811,5.032,5.351,3.483c1.062-0.465,2.118-0.943,3.159-1.453
		c0.638-0.313,1.255-1.188,0.684-1.504c-5.079-2.812-1.584-7.45-2.434-11.135c-0.886-3.839,1.271-4.554,4.795-4.71
		c4.457-0.197,6.121,1.248,5.497,5.638C340.895,569.005,341.101,570.8,341.101,573.818z M363.121,540.291
		c-27.296,0-54.558-0.02-81.82,0.02c-4.309,0.007-3.555,3.628-3.963,6.189c-0.543,3.416,1.97,3.124,4.175,3.129
		c23.472,0.053,46.943,0.119,70.415,0.179C360.572,549.83,361.217,549.285,363.121,540.291z M281.639,534.968
		c1.874,1.092,3.561,0.646,5.159,0.652c24.29,0.096,48.583-0.067,72.867,0.371c5.323,0.097,6.76-2.119,7.771-6.458
		c0.658-2.824-0.013-3.495-2.722-3.455c-7.984,0.121-16.065,0.792-23.917-0.228c-4.023-0.522-3.625,6.074-7.271,3.276
		c-2.65-2.033-5.209-3.079-8.592-3.01c-10.145,0.207-20.313,0.473-30.439,0.008C287.524,525.806,284.585,529.923,281.639,534.968z
		 M256.493,398.227c-0.237-1.189-0.911-1.419-1.554-1.419c-15.979-0.01-31.958,0.013-47.937,0.021
		c-2.117,0.001-2.959,1.091-2.877,3.131c0.205,5.146-2.69,6.416-7.309,6.322c-9.485-0.192-18.979-0.121-28.464,0.068
		c-1.482,0.029-4.652-1.666-4.241,2.099c0.3,2.744-0.266,6.484,4.31,6.508c12.319,0.063,24.638,0.079,36.957,0.136
		c2.159,0.011,3.58-0.649,3.332-3.147c-0.482-4.871,1.939-6.333,6.549-6.312c11.797,0.055,23.934,2.009,34.671-5.201
		C251.888,399.118,254.914,400.386,256.493,398.227z M179.635,443.123c0-1.819-0.004-2.813,0-3.806
		c0.044-9.557,0.045-9.561,9.769-9.548c11.302,0.014,22.604,0.082,33.906,0.004c1.562-0.011,4.19,1.049,4.277-1.879
		c0.178-6.009,3.078-10.999,6.1-16.634c-6.341,0-12.097,0.044-17.851-0.023c-1.966-0.023-2.429,0.855-2.604,2.686
		c-0.649,6.786-0.727,6.808-7.761,6.848c-11.302,0.064-22.604,0.151-33.906,0.083c-3.131-0.019-4.858,0.99-2.784,3.885
		c3.806,5.312,6.805,10.979,9.176,17.03C178.1,442.135,178.645,442.344,179.635,443.123z M203.702,318.176
		c-3.523,0.231-4.484,1.975-4.452,4.971c0.106,9.816-0.081,19.636,0.094,29.45c0.074,4.119-1.662,5.749-5.616,5.695
		c-5.656-0.077-11.315-0.001-16.972,0.006c-9.757,0.013-9.792,0.003-12.121,9.082c-0.415,1.619-1.451,3.752,1.546,4.214
		c2.479,0.383,3.754-0.505,3.604-3.228c-0.253-4.62,2.262-5.95,6.573-5.819c7.813,0.235,15.639,0.062,23.459,0.102
		c2.118,0.011,3.943,0.093,3.923-2.971C203.651,345.9,203.702,332.119,203.702,318.176z M207.063,435.183c0,0.017,0,0.032,0,0.049
		c-5.975,0-11.95,0-17.925,0c-0.166,0-0.333-0.007-0.498,0.005c-1.435,0.098-2.917-0.246-3.617,1.754
		c-2.15,6.148,0.418,14.385,5.575,18.006c2.321,1.63,3.562,1.742,3.479-1.547c-0.063-2.486-0.232-4.971-0.239-7.457
		c-0.013-4.378,1.711-6.646,6.611-6.446c7.954,0.325,15.931,0.173,23.896,0.04c1.436-0.023,4.111,1.319,4.043-1.785
		c-0.06-2.723-2.308-2.66-4.396-2.639C218.349,435.222,212.706,435.183,207.063,435.183z M215.658,445.196
		c-1.658,0-3.316-0.002-4.975,0c-11.681,0.016-11.681,0.016-11.394,11.813c0.08,3.275,4.647,7.639,7.932,6.842
		c3.019-0.733,0.967-3.796,1.457-5.754c0.234-0.937,0.116-1.986,0.03-2.975c-0.393-4.475,1.698-6.417,6.104-6.321
		c4.641,0.101,9.287,0.093,13.928-0.011c1.071-0.024,2.979,0.833,2.996-1.274c0.015-1.832-1.442-2.361-3.145-2.347
		C224.281,445.208,219.97,445.183,215.658,445.196z M287.39,569.712c4.85,6.462,10.421,9.982,18.158,9.213
		c3.229-0.321,7.141-1.227,9.237,2.909c0.539,1.063,1.703,0.902,2.673,0.771c1.683-0.229,1.358-1.65,1.393-2.724
		c0.074-2.322-0.021-4.647,0.03-6.971c0.044-1.977-0.65-3.201-2.813-3.2C306.508,569.714,296.949,569.712,287.39,569.712z
		 M194.077,324.114c-3.615,0.835-3.96,2.814-3.936,5.13c0.048,4.492-0.031,8.986,0.005,13.479c0.035,4.359-2.157,6.398-6.429,6.407
		c-3.495,0.007-6.989,0.038-10.483,0.062c-1.445,0.01-2.821,0.379-2.923,2.041c-0.144,2.339,1.829,1.444,2.892,1.466
		c5.489,0.113,10.989-0.09,16.471,0.138c3.263,0.136,4.48-1.063,4.438-4.268C194.007,340.596,194.077,332.622,194.077,324.114z
		 M352.628,589.153c-2.256,2.091-3.696,3.4-5.109,4.739c-2.879,2.729-7.088,4.418-6.471,9.704c0.246,2.104-2.127,1.394-3.47,1.688
		c-2.178,0.478-4.861-1.163-7.456,2.307c6.94,0,12.97-0.135,18.99,0.059c2.982,0.094,3.655-1.154,3.56-3.824
		C352.512,599.357,352.628,594.877,352.628,589.153z M332.677,622.259c-0.272,0.53-0.545,1.06-0.818,1.59
		c7.308-1.405,10.729,0.837,9.533,8.055c-0.297,1.788,7.86,7.257,9.72,6.471c3.047-1.288,1.118-4.282,1.45-6.486
		c0.318-2.106-0.036-4.305,0.09-6.453c0.136-2.319-0.719-3.264-3.123-3.213C343.914,622.339,338.295,622.259,332.677,622.259z
		 M237.978,458.652c-0.549-3.016-2.034-3.951-4.335-3.936c-5.654,0.039-11.309,0.078-16.961,0.034
		c-2.513-0.02-3.68,0.974-3.429,3.582c0.143,1.482,0.042,2.99,0.02,4.487c-0.026,1.716-0.075,3.409,2.216,3.768
		c2.54,0.398,2.63-1.392,2.74-3.091c0.248-3.812,2.375-5.046,5.999-4.89C228.699,458.8,233.188,458.652,237.978,458.652z
		 M354.869,521.408c0,0.016,0,0.033,0,0.049c4.139,0,8.278,0.021,12.417-0.012c1.269-0.01,2.258-0.496,2.384-1.967
		c0.096-1.122-0.602-1.396-1.511-1.396c-8.609,0.009-17.218,0.017-25.827,0.052c-1.122,0.005-1.94,0.629-1.977,1.777
		c-0.044,1.387,1.134,1.465,2.096,1.477C346.59,521.434,350.729,521.408,354.869,521.408z M242.136,464.25
		c-5.541,0-11.083,0.002-16.624-0.002c-1.307-0.001-2.31,0.287-2.195,1.93c0.099,1.407,1.12,1.451,2.125,1.499
		C231.227,467.952,236.891,467.536,242.136,464.25z M183.248,332.815c-3.093,2.063-4.851,4.887-6.815,7.508
		c-1.437,1.917-0.466,2.46,1.501,2.703c5.037,0.622,6.139-0.271,6.119-5.473C184.048,336.115,184.431,334.593,183.248,332.815z
		 M334.131,459.319c0.275,4.958,3.73,4.666,7.125,4.46c1.62-0.099,1.692-1.269,1.702-2.48c0.011-1.3-0.343-2.338-1.887-2.336
		C338.781,458.965,336.461,458.537,334.131,459.319z M314.168,427.107c0.457-7.064,0.048-7.416-5.725-5.943
		C310.172,422.959,311.954,424.811,314.168,427.107z M301.96,521.006c5.396,0,10.791,0,16.186,0
		C312.713,518.564,307.251,518.588,301.96,521.006z"/>
	<path fill-rule="evenodd" clip-rule="evenodd" fill="#FFFFFF" d="M333.615,218.532c0,12.902,0.156,25.165-0.077,37.42
		c-0.093,4.877,1.862,6.686,6.518,6.33c2.319-0.177,4.667-0.119,6.995-0.019c3.147,0.135,5.983-0.077,9.136,2.152
		c3,2.121,7.917,1.304,11.673,0.304c3.246-0.863,1.567-4.545,1.797-7.018c0.223-2.394-1.268-2.739-3.393-3.12
		c-6.759-1.209-12.836,2.421-19.466,2.26c-8.499-0.207-8.402,0.06-8.529-8.497c-0.188-12.648,0.438-25.298-0.322-37.952
		c-0.199-3.306,2.422-5.892,4.833-9.827c0,15.329-0.009,29.262,0.003,43.195c0.008,8.212,0.858,9.049,9.232,9.052
		c6.831,0.002,13.664-0.13,20.493-0.044c3.761,0.048,8.147-1.436,10.246,3.669c0.224,0.543,1.776,0.743,2.717,0.756
		c4.997,0.067,9.996,0.017,14.995,0.023c1.601,0.002,3.012-0.078,2.986-2.296c-0.026-2.259-1.531-2.198-3.079-2.2
		c-2.666-0.004-5.333-0.07-7.997-0.001c-2.856,0.073-5.437,0.348-6.588-3.459c-0.717-2.369-3.646-1.953-5.743-1.982
		c-8.663-0.122-17.332-0.291-25.989-0.078c-4.32,0.105-6.158-0.88-6.055-5.768c0.326-15.488,0.226-30.989,0.048-46.482
		c-0.045-3.968,1.642-6.795,4.592-10.606c0,15.074,0,28.998,0,42.921c0,1.833,0.093,3.67-0.008,5.498
		c-0.216,3.897,1.74,5.389,5.44,5.354c7.83-0.074,15.662-0.032,23.492-0.061c2.353-0.009,4.681-0.306,5.377,2.962
		c0.359,1.684,2.081,1.981,3.65,1.989c3.166,0.017,6.332-0.012,9.497,0.006c1.807,0.01,3.336-0.19,3.388-2.575
		c0.052-2.361-1.335-2.712-3.227-2.663c-1.998,0.052-4.001,0.058-5.997-0.036c-0.952-0.045-2.573-0.135-2.731-0.6
		c-1.765-5.173-6.126-3.75-9.721-3.86c-6.493-0.198-12.999-0.253-19.491-0.064c-3.969,0.116-5.153-1.476-5.114-5.323
		c0.162-15.994,0.148-31.99,0.007-47.984c-0.032-3.695,1.685-6.154,4.946-9.62c0,3.561,0,5.951,0,8.341
		c0.002,12.83-0.04,25.66,0.027,38.489c0.031,5.978,1.038,6.908,7.061,6.957c4.998,0.041,9.997-0.015,14.995-0.018
		c3.07-0.001,5.714-0.151,8.213,2.954c2.252,2.799,6.577,1.115,9.987,0.931c1.187-0.064,1.021-1.501,0.927-2.484
		c-0.12-1.249-1.002-1.705-2.09-1.622c-2.823,0.217-5.027-0.114-6.092-3.439c-0.642-2.005-3.037-1.672-4.854-1.68
		c-6.331-0.025-12.665-0.116-18.993,0.023c-2.987,0.065-4.183-1-4.168-4.049c0.08-16.661,0.052-33.323,0.014-49.984
		c-0.004-1.75,0.365-3.266,1.486-4.621c0.635-0.767,1.29-1.558,1.731-2.44c6.019-12.021,14.992-18.37,29.016-15.489
		c1.489,0.306,3.941,0.928,4.05-2.125c0.116-3.27-2.348-2.618-4.205-2.692c-2.829-0.112-5.672,0.064-8.493-0.13
		c-1.255-0.086-3.604,0.926-3.485-1.312c0.082-1.537,1.299-3.519,3.535-3.597c2.83-0.099,5.687-0.284,8.491-0.008
		c3.789,0.373,4.629-1.399,4.224-4.689c-0.281-2.282-0.297-4.597-0.505-8.166c2.468,3.049,4.23,5.164,5.928,7.33
		c22.29,28.456,44.279,57.091,60.382,89.741c9.368,18.996,15.062,38.664,13.525,60.071c-0.899,12.553-4.064,24.551-8.271,36.336
		c-13.18,36.928-26.336,73.863-39.513,110.792c-4.651,13.038-7.185,26.619-10.158,40.078c-0.668,3.017-1.758,4.146-4.908,4.059
		c-8.325-0.231-16.659-0.053-24.989-0.189c-6.54-0.107-9.612-2.661-11.25-9.068c-1.275-4.988-2.497-9.989-3.685-14.999
		c-0.333-1.402-1.805-3.453,1.41-3.392c2.025,0.039,4.648-0.799,4.675,2.715c0.035,4.665-0.015,9.331,0.091,13.995
		c0.148,6.547,0.818,7.182,7.179,7.229c2.499,0.02,4.999-0.056,7.497-0.016c2,0.032,2.527-1.088,2.569-2.841
		c0.046-1.954-0.892-2.495-2.732-2.629c-3.088-0.229-7.471,1.575-8.941-0.896c-1.559-2.621-0.558-6.764-0.672-10.241
		c-0.011-0.333-0.001-0.666-0.001-1c0-11.06,0.006-11.17-10.867-11.765c-2.406-0.132-3.108-1.224-3.648-3.124
		c-1.132-3.992-2.172-8.024-3.59-11.916c-1.1-3.017-0.184-3.74,2.761-3.697c7.496,0.111,14.996,0.085,22.491-0.062
		c2.024-0.039,5.188,1.211,5.113-2.747c-0.069-3.662-3.039-2.356-4.881-2.389c-8.329-0.143-16.661-0.115-24.991-0.075
		c-1.966,0.01-3.84-0.091-4.171-2.455c-0.413-2.948,2.018-1.92,3.412-2.105c3.021-0.401,4.35-2.142,4.379-5.062
		c0.015-1.5,0.041-3,0.008-4.499c-0.051-2.388-0.373-4.812,3.386-4.43c2.68,0.272,5.995-0.889,5.767,3.803
		c-0.208,4.281,2.114,5.773,6.212,5.681c13.467-0.303,10.764,1.499,11.051-10.562c0.119-4.995-0.114-10,0.045-14.993
		c0.105-3.288-1.248-4.603-4.437-4.219c-0.328,0.04-0.666-0.002-0.999,0.001c-10.707,0.096-12.337-1.52-11.973,11.055
		c0.078,2.686-0.852,4.141-3.757,3.785c-0.656-0.08-1.331-0.011-1.998-0.008c-8.615,0.029-8.713,0.125-8.749,8.607
		c-0.002,0.5,0.072,1.013-0.016,1.498c-0.265,1.451,0.838,3.499-1.804,3.928c-2.567,0.417-3.458-1.05-4.237-3.141
		c-4.757-12.764-9.552-25.514-14.448-38.225c-2.508-6.513-5.203-12.956-7.916-19.387c-1.304-3.092-0.991-7.015-2.361-9.435
		c-3.338-5.896-1.97-12.019-2.909-17.983c-0.417-2.643-2.765-3.028-5.083-2.937c-1.515,0.06-2.699-0.404-2.821-2.097
		c-0.169-2.331,1.732-1.54,2.827-1.626c14.686-1.158,14.695-1.141,14.672,13.743c-0.004,2.772-0.109,5.255-1.85,7.944
		c-2.303,3.558-1.594,8.27-0.521,12.121c0.863,3.098,4.65,1.107,7.109,1.483c1.538,0.235,3.349-0.033,3.214-2.084
		c-0.29-4.423,1.958-9.18-1.82-13.236c-0.72-0.773-0.491-2.524-0.522-3.828c-0.091-3.831-0.119-7.663-0.125-11.494
		c-0.018-10.198-0.3-10.521-10.657-10.776c-3.997-0.099-7.998-0.064-11.996-0.055c-1.747,0.004-3.434-0.104-3.969-2.173
		c-1.425-5.507-2.593-6.55,4.097-6.445c8.828,0.138,17.664,0.12,26.49-0.089c3.43-0.081,5.4,0.597,5.21,4.548
		c-0.153,3.178,1.411,4.733,4.894,4.721c10.655-0.039,21.311,0.191,31.967,0.313c0.5,0.006,1-0.033,1.499-0.034
		c1.714-0.002,2.894-0.488,2.815-2.56c-0.083-2.173-1.511-2.25-3.099-2.251c-9.664-0.013-19.33-0.148-28.99,0.011
		c-3.216,0.053-4.607-0.854-4.205-4.2c0.544-4.523-2.119-5.781-6.075-5.772c-10.663,0.023-21.331-0.205-31.988,0.016
		c-4.042,0.083-6.409-0.704-6.094-5.298c0.088-1.285-0.446-2.61-0.668-3.921c-0.575-3.391,0.691-4.773,4.292-4.747
		c13.494,0.096,26.992,0.011,40.486-0.141c3.291-0.037,5.073,0.856,4.639,4.518c-0.213,1.806-0.05,3.661-0.006,5.493
		c0.065,2.776,1.425,4.406,4.286,4.416c8.164,0.027,16.328-0.018,24.492-0.005c1.703,0.002,2.907-0.358,2.944-2.433
		c0.04-2.279-1.221-2.8-3.165-2.797c-6.332,0.012-12.667-0.18-18.992,0.012c-3.304,0.1-4.596-1.075-4.155-4.309
		c0.112-0.817,0.019-1.664,0.015-2.497c-0.033-6.509-0.698-7.236-7.072-7.264c-14.329-0.063-28.66-0.215-42.985-0.025
		c-4.03,0.054-5.42-1.243-4.895-5.143c0.488-3.617,0.731-7.268,1.049-10.906c0.091-1.033,0.174-2.186,1.301-2.465
		c4.999-1.236,4.426-5.203,4.302-8.81C328.626,232.338,328.887,225.32,333.615,218.532z M388.165,339.233c0-0.011,0-0.021,0-0.032
		c4.152,0,8.305-0.025,12.457,0.012c1.715,0.016,2.876-0.354,2.884-2.437c0.007-2.059-0.732-3.105-2.904-3.007
		c-1.657,0.075-3.35,0.199-4.977-0.041c-7.167-1.06-15.037,2.86-21.504-4.008c-2.293-2.436-2.541-5.293-1.415-6.349
		c4.112-3.856,2.001-8.415,2.217-12.597c0.254-4.931-3.901-2.643-6.249-3.053c-2.326-0.406-3.742,0.055-4.152,3.206
		c-0.899,6.924,2.625,13.182,2.336,19.942c-0.024,0.565,0.417,1.331,0.881,1.708c4.377,3.555,8.048,8.599,14.963,6.725
		C384.404,338.841,386.337,339.233,388.165,339.233z M367.69,371.195c7.008-2.013,14.405-3.833,22.166-3.096
		c3.63,0.345,7.322-0.005,10.984,0.039c1.949,0.023,2.623-0.95,2.66-2.754c0.038-1.869-0.707-2.675-2.643-2.694
		c-11.666-0.113-23.28,0.143-34.895-2.288c-6.371-1.333-6.436-0.223-6.36,6.416C359.676,373.301,364.626,369.603,367.69,371.195z
		 M395.682,358.21c1.165,0,2.338,0.096,3.49-0.022c1.758-0.18,4.286,0.972,4.317-2.435c0.028-3.096-2.129-2.767-4.131-2.854
		c-3.605-0.158-7.588,1.158-9.91-3.389c-0.754-1.477-3.078-0.761-4.709-0.813c-2.823-0.091-6.861,1.062-8.246-0.375
		c-4.025-4.175-8.63-2.039-12.947-2.548c-1.489-0.176-3.766-0.596-3.771,1.94c-0.005,2.726-1.153,5.747,0.885,8.121
		c1.106,1.289,12.908,0.15,14.32-1.066c2.079-1.791,10.176-2.506,10.808-0.629C387.641,359.645,391.96,357.956,395.682,358.21z
		 M387.336,324.313c2.561-4.955,1.696-9.315,1.787-13.575c0.1-4.717-3.581-2.75-5.787-2.975c-2.124-0.218-4.855-0.879-4.696,3.038
		c0.21,5.138-0.417,10.212,2.692,15.041c1.275,1.98,2.008,3.609,4.451,3.7c4.801,0.179,9.606,0.276,14.408,0.463
		c2.249,0.088,3.387-0.738,3.33-3.15c-0.059-2.429-1.65-2.533-3.389-2.539C396.179,324.304,392.226,324.313,387.336,324.313z
		 M398.512,166.008c1.496-0.551,4.567,1.348,4.831-2.155c0.241-3.19-2.66-2.15-4.38-2.603c-0.946-0.249-1.945-0.262-2.629-1.164
		c-5.113-6.736-12.306-7.492-19.911-6.688c-3.979,0.421-2.305,3.76-2.513,5.939c-0.201,2.098-0.407,4.878,2.86,4.622
		c4.14-0.325,8.618,1.682,12.385-1.509c1.071-0.908,1.418-0.135,1.768,0.623C392.434,166.351,395.36,166.085,398.512,166.008z
		 M390.478,190.191c0.81,6.2,5.401,4.858,9.294,4.965c1.888,0.052,3.775,0.157,3.708-2.664c-0.057-2.4-1.596-2.619-3.389-2.553
		c-2.093,0.078-3.933,0.006-4.458-2.715c-0.147-0.763-1.261-1.587-2.113-1.926c-5.208-2.072-10.574-3.231-16.25-2.634
		c-1.795,0.189-3.513,0.236-3.336,2.6c0.189,2.518-1.294,5.513,1.368,7.404C377.665,194.347,387.975,192.687,390.478,190.191z
		 M381.756,167.893c-1.33,0-2.664,0.073-3.987-0.014c-4.586-0.298-3.816,2.98-3.933,5.742c-0.116,2.751,0.099,5.17,3.849,4.626
		c3.814-0.554,7.936,1.399,11.463-1.335c1.06-0.822,1.391-0.146,1.788,0.603c2.507,4.729,6.919,2.729,10.665,2.966
		c1.491,0.094,1.836-1.082,1.879-2.382c0.057-1.695-0.738-2.302-2.388-2.4c-1.578-0.095-3.588,0.824-4.671-0.738
		C392.831,169.779,387.83,167.786,381.756,167.893z M385.997,433.111c5.983,1.891,10.274-4.496,16.222-3.169
		c1.387,0.31,1.226-1.646,1.232-2.761c0.009-1.283-0.433-2.495-1.933-2.323c-5.812,0.666-10.966-2.681-16.883-2.35
		c-4.721,0.264-6.105,1.271-6.14,6.135C378.446,435.399,383.107,432.438,385.997,433.111z M391.509,274.232
		c3.673,1.607,6.985-1.579,10.652-2.94c2.164-0.804,1.922-3.036-0.03-4.134c-4.751-2.67-9.923-3.438-15.364-2.92
		c-2.283,0.217-3.024,1.073-3.142,3.352C383.278,274.245,383.172,274.24,391.509,274.232z"/>
	<path fill-rule="evenodd" clip-rule="evenodd" fill="#FFFFFF" d="M564.233,466.1c2.612-4.733,5.236-9.311,7.69-13.979
		c4.189-7.97,8.162-15.93,7.28-25.466c-1.342-14.53-14.049-26.49-28.596-26.996c-19.562-0.681-35.603,7.101-49.417,20.145
		c-12.066,11.394-22.951,23.729-27.478,40.297c-1.665,6.093-6.589,6.979-11.642,7.429c-7.157,0.638-14.285-0.455-21.426-0.834
		c-2.167-0.114-2.274-1.079-1.77-2.967c9.395-35.155,18.122-70.558,37.26-102.143c12.403-20.469,28.084-37.805,50.228-47.84
		c32.228-14.605,76.868-5.427,99.471,19.973c10.729,12.058,16.389,26.562,18.482,42.364c2.926,22.083-0.214,43.162-12.469,62.221
		C616.661,461.925,590.269,472.803,564.233,466.1z"/>
	<path fill-rule="evenodd" clip-rule="evenodd" fill="#FFFFFF" d="M385.852,668.71c-4.72-5.519-8.551-10.083-12.489-14.553
		c-1.269-1.44-1.11-3.058-1.11-4.7c-0.007-20.321,0.091-40.644-0.091-60.962c-0.034-3.786,1.161-4.943,4.816-4.859
		c7.491,0.173,14.99,0.041,22.484-0.073c1.492-0.023,3.691,0.661,3.914-1.876c0.262-2.984-2.283-2.47-3.876-2.505
		c-9.32-0.207-18.643-0.287-27.965-0.317c-3.929-0.013-4.893,2.372-4.873,5.943c0.101,18.322,0.045,36.646,0.045,54.967
		c0,1.827,0,3.655,0,6.001c-3.062-1.564-5.251-3.871-8.196-4.842c-1.668-0.55-1.214-2.182-1.225-3.447
		c-0.039-4.831-0.29-9.681,0.06-14.486c0.332-4.554-1.865-5.923-5.848-5.926c-5.663-0.005-11.326-0.06-16.989-0.108
		c-1.165-0.01-2.33-0.065-3.491-0.138c-1.438-0.088-2.074-1.069-2.127-2.322c-0.077-1.809,1.45-1.557,2.511-1.572
		c5.996-0.087,11.992-0.084,17.988-0.131c7.871-0.062,7.872-0.069,7.877-7.678c0.002-2.832,0.371-5.723-0.067-8.484
		c-1.491-9.402,1.823-17.146,7.584-24.245c1.918-2.364,9.734-3.566,13.782-1.539c4.322,2.164,8.863,1.341,13.175,0.865
		c3.898-0.43,1.842-4.275,2.215-6.633c0.335-2.114-0.496-3.793-2.981-3.375c-4.603,0.773-9.708-2.175-13.95,2.51
		c-1.106,1.221-4.707,0.184-7.198,0.184c2.257-9.36,2.257-9.359,11.352-9.38c6.33-0.015,12.659-0.051,18.988-0.042
		c1.821,0.003,3.365-0.172,3.306-2.583c-0.056-2.307-1.529-2.655-3.374-2.656c-7.162-0.004-14.326-0.114-21.486,0.002
		c-2.546,0.041-3.018-0.652-2.481-3.146c0.999-4.649,2.888-7.161,8.312-6.521c5.092,0.601,10.312,0.146,15.475,0.088
		c1.554-0.018,3.598,0.51,3.487-2.218c-0.104-2.563-2.037-2.181-3.642-2.193c-5.497-0.042-10.996-0.136-16.489,0
		c-2.636,0.064-3.554-0.528-2.878-3.387c1.05-4.439,2.916-7.085,8.105-6.249c2.921,0.471,6.026,0.385,8.966-0.032
		c2.045-0.29,5.832,2.034,5.864-2.185c0.034-4.442-3.942-2.316-6.154-2.568c-3.212-0.363-6.496-0.092-9.923-0.092
		c0.51-2.368,2.129-2.629,3.219-2.813c9.072-1.541,18.243-1.305,27.399-1.233c2.62,0.021,2.445,2.309,2.979,3.895
		c4.025,11.959,7.726,24.033,12.031,35.89c7.707,21.22,21.092,37.501,42.022,47.044c6.372,2.905,7.236,5.95,4.176,12.411
		c-6.292,13.277-17.438,20.246-31.262,23.161c-6.334,1.336-10.842,4.37-14.377,9.669c-7.252,10.868-16.533,19.995-25.814,29.088
		c-5.151,5.049-11.342,2.975-13.885-3.615c-1.293-3.352-2.636-6.346-2.617-10.031c0.016-3.038,1.012-4.261,4.014-4.101
		c1.99,0.106,3.994-0.062,5.992-0.096c1.658-0.027,2.343-0.88,2.362-2.513c0.02-1.744-0.848-2.341-2.461-2.329
		c-3.664,0.026-7.328,0.01-10.992,0c-2.26-0.007-3.327,1.197-3.482,3.363C386.358,661.832,386.15,664.63,385.852,668.71z
		 M403.623,629.254c0-13.175,0.006-13.106-12.522-12.054c-3.049,0.257-4.649,1.55-4.701,4.553
		c-0.086,4.979-0.099,9.962-0.078,14.943c0.015,3.521,1.899,4.843,5.367,4.968c11.935,0.432,11.933,0.514,11.933-11.413
		C403.623,629.918,403.623,629.586,403.623,629.254z M387.141,595.188c-1.437,0-2.444,0.089-3.431-0.016
		c-3.726-0.397-5.293,0.836-5.182,4.959c0.103,3.798,0.779,5.121,5.047,5.78c6.792,1.048,11.926-4.163,18.363-3.54
		c1.197,0.115,1.534-1.049,1.484-2.149c-0.042-0.921-0.537-1.924-1.384-1.717C396.354,599.894,392.353,593.721,387.141,595.188z"/>
	<path fill-rule="evenodd" clip-rule="evenodd" fill="#FFFFFF" d="M450.991,518.196c0.998,0,2.018,0.133,2.991-0.021
		c7.392-1.164,12.92,0.466,14.514,8.911c0.661,3.507,2.66,2.971,4.923,1.099c7.111-5.884,14.908-9.643,24.56-9.18
		c12.145,0.582,24.747,9.344,29.146,20.977c4.028,10.656,0.666,22.865-8.728,31.683c-16.342,15.339-41.962,14.709-57.432-1.525
		c-12.988-13.63-20.194-30.212-24.361-48.33c-0.638-2.771,0.251-3.646,2.907-3.583c3.824,0.093,7.653,0.024,11.479,0.024
		C450.991,518.232,450.991,518.215,450.991,518.196z"/>
	<path fill-rule="evenodd" clip-rule="evenodd" fill="#FFFFFF" d="M403.98,505.584c-24.31,0-48.62-0.074-72.929,0.078
		c-3.685,0.021-5.043-0.922-4.811-4.74c0.313-5.143,0.345-10.337-0.006-15.475c-0.288-4.204,1.168-5.297,5.296-5.285
		c34.467,0.102,68.934-0.024,103.399-0.078c13.821-0.021,27.643,0.08,41.459-0.126c3.501-0.053,4.632,0.934,4.455,4.459
		c-0.285,5.646-0.285,11.329,0,16.976c0.177,3.512-0.92,4.47-4.434,4.448c-24.143-0.151-48.286-0.08-72.43-0.08
		C403.98,505.701,403.98,505.643,403.98,505.584z"/>
	<path fill-rule="evenodd" clip-rule="evenodd" fill="#FFFFFF" d="M337.712,373.392c-2.245,2.132-6.16-0.329-6.526,2.446
		c-0.589,4.468-1.625,9.369,0.793,13.564c0.875,1.518,1.504,2.789,1.505,4.443c0.007,8.994-0.115,17.989,0.064,26.979
		c0.066,3.317-1.116,4.432-4.339,4.209c-6.242-0.43-5.024,4.247-5.221,7.928c-0.207,3.862,0.239,7.115,5.351,6.954
		c3.66-0.114,7.327-0.006,10.99,0.003c1.459,0.004,2.615,0.271,2.622,2.155c0.006,1.746-0.888,2.372-2.457,2.379
		c-4.33,0.017-8.661-0.017-12.989,0.066c-1.019,0.02-1.57-0.492-1.983-1.188c-3.242-5.464-7.3-10.227-6.656-17.625
		c0.885-10.176,0.15-10.981-9.825-10.027c-9.313,0.892-14.643-5.635-21.646-9.58c3.764,0,7.544-0.219,11.288,0.055
		c4.697,0.345,6.27-2.004,6.26-6.224c-0.021-8.993-0.033-17.987,0.04-26.979c0.013-1.564-0.807-3.859,1.021-4.492
		c1.829-0.633,3.81-0.596,5.992,0.813c3.92,2.531,8.847,1.698,12.953,0.636c2.589-0.67,0.909-4.7,1.138-7.211
		c0.202-2.201-1.569-1.945-3.052-2.236c-7.115-1.397-13.521,2.57-20.486,2.605c-2.588,0.013-2.724,2.942-2.726,5.167
		c-0.01,9.327-0.172,18.657,0.072,27.977c0.096,3.682-0.897,5.048-4.715,4.799c-9.77-0.636-19.619,0.894-29.36-1.192
		c-2.316-0.496-4.117-0.656-4.016-3.769c0.112-3.464-2.244-4.322-5.348-4.315c-17.487,0.04-34.974,0.021-52.46-0.061
		c-3.507-0.017-5.512,1.313-5.155,4.976c0.33,3.386-1.157,4.25-4.322,4.19c-9.323-0.176-18.653-0.197-27.978-0.051
		c-3.301,0.052-4.259-1.18-4.34-4.373c-0.085-3.363,1.102-4.324,4.318-4.208c5.655,0.205,11.327-0.097,16.983,0.079
		c4.026,0.125,6.597-1.273,6.555-5.521c-0.031-3.144,1.379-3.958,4.232-3.959c24.148-0.012,48.297-0.084,72.446-0.211
		c2.777-0.014,4.375,0.63,4.313,3.836c-0.088,4.449,2.331,5.828,6.708,5.782c14.437-0.154,12.339,0.254,12.428-12.396
		c0.054-7.661,0.11-15.324-0.041-22.982c-0.054-2.746,0.691-3.882,3.611-3.771c5.155,0.197,10.735-1.149,15.363,0.427
		c4.119,1.401,7.931,3.275,12.27,2.524c4.461-0.772,6.987,1.012,8.955,4.819C332.548,365.102,335.195,369.146,337.712,373.392z"/>
	<path fill-rule="evenodd" clip-rule="evenodd" fill="#FFFFFF" d="M318.483,344.624c-9.109,5.59-19.085,3.975-28.841,4.08
		c-3.822,0.042-4.25,2.44-4.255,5.331c-0.018,9.325,0.006,18.651-0.052,27.977c-0.025,4.091-4.638,6.606-8.249,4.535
		c-1.674-0.96-0.99-2.66-1.019-4.066c-0.077-3.734-2.033-5.575-5.638-5.458c-25.472,0.828-50.936-0.527-76.406-0.253
		c-7.921,0.085-8.025-0.012-9.346,7.628c-0.372,2.151-1.554,2.215-3.123,2.211c-5.329-0.011-10.661-0.122-15.985,0.027
		c-2.765,0.078-3.582-1.189-3.258-3.618c0.298-2.234-1.084-5.415,2.952-5.676c1.659-0.107,3.333-0.107,4.994-0.025
		c3.317,0.164,5.264-1.348,4.938-4.668c-0.399-4.066,1.582-4.647,4.999-4.56c7.155,0.184,14.319,0.058,21.48,0.005
		c6.393-0.048,7.417-1.104,7.429-7.653c0.023-13.155,0.301-26.32-0.138-39.461c-0.174-5.203,1.835-7.346,6.401-8.748
		c7.423-2.278,7.364-2.472,7.364,5.152c0.001,14.488-0.02,28.976,0.011,43.463c0.013,6.176,1.047,7.193,7.304,7.199
		c12.989,0.011,25.979-0.004,38.967-0.063c5.889-0.027,6.935-1.1,6.97-7.029c0.043-7.327,0.241-14.664-0.077-21.977
		c-0.177-4.082,1.31-5.111,5.125-4.926c5.815,0.281,11.653,0.086,17.482,0.042c2.293-0.018,4.712,0.307,5.966-2.484
		c0.854-1.898,1.919-0.544,2.634,0.191C311.244,336.051,315.416,340.276,318.483,344.624z"/>
	<path fill-rule="evenodd" clip-rule="evenodd" fill="#FFFFFF" d="M280.981,314.77c-7.828,0-15.658,0.123-23.482-0.049
		c-4.322-0.095-6.123,1.68-5.831,5.961c0.181,2.654,0.132,5.335,0.007,7.995c-0.114,2.417,0.573,4.216,2.923,5.211
		c3.555,1.505,2.809,4.726,1.237,6.409c-4.288,4.591-2.01,9.794-1.507,14.449c0.297,2.756,4.593,1.05,7.079,1.337
		c2.25,0.26,2.496-1.298,2.789-3.159c1.135-7.211-2.316-13.76-2.778-20.725c-0.084-1.272-0.961-2.008-2.148-2.495
		c-4.066-1.669-2.162-5.225-1.986-7.828c0.202-2.993,3.173-1.535,4.905-1.671c9.085-0.711,18.267,1.095,27.315-1.088
		c1.748-0.422,9.583,4.78,10.111,6.607c0.85,2.938-0.601,3.82-3.379,3.763c-6.33-0.132-12.667,0.027-18.994-0.166
		c-4.491-0.137-6.162,1.721-5.994,6.218c0.267,7.156-0.078,14.333,0.116,21.492c0.102,3.761-1.017,5.41-5.071,5.326
		c-11.161-0.23-22.33-0.264-33.491-0.088c-3.869,0.061-4.724-1.446-4.675-5.019c0.181-13.329,0.014-26.661,0.09-39.992
		c0.063-11.057-1.327-7.699,8.969-9.967c3.782-0.833,4.987,0.752,4.771,4.531c-0.176,3.074-1.915,3.078-3.995,2.903
		c-3.844-0.322-5.572,1.569-5.628,5.227c-0.046,2.996-0.094,5.999,0.058,8.988c0.101,1.993,0.444,3.941,2.754,4.865
		c3.034,1.213,2.775,4.349,1.51,5.843c-3.834,4.528-1.398,9.544-1.81,14.274c-0.279,3.206,2.762,2.234,4.479,2.165
		c2.04-0.082,5.599,1.317,5.476-2.284c-0.159-4.657,2.425-9.876-2.175-14.008c-0.709-0.637-0.346-2.537-0.37-3.855
		c-0.05-2.781,0.363-5.335-3.079-7.095c-2.401-1.228-1.022-4.577-0.957-6.96c0.062-2.257,2.121-1.699,3.481-1.68
		c4.931,0.072,5.97-2.979,5.428-6.94c-0.688-5.021,0.99-6.738,6.211-6.202C262.981,308.054,272.294,309.973,280.981,314.77z"/>
	<path fill-rule="evenodd" clip-rule="evenodd" fill="#FFFFFF" d="M341.438,382.249c2.981,5.576,6.796,10.693,6.334,17.377
		c-0.195,2.827,0.314,5.045,3.28,6.566c2.135,1.095,3.002,3.942,2.524,6.082c-0.497,2.225-3.164,1.252-4.805,1.156
		c-4.368-0.255-3.606,2.697-3.783,5.313c-0.204,3.021,0.543,4.456,4.059,4.477c9.4,0.057,10.668,1.724,10.797,11.528
		c0.039,2.967-1.642,6.686,2.716,8.504c0.597,0.249,1.595,2.449,0.059,2.876c-5.194,1.442-2.018,5.454-2.761,8.217
		c-0.282,1.051,0.448,2.13,1.652,1.92c5.356-0.937,5.247,3.211,6.085,6.433c0.374,1.437,0.507,2.937,0.865,5.115
		c-6.56,0-12.942-0.006-19.325,0.004c-1.453,0.003-2.183-0.493-1.719-2.087c0.23-0.791,0.374-1.622,0.436-2.443
		c0.617-8.224-0.25-8.957-8.607-8.878c-3.794,0.035-8.785,1.899-9.877-5.277c4.442,0,8.821-0.143,13.187,0.035
		c5.751,0.235,5.288-3.757,5.322-7.454c0.034-3.658,0.045-7.246-5.289-6.987c-3.653,0.176-7.324,0.005-10.986,0.022
		c-1.473,0.008-2.575-0.207-2.646-2.094c-0.078-2.053,0.938-2.702,2.73-2.494c5.661,0.657,6.825-2.487,6.51-7.288
		c-0.239-3.646-0.047-7.321-0.047-10.984c0-5.161,0.628-10.421-0.17-15.455C337.119,391.002,343.09,387.712,341.438,382.249z"/>
	<path fill-rule="evenodd" clip-rule="evenodd" fill="#FFFFFF" d="M341.101,573.818c0-3.019-0.206-4.813,0.041-6.543
		c0.624-4.39-1.04-5.835-5.497-5.638c-3.524,0.156-5.682,0.871-4.795,4.71c0.85,3.685-2.645,8.323,2.434,11.135
		c0.572,0.316-0.046,1.191-0.684,1.504c-1.041,0.51-2.097,0.988-3.159,1.453c-3.541,1.549-5.469,1.596-5.351-3.483
		c0.327-14.021,1.212-12.181-12.167-12.292c-8.652-0.072-17.306-0.039-25.959-0.077c-4.003-0.018-7.558-3.493-7.558-7.342
		c0-2.768,2.156-2.054,3.624-2.068c10.316-0.106,20.634-0.123,30.952-0.16c12.98-0.046,25.96-0.105,38.939-0.092
		c1.211,0.002,2.897-0.713,3.546,0.854c0.48,1.158-0.758,2.094-1.392,3.012C350.527,563.933,346.589,568.732,341.101,573.818z"/>
	<path fill-rule="evenodd" clip-rule="evenodd" fill="#FFFFFF" d="M363.121,540.291c-1.903,8.994-2.549,9.539-11.193,9.517
		c-23.471-0.06-46.943-0.126-70.415-0.179c-2.206-0.005-4.719,0.287-4.175-3.129c0.408-2.562-0.346-6.183,3.963-6.189
		C308.563,540.271,335.825,540.291,363.121,540.291z"/>
	<path fill-rule="evenodd" clip-rule="evenodd" fill="#FFFFFF" d="M281.639,534.968c2.946-5.045,5.885-9.162,12.856-8.843
		c10.126,0.465,20.294,0.199,30.439-0.008c3.382-0.069,5.942,0.977,8.592,3.01c3.646,2.798,3.248-3.799,7.271-3.276
		c7.852,1.02,15.934,0.349,23.917,0.228c2.709-0.04,3.38,0.631,2.722,3.455c-1.011,4.339-2.448,6.555-7.771,6.458
		c-24.283-0.438-48.577-0.275-72.867-0.371C285.199,535.614,283.512,536.06,281.639,534.968z"/>
	<path fill-rule="evenodd" clip-rule="evenodd" fill="#FFFFFF" d="M256.493,398.227c-1.579,2.159-4.605,0.891-6.563,2.206
		c-10.738,7.209-22.874,5.255-34.671,5.201c-4.609-0.021-7.031,1.44-6.549,6.312c0.248,2.498-1.173,3.158-3.332,3.147
		c-12.318-0.057-24.638-0.073-36.957-0.136c-4.576-0.023-4.01-3.764-4.31-6.508c-0.411-3.765,2.758-2.069,4.241-2.099
		c9.486-0.189,18.979-0.261,28.464-0.068c4.619,0.094,7.513-1.176,7.309-6.322c-0.082-2.04,0.761-3.13,2.877-3.131
		c15.979-0.008,31.958-0.031,47.937-0.021C255.582,396.807,256.256,397.037,256.493,398.227z"/>
	<path fill-rule="evenodd" clip-rule="evenodd" fill="#FFFFFF" d="M179.635,443.123c-0.99-0.779-1.535-0.988-1.678-1.354
		c-2.371-6.052-5.37-11.719-9.176-17.03c-2.074-2.895-0.347-3.903,2.784-3.885c11.301,0.068,22.604-0.019,33.906-0.083
		c7.034-0.04,7.111-0.062,7.761-6.848c0.175-1.83,0.638-2.709,2.604-2.686c5.754,0.067,11.51,0.023,17.851,0.023
		c-3.021,5.635-5.921,10.625-6.1,16.634c-0.087,2.928-2.715,1.868-4.277,1.879c-11.301,0.078-22.604,0.01-33.906-0.004
		c-9.724-0.013-9.724-0.009-9.769,9.548C179.631,440.311,179.635,441.304,179.635,443.123z"/>
	<path fill-rule="evenodd" clip-rule="evenodd" fill="#FFFFFF" d="M203.702,318.176c0,13.943-0.051,27.724,0.039,41.503
		c0.02,3.064-1.805,2.982-3.923,2.971c-7.82-0.041-15.646,0.133-23.459-0.102c-4.312-0.131-6.827,1.199-6.573,5.819
		c0.149,2.723-1.126,3.611-3.604,3.228c-2.997-0.462-1.961-2.596-1.546-4.214c2.329-9.079,2.364-9.069,12.121-9.082
		c5.657-0.007,11.315-0.083,16.972-0.006c3.955,0.053,5.69-1.576,5.616-5.695c-0.175-9.814,0.013-19.634-0.094-29.45
		C199.217,320.151,200.178,318.407,203.702,318.176z"/>
	<path fill-rule="evenodd" clip-rule="evenodd" fill="#FFFFFF" d="M207.063,435.183c5.644,0,11.287,0.039,16.93-0.021
		c2.088-0.021,4.336-0.084,4.396,2.639c0.068,3.104-2.608,1.762-4.043,1.785c-7.965,0.133-15.942,0.285-23.896-0.04
		c-4.9-0.2-6.625,2.068-6.611,6.446c0.007,2.486,0.177,4.971,0.239,7.457c0.083,3.289-1.158,3.177-3.479,1.547
		c-5.156-3.621-7.725-11.857-5.575-18.006c0.7-2,2.182-1.656,3.617-1.754c0.165-0.012,0.332-0.005,0.498-0.005
		c5.975,0,11.951,0,17.925,0C207.063,435.215,207.063,435.199,207.063,435.183z"/>
	<path fill-rule="evenodd" clip-rule="evenodd" fill="#FFFFFF" d="M215.658,445.189c4.312-0.007,8.623,0.019,12.934-0.02
		c1.703-0.015,3.16,0.515,3.145,2.347c-0.018,2.107-1.925,1.25-2.996,1.274c-4.641,0.104-9.287,0.111-13.928,0.011
		c-4.407-0.096-6.498,1.847-6.104,6.321c0.086,0.988,0.205,2.038-0.03,2.975c-0.49,1.958,1.562,5.021-1.457,5.754
		c-3.285,0.797-7.853-3.566-7.932-6.842c-0.287-11.798-0.287-11.798,11.394-11.813C212.342,445.194,214,445.196,215.658,445.189z"/>
	<path fill-rule="evenodd" clip-rule="evenodd" fill="#FFFFFF" d="M287.39,569.712c9.559,0,19.119,0.002,28.677-0.002
		c2.164-0.001,2.857,1.224,2.813,3.2c-0.051,2.323,0.044,4.648-0.03,6.971c-0.034,1.073,0.291,2.495-1.393,2.724
		c-0.971,0.132-2.135,0.293-2.673-0.771c-2.096-4.136-6.008-3.23-9.237-2.909C297.811,579.694,292.24,576.174,287.39,569.712z"/>
	<path fill-rule="evenodd" clip-rule="evenodd" fill="#FFFFFF" d="M194.077,324.114c0,8.508-0.07,16.482,0.035,24.454
		c0.042,3.205-1.174,4.404-4.438,4.268c-5.482-0.228-10.982-0.025-16.471-0.138c-1.063-0.022-3.036,0.873-2.892-1.466
		c0.102-1.662,1.478-2.031,2.923-2.041c3.495-0.024,6.989-0.054,10.483-0.062c4.272-0.009,6.464-2.048,6.429-6.407
		c-0.036-4.493,0.043-8.986-0.005-13.479C190.117,326.928,190.462,324.949,194.077,324.114z"/>
	<path fill-rule="evenodd" clip-rule="evenodd" fill="#FFFFFF" d="M352.628,589.153c0,5.724-0.117,10.204,0.044,14.673
		c0.096,2.67-0.577,3.918-3.56,3.824c-6.02-0.193-12.05-0.059-18.99-0.059c2.595-3.47,5.278-1.829,7.456-2.307
		c1.343-0.295,3.716,0.416,3.47-1.688c-0.618-5.286,3.592-6.975,6.471-9.704C348.932,592.554,350.373,591.244,352.628,589.153z"/>
	<path fill-rule="evenodd" clip-rule="evenodd" fill="#FFFFFF" d="M332.677,622.259c5.618,0,11.236,0.08,16.852-0.037
		c2.403-0.051,3.258,0.894,3.123,3.213c-0.125,2.148,0.228,4.347-0.09,6.453c-0.333,2.204,1.597,5.198-1.45,6.486
		c-1.859,0.786-10.017-4.683-9.72-6.471c1.197-7.218-2.225-9.46-9.533-8.055C332.132,623.318,332.405,622.789,332.677,622.259z"/>
	<path fill-rule="evenodd" clip-rule="evenodd" fill="#FFFFFF" d="M237.978,458.652c-4.791,0-9.279,0.147-13.752-0.045
		c-3.624-0.156-5.75,1.078-5.999,4.89c-0.11,1.699-0.2,3.489-2.74,3.091c-2.291-0.358-2.242-2.052-2.216-3.768
		c0.023-1.497,0.123-3.005-0.02-4.487c-0.25-2.608,0.916-3.602,3.429-3.582c5.653,0.044,11.308,0.005,16.961-0.034
		C235.944,454.701,237.429,455.637,237.978,458.652z"/>
	<path fill-rule="evenodd" clip-rule="evenodd" fill="#FFFFFF" d="M354.869,521.408c-4.139,0-8.278,0.025-12.417-0.02
		c-0.962-0.012-2.14-0.09-2.096-1.477c0.037-1.148,0.855-1.772,1.977-1.777c8.609-0.035,17.218-0.043,25.827-0.052
		c0.909-0.001,1.606,0.273,1.511,1.396c-0.126,1.471-1.115,1.957-2.384,1.967c-4.139,0.033-8.278,0.012-12.417,0.012
		C354.869,521.441,354.869,521.424,354.869,521.408z"/>
	<path fill-rule="evenodd" clip-rule="evenodd" fill="#FFFFFF" d="M242.136,464.25c-5.245,3.286-10.909,3.702-16.694,3.427
		c-1.005-0.048-2.026-0.092-2.125-1.499c-0.115-1.643,0.888-1.931,2.195-1.93C231.053,464.252,236.595,464.25,242.136,464.25z"/>
	<path fill-rule="evenodd" clip-rule="evenodd" fill="#FFFFFF" d="M183.248,332.815c1.183,1.778,0.8,3.3,0.805,4.739
		c0.02,5.201-1.083,6.095-6.119,5.473c-1.967-0.243-2.938-0.786-1.501-2.703C178.397,337.702,180.155,334.877,183.248,332.815z"/>
	<path fill-rule="evenodd" clip-rule="evenodd" fill="#FFFFFF" d="M334.131,459.319c2.33-0.782,4.65-0.354,6.94-0.356
		c1.544-0.002,1.898,1.036,1.887,2.336c-0.01,1.212-0.082,2.382-1.702,2.48C337.861,463.985,334.406,464.277,334.131,459.319z"/>
	<path fill-rule="evenodd" clip-rule="evenodd" fill="#FFFFFF" d="M314.168,427.107c-2.214-2.297-3.996-4.148-5.725-5.943
		C314.216,419.691,314.625,420.043,314.168,427.107z"/>
	<path fill-rule="evenodd" clip-rule="evenodd" fill="#FFFFFF" d="M301.96,521.006c5.291-2.418,10.752-2.441,16.186,0
		C312.751,521.006,307.356,521.006,301.96,521.006z"/>
	<path fill-rule="evenodd" clip-rule="evenodd" fill="none" d="M388.165,339.233c-1.827,0-3.76-0.392-5.463,0.069
		c-6.916,1.875-10.586-3.17-14.963-6.725c-0.464-0.377-0.905-1.143-0.881-1.708c0.289-6.76-3.236-13.018-2.336-19.942
		c0.41-3.15,1.826-3.611,4.152-3.206c2.348,0.411,6.503-1.877,6.249,3.053c-0.216,4.183,1.895,8.741-2.217,12.597
		c-1.126,1.055-0.878,3.913,1.415,6.349c6.467,6.868,14.337,2.948,21.504,4.008c1.627,0.24,3.32,0.116,4.977,0.041
		c2.172-0.099,2.911,0.948,2.904,3.007c-0.008,2.083-1.169,2.452-2.884,2.437c-4.152-0.038-8.304-0.012-12.457-0.012
		C388.165,339.211,388.165,339.222,388.165,339.233z"/>
	<path fill-rule="evenodd" clip-rule="evenodd" fill="none" d="M367.69,371.195c-3.064-1.592-8.015,2.105-8.087-4.377
		c-0.075-6.639-0.011-7.75,6.36-6.416c11.615,2.431,23.229,2.175,34.895,2.288c1.936,0.019,2.681,0.825,2.643,2.694
		c-0.037,1.805-0.711,2.778-2.66,2.754c-3.663-0.044-7.354,0.306-10.984-0.039C382.096,367.362,374.699,369.183,367.69,371.195z"/>
	<path fill-rule="evenodd" clip-rule="evenodd" fill="none" d="M395.681,358.215c-3.721-0.259-8.04,1.43-9.893-4.076
		c-0.632-1.876-8.729-1.162-10.808,0.629c-1.412,1.216-13.213,2.355-14.32,1.066c-2.038-2.375-0.89-5.396-0.885-8.121
		c0.005-2.536,2.282-2.116,3.771-1.94c4.317,0.51,8.922-1.626,12.947,2.548c1.385,1.437,5.423,0.283,8.246,0.375
		c1.631,0.053,3.955-0.664,4.709,0.813c2.321,4.547,6.304,3.231,9.91,3.389c2.002,0.088,4.159-0.241,4.131,2.854
		c-0.031,3.406-2.559,2.255-4.317,2.435C398.02,358.306,396.846,358.21,395.681,358.215z"/>
	<path fill-rule="evenodd" clip-rule="evenodd" fill="none" d="M387.336,324.313c4.889,0,8.843-0.009,12.796,0.004
		c1.739,0.006,3.331,0.11,3.389,2.539c0.057,2.413-1.081,3.238-3.33,3.15c-4.801-0.187-9.606-0.285-14.408-0.463
		c-2.443-0.091-3.176-1.72-4.451-3.7c-3.11-4.829-2.482-9.903-2.692-15.041c-0.16-3.917,2.572-3.256,4.696-3.038
		c2.206,0.225,5.887-1.743,5.787,2.975C389.033,314.998,389.897,319.358,387.336,324.313z"/>
	<path fill-rule="evenodd" clip-rule="evenodd" fill="none" d="M398.512,166.008c-3.152,0.077-6.078,0.343-7.588-2.934
		c-0.35-0.758-0.697-1.531-1.768-0.623c-3.768,3.191-8.245,1.184-12.385,1.509c-3.267,0.256-3.061-2.523-2.86-4.622
		c0.208-2.179-1.466-5.518,2.513-5.939c7.604-0.804,14.797-0.048,19.911,6.688c0.685,0.902,1.684,0.915,2.629,1.164
		c1.72,0.452,4.621-0.587,4.38,2.603C403.079,167.356,400.007,165.458,398.512,166.008z"/>
	<path fill-rule="evenodd" clip-rule="evenodd" fill="none" d="M390.478,190.191c-2.503,2.495-12.813,4.156-15.176,2.478
		c-2.663-1.891-1.179-4.887-1.368-7.404c-0.177-2.364,1.541-2.411,3.336-2.6c5.676-0.597,11.042,0.562,16.25,2.634
		c0.852,0.339,1.966,1.163,2.113,1.926c0.525,2.722,2.365,2.793,4.458,2.715c1.793-0.066,3.332,0.152,3.389,2.553
		c0.067,2.821-1.82,2.715-3.708,2.664C395.879,195.05,391.287,196.392,390.478,190.191z"/>
	<path fill-rule="evenodd" clip-rule="evenodd" fill="none" d="M381.756,167.893c6.073-0.107,11.075,1.886,14.666,7.067
		c1.083,1.562,3.093,0.644,4.671,0.738c1.649,0.099,2.444,0.706,2.388,2.4c-0.043,1.3-0.388,2.477-1.879,2.382
		c-3.745-0.237-8.158,1.762-10.665-2.966c-0.397-0.749-0.729-1.425-1.788-0.603c-3.528,2.735-7.649,0.781-11.463,1.335
		c-3.75,0.544-3.965-1.875-3.849-4.626c0.116-2.761-0.653-6.04,3.933-5.742C379.093,167.966,380.427,167.893,381.756,167.893z"/>
	<path fill-rule="evenodd" clip-rule="evenodd" fill="none" d="M385.997,433.111c-2.89-0.673-7.551,2.288-7.502-4.468
		c0.035-4.863,1.419-5.871,6.14-6.135c5.917-0.331,11.071,3.016,16.883,2.35c1.5-0.172,1.941,1.04,1.933,2.323
		c-0.007,1.115,0.154,3.07-1.232,2.761C396.271,428.615,391.98,435.002,385.997,433.111z"/>
	<path fill-rule="evenodd" clip-rule="evenodd" fill="none" d="M391.509,274.232c-8.337,0.008-8.231,0.013-7.884-6.642
		c0.118-2.279,0.859-3.135,3.142-3.352c5.441-0.518,10.612,0.25,15.364,2.92c1.952,1.098,2.194,3.33,0.03,4.134
		C398.494,272.653,395.182,275.839,391.509,274.232z"/>
	<path fill-rule="evenodd" clip-rule="evenodd" fill="none" d="M403.623,629.254c0,0.332,0,0.664,0,0.997
		c0,11.927,0.002,11.845-11.933,11.413c-3.468-0.125-5.353-1.447-5.367-4.968c-0.021-4.981-0.008-9.964,0.078-14.943
		c0.052-3.003,1.652-4.296,4.701-4.553C403.629,616.147,403.623,616.079,403.623,629.254z"/>
	<path fill-rule="evenodd" clip-rule="evenodd" fill="none" d="M387.141,595.188c5.211-1.468,9.212,4.705,14.897,3.317
		c0.847-0.207,1.342,0.796,1.384,1.717c0.05,1.101-0.287,2.265-1.484,2.149c-6.437-0.623-11.571,4.588-18.363,3.54
		c-4.268-0.659-4.944-1.982-5.047-5.78c-0.111-4.123,1.457-5.356,5.182-4.959C384.697,595.277,385.705,595.188,387.141,595.188z"/>
</g>
</svg>
