<?xml version="1.0" encoding="utf-8"?>
<!-- Generator: Adobe Illustrator 16.0.0, SVG Export Plug-In . SVG Version: 6.00 Build 0)  -->
<!DOCTYPE svg PUBLIC "-//W3C//DTD SVG 1.1//EN" "http://www.w3.org/Graphics/SVG/1.1/DTD/svg11.dtd">
<svg version="1.1" id="Layer_1" xmlns="http://www.w3.org/2000/svg" xmlns:xlink="http://www.w3.org/1999/xlink" x="0px" y="0px"
	 width="500px" height="320px" viewBox="0 0 500 320" enable-background="new 0 0 500 320" xml:space="preserve">
<g opacity="0.1">
	<path fill="#101010" d="M96.5,257.3c0-1.7-1.6-3.2-3.3-3.2H17.7c-1.7,0-3.4,1.4-3.4,3.2v49.3H5l0.7,2.104
		c0.1,0.197,2,5.697,9.2,5.697h80.9c7,0,9-5.101,9.2-5.697l0.7-2.104h-9.2V257.3z M16.9,257.4c0-0.4,0.4-0.604,0.8-0.604h75.4
		c0.4,0,0.8,0.2,0.8,0.604v50.1h-77V257.4z M102.4,308.8c-0.9,1.3-2.8,3-6.5,3H15c-3.8,0-5.6-1.7-6.4-3H102.4z"/>
	<rect x="19.1" y="258.9" fill="#101010" width="72.6" height="46"/>
	<path fill="#101010" d="M340.8,174.3H377c0.9,0,3,0.101,3.5-1.8s-1.1-2.7-2.3-3.5c-1-0.6-2.7-1.6-3.3-2.7
		c-1.2-1.899-1.7-5.8-1.804-9.6h45.7c2.3,0,4.3-1.8,4.3-4.2v-83c0-2.3-1.896-4.4-4.196-4.4H298.5c-2.3,0-4.3,2.1-4.3,4.5v82.9
		c0,2.3,1.899,4.2,4.3,4.2h46.1c0,3.4-0.5,7.7-1.696,9.6c-0.7,1.101-2.2,2-3.304,2.7c-1.196,0.8-2.8,1.7-2.3,3.5
		C337.8,174.4,339.9,174.3,340.8,174.3z M297.6,69.5c0-0.5,0.301-1,0.801-1H418.8c0.5,0,0.8,0.5,0.8,1v72.1h-122V69.5L297.6,69.5z
		 M298.5,153.6c-0.5,0-0.8-0.6-0.8-1.2v-9.1h122.1v9.1h-0.1c0,0.5-0.3,1.2-0.8,1.2H298.5z M345.6,168c2.104-3.5,2.2-10.5,2.104-12.7
		h22c0,2.1,0.2,9.2,2.3,12.7c1,1.4,2.4,2.4,3.6,3.2h-33.398C343.4,170.3,344.8,169.3,345.6,168z"/>
	<rect x="300.6" y="71.5" fill="#101010" width="116.104" height="67.1"/>
	<path fill="#101010" d="M412.7,184.4l1.2-6h1.896c0.4,0,0.604,0.1,0.7,0.199c0.1,0.101,0.1,0.397,0,0.801l-1,5v0.1h0.1h2.7
		c0.3,0.1,0.3,0.1,0.3,0l1-5.6c0.104-0.7,0-1.301-0.3-1.7c-0.5-0.601-1.3-1-2.5-1h-2.3l0.5-2.7v-0.1h-0.1h-2.602
		c-0.1,0-0.1,0-0.1,0.1l-1.104,5.6c-0.196-1.699-1.3-2.699-3.396-2.896h-5c-0.104,0-0.104,0-0.104,0.1l-2.196,11v0.104h0.1h2.6
		c0.104,0,0.104,0,0.104-0.104l0.5-2.697h2.3c0.1,0,0.2,0,0.2,0c1.6,0,3.3-0.899,4.2-2.603l-0.5,2.397v0.103h0.1h2.6
		C412.7,184.5,412.7,184.5,412.7,184.4z M405.7,182.3h-1.5l0.6-3.8h1.7c0.4,0,1.5,0.1,1.5,1.1C407.9,181.9,406.8,182.2,405.7,182.3z
		"/>
	<path fill="#101010" d="M420.7,176.3l-2.2,11v0.101h0.1h2.604c0.1,0,0.1,0,0.1-0.101l0.5-2.7h2.301c0.103,0,0.199,0,0.199,0
		c2.4,0,4.801-1.896,4.801-5.199c0.103-1.897-1-3.101-3.301-3.197h-5C420.7,176.2,420.7,176.2,420.7,176.3z M423,178.5h1.7
		c0.396,0,1.5,0.1,1.5,1.1c-0.104,2.301-1.2,2.604-2.3,2.7h-1.5L423,178.5z"/>
	<path fill="#101010" d="M473,243v-39.1c0.1-1.9-1.5-3.4-3.4-3.4H414.2c-1.9,0-3.4,1.5-3.4,3.4V243c0,1.9,1.5,3.4,3.4,3.4H469.6
		C471.5,246.4,473,244.9,473,243z M414.1,244.3c-0.696,0-1.196-0.5-1.196-1.2v-38.8c0-0.7,0.5-1.2,1.196-1.2H469.7
		c0.7,0,1.2,0.5,1.2,1.2v38.8c0,0.7-0.5,1.2-1.2,1.2H414.1z"/>
	<rect x="416.3" y="204.8" fill="#101010" width="48.104" height="37.4"/>
	<path fill="#101010" d="M467.7,221.5c-1.104,0-2.104,0.9-2.104,2.1c0,1.2,0.9,2.104,2.104,2.104c1.1,0,2.1-0.9,2.1-2.104
		C469.8,222.4,468.9,221.5,467.7,221.5z"/>
	<path fill="#101010" d="M68.5,67.1h39.1c1.9,0,3.4-1.5,3.4-3.4V8.3c0.1-1.9-1.5-3.4-3.4-3.4H68.5c-1.9,0-3.4,1.5-3.4,3.4v55.4
		C65.1,65.6,66.6,67.1,68.5,67.1z M67.2,8.3c0-0.7,0.5-1.2,1.2-1.2h38.8c0.7,0,1.2,0.5,1.2,1.2v55.6h0.1c0,0.7-0.5,1.2-1.2,1.2H68.4
		c-0.7,0-1.2-0.5-1.2-1.2V8.3L67.2,8.3z"/>
	<rect x="69.4" y="10.5" fill="#101010" width="37.4" height="48.1"/>
	<path fill="#101010" d="M88,59.8c-1.1,0-2.1,0.9-2.1,2.1c0,1.1,0.9,2.1,2.1,2.1c1.1,0,2.1-0.9,2.1-2.1C90,60.7,89.1,59.8,88,59.8z"
		/>
	<path fill="#101010" d="M429.7,48.2c0.3,1.2,1.5,1.8,2.7,1.5l0.6,2.1c0.3,1.1,1.5,1.8,2.7,1.5l0.6,2.1c0.3,1.1,1.5,1.8,2.7,1.5
		l4.2-1.2c1.1-0.3,1.8-1.5,1.5-2.7L440,36.3c-0.3-1.1-1.5-1.8-2.7-1.5l-4.2,1.2c-1.1,0.3-1.8,1.5-1.5,2.7l-0.6-2.1
		C427.8,25,434.5,13,446.1,9.8c11.5-3.2,23.5,3.6,26.7,15.1L473.4,27c-0.304-1.1-1.5-1.8-2.7-1.5l-4.2,1.2c-1.1,0.3-1.8,1.5-1.5,2.7
		l4.7,16.7c0.3,1.1,1.5,1.8,2.7,1.5L474.6,47c2.5,1.1,7.7,2.6,15.104,0.8c1.7-0.4,3-0.2,3.6,0.7c0.7,1,0.301,2.8-0.8,4.4
		c-2.6,3.5-8.8,6.3-18.6,4c0.1-0.4-0.2-0.8-0.5-0.8l-7-1.6c-0.104,0-0.104,0-0.2,0c-0.3,0-0.604,0.2-0.7,0.6v0.1l-0.899-0.2
		c-0.397-0.1-0.897-0.1-1.197,0c-0.303,0.1-0.4,0.3-0.2,0.5s0.7,0.5,1.1,0.6l0.9,0.2l-0.103,0.3c-0.101,0.4,0.199,0.8,0.5,0.9l7,1.6
		c0.103,0,0.103,0,0.199,0c0.301,0,0.604-0.2,0.7-0.6c2.601,0.6,5,0.9,7.101,0.9c6.399,0,10.699-2.5,12.899-5.4
		c1.601-2.5,1.9-4.9,0.9-6.4c-0.9-1.4-2.804-1.8-5.104-1.3c-5.5,1.4-9.7,0.7-12.396-0.1c0.896-0.5,1.396-1.5,1.1-2.5l-0.6-2.1
		c1.1-0.3,1.8-1.5,1.5-2.7l-0.604-2.1c1.2-0.3,1.8-1.5,1.5-2.7L477,23.7c-3.9-13.8-18.2-21.9-32.1-18.1
		C431.1,9.5,423,23.8,426.8,37.7L429.7,48.2z"/>
	<path fill="#101010" d="M332.3,53.1H349c2,0,3.7-1.7,3.7-3.7V8.6C352.6,6.5,351,4.9,349,4.9h-16.7c-2,0-3.7,1.7-3.7,3.7v40.8
		C328.6,51.4,330.3,53.1,332.3,53.1z M330.4,8.6c0-1.3,1.1-2.4,2.396-2.4H349c1.3,0,2.4,1.1,2.4,2.4v40.3c0,1.3-1.104,2.4-2.4,2.4
		h-16.2c-1.3,0-2.396-1.1-2.396-2.4L330.4,8.6L330.4,8.6z"/>
	<rect x="331.6" y="13.1" fill="#101010" width="18.104" height="31.8"/>
	<path fill="#101010" d="M338.5,10.9h4.5c0.2,0,0.4-0.2,0.4-0.4s-0.2-0.4-0.4-0.4h-4.5c-0.2,0-0.4,0.2-0.4,0.4
		S338.3,10.9,338.5,10.9z"/>
	<path fill="#101010" d="M340.8,45.9c-1.2,0-2.3,1-2.3,2.3c0,1.3,1,2.3,2.3,2.3s2.3-1,2.3-2.3C343,46.9,342,45.9,340.8,45.9z"/>
	<path fill="#101010" d="M382.1,276.6c2,0,3.7-1.699,3.7-3.699v-16.697c-0.1-2.104-1.7-3.7-3.7-3.7h-40.8c-2,0-3.7,1.7-3.7,3.7
		V272.9c0,2,1.7,3.699,3.7,3.699H382.1L382.1,276.6z M339.4,272.4v-16.2c0-1.3,1.1-2.4,2.396-2.4H382c1.3,0,2.4,1.101,2.4,2.4v16.2
		h0.1c0,1.3-1.1,2.396-2.4,2.396h-40.3C340.5,274.8,339.4,273.7,339.4,272.4z"/>
	<rect x="346.2" y="255.5" fill="#101010" width="31.8" height="18.1"/>
	<path fill="#101010" d="M380.6,267.1c0.2,0,0.4-0.199,0.4-0.396v-4.5c0-0.2-0.2-0.4-0.4-0.4c-0.196,0-0.396,0.2-0.396,0.4v4.5
		C380.2,266.9,380.4,267.1,380.6,267.1z"/>
	<path fill="#101010" d="M345,264.5c-0.1-1.3-1.1-2.3-2.3-2.3c-1.3,0-2.3,1-2.3,2.3c0,1.2,1,2.3,2.3,2.3
		C343.9,266.8,345,265.8,345,264.5z"/>
	<path fill="#101010" d="M97.9,93.4V94c0,0.9-0.5,1.4-1.4,1.4h-0.7c-0.1-0.6-0.7-0.9-1.6-0.9h-5.4c-0.8,0-1.5,0.3-1.6,0.9h-1.8
		c-0.9,0-1.7,0.9-1.7,1.8v0.4v0.6v21.2c0,0.9,0.8,1.4,1.7,1.4H128c0.9,0,1.7-0.6,1.7-1.4V98.1v-0.6v-0.4c0.1-0.8-0.8-1.7-1.7-1.7
		h-11.1c-0.9,0-1.8-0.5-1.8-1.4v-0.6c0-0.9-0.5-1.4-1.4-1.4h-14C98.8,92,97.9,92.5,97.9,93.4z M106.8,115.7c-4,0-7.2-3.2-7.2-7.2
		s3.2-7.2,7.2-7.2s7.2,3.2,7.2,7.2S110.7,115.7,106.8,115.7z M101.5,95.4H112c0.5,2.1,2.5,3.4,4.9,3.4h9.4v18.5h-14.1
		c3-1.7,5-5.1,5.1-8.9c0-5.8-4.7-10.5-10.5-10.5c-5.8,0-10.5,4.7-10.5,10.5c0,3.8,2,7.2,5.1,8.9H87.2V98.8h9.4
		C99,98.8,100.9,97.5,101.5,95.4z"/>
	<path fill="#101010" d="M106.8,103.4c-0.6,0-1.2,0.1-1.8,0.3c0.5,0.2,0.9,0.7,0.9,1.3c0,0.8-0.7,1.5-1.5,1.5
		c-0.8,0-1.4-0.6-1.5-1.4c-0.8,0.9-1.2,2-1.2,3.3c0,2.8,2.3,5.1,5.1,5.1c2.8,0,5.1-2.3,5.1-5.1C111.8,105.7,109.5,103.4,106.8,103.4
		z"/>
	<path fill="#101010" d="M451.8,179.1c2.604,0,4.7-2.1,4.7-4.699V136.8c1.7-0.8,3.1-1.9,4-3.4c0.8-1.2,1.2-2.7,1.2-4.5
		c0.1-3.7-2-7-5.2-8.7v7.6l-4.7,2.7l-4.7-2.7v-7.6c-3,1.7-5.3,5-5.3,8.8c0,1.7,0.4,3.2,1.2,4.4c0.8,1.4,2.4,2.6,4.1,3.4V174.4
		C447.1,177,449.2,179.1,451.8,179.1z M451.7,175.6c-0.4-0.199-0.604-0.699-0.4-1.1s0.7-0.6,1.104-0.4
		c0.396,0.2,0.6,0.7,0.396,1.104C452.5,175.6,452.1,175.8,451.7,175.6z M452.2,172.8c0.2-0.1,0.396-0.1,0.5,0.101
		c0.1,0.199,0,0.399-0.104,0.5c-0.196,0.103-0.396,0-0.5-0.101C452,173.1,452,172.9,452.2,172.8z M454.1,175.2
		c-0.1,0.7-0.5,1.399-1.196,1.7c-0.2,0.1-0.4,0-0.5-0.104c-0.104-0.197,0-0.396,0.1-0.5c0.4-0.197,0.8-0.697,0.8-1.197
		c0-0.399-0.1-0.699-0.3-1.103v0.103c-0.1-0.199,0-0.399,0.101-0.5c0.199-0.103,0.399,0,0.5,0.197C454,174,454.2,174.6,454.1,175.2z
		 M443.7,131.2c1.7,2.7,5.3,4.1,9.5,4.1c1.6,0,3.1-0.3,4.396-0.7c-0.6,0.3-1.3,1-2.196,1l-0.104,0.1c-0.8,0.3-1.6,0.5-2.5,0.6
		c-0.2,0-0.396,0-0.396,0.1v36c0,0-0.2,0-0.304,0c-0.196,0-0.5,0-0.5,0.1v-36c-0.396,0-0.396,0-0.896,0v36.3c-0.4,0.3-1,0.8-1.3,1.5
		c-0.104,0.2-0.104,0.5-0.104,0.8c0,0,0,0,0,0.104c0,0,0,0,0,0.102c0,1.102,0.604,2,1.604,2.398H450.8c-1.3-0.398-2.3-1.5-2.3-2.898
		v-38.702C446.4,135.3,444.3,133.7,443.7,131.2z"/>
	<path fill="#101010" d="M371.9,217.1c0-2.6-0.7-5.1-1.9-7.396c0.1,0.5,0.1,1,0.1,1.6c0,1.604-0.3,3.303-1.196,5.5l-4.7,13.7
		C368.8,227.8,371.9,222.8,371.9,217.1z"/>
	<path fill="#101010" d="M356.4,236c10.396,0,18.896-8.5,18.896-18.9C375.4,206.7,366.9,198.2,356.4,198.2
		c-10.4,0-18.9,8.5-18.9,18.899C337.5,227.5,346,236,356.4,236z M356.4,200.1c9.396,0,17.1,7.7,17.1,17.104
		c0,9.396-7.6,17.1-17.1,17.1c-9.4,0-17.104-7.697-17.104-17.1C339.3,207.8,347,200.1,356.4,200.1z"/>
	<path fill="#101010" d="M348.7,208.5c0.8,0,0.896,1.2,0.1,1.3c0,0-0.8,0.101-1.8,0.101l5.6,16.699l3.4-10.1l-2.4-6.6
		c-0.8-0.104-1.6-0.104-1.6-0.104c-0.8-0.1-0.7-1.3,0.1-1.3c0,0,2.5,0.2,4.104,0.2c1.6,0,4.1-0.2,4.1-0.2c0.801,0,0.9,1.2,0.104,1.3
		c0,0-0.801,0.104-1.801,0.104l5.601,16.6l1.5-5.2c0.7-2.1,1.2-3.6,1.2-4.899c0-1.897-0.7-3.197-1.301-4.301
		c-0.803-1.3-1.5-2.396-1.5-3.6c0-1.4,1.101-2.7,2.601-2.7c0.1,0,0.1,0,0.2,0c-2.801-2.5-6.4-4.1-10.4-4.1
		c-5.397,0-10.2,2.8-12.897,7c0.397,0,0.697,0,1,0C346.2,208.7,348.7,208.5,348.7,208.5z"/>
	<path fill="#101010" d="M356.7,218.5L352.1,232c1.4,0.4,2.804,0.6,4.4,0.6c1.8,0,3.5-0.3,5.1-0.896c0-0.104-0.1-0.104-0.1-0.2
		L356.7,218.5z"/>
	<path fill="#101010" d="M349.7,231.1l-7.4-20.199c-0.8,1.899-1.3,4-1.3,6.303C341,223.3,344.6,228.6,349.7,231.1z"/>
	<polygon fill="#101010" points="158.8,104.2 156.2,104.2 156.2,112.4 158.8,112.4 158.8,109.3 161.4,109.3 161.4,112.4 
		163.9,112.4 163.9,104.2 161.4,104.2 161.4,106.8 158.8,106.8 	"/>
	<polygon fill="#101010" points="165.2,106.8 167.4,106.8 167.4,112.4 170,112.4 170,106.8 172.5,106.8 172.5,104.2 165.2,104.2 	
		"/>
	<polygon fill="#101010" points="176.4,108.2 178.1,111.1 178.2,111.1 179.8,108.2 179.8,112.4 182.9,112.4 182.9,104.2 
		179.9,104.2 178.2,107 176.5,104.2 173.8,104.2 173.8,112.4 176.4,112.4 	"/>
	<polygon fill="#101010" points="190.6,109.3 186.7,109.3 186.7,104.2 184.1,104.2 184.1,112.4 190.6,112.4 	"/>
	<path fill="#101010" d="M194.3,115.8h-42.1l3.8,43l17.2,4.8l17.3-4.8L194.3,115.8z M186.3,126.2l-0.2,2.6L186,130h-12.7h-7.4
		l0.5,5.2h7h10.8h1.4l-0.1,1.5l-1.2,14v0.9l-10.7,3h-0.1l-10.9-3l-0.7-8.2h2.4h2.9l0.4,4.2l5.9,1.5h0.1l5.8-1.5l0.5-6.8h-6.5h-11.8
		l-1.3-14.5l-0.1-1.4h13.2h13.2L186.3,126.2z"/>
	<path fill="#101010" d="M476.7,266.4l-0.8-0.7l-1-0.3l-9.804-2.7l-2.3-0.601l-1.7,1.601c-1.196,1.1-2.396,1.6-3.5,1.6
		c-1.6,0-3-1.2-3.196-1.3l-1.7-1.9l-2.4,0.801l-8.1,2.199l-1,0.301l-0.8,0.699l-15.9,14.2l-2.9,2.601l2.2,3.103l5.9,8.397l2.3,3.303
		l3.5-2.104l3-1.8v18.4v4.3h4.3l30-0.1h4.3V312.1V293.7l3.4,1.899l3.4,1.897l2.196-3.2l5.804-8.396l2.1-3.104l-2.5-2.602
		L476.7,266.4z M482.8,291.8l-9.8-5.6l-0.1,25.8l-30,0.1V286l-9.5,5.8l-5.9-8.399l15.9-14.197l8.1-2.2c0,0,2.5,2.603,6.2,2.603
		c1.896,0,4.1-0.699,6.3-2.699l9.8,2.699l14.8,13.801L482.8,291.8z"/>
	<path fill="#101010" d="M147.5,211.6h27.2c0.7,0,1.2-0.6,1.2-1.199v-19.897c0.1-0.7-0.5-1.2-1.2-1.2h-27.2
		c-0.7,0-1.2,0.604-1.2,1.2V210.4C146.3,211.1,146.9,211.6,147.5,211.6z M150.1,210.1V209.9l7.5-7.7l1.7,1.6
		c0.3,0.3,0.6,0.5,1,0.601c0.4,0.103,0.8,0.199,1.1,0.199c0.4,0,0.7,0,1.1-0.1c0.3-0.1,0.6-0.2,0.8-0.3c0.1,0,0.1-0.101,0.2-0.101
		l1.7-1.699l7.5,7.699H150.1L150.1,210.1z M174.3,208.2l-7.4-7.5l7.4-7.4V208.2z M172.801,191.5L162.3,202.1
		c-0.1,0.104-0.2,0.2-0.4,0.301c-0.2,0-0.3,0.103-0.5,0.103c-0.1,0-0.2,0-0.4,0c-0.1,0-0.2-0.103-0.3-0.2l-10.6-10.8L172.801,191.5
		L172.801,191.5z M148.5,193.2h0.1l7.5,7.399l-7.5,7.601h-0.1V193.2z"/>
	<path fill="#101010" d="M41.8,87.7v8.4c0,1.1,0.8,2,2,2h16.9c1.1,0,2.2-0.9,2.2-2v-1h1.3c0.6,0,0.9-0.3,0.9-0.9v-4.7
		c-0.1-0.5-0.4-0.8-0.9-0.8h-1.3v-1c0-1.1-1.1-2-2.2-2H43.8C42.7,85.7,41.8,86.6,41.8,87.7z M44,87.8h16.8V96h-0.1H44V87.8z"/>
	<rect x="45.3" y="89.2" fill="#101010" width="2.1" height="5.6"/>
	<rect x="49.1" y="89.2" fill="#101010" width="2.1" height="5.6"/>
	<path fill="#101010" d="M262.6,23.9h2.5V29c0,0.6,0.604,1.2,1.2,1.2c0.3,0,0.7-0.3,0.9-0.3l6-6h2.3c0,0.7,0.2,1.3,0.6,1.8
		c0.4,0.4,0.9,0.8,1.604,0.8h7.697l4.699,4.7c0.2,0,0.5,0.2,0.7,0.2c0.5,0,1-0.5,1-1v-3.9h1.9c1.3,0,2.399-1.2,2.399-2.6V11.3
		c-0.103-1.3-1.103-2.4-2.5-2.4H285.7v-4c0-1.7-1.2-2.9-2.9-2.9h-20.2c-1.699,0-3.1,1.2-3.1,2.9v15.9c0,0.8,0.3,1.7,0.9,2.2
		C261,23.6,261.7,23.9,262.6,23.9z M285.7,11.5h6.2c0.6,0,1.1,0.5,1.1,1.1c0,0.5-0.5,1-1.1,1h-6.2V11.5z M285.7,16.2h6.2
		c0.6,0,1.1,0.5,1.1,1.1c0,0.5-0.5,1-1.1,1h-6.2V16.2z M285.7,20.7v0.1h6.2c0.6,0,1.1,0.5,1.1,1.1c0,0.7-0.5,1.1-1.1,1.1H285
		C285.5,22.1,285.7,21.5,285.7,20.7z M261.7,5c0-0.5,0.5-0.9,1-0.9h20c0.5,0,0.899,0.3,0.899,0.9v15.6c0,0.6-0.303,1.1-0.899,1.1
		h-10c-0.3,0-0.601,0.1-0.8,0.3l-4.604,4.5v-3.9c0-0.6-0.396-0.9-1-0.9h-3.6c-0.604,0-1-0.6-1-1.1L261.7,5L261.7,5z"/>
	<path fill="#101010" d="M264.6,8.9h15.7c0.601,0,1.101-0.5,1.101-1.1c0-0.6-0.5-1.1-1.101-1.1h-15.7c-0.6,0-1.1,0.5-1.1,1.1
		C263.5,8.4,264,8.9,264.6,8.9z"/>
	<path fill="#101010" d="M264.6,13.6h15.7c0.601,0,1.101-0.5,1.101-1.1s-0.5-1.1-1.101-1.1h-15.7c-0.6,0-1.1,0.5-1.1,1.1
		S264,13.6,264.6,13.6z"/>
	<path fill="#101010" d="M264.6,18.4h15.7c0.601,0,1.101-0.5,1.101-1.1c0-0.7-0.5-1.1-1.101-1.1h-15.7c-0.6,0-1.1,0.5-1.1,1.1
		C263.5,17.9,264,18.4,264.6,18.4z"/>
	<path fill="#101010" d="M379.8,37.3c2.4,1.6,5.4,2.5,8.5,2.5c10.2,0,15.7-8.4,15.7-15.7c0-0.2,0-0.5,0-0.7c1.1-0.8,1.9-1.8,2.8-2.9
		c-0.896,0.5-2.1,0.7-3.2,0.9c1.104-0.7,2-1.8,2.4-3.1c-1.1,0.6-2.3,1.1-3.5,1.3c-1-1.1-2.4-1.7-4-1.7c-3.1,0-5.5,2.5-5.5,5.5
		c0,0.4,0,0.9,0.1,1.3c-4.6-0.2-8.696-2.4-11.396-5.8c-0.5,0.8-0.7,1.8-0.7,2.8c0,1.9,1,3.6,2.5,4.6c-0.9,0-1.6-0.3-2.5-0.7
		c0,0,0,0,0,0.1c0,2.7,1.9,4.9,4.4,5.4c-0.5,0.1-1,0.2-1.5,0.2c-0.4,0-0.7,0-1.104-0.1c0.7,2.2,2.7,3.8,5.2,3.8
		c-1.9,1.5-4.3,2.4-6.9,2.4C380.7,37.4,380.2,37.4,379.8,37.3z"/>
	<path fill="#101010" d="M306.9,299.4H302l-4.9,6.396c0,0,5.104-1.5,8.104-0.8l-8.104,10.5l10.7-8.3c1.5,3.396-0.896,8.3-0.896,8.3
		l6.5-4.897V305.7l8-8.101l1.6-8.103l-8,1.7L306.9,299.4z"/>
	<path fill="#101010" d="M46.4,213.3c-4.4,0-8.4,2-10.9,5.2l4,6.9c0.7-2.9,3.5-5.2,6.9-5.2c0.2,0,0.4,0,0.6,0h11.4
		C56,215.9,51.5,213.3,46.4,213.3z"/>
	<path fill="#101010" d="M60.3,227.4c0-1.801-0.3-3.7-0.9-5h-8c1.3,1.3,2.1,3,2.1,5c0,1.5-0.5,2.8-1.3,4l-5.7,9.896
		C54.1,241.2,60.3,235,60.3,227.4z"/>
	<path fill="#101010" d="M46.4,222.2c-2.8,0-5.1,2.3-5.1,5.1s2.3,5.101,5.1,5.101c2.8,0,5.1-2.301,5.1-5.101S49.2,222.2,46.4,222.2z
		"/>
	<path fill="#101010" d="M32.4,227.3c0,7,5.2,12.8,11.9,13.8l4-7.1c-0.6,0.4-1.3,0.4-1.9,0.4c-2.9,0-5.3-1.604-6.5-4l-5.7-9.9
		C33.1,222.5,32.4,224.8,32.4,227.3z"/>
	<path fill="#101010" d="M480.2,184.4c0.396,0,0.896-0.104,1.5-0.4c0.6-0.3,1.2-0.4,1.6-0.4c0.5,0,1.104,0.104,1.7,0.4
		c0.7,0.2,1.2,0.4,1.6,0.4c1,0,2-0.801,3-2.301c0.604-1.199,1.104-2.303,1.4-3.103c-0.7,0-1.3-0.7-1.8-1.397
		c-0.5-0.803-0.8-1.603-0.8-2.5c0-0.899,0.196-1.699,0.8-2.399c0.3-0.4,0.7-0.8,1.3-1.4c-0.4-0.5-0.8-0.899-1.2-1.2
		c-0.7-0.5-1.5-0.699-2.5-0.699c-0.5,0-1.2,0.103-2,0.399c-0.8,0.3-1.3,0.4-1.6,0.4s-0.8-0.101-1.604-0.3
		c-0.8-0.2-1.5-0.301-2-0.301c-1.3,0-2.396,0.601-3.3,1.697c-0.896,1.104-1.3,2.604-1.3,4.303c0,1.897,0.6,3.801,1.7,5.801
		S479,184.4,480.2,184.4z"/>
	<path fill="#101010" d="M483.8,166.7c-0.6,0.8-0.896,1.8-0.896,3c0.5,0,0.896-0.101,1.196-0.2c0.304-0.1,0.7-0.4,1.2-0.8
		c0.5-0.5,0.8-1,1.104-1.601c0.196-0.603,0.3-1.103,0.3-1.5c0,0,0-0.103,0-0.199c0-0.104,0-0.104,0-0.2V165.1c0-0.1,0-0.1,0-0.1
		C485.3,165.3,484.4,165.9,483.8,166.7z"/>
	<polygon fill="#101010" points="39.4,30.9 44.7,4.7 15.1,4.7 13.9,10.5 37.7,10.5 36.9,14.4 13.2,14.4 12,19.9 35.8,19.9 
		34.4,26.7 24.9,29.9 16.6,26.7 17.2,23.8 11.3,23.8 9.9,30.8 23.6,36.1 	"/>
	<path fill="#101010" d="M162.7,68.3c0.3-0.3,0.3-0.6,0.3-1v-6c0.1-0.4,0-0.7-0.2-1c-0.3-0.3-0.5-0.4-0.9-0.4s-0.7,0.1-1,0.4
		c-0.3,0.3-0.4,0.6-0.4,1v6c0,0.4,0.1,0.7,0.3,1c0.3,0.3,0.5,0.4,0.9,0.4C162.1,68.7,162.4,68.6,162.7,68.3z"/>
	<path fill="#101010" d="M154.9,75c0.3,0.3,0.6,0.4,1,0.4s0.8-0.1,1.1-0.4s0.5-0.6,0.5-1v-2.9h0.8c0.4,0,0.7-0.2,1-0.5
		c0.3-0.3,0.3-0.8,0.3-1.2v-9h-12.5v9h0.1c0,0.4,0.1,0.9,0.4,1.2c0.3,0.3,0.6,0.5,1.1,0.5h1v3c0,0.4,0.1,0.6,0.4,0.9
		c0.3,0.3,0.6,0.4,1,0.4s0.7-0.1,1-0.4c0.3-0.3,0.3-0.6,0.3-1v-2.9h2.1V74C154.5,74.4,154.6,74.7,154.9,75z"/>
	<path fill="#101010" d="M147.8,56.7c-0.6,0.9-0.9,2-0.9,2.9h12.8c0-0.9-0.3-2-0.9-2.9c-0.4-1-1.2-1.6-2.2-2.1l1-1.8
		c0.1-0.1,0-0.2-0.1-0.3s-0.2,0-0.3,0.1l-1,1.8c-0.9-0.4-1.8-0.6-2.8-0.6s-1.9,0.2-2.8,0.6l-1-1.8c-0.1-0.1-0.2-0.1-0.3-0.1
		c-0.1,0.1-0.1,0.1-0.1,0.3l1,1.8C149.2,55.1,148.4,55.8,147.8,56.7z M156,56.4c0.1-0.1,0.2-0.2,0.4-0.2c0.1,0,0.3,0.1,0.4,0.2
		c0.1,0.1,0.2,0.2,0.2,0.4c-0.1,0.2-0.1,0.3-0.2,0.4c-0.1,0.1-0.2,0.2-0.4,0.2c-0.1,0-0.3-0.1-0.4-0.2c-0.1-0.1-0.2-0.2-0.2-0.4
		C155.8,56.6,155.9,56.5,156,56.4z M150.1,56.4c0.1-0.1,0.2-0.2,0.4-0.2c0.1,0,0.3,0.1,0.4,0.2s0.2,0.2,0.2,0.4c0,0.2,0,0.3-0.2,0.4
		c-0.1,0.1-0.2,0.2-0.4,0.2s-0.3-0.1-0.4-0.2c-0.1-0.1-0.2-0.2-0.2-0.4C149.9,56.7,150,56.5,150.1,56.4z"/>
	<path fill="#101010" d="M146.7,61.3c0-0.4-0.2-0.7-0.5-1c-0.2-0.3-0.6-0.4-1-0.4c-0.4,0-0.7,0.1-1,0.4c-0.3,0.3-0.4,0.6-0.4,1v6
		c0,0.4,0.2,0.7,0.4,1c0.3,0.3,0.6,0.4,1,0.4c0.4,0,0.8-0.1,1-0.4c0.3-0.3,0.5-0.6,0.5-1V61.3z"/>
	<path fill="#101010" d="M78.9,169.3h32.7v-27.5H78.9V169.3z M95.2,158.6h8.2v2.6h-8.2V158.6z M84.1,158.6h3v-3h2.6V153h-2.6v-3h-3
		v-2.6h3v2.6h2.6v3h3v2.6h-3v3h-2.6v2.6h-3V158.6z"/>
	<path fill="#101010" d="M77.7,137c-2.1,0-3.9,1.7-3.9,3.9v29.7c0,2.104,1.7,3.9,3.9,3.9H113c2.1,0,3.9-1.7,3.9-3.9v-29.7
		c-0.1-2.2-1.8-3.9-3.9-3.9H77.7z M114.5,140.9v29.7h0.1c0,0.9-0.8,1.7-1.7,1.7H77.6c-0.9,0-1.7-0.8-1.7-1.7v-29.7
		c0-0.9,0.8-1.7,1.7-1.7h35.2C113.7,139.2,114.5,140,114.5,140.9z"/>
	<path fill="#101010" d="M228.3,108.2c-0.4-1-1-1.9-1.7-2.6c-0.7-0.7-1.6-1.3-2.6-1.7s-2.1-0.6-3.1-0.6s-2.1,0.2-3.1,0.6
		s-1.9,1-2.6,1.7c-0.7,0.7-1.3,1.6-1.7,2.6s-0.6,2.1-0.6,3.1s0.2,2.1,0.6,3.1s1,1.9,1.7,2.6c0.7,0.7,1.6,1.3,2.6,1.7
		c1,0.4,2.1,0.6,3.1,0.6c1.7,0,3.2-0.5,4.6-1.4l3.9,3.9c0.3,0.3,0.6,0.4,1,0.4s0.7-0.1,1-0.4c0.3-0.3,0.4-0.6,0.4-1
		c0-0.4-0.1-0.8-0.4-1l-3.9-3.9c1-1.4,1.4-2.9,1.4-4.6C228.9,110.2,228.7,109.2,228.3,108.2z M224.4,114.9c-1,1-2.2,1.5-3.6,1.5
		c-1.4,0-2.6-0.5-3.6-1.5s-1.5-2.2-1.5-3.6c0-1.4,0.5-2.6,1.5-3.6s2.2-1.5,3.6-1.5c1.4,0,2.6,0.5,3.6,1.5s1.5,2.2,1.5,3.6
		C225.9,112.6,225.4,113.9,224.4,114.9z"/>
	<path fill="#101010" d="M473,100.4c4.7,0.2,8.4,2.4,10.5,6c3.9-2.7,6.4-7.2,6.4-12.2c-0.104-8.3-6.7-15-14.9-15
		s-14.9,6.7-14.9,14.9c0,3.8,1.4,7.2,3.7,9.8C466.1,101.6,469.3,100.3,473,100.4z M482,99.4c0,0.4-0.7,0.6-1.2,0.3
		c-3.396-2.1-7.7-2.6-12.8-1.4c-0.5,0.1-1-0.2-1.1-0.7c-0.104-0.5,0.196-1,0.696-1.1c5.604-1.3,10.304-0.7,14.2,1.6
		C482.2,98.4,482.5,99,482,99.4z M484,95.2c-0.3,0.5-1,0.7-1.6,0.4c-3.9-2.4-10-3.1-14.604-1.7c-0.6,0.2-1.2-0.2-1.396-0.8
		c-0.2-0.6,0.196-1.2,0.8-1.4c5.3-1.6,12-0.8,16.5,1.9C484.2,94,484.4,94.7,484,95.2z M466.4,86.5c5.196-1.6,13.8-1.3,19.196,2
		c0.7,0.4,0.9,1.2,0.5,1.9c-0.396,0.7-1.3,0.8-1.896,0.4c-4.7-2.8-12.5-3.1-17-1.7c-0.7,0.2-1.5-0.2-1.7-0.9
		C465.3,87.5,465.7,86.7,466.4,86.5z"/>
	<path fill="#101010" d="M478.6,108.6c-1.1-2.4-3.1-3.7-5.8-3.7c-2.1-0.1-3.8,0.7-5.1,2.3c2.1,1.2,4.6,1.9,7.2,1.9
		C476.2,109.1,477.4,108.9,478.6,108.6z"/>
	<path fill="#101010" d="M308.5,174.6h-0.4L308,174.7c-0.1,0.1-0.1,0.1-0.2,0.2c-0.1,0.1-0.2,0.1-0.3,0.1l-0.4,0.1H303.7l-2.5-0.1
		h-1.3l-0.2,0.1h-1.5c-1.5,0-2.3-0.1-2.4-0.1l-0.6-0.4h-0.9v4.4c0.101,0.1,0.3,0.3,0.601,0.5c0.103,0,0.103-0.1,0.199-0.2
		c0.104-0.1,0.2-0.2,0.2-0.399c0.101-0.301,0.2-0.601,0.3-1c0.104-0.397,0.2-0.697,0.301-0.897c0.103-0.2,0.199-0.3,0.303-0.397
		c0.102-0.103,0.396-0.199,0.8-0.303c0.397-0.1,0.8-0.197,1.2-0.197c0.8,0,1.396,0,1.697,0.101c0.103,0,0.103,0,0.199,0.101
		c0,0,0.104,0.101,0.104,0.199c0,0.1,0,0.301,0,0.7s0,0.7,0,1.2c0,0.396,0,0.896,0,1.396l0.102,4.9c0,1.896,0,3.5-0.102,5
		c0,0.3-0.104,0.5-0.104,0.6c-0.199,0.104-0.699,0.303-1.8,0.604c-0.399,0.1-0.899,0.3-0.899,0.6v0.1v0.302c0,0,0,0.102,0,0.302
		c0.199,0,0.399,0,0.803,0c1.102-0.104,2-0.2,2.697-0.2c1.303,0,2.199,0,2.699,0.103c0.604,0.101,1.301,0.101,2.201,0.101
		c0.199,0,0.299,0,0.399,0c0-0.101,0-0.3,0-0.3s0-0.2-0.104-0.602c-0.196-0.102-0.299-0.102-0.6-0.199c-0.103,0-0.3-0.103-0.5-0.103
		c-0.2-0.102-0.397-0.102-0.5-0.102s-0.2-0.101-0.2-0.101c-0.3-0.101-0.697-0.201-1-0.399c-0.1-0.302-0.197-0.601-0.1-1v-1.698
		l-0.102-4.104v-3.801l0.104-1.8c0-0.3,0.1-0.8,0.197-1.601c0.303,0,0.5-0.103,0.803-0.103c0.3,0,0.8,0,1.3,0s0.9,0,1.2,0
		s0.396,0,0.5,0c0.1,0,0.2,0.103,0.3,0.2c0,0,0,0.102,0.1,0.3c0,0.2,0.104,0.5,0.104,0.802c0,0.301,0.1,0.5,0.2,0.698
		c0.196,0.7,0.396,1.103,0.6,1.5c0.2,0,0.5-0.1,0.8-0.198c0-0.102,0-0.302,0-0.602v-0.7l-0.396-1c0-1-0.104-1.5-0.104-1.5v-1.2
		C308.8,174.6,308.6,174.6,308.5,174.6z"/>
	<path fill="#101010" d="M314.3,177.7c0.3,0,0.4-0.101,0.5-0.3c0.104-0.104,0-0.4-0.1-0.604l-1.5-1.896
		c-0.2-0.2-0.3-0.301-0.604-0.301c-0.3,0-0.396,0.101-0.6,0.301l-1.4,1.896c-0.196,0.2-0.196,0.4-0.1,0.5
		c0.1,0.104,0.2,0.303,0.5,0.303h0.899V189.2H311c-0.3,0-0.4,0.1-0.5,0.2c-0.1,0.1,0,0.3,0.1,0.5l1.4,1.896
		c0.2,0.2,0.3,0.303,0.6,0.303c0.304,0,0.4-0.103,0.604-0.303l1.5-1.896c0.2-0.2,0.2-0.4,0.1-0.5c-0.1,0-0.3-0.104-0.5-0.104h-0.7
		v-11.6L314.3,177.7L314.3,177.7z"/>
	<path fill="#101010" d="M139,29.6c0.3,1.2,0.7,2.3,1.2,3.2c0.5,0.9,1.2,1.7,1.9,2.4c0.8,0.7,1.6,1.3,2.5,1.7s2,0.8,3.1,1.1
		c1.2,0.3,2.4,0.5,3.6,0.6c1.2,0.1,2.6,0.2,4,0.2c1.5,0,2.8-0.1,4.1-0.2c1.2-0.1,2.4-0.3,3.6-0.6s2.2-0.6,3.2-1.1
		c0.9-0.4,1.8-1,2.6-1.7c0.8-0.7,1.4-1.5,2-2.4c0.5-0.9,0.9-2,1.2-3.2c0.3-1.2,0.4-2.6,0.4-4.2c0-2.9-1-5.3-2.8-7.3
		c0.1-0.3,0.2-0.6,0.3-0.9c0.1-0.3,0.2-0.8,0.2-1.4c0.1-0.6,0-1.3-0.1-2.2c-0.1-0.8-0.4-1.6-0.7-2.5h-0.2c-0.2,0-0.5,0-0.9,0
		c-0.4,0-0.9,0.1-1.4,0.3c-0.5,0.1-1.2,0.4-2.1,0.9c-0.8,0.4-1.7,1-2.7,1.6c-1.6-0.4-3.8-0.7-6.6-0.7c-2.8,0-5,0.2-6.6,0.7
		c-0.9-0.6-1.8-1.2-2.7-1.6c-0.9-0.4-1.5-0.7-2-0.9c-0.5-0.1-1-0.2-1.4-0.3c-0.4,0-0.7-0.1-0.8,0s-0.2,0-0.3,0.1
		c-0.3,0.8-0.6,1.7-0.7,2.5c-0.1,0.8-0.2,1.5-0.1,2.2c0.1,0.7,0.1,1.1,0.2,1.4c0.1,0.3,0.2,0.7,0.3,1c-1.8,2-2.7,4.2-2.7,7.2
		C138.6,26.8,138.7,28.3,139,29.6z M145,24.9c0.4-0.4,0.9-0.7,1.5-0.9s1.2-0.3,1.9-0.3c0.7,0,1.4,0,2.1,0s1.5,0.1,2.4,0.2
		c1,0.1,1.8,0.1,2.5,0.1c0.7,0,1.5,0,2.5-0.1s1.8-0.1,2.5-0.2c0.7,0,1.4,0,2.1,0s1.4,0.1,1.9,0.3c0.6,0.2,1.1,0.5,1.5,0.9
		c1.4,1.3,2.2,2.8,2.2,4.4c-0.1,1-0.2,1.9-0.5,2.6c-0.2,0.7-0.5,1.3-0.9,1.8c-0.4,0.5-0.9,0.9-1.5,1.3c-0.7,0.3-1.3,0.6-1.9,0.8
		c-0.6,0.2-1.4,0.3-2.4,0.4c-1,0.1-1.8,0.2-2.6,0.2c-0.8,0-1.7,0-2.9,0c-1.2,0-2.2,0-2.9,0c-0.8,0-1.6-0.1-2.6-0.2
		c-1-0.1-1.8-0.3-2.4-0.4c-0.6-0.2-1.3-0.5-1.9-0.8c-0.7-0.3-1.2-0.8-1.5-1.3c-0.4-0.5-0.7-1.2-0.9-1.9c-0.2-0.7-0.4-1.3-0.4-2.6
		C142.8,27.9,143.5,26.2,145,24.9z"/>
	<ellipse fill="#101010" cx="149.1" cy="29" rx="2.1" ry="3.2"/>
	<ellipse fill="#101010" cx="161.8" cy="29" rx="2.1" ry="3.2"/>
	<path fill="#101010" d="M277.8,112.9c0.4-0.4,0.601-1,0.7-1.7c0.2-0.6,0.1-1.4-0.2-2.2s-0.7-1.5-1.2-2.1l-1.699-1.7
		c-0.601-0.6-1.197-1-2.101-1.2c-0.8-0.3-1.6-0.4-2.3-0.3c-0.7,0.1-1.3,0.3-1.7,0.7l-15.5,15.5l-2.6,11.1l11.1-2.6L277.8,112.9z
		 M273.3,115.4l-9.1,9.1c-0.3-0.4-0.601-0.9-0.8-1.5c-0.2-0.6-0.301-1.2-0.301-1.7s0-1,0.101-1.4l8.899-8.9l0.197,0.2
		c0.5,0.5,0.9,1.2,1,2C273.6,114.1,273.5,114.8,273.3,115.4z M270,105.9c0.4-0.5,1.1-0.6,2.1-0.5s1.801,0.5,2.4,1.1l1.3,1.3
		c0.601,0.6,1,1.4,1.101,2.4c0.103,1,0,1.7-0.5,2.2l-1.197,1.3c-0.2-1.3-0.7-2.4-1.5-3.3l-1.7-1.7c-0.8-0.8-1.897-1.3-3.3-1.5
		L270,105.9z M266.5,109.3c0.4-0.4,1.1-0.6,2.1-0.5c1,0.1,1.801,0.5,2.4,1.1l0.2,0.2l-8.9,8.9c-0.399,0.1-0.8,0.1-1.399,0.1
		c-0.5,0-1.101-0.1-1.697-0.3c-0.604-0.2-1.104-0.5-1.5-0.8L266.5,109.3z M257.6,127.8c-0.3-0.8-0.699-1.5-1.199-2s-1.101-0.9-2-1.2
		l0.803-4.1l1.5-1.5c0.6,0.5,1.396,0.9,2.3,1.2c0.897,0.3,1.7,0.5,2.397,0.5c0,0.7,0.199,1.6,0.5,2.5c0.303,0.9,0.699,1.7,1.199,2.3
		L261.7,127L257.6,127.8z"/>
	<path fill="#101010" d="M217.7,37.9c6.2,0,11-2.1,11-4.6v-2.7h1.9c3,0,5.5-2.5,5.5-5.6s-2.4-5.6-5.5-5.6h-1.9v-2.7
		c0-2.6-4.8-4.6-11-4.6c-6.2,0-11,2.1-11,4.6v16.6C206.7,35.9,211.5,37.9,217.7,37.9z M228.7,22.8h2.4c0.8,0,1.4,0.3,1.6,0.6
		c0.3,0.3,0.7,0.7,0.7,1.5c0,0.9-0.4,1.3-0.7,1.6c-0.3,0.3-0.8,0.6-1.6,0.6h-2.4V22.8z M211.7,15.6c1.7-0.6,3.8-0.9,6-0.9
		c2.2,0,4.3,0.3,6,0.9c1.1,0.4,1.7,0.7,2.1,1c-0.4,0.3-1,0.7-2.1,1c-1.7,0.6-3.8,0.9-6,0.9c-2.2,0-4.3-0.3-6-0.9
		c-1.1-0.4-1.7-0.7-2.1-1C209.9,16.3,210.6,16,211.7,15.6z"/>
	<path fill="#101010" d="M228.2,168.7c2.6,2.399,6.1,3.8,9.6,3.8c4.1,0,8-1.8,10.7-4.8c5.4-5.9,4.9-15-1-20.4
		c-2.6-2.4-6.1-3.7-9.6-3.7c-4.1,0-8,1.7-10.7,4.7c-2.6,2.9-3.9,6.6-3.7,10.4C223.7,162.5,225.4,166.1,228.2,168.7z M246.6,165.9
		c-2,2.199-4.6,3.5-7.4,3.8c0-0.3,0.1-0.7,0.1-1l0.4,0.1c0.4,0.101,0.7-0.2,0.8-0.5v-0.1c0.1-0.3,0-0.5-0.2-0.7
		c-0.1-0.1-0.2-0.1-0.3-0.2l-0.4-0.1c0.2-0.601,0.4-1.2,0.7-1.7l0.3,0.2c0.3,0.2,0.7,0,0.9-0.3V165.3c0.1-0.3,0.1-0.6-0.1-0.8
		l-0.1-0.1l-0.3-0.2c0.3-0.5,0.7-1,1.1-1.5l0.3,0.2c0.3,0.199,0.7,0.199,1-0.104l0.1-0.1c0.2-0.303,0.2-0.7-0.1-1l-0.3-0.303
		c0.4-0.397,0.9-0.801,1.4-1.197l0.2,0.3l0.1,0.103c0.2,0.197,0.6,0.197,0.9,0.101h0.1c0.3-0.2,0.4-0.6,0.2-0.9l-0.2-0.3
		c0.5-0.3,1.1-0.6,1.7-0.8l0.1,0.3c0,0.1,0.1,0.2,0.2,0.3c0.2,0.2,0.5,0.2,0.7,0.1h0.1c0.4-0.1,0.6-0.5,0.4-0.9l-0.1-0.3
		c0.2-0.1,0.5-0.1,0.8-0.2C249.7,160.8,248.7,163.7,246.6,165.9z M237.3,151.6l-0.1-0.1l-0.3-0.2c0.3-0.6,0.6-1.3,0.8-2l0.4,0.1
		c0.2,0,0.3,0,0.5-0.1c0.2-0.1,0.3-0.3,0.4-0.5v-0.1c0.1-0.3,0-0.6-0.2-0.8c-0.1-0.1-0.2-0.1-0.3-0.2l-0.4-0.1
		c0.1-0.4,0.1-0.7,0.2-1.1c2.8,0,5.5,1,7.7,3s3.5,4.6,3.8,7.4c-0.4,0.1-0.7,0.2-1.1,0.3l-0.1-0.4c0-0.1-0.1-0.2-0.2-0.3
		c-0.2-0.2-0.5-0.2-0.8-0.1h-0.1c-0.2,0.1-0.4,0.2-0.5,0.4c-0.1,0.2-0.1,0.3,0,0.5l0.1,0.4c-0.7,0.3-1.3,0.6-1.9,0.9l-0.2-0.3
		l-0.1-0.1c-0.2-0.2-0.6-0.2-0.9,0l-0.1,0.1c-0.2,0.1-0.3,0.3-0.3,0.5c0,0.2,0,0.4,0.1,0.5l0.2,0.3c-0.6,0.4-1.1,0.9-1.6,1.4
		l-0.3-0.3c-0.3-0.2-0.7-0.2-1,0.1l-0.1,0.101c-0.3,0.303-0.3,0.803,0,1l0.3,0.303c-0.4,0.5-0.8,1.1-1.2,1.697l-0.3-0.197
		c-0.1-0.104-0.3-0.104-0.5-0.104c-0.2,0.104-0.4,0.2-0.5,0.4v0.1c-0.2,0-0.2,0.301,0,0.604l0.1,0.1l0.3,0.2
		c-0.3,0.603-0.5,1.3-0.7,2L238,166.9c-0.2,0-0.3,0-0.5,0.101s-0.3,0.3-0.4,0.5v0.101c-0.1,0.301,0,0.603,0.2,0.801
		c0.1,0.102,0.2,0.102,0.3,0.199l0.4,0.103c-0.1,0.397-0.1,0.897-0.2,1.397c-2.8,0-5.7-1-7.9-3c-2.3-2-3.5-4.801-3.8-7.601
		c0.4-0.1,0.9-0.2,1.3-0.3l0.1,0.4c0,0.1,0.1,0.2,0.2,0.3c0.2,0.2,0.5,0.2,0.8,0.1h0.1c0.2-0.1,0.4-0.2,0.5-0.4
		c0.1-0.2,0.1-0.3,0-0.5l-0.1-0.3c0.7-0.3,1.3-0.6,1.9-0.9l0.2,0.3l0.1,0.1c0.2,0.2,0.6,0.2,0.9,0l0.1-0.1c0.2-0.1,0.3-0.3,0.3-0.5
		c0-0.2,0-0.4-0.1-0.5l-0.2-0.3c0.6-0.4,1.1-0.9,1.6-1.4l0.3,0.3c0.3,0.2,0.7,0.2,1-0.1l0.1-0.1c0.3-0.3,0.3-0.8,0-1
		c0,0-0.1-0.1-0.3-0.2c0.4-0.5,0.8-1.1,1.2-1.7l0.3,0.2c0.1,0.1,0.3,0.1,0.5,0.1c0.2-0.1,0.4-0.2,0.5-0.4v-0.1
		C237.6,152.2,237.5,151.8,237.3,151.6z M229.2,150.1c2-2.2,4.7-3.5,7.5-3.8c0,0.3-0.1,0.5-0.1,0.8l-0.4-0.1
		c-0.4-0.1-0.7,0.2-0.8,0.5v0.1c-0.1,0.3,0,0.5,0.2,0.7c0.1,0.1,0.2,0.1,0.3,0.2l0.4,0.1c-0.2,0.6-0.4,1.2-0.7,1.7l-0.3-0.2
		c-0.3-0.2-0.7,0-0.9,0.3v0.1c-0.1,0.3-0.1,0.6,0.1,0.8l0.1,0.1l0.3,0.2c-0.3,0.5-0.7,1-1.1,1.5c-0.2-0.1-0.3-0.2-0.3-0.2
		c-0.3-0.2-0.7-0.2-1,0.1v0.1c-0.2,0.3-0.2,0.7,0,1l0.3,0.2c-0.4,0.4-0.9,0.8-1.4,1.2l-0.2-0.3l-0.1-0.1c-0.2-0.2-0.6-0.2-0.9-0.1
		h-0.1c-0.3,0.2-0.4,0.6-0.2,0.9l0.2,0.3c-0.5,0.3-1.1,0.6-1.7,0.8l-0.1-0.3c0-0.1-0.1-0.2-0.2-0.3c-0.2-0.2-0.5-0.2-0.7-0.1h-0.1
		c-0.4,0.1-0.6,0.5-0.4,0.9l0.1,0.3c-0.3,0.1-0.7,0.2-1,0.2C226.2,155.1,227.2,152.3,229.2,150.1z"/>
	<path fill="#101010" d="M159.3,251.2c1.1-4.9,0.4-10.3-1.7-15.2c-4.9-2.1-10.3-2.8-15.2-1.8c-4.7,0.899-8.9,3.3-12.4,6.7
		c-3.4,3.396-5.7,7.699-6.6,12.396c-1,4.9-0.3,10.303,1.8,15.2c4.7,2.103,10.3,2.8,15.2,1.8c4.7-0.896,8.9-3.197,12.3-6.697
		C156.1,260.2,158.4,255.9,159.3,251.2z M147.8,235.9l9.9,9.896c0,2.104-0.3,4.2-0.8,6.2l-15.3-15.3
		C143.6,236.2,145.7,235.9,147.8,235.9z M135,268.5l-9.9-9.9c0-2.1,0.2-4.199,0.8-6.199l15.3,15.303
		C139.2,268.2,137.1,268.5,135,268.5z M146,250.7c0.1,0.1,0.1,0.399,0,0.5l-0.4,0.399c-0.1,0.101-0.4,0.101-0.5,0l-1.1-1.103
		l-1.7,1.7l1.1,1.1c0.1,0.104,0.1,0.4,0,0.5l-0.4,0.4c-0.1,0.1-0.4,0.1-0.5,0l-1.1-1.104l-1.7,1.7l1.1,1.101
		c0.1,0.103,0.1,0.399,0,0.5l-0.4,0.399c-0.1,0.101-0.4,0.101-0.5,0l-1.1-1.101l-1.7,1.701l-0.9-0.9l1.7-1.7l-1.1-1.101
		c-0.1-0.102-0.1-0.399,0-0.5l0.4-0.399c0.1-0.101,0.4-0.101,0.5,0l1.1,1.101l1.7-1.699l-1.1-1.102c-0.1-0.1-0.1-0.398,0-0.5
		l0.4-0.398c0.1-0.102,0.4-0.102,0.5,0l1.1,1.102l1.7-1.697l-1.1-1.103c-0.1-0.103-0.1-0.397,0-0.5l0.4-0.397
		c0.1-0.103,0.4-0.103,0.5,0l1.1,1.101l1.7-1.7l0.9,0.9l-1.7,1.699L146,250.7z"/>
	<path fill="#101010" d="M100.6,204.8c-0.5-0.399-1.1-0.5-1.7-0.3c0.7,1,0.4,3.6,2,3C100.4,206.5,100.5,205.7,100.6,204.8z"/>
	<path fill="#101010" d="M92.1,201.9c-0.2,0-0.3-0.104-0.5-0.104c0,1,0.6,3.604,1.9,3.9c0.2,0.1,0.5,0.1,0.7,0
		C93.1,204.2,93.5,202.4,92.1,201.9z"/>
	<path fill="#101010" d="M87.6,200.3c0.3,1.3,0.7,4.101,2.1,4.4c0.2,0.1,0.5,0.1,0.8,0c-0.6-1.2-1.3-2.5-1.3-3.7
		C88.7,200.8,88.1,200.7,87.6,200.3z"/>
	<path fill="#101010" d="M84.1,199.1c-0.5,0.801,0.3,4.4,2.1,4.9c0,0,0.1,0,0.2,0s0.3,0,0.5,0C86.6,202.7,85.2,199.6,84.1,199.1z"/>
	<path fill="#101010" d="M119.4,204.8l-0.1-0.1c-0.4-0.3-0.8-0.4-1.2-0.4c-0.5,0-0.9,0.2-1.3,0.3c-0.1,0.104-0.3,0.2-0.4,0.2
		c-1,0.2-2.1,0.3-3.2,0.3c-1.8,0-3.6-0.3-5.4-0.6c-1.7-0.4-3.4-0.8-4.9-1.2c-8.8-2.399-17.1-5.7-25.9-9.3c-2.4-0.9-4.9-1.9-7.3-2.9
		c-4.5-1.699-8.7-3.3-13.2-4.896c-3-1-6-2.104-9.1-3.303c-4.6-1.801-11-4-16.7-5.697c-0.4-0.2-0.9-0.4-1.5-0.604
		c-1.3-0.5-2.7-1.1-4-1.1c-0.8,0-1.4,0.2-1.9,0.6c-2.3,2-7.2,10.301-4.6,14.104c0.9,1.197,3,1.8,5.1,2.396
		c0.3,0.104,0.7,0.2,1,0.301c12,3.5,24,5.899,35.6,8.303c9.2,1.896,18.6,3.8,28,6.197c1,0.199,2,0.399,2.9,0.603
		c0.9,0.2,1.9,0.3,2.9,0.603h0.1c5.3,1.397,11.8,3.197,16.4,6.397c0.6,0.3,1,0.8,1.5,1.3c0.7,0.803,1.4,1.5,2.4,1.9l0.4,0.197
		l0.4-0.197c5.2-3.5,6.7-8.5,4.1-13.303L119.4,204.8z M114.8,215.5c-3.7-3.7-8.2-5.8-12.9-7.3c-1.5-0.5-3.1-1-4.7-1.4
		c-0.004-0.001-0.008-0.002-0.013-0.003c0.194-0.002,0.438-0.01,0.612-0.097c-0.9-1.5-0.7-3.101-2-3.601c-0.1,0-0.3-0.103-0.4-0.103
		c-0.097,0.968,0.375,3.317,1.583,3.745c-1.127-0.281-2.255-0.563-3.382-0.848c-0.4-0.101-0.8-0.197-1.2-0.301
		c-0.9-0.199-1.8-0.5-2.7-0.699c-1.2-0.197-2.3-0.5-3.4-0.801h-0.1c-5.7-1.396-11.5-2.8-17.2-4c-7.9-1.6-15.6-3.6-23.4-5.6
		c-7.7-2-15.7-3.4-23.2-6.4c0.3-3.6,1.2-7.1,2.6-10.5C44.9,183.2,64.3,191.2,83.8,198.7c-0.9,1.3-1.6,2.6-1.4,4.1
		c0.9-1.3,0.8-2.7,1.7-4c0.1,0,0.2,0.101,0.3,0.101c1.1,0.399,2.3,0.803,3.5,1.199c1.5,0.5,3,1.104,4.5,1.604
		c1.2,0.5,2.4,0.896,3.6,1.3c2.2,0.8,4.4,1.5,6.6,2.103c-0.6,0.897-1.5,2.397-0.6,3.101c1-1,0.8-2.101,1.4-3.101
		c4.8,0.897,9.5,2.5,15,0.5c0.5,1.197-1.1,1.697-1.9,1.897c-3.1,0.897-7.9-0.8-10.3-0.7c3.8,1.303,7.6,2.7,11.9,1.303
		C117.2,210.6,116.5,213.1,114.8,215.5z M115.9,215c1.4-2.4,2.1-5.7,2.9-7.7C118.9,210,118.3,213.3,115.9,215z"/>
	<path fill="#101010" d="M39.6,183.2c-4.8-1.7-9.3-3.601-14.2-4.4c-0.3,0.101-0.5,0.3-0.7,0.4c0.6,1.2,2.2,1,3.2,1.3
		c12.4,3.6,25.3,8.5,37.7,13.2c4.6,1.7,9,3.7,13.8,4.7c-4.3-2-8.8-3.7-13.2-5.5C57.4,189.5,48.5,186.5,39.6,183.2z"/>
	<path fill="#101010" d="M383.4,297c0-0.1,0-0.3-0.2-0.3h-2c-0.104,0-0.2,0.1-0.2,0.3l-0.7,3.3l-0.7,3.4c0,0.1-0.1,0.3-0.196,0.3
		H378h-0.2c-1.396,0-1.2-1.1-1-2.4v-0.1v-0.2l0.104-0.3l0.1-0.4c0-0.1,0.1-0.3,0.1-0.396l0.304-1.604l0.3-1.6c0-0.1,0-0.3-0.2-0.3
		h-2.1c-0.104,0-0.2,0.1-0.2,0.3l-0.4,2.1L374.4,301.2v0.2c-0.5,2.3-0.4,4.6,2.396,4.699l0.104,0.101h4.396
		c0.104,0,0.2-0.101,0.2-0.2l0.9-4.4l0.3-1.5L383.4,297z"/>
	<path fill="#101010" d="M357.8,302.9l-0.3,1.6l0.3-1.4C357.8,303,357.8,303,357.8,302.9z"/>
	<polygon fill="#101010" points="358.2,301.3 357.9,302.7 357.9,302.8 	"/>
	<path fill="#101010" d="M361.6,296.8h-2.1c-0.1,0-0.2,0.101-0.2,0.2l-0.2,0.9l-0.196,0.8c0,0.1,0,0.1,0.196,0.1h2.2
		c0.104,0,0.2,0,0.2-0.1l0.1-0.9l0.104-0.899C361.7,296.9,361.7,296.8,361.6,296.8z"/>
	<path fill="#101010" d="M358.8,299.8c-0.1,0-0.2,0.101-0.2,0.2l-0.3,1.4L358,302.8c0,0.101-0.1,0.3-0.1,0.4L357.6,304.6l-0.3,1.4
		c0,0.1-0.1,0.3-0.1,0.4c0,0-0.4,1.199-1.104,1.199H356c-0.3,0-0.6,0-0.6,0c-0.104,0-0.2,0.101-0.2,0.197l-0.2,1l-0.2,1
		c0,0.104,0,0.2,0.2,0.2c0.4,0,1.3,0,1.8,0c1.7,0,2.7-1,3.3-3.8l0.7-3.2l0.604-3c-0.2-0.2-0.304-0.2-0.4-0.2L358.8,299.8
		L358.8,299.8z"/>
	<path fill="#101010" d="M402,299l-0.1-0.4L401.8,298.2V298c-0.2-0.7-0.7-1.1-1.896-1.1L398.1,296.8l-1.696-0.1H396.3h-1.7
		c-0.1,0-0.3,0.2-0.3,0.3l-0.1,0.4l-0.104,0.5v0.1l-0.8,3.9l-0.8,3.699v0.197c0,0,0,0,0,0.104c0,0.074,0.061,0.135,0.13,0.168
		c0.061,0.072,0.193,0.132,0.271,0.132h1.696c0.104,0,0.304-0.101,0.304-0.101s0,0,0.1-0.103l0.1-0.103V305.8v-0.1l0.304-1.5
		l0.3-1.5V302.6c0-0.1,0-0.1,0-0.199l0.3-1.601l0.3-1.5c0-0.1,0.104-0.2,0.2-0.2l5.3,0.104C401.9,299.2,402,299.1,402,299z"/>
	<path fill="#101010" d="M409.5,295.5h-0.6c-0.4,0-0.4,0-0.604,0h-1.7c-0.1,0-0.3,0.1-0.3,0.2l-3.7,5.5c-0.1,0.1-0.1,0.1-0.196,0
		L402.1,300c0-0.1-0.1-0.2-0.196-0.2h-2.4c-0.1,0-0.2,0.101-0.1,0.2l1.1,3.8c0,0.101,0,0.3,0,0.4L400,306c0,0.1,0,0.2,0.2,0.2h2.396
		c0.104,0,0.2-0.101,0.304-0.2l0.5-1.8c0-0.101,0.1-0.3,0.196-0.4l6.104-8.1C409.6,295.6,409.6,295.5,409.5,295.5z"/>
	<path fill="#101010" d="M388.7,296.8c-3.9-0.1-4.8,2.3-5.3,4.7s-0.4,4.7,3.6,4.7c0.032,0,0.067,0,0.1,0c0.033,0,0.067,0,0.104,0
		s0.063,0,0.1,0s0.066,0,0.104,0c0.099,0,0.195,0,0.3,0c0.063,0,0.133,0,0.2,0c0.063,0,0.132,0,0.199,0c0.03,0,0.064,0,0.101,0
		c0.902,0,1.8,0,2.3,0c0.103,0,0.2-0.101,0.2-0.2l0.2-0.8l0.1,0.8l0.2-0.8V305v-0.1l0.2-0.801c0,0,0,0,0-0.103s-0.104-0.2-0.2-0.2
		v0.2H387.6c-1.3,0-1.8-0.397-1.696-1.397c0-0.103,0.1-0.303,0.196-0.303h5.604c0.1,0,0.2,0,0.2-0.1
		C392.8,298.9,392.6,296.8,388.7,296.8z M389.5,300.7h-3c-0.1,0-0.2-0.2-0.1-0.2c0,0,0,0,0-0.1c0.3-0.801,0.896-1.301,2-1.301
		c1.196-0.103,1.3,0.5,1.3,1.197C389.6,300.4,389.6,300.7,389.5,300.7z"/>
	<path fill="#101010" d="M368.6,294.4c-4,0-5.696,2.8-6.3,5.896c-0.7,3.104,0.2,5.9,4.104,5.803h3.1h2.9
		c0.1,0,0.196-0.103,0.3-0.199l0.5-1.9c0-0.1,0-0.2-0.2-0.2h-0.4h-0.1h-0.4H372c-0.1,0-0.1-0.1-0.1-0.1s1.1-2.7,1.3-4.2
		C373.6,297.4,372.6,294.4,368.6,294.4z M370.4,300.2l-0.104,0.2L369.9,302l-0.4,1.5c0,0.1-0.1,0.1-0.3,0.1h-2.3
		c-1.804,0-2.2-1.3-1.804-3.396c0.4-2.104,1.304-3.303,3-3.5C370.4,296.6,370.9,298.3,370.4,300.2z"/>
	<path fill="#101010" d="M347.3,305.8c-0.1,0-0.2,0-0.2-0.1c0,0,0,0-0.1,0s-0.2,0-0.2-0.101c-0.1,0-0.1,0-0.2-0.103c0,0,0,0-0.1,0
		s-0.1-0.103-0.2-0.103c-0.1,0-0.1-0.101-0.2-0.101c0,0,0,0-0.1,0c0,0-0.1,0-0.1-0.101c0,0-0.104,0-0.104-0.103
		c-0.101,0-0.101-0.1-0.2-0.1c0,0,0,0-0.1,0c-0.103,0-0.2-0.103-0.2-0.103s0,0-0.101,0c-0.103,0-0.103-0.101-0.199-0.101
		c0,0,0,0-0.103,0c-0.101,0-0.101-0.101-0.198-0.101c0,0,0,0-0.103-0.103l-0.1-0.101c0,0,0,0-0.103,0
		c-0.101,0-0.101-0.102-0.2-0.102c-0.101-0.102-0.101-0.102-0.197-0.201c0,0,0,0-0.103,0l-0.101-0.1c0,0,0,0-0.104-0.1
		c-0.1-0.102-0.1-0.102-0.196-0.201c-0.102-0.1-0.103-0.1-0.2-0.199l-0.104-0.1c0,0,0,0,0-0.102c0-0.104-0.1-0.104-0.1-0.199
		c-1.199-1.603-1.6-3.9-0.699-5.801l-0.897,1.102c-1.103,1.6-1,3.6-0.103,5.299c0,0,0,0.102,0.103,0.102v0.1v0.103l0.1,0.103v0.101
		l0.101,0.101c0,0,0,0,0,0.103c0,0.1,0.103,0.1,0.103,0.196c0,0.104,0.101,0.104,0.101,0.201c0,0,0,0,0,0.102l0.103,0.101
		c0,0,0,0,0,0.103c0.1,0.101,0.1,0.101,0.199,0.201c0.101,0.1,0.101,0.1,0.198,0.196c0,0,0,0,0,0.103l0.103,0.101c0,0,0,0,0.1,0
		c0.103,0.101,0.103,0.101,0.2,0.2c0.101,0,0.101,0.1,0.2,0.1c0,0,0,0,0.1,0.102l0.103,0.102c0,0,0,0,0.101,0.104l0.103,0.1
		c0,0,0,0,0.101,0l0.1,0.1c0,0,0,0,0.103,0c0.101,0,0.101,0.104,0.201,0.104c0,0,0,0,0.1,0s0.1,0.1,0.199,0.1h0.101
		c0,0,0.104,0,0.104,0.104c0.1,0,0.1,0.1,0.196,0.1c0.104,0,0.104,0.1,0.2,0.1c0,0,0,0,0.104,0c0.1,0,0.1,0.104,0.196,0.104
		c0.104,0,0.2,0.1,0.2,0.1s0,0,0.104,0c0.1,0,0.196,0.104,0.196,0.104c5.304,1,6.804-3.2,6.804-3.2
		C351.7,305.8,349.4,306.3,347.3,305.8z"/>
	<path fill="#101010" d="M349.1,302.4c-0.1,0-0.196,0-0.196-0.104c0,0,0,0-0.104,0c-0.1,0-0.1,0-0.2-0.1c0,0,0,0-0.1,0
		s-0.1,0-0.2-0.104c-0.1,0-0.1-0.1-0.2-0.1c0,0-0.1,0-0.1-0.1c0,0,0,0-0.1,0L347.8,301.8c-0.1,0-0.1-0.1-0.2-0.1
		c0,0-0.1,0-0.1-0.101c-0.1-0.103-0.1-0.103-0.2-0.199c-0.8-0.604-1.396-1.4-1.7-2.4c-0.3-1-0.196-2.1,0.304-3l-0.604,0.9
		c-0.8,1.1-0.7,2.699-0.101,3.896c0.101,0.2,0.201,0.396,0.301,0.604c0.1,0.199,0.199,0.396,0.4,0.5c0.1,0.1,0.1,0.1,0.196,0.199
		c0.103,0.101,0.103,0.101,0.2,0.197c0.104,0.104,0.104,0.104,0.2,0.2s0.1,0.103,0.199,0.2c0,0,0.101,0,0.101,0.1
		c0.104,0,0.104,0.104,0.2,0.104l0.1,0.1c0,0,0,0,0.104,0c0,0,0.1,0,0.1,0.1c0.104,0,0.104,0.104,0.2,0.104s0.1,0,0.2,0.1
		c0,0,0,0,0.1,0c0.104,0,0.104,0,0.2,0.104c0,0,0,0,0.1,0c0.104,0,0.2,0.1,0.2,0.1c4.104,0.7,5-2.5,5-2.5
		C352.5,302.3,350.8,302.9,349.1,302.4z"/>
	<path fill="#101010" d="M347.9,296.1c-0.5,0.7-0.5,1.5-0.2,2.301c0.396,0.803,1.1,1.399,2,1.699h0.1h0.104
		c2.3,0.4,2.896-1.199,3-1.396c-0.5,0.8-1.4,1-2.5,0.697c-0.104,0-0.2-0.101-0.304-0.101c-0.1,0-0.196-0.1-0.3-0.1
		c-0.2-0.101-0.396-0.2-0.6-0.3c-1-0.7-1.604-2.2-1-3.301L347.9,296.1z"/>
	<path fill="#101010" d="M203.6,90h61.9c2.1,0,3.9-1.7,3.9-3.9V57.7c-0.104-2.1-1.801-3.9-3.9-3.9h-61.9c-2.1,0-3.9,1.7-3.9,3.9
		v28.4C199.7,88.2,201.4,90,203.6,90z M201.9,57.7c0-0.9,0.8-1.7,1.7-1.7h61.9c0.9,0,1.7,0.8,1.7,1.7v28.4c0,0.9-0.8,1.7-1.7,1.7
		h-61.9c-0.9,0-1.7-0.8-1.7-1.7V57.7L201.9,57.7z"/>
	<path fill="#101010" d="M223,79c0.5,0,1-0.5,1-1v-2c0-0.5-0.5-1-1-1h-3c-0.5,0-1,0.5-1,1v2c0,0.5,0.5,1,1,1H223z"/>
	<path fill="#101010" d="M225,78c0,0.5,0.5,1,1,1h3c0.5,0,1-0.5,1-1v-2c0-0.5-0.5-1-1-1h-3c-0.5,0-1,0.5-1,1V78z"/>
	<path fill="#101010" d="M235,79c0.5,0,1-0.5,1-1v-2c0-0.5-0.5-1-1-1h-2c-0.5,0-1,0.5-1,1v2c0,0.5,0.5,1,1,1H235z"/>
	<path fill="#101010" d="M242,79c0.5,0,1-0.5,1-1v-2c0-0.5-0.5-1-1-1h-2c-0.5,0-1,0.5-1,1v2c0,0.5,0.5,1,1,1H242z"/>
	<path fill="#101010" d="M250,78v-2c0-0.5-0.5-1-1-1h-3c-0.5,0-1,0.5-1,1v2c0,0.5,0.5,1,1,1h3C249.5,79,250,78.5,250,78z"/>
	<path fill="#101010" d="M263,75h-9c-0.5,0-1,0.5-1,1v2c0,0.5,0.5,1,1,1h9c0.5,0,1-0.5,1-1v-2C264,75.5,263.5,75,263,75z"/>
	<path fill="#101010" d="M206,79h10c0.5,0,1-0.5,1-1v-2c0-0.5-0.5-1-1-1h-10c-0.5,0-1,0.5-1,1v2C205,78.5,205.5,79,206,79z"/>
	<path fill="#101010" d="M215,69v3c0,0.5,0.5,1,1,1h3c0.5,0,1-0.5,1-1v-3c0-0.5-0.5-1-1-1h-3C215.5,68,215,68.5,215,69z"/>
	<path fill="#101010" d="M224,73c0.5,0,1-0.5,1-1v-3c0-0.5-0.5-1-1-1h-1c-0.5,0-1,0.5-1,1v3c0,0.5,0.5,1,1,1H224z"/>
	<path fill="#101010" d="M228,69v3c0,0.5,0.5,1,1,1h3c0.5,0,1-0.5,1-1v-3c0-0.5-0.5-1-1-1h-3C228.5,68,228,68.5,228,69z"/>
	<path fill="#101010" d="M234,69v3c0,0.5,0.5,1,1,1h3c0.5,0,1-0.5,1-1v-3c0-0.5-0.5-1-1-1h-3C234.5,68,234,68.5,234,69z"/>
	<path fill="#101010" d="M242,69v3c0,0.5,0.5,1,1,1h2c0.5,0,1-0.5,1-1v-3c0-0.5-0.5-1-1-1h-2C242.5,68,242,68.5,242,69z"/>
	<path fill="#101010" d="M248,69v3c0,0.5,0.5,1,1,1h3c0.5,0,1-0.5,1-1v-3c0-0.5-0.5-1-1-1h-3C248.5,68,248,68.5,248,69z"/>
	<path fill="#101010" d="M263,68h-7c-0.5,0-1,0.5-1,1v3c0,0.5,0.5,1,1,1h7c0.5,0,1-0.5,1-1v-3C264,68.5,263.5,68,263,68z"/>
	<path fill="#101010" d="M206,73h6c0.5,0,1-0.5,1-1v-3c0-0.5-0.5-1-1-1h-6c-0.5,0-1,0.5-1,1v3C205,72.5,205.5,73,206,73z"/>
	<path fill="#101010" d="M214,66h3c0.5,0,1-0.5,1-1v-2c0-0.5-0.5-1-1-1h-3c-0.5,0-1,0.5-1,1v2C213,65.5,213.5,66,214,66z"/>
	<path fill="#101010" d="M221,66h3c0.5,0,1-0.5,1-1v-2c0-0.5-0.5-1-1-1h-3c-0.5,0-1,0.5-1,1v2C220,65.5,220.5,66,221,66z"/>
	<path fill="#101010" d="M227,66h3c0.5,0,1-0.5,1-1v-2c0-0.5-0.5-1-1-1h-3c-0.5,0-1,0.5-1,1v2C226,65.5,226.5,66,227,66z"/>
	<path fill="#101010" d="M234,66h2c0.5,0,1-0.5,1-1v-2c0-0.5-0.5-1-1-1h-2c-0.5,0-1,0.5-1,1v2C233,65.5,233.5,66,234,66z"/>
	<path fill="#101010" d="M240,66h3c0.5,0,1-0.5,1-1v-2c0-0.5-0.5-1-1-1h-3c-0.5,0-1,0.5-1,1v2C239,65.5,239.5,66,240,66z"/>
	<path fill="#101010" d="M248,66h2c0.5,0,1-0.5,1-1v-2c0-0.5-0.5-1-1-1h-2c-0.5,0-1,0.5-1,1v2C247,65.5,247.5,66,248,66z"/>
	<path fill="#101010" d="M254,66h3c0.5,0,1-0.5,1-1v-2c0-0.5-0.5-1-1-1h-3c-0.5,0-1,0.5-1,1v2C253,65.5,253.5,66,254,66z"/>
	<path fill="#101010" d="M261,66h2c0.5,0,1-0.5,1-1v-2c0-0.5-0.5-1-1-1h-2c-0.5,0-1,0.5-1,1v2C260,65.5,260.5,66,261,66z"/>
	<path fill="#101010" d="M206,66h4c0.5,0,1-0.5,1-1v-2c0-0.5-0.5-1-1-1h-4c-0.5,0-1,0.5-1,1v2C205,65.5,205.5,66,206,66z"/>
	<path fill="#101010" d="M217,81h-4c-0.5,0-1,0.5-1,1v3c0,0.5,0.5,1,1,1h4c0.5,0,1-0.5,1-1v-3C218,81.5,217.5,81,217,81z"/>
	<path fill="#101010" d="M206,86h2c0.5,0,1-0.5,1-1v-3c0-0.5-0.5-1-1-1h-2c-0.5,0-1,0.5-1,1v3C205,85.5,205.5,86,206,86z"/>
	<path fill="#101010" d="M244,81h-23c-0.5,0-1,0.5-1,1v3c0,0.5,0.5,1,1,1h23c0.5,0,1-0.5,1-1v-3C245,81.5,244.5,81,244,81z"/>
	<path fill="#101010" d="M253,81h-5c-0.5,0-1,0.5-1,1v3c0,0.5,0.5,1,1,1h5c0.5,0,1-0.5,1-1v-3C254,81.5,253.5,81,253,81z"/>
	<path fill="#101010" d="M262.7,83.5c-0.601,0-1,0.4-1,1s0.5,1,1,1c0.6,0,1-0.5,1-1S263.3,83.6,262.7,83.5z"/>
	<path fill="#101010" d="M259.8,83.5c-0.6,0-1,0.4-1,1s0.5,1,1,1c0.601,0,1-0.5,1-1S260.3,83.6,259.8,83.5z"/>
	<path fill="#101010" d="M259.8,80.6c-0.6,0-1,0.4-1,1s0.5,1,1,1c0.601,0,1-0.5,1-1S260.3,80.6,259.8,80.6z"/>
	<path fill="#101010" d="M256.8,83.5c-0.6,0-1,0.4-1,1s0.5,1,1,1c0.601,0,1-0.5,1-1S257.4,83.6,256.8,83.5z"/>
	<path fill="#101010" d="M39.5,112.4H22.8c-2,0-3.7,1.7-3.7,3.7v40.8c0,2,1.7,3.7,3.7,3.7h16.7c2,0,3.7-1.7,3.7-3.7V116
		C43.2,114,41.5,112.4,39.5,112.4z M39.5,158.8H23.2c-1.3,0-2.4-1.1-2.4-2.4v-40.3c0-1.3,1.1-2.4,2.4-2.4h16.2
		c1.3,0,2.4,1.1,2.4,2.4v40.3h0.1C41.9,157.7,40.8,158.8,39.5,158.8z"/>
	<rect x="22.1" y="120.5" fill="#101010" width="18.1" height="31.8"/>
	<path fill="#101010" d="M28.9,118.4h4.5c0.2,0,0.4-0.2,0.4-0.4s-0.2-0.4-0.4-0.4h-4.5c-0.2,0-0.4,0.2-0.4,0.4
		C28.6,118.1,28.7,118.4,28.9,118.4z"/>
	<path fill="#101010" d="M31.2,153.4c-1.2,0-2.3,1-2.3,2.3c0,1.3,1,2.3,2.3,2.3c1.3,0,2.3-1,2.3-2.3
		C33.5,154.4,32.4,153.4,31.2,153.4z"/>
	<path fill="#101010" d="M200.8,296.4c-0.2-2-0.4-4.2-1.4-6c-1.1-1.9-4.3-5.301-6.8-6.9c-2.6-1.7-5.6-2.7-9.1-3.1
		c-0.5-0.5-1.3-0.801-2.4-0.801c-0.9,0-1.6,0.197-2.1,0.601c-0.8,0-1.5,0.1-1.9,0.1c-1.3,0.101-3.2,0.4-4.9,1
		c-2.7,1-5.5,2.7-7.6,4.9c-0.6,0.6-1.1,1.2-1.4,1.8c-1.3,2.3-2.1,4.1-2.5,6.2c-0.3,1.2-0.4,2.7-0.5,4.1c-0.1,1-0.1,1.9-0.2,2.4
		c-0.1,0.399-0.2,0.7-0.2,1.1c-0.1,0.4-0.1,0.7-0.2,0.9c-1.3,0.6-4.4,2.399-5.3,2.899l-0.1,0.101c-1.7,1.2-3.1,2.2-3.3,3.399
		c-0.3,1.397,0.6,2.801,2.4,3.5c1,0.397,5.1,1.301,12.3,2.601c2.8,0.5,11.1,1.8,14.1,1.8c0.2,0,0.4,0,0.5,0c2.5-0.1,6.1-0.7,7.9-1.6
		c1.6-0.7,5.6-3.301,6.5-4.104c0.2-0.1,0.3-0.3,0.4-0.396c0.4-0.301,0.7-0.7,0.9-1.104c1.6-0.396,2.9-1,3.6-1.6
		c0.8-0.7,1.3-2.104,1.4-2.9c0.3-2.3,0.3-4.896,0-7.896C200.9,297.1,200.8,296.8,200.8,296.4z M199.4,305.4
		c-0.1,0.6-0.5,1.5-0.8,1.8c-0.5,0.1-1.5,0.6-3.1,1c-0.9,0.2-2.2,0.2-3.4,0.2c-0.3,0-0.6,0-0.9,0c-0.3,0-0.6,0-0.8,0
		c-0.5,0-0.9,0-1.3,0c-0.9,0-2.1,0.1-3.4,0.1c-1.6,0-4.7,0-7.1-0.2c-3.1-0.3-8.1-1-11.6-1.8c-3.2-0.8-5.7-2.3-6-2.7
		c-0.1-0.399,0.1-1,0.3-1.7c0.1-0.3,0.2-0.699,0.2-1.1c0.1-0.6,0.2-1.5,0.3-2.6c0.1-1.301,0.2-2.7,0.4-3.801
		c0.4-1.899,1.1-3.603,2.3-5.699c0.3-0.5,0.6-0.9,1.2-1.4c2-2,4.6-3.6,7-4.5c1.5-0.5,3.3-0.8,4.5-0.9c0.5-0.1,1.3-0.1,2.3-0.1
		c0.3,0.2,0.8,0.2,1.6,0.2c0.6,0,1,0,1.3-0.101c2.8,0.301,6.2,1,9.3,3c2.2,1.397,5.3,4.697,6.3,6.397c0.9,1.5,1.1,3.5,1.2,5.3
		c0,0.303,0.1,0.7,0.1,1C199.6,300.7,199.6,303.2,199.4,305.4z"/>
	<path fill="#101010" d="M179.2,291.8c-0.1-0.899-0.6-1.8-1.5-2.3c-0.3-0.2-0.7-0.4-1.3-0.4c-0.1,0-0.3,0-0.4,0
		c-0.7,0-1.2,0.2-1.7,0.4c-0.2-0.3-0.6-0.8-1.3-0.8h-0.1c-0.8,0-1.4,0.5-1.5,1.3l-0.1,0.4l0.4,0.1c0.5,0.1,0.8,0.2,0.8,0.5
		c0,0.1,0,0.3-0.1,0.5c0,0.1,0,0.2-0.1,0.3l-0.1,0.9c0,0.2-0.1,0.5-0.1,0.7c-0.1,0.396-0.1,0.8-0.2,1c0,0.1-0.3,0.199-0.4,0.199
		c-0.2,0.101-0.3,0.101-0.5,0.301l-0.3,0.3l0.3,0.3c0.1,0.1,0.2,0.2,0.3,0.3c0.1,0.101,0.4,0.3,0.4,0.4c0,0.399-0.2,1.2-0.3,1.899
		c-0.1,0.301-0.1,0.697-0.2,0.897c0,0.103,0,0.3-0.1,0.397c0,0.199,0,0.399-0.1,0.5c0,0.103-0.3,0.199-0.5,0.199c-0.1,0-0.2,0-0.3,0
		l-0.4-0.1l-0.1,0.4c-0.1,0.396,0,0.799,0.3,1.1c0.3,0.4,0.8,0.6,1.4,0.6h0.1c0.4,0,0.8-0.1,1.1-0.3c0.5,0.3,1,0.601,1.6,0.7
		c0.4,0.1,0.7,0.199,1.1,0.199c1.1,0,2.1-0.5,2.6-1.299c0.2-0.201,0.3-0.5,0.4-0.803c0.2-0.5,0.4-0.898,0.7-1l0.5-0.101l-0.2-0.5
		c-0.1-0.2-0.2-0.302-0.2-0.399c-0.1-0.101-0.1-0.101-0.1-0.197c-0.1-0.201-0.2-0.604-0.2-0.9c0-0.2,0-0.301-0.1-0.5
		c-0.1-0.4-0.2-0.801-0.4-1.2l0.1-0.101c0,0,0.1-0.299,0.3-0.602c0.1-0.301,0.2-0.5,0.4-0.697c0,0,0.1-0.104,0.2-0.104
		c0.1-0.102,0.2-0.102,0.4-0.3l0.3-0.399l-0.4-0.301C179.2,293.1,179.2,292.3,179.2,291.8z M176,299.3l0.1,0.101
		c0,0.103,0.3,0.699,0,1.103c-0.1,0.2-0.5,0.397-1.1,0.397s-1.2-0.197-1.5-0.5c-0.2-0.101-0.3-0.397-0.3-0.5
		c0-0.197,0.1-0.601,0.1-0.897c0-0.2,0.1-0.397,0.1-0.5l0.1-0.897c0-0.199,0.1-0.5,0.1-0.603c0.2-0.3,0.7-0.397,1.1-0.397
		c0.1,0,0.1,0,0.2,0c0.9,0.101,1.4,0.601,1.5,1.101c0.1,0.3,0,0.5-0.3,0.8c0,0,0,0-0.1,0c-0.1,0.1-0.2,0.1-0.3,0.301
		C175.9,299,175.9,299.2,176,299.3z M177.1,293.1c-0.1,0.104-0.1,0.104-0.2,0.2l-0.2,0.2l0.1,0.1c0.1,0.301,0.2,0.4,0.2,0.604
		c-0.1,0.602-0.7,0.896-1.2,0.896c-0.1,0-0.2,0-0.2,0c-0.6-0.1-1.1-0.396-1.3-0.6c-0.1-0.2,0-0.6,0-1c0-0.2,0-0.3,0.1-0.5
		c0-0.4,0.1-0.8,0.2-1c0.2-0.4,0.7-0.6,1.2-0.6h0.1c0.8,0.1,1.2,0.5,1.3,0.8c0.1,0.2,0.2,0.399,0.2,0.6
		C177.4,292.9,177.3,293,177.1,293.1z"/>
	<path fill="#101010" d="M40.2,66.7c-0.5-0.8-1-1.9-0.9-3.2c0-0.7,0.4-1.3,0.4-1.9c-0.5-0.4-1.9-0.5-2.3-0.1
		c-0.4,0.3-0.3,1.1-0.5,1.6c-0.5,1.5-1.8,3.2-2.3,4.3c-0.8-1-0.7-3.3-0.1-4.5c-0.4-0.7-1.7-0.4-2.4-0.2C30.9,66,29.5,69,28,72
		c-0.2-2,0.8-3.5,0.9-5.2c-0.2-0.5-1-0.6-1.3-0.4c0.2-1,0-2-0.6-2.3c-1.6-0.7-3.5,1.7-4.1,2.3c-1.2,0.7-2.5,1.4-3.7,2.1
		c-0.9-0.8-1.9-1.6-2.9-2.4c-1-0.8-2.1-1.6-2.7-2.6c-0.4-0.7-0.7-1.5-0.6-2.6c0.3-2.7,3.1-4.8,5.5-6.2c1.3-0.8,2.6-1.4,3.9-1.9
		c1.3-0.5,2.9-1.1,4.6-1.2c3.1-0.3,6,0.4,5.4,3.4c-0.7,3.3-5.1,6-9.1,6.3c-1.1,0-2-0.1-2.8-0.4c-0.6-0.3-0.8-0.8-1.5-1
		c-0.1,1.1,0.6,1.6,1.2,2c0.8,0.6,2.1,0.8,3.2,0.8c2.9,0,6.3-1.2,8.4-3.1c1.5-1.4,2.8-3.5,2.8-5.6c0.1-3.2-2.6-4.5-5.6-4.9
		c-0.9,0-1.8,0-2.7,0c-3.5,0.4-7.2,2.1-9.9,3.9c-2.8,1.7-5.6,4.3-6.4,7.4c0,0.4,0,0.9,0,1.3c1.2,3.8,4.8,5.3,7.6,7.5
		c-2,1.3-6.4,3.1-6.4,6.6c0,1.4,0.9,2.5,2.1,2.7c0.6,0,1.1,0,1.7,0c3.7-0.5,6.6-4.7,4.9-8.9c0.6-0.5,1.5-0.8,2.1-1.3
		c-0.1,0.8-0.5,2.2-0.4,3.5c0.1,1.3,0.7,2.8,1.5,3.1c2,0.7,2.5-2.1,3.1-3.2c0.2,1.2,0,2.7,1.1,2.8c0.5,0,1.2-0.5,1.5-1
		c0.3-0.5,0.7-1.2,1-1.8c0.7-1.4,1.5-3,2.2-4.6c0.1-0.3,0.1-0.7,0.4-0.9c0.1,1.2,0.6,2.2,1.1,3.1c-0.7,0.9-1.5,1.8-2.3,2.9
		c-0.2,0.4-0.6,0.7-0.6,1.1c0.1,0.8,1.6,0.7,2.5,0.4c1.3-0.5,2.8-1.5,2.6-3.6c0-0.5-0.2-0.8-0.4-1.4c0.7-0.9,1.3-1.9,1.8-2.9
		c0.2-0.3,0.3-0.7,0.6-0.9c0.1,1.1,0.5,2.1,1,2.9c-0.6,0.6-1.3,1.1-1.8,2c-0.4,0.7-1,2.6,0.1,2.8c1.2,0.2,3.5-1.3,3.9-2.6
		c0.2-0.8,0-1.4-0.2-2.2c2.2-0.9,5.8-0.5,7.1,1.1c0.4,0.5,0.8,1.3,0.6,2.1c-0.2,0.8-1,0.9-1.4,1.7c1.2,0.1,1.8-1,2.2-1.9
		c0-0.4,0-0.9,0-1.3C48.4,66,43.5,65,40.2,66.7z M17.2,75c-0.8,0.8-2.1,1.6-3.3,1c-0.5-1.1,0-2.3,0.6-3c1-1.2,2.7-2.1,3.8-2.8
		c0.1,0,0.1-0.1,0.2-0.1s0.1,0.1,0.1,0.1C19,72.1,18.3,73.9,17.2,75z M25.5,69.4c-0.2,0.6-0.5,1.1-0.7,1.7c-0.2,0.5-0.4,1.1-0.9,1.4
		c-0.3-0.1-0.4-0.4-0.4-0.7c-0.4-2.2,1.1-6.1,2.9-6.2C26.5,66.9,26,68.2,25.5,69.4z M32.1,72.5c0.5-0.7,1.2-1.3,1.7-2.1
		C33.9,71.4,33,72.2,32.1,72.5z M37.6,71.3c0.1-1.3,0.8-2,1.4-2.6C39.5,70,38.6,71.1,37.6,71.3z"/>
	<path fill="#101010" d="M466.8,282.8c-0.396-0.7-0.8-1.399-1.2-2.1c-0.196-0.3-0.696-0.2-1-0.2c-0.3,0-1-0.1-1.196,0.2
		c-1,1.7-2,3.3-3,5c-0.2,0.3-0.4,0.7-0.604,1c-0.1,0.3-0.396,0.7,0.104,0.7s1,0,1.5,0c0.196,0,0.5,0.1,0.6,0
		c0.101-0.104,0.2-0.301,0.3-0.5c0.104,0,0.2-0.4,0.3-0.4c0.104,0,0.304,0,0.4,0c0.6,0,1.2,0,1.8,0c0.4,0,0.8,0,1.2,0
		c0.1,0,0.3,0.4,0.3,0.5c0.104,0.1,0.2,0.4,0.4,0.4c0.6,0,1.3,0,2-0.104c0.6,0,0.396-0.396,0.2-0.697
		C468.2,285.3,467.5,284.1,466.8,282.8z M463.4,284.9c0.3-0.5,0.5-1.104,0.8-1.604c0.3,0.5,0.6,1.104,0.896,1.604
		C464.6,284.9,464,284.9,463.4,284.9z"/>
	<path fill="#101010" d="M453.6,284.6c-0.1-0.1-0.1-0.199-0.196-0.3c0,0.101,0.696-0.5,0.696-0.6c0.304-0.5,0.4-1,0.2-1.601
		c-0.1-0.603-0.6-1.103-1.1-1.303c-0.604-0.3-1.2-0.197-1.8-0.197c-0.7,0-1.5,0-2.2,0c-0.3,0-0.7,0-1,0s-1.104-0.103-1.3,0.197
		c-0.104,0.2,0,0.5,0,0.7c0,0.5,0,1,0,1.5c0,1.103,0,2.3,0,3.397c0,0.303,0,0.5,0,0.803c0,0.396,0.6,0.3,0.896,0.3
		c0.4,0,1,0.103,1.4,0c0.396-0.103,0.3-0.7,0.3-1c0-0.5,0-1,0-1.397c0.399,0,1.1-0.103,1.5,0.101c0.2,0.1,0.2,0.3,0.3,0.5
		c0.3,0.6,0.604,1.1,1,1.7c0.104,0.199,0.3,0.199,0.5,0.199c0.4,0,0.7,0,1.104,0c0.196-0.199,1.5,0,1.196-0.603
		C454.6,286.2,454.1,285.4,453.6,284.6z M450.8,283.5c-0.3,0-0.6,0-0.896,0c-0.104,0-0.304,0-0.4,0v-0.2c0-0.3,0-0.7,0-1
		c0-0.2,0.5-0.1,0.601-0.1c0.5,0,1.603-0.2,1.803,0.5C452.1,283.3,451.3,283.5,450.8,283.5z"/>
	<path fill="#101010" d="M462.3,281.3c0.104-0.2,0.2-0.3,0.2-0.5c-0.1-0.3-1.1-0.2-1.3-0.2c-0.3,0-1-0.1-1.2,0.2
		c-0.1,0.3-0.3,0.601-0.5,0.9c-0.5,0.8-1,1.6-1.5,2.399c-0.6-0.899-1.2-1.803-1.8-2.699c-0.2-0.2-0.4-0.7-0.7-0.7s-0.7,0-1,0
		c-0.2,0-0.5-0.101-0.7,0c1.3,0.5,1.604,2,1.104,3.1c0.5,0.7,0.896,1.4,1.3,2.2c0.2,0.301,0.5,0.7,0.7,1.1
		c0.196,0.301,0.396,0.301,0.8,0.301c0.3,0,0.8,0.199,1-0.197c0.2-0.2,0.3-0.4,0.396-0.604c0.5-0.896,1.104-1.8,1.604-2.699
		C461.3,283,461.8,282.2,462.3,281.3z"/>
</g>
<path fill="#EDEDED" d="M252.178,188.959c0.844-0.04,1.523,0.347,2.189,0.784c5.664,3.721,11.424,7.291,17.358,10.567
	c7.421,4.098,14.949,7.971,22.956,10.827c2.534,0.904,5.11,1.661,7.735,2.25c0.522,0.117,0.747,0.289,0.645,0.898
	c-0.673,3.978-1.13,7.986-1.608,11.991c-0.399,3.35-0.744,6.707-1.158,10.055c-1.366,11.029-3.675,21.81-8.736,31.819
	c-3.688,7.293-8.885,13.397-15.124,18.611c-7.155,5.98-14.615,11.557-22.529,16.511c-1.206,0.756-2.258,0.763-3.453,0.002
	c-8.779-5.584-17.186-11.677-24.89-18.673c-9.471-8.601-15.391-19.317-18.339-31.725c-1.166-4.905-2.164-9.845-2.854-14.839
	c-0.49-3.539-0.82-7.101-1.26-10.647c-0.406-3.27-0.867-6.531-1.299-9.798c-0.124-0.93-0.204-1.866-0.356-2.791
	c-0.101-0.61,0.099-0.897,0.69-1.103c4.068-1.414,8.175-2.721,12.166-4.35c8.76-3.575,17.039-8.086,25.133-12.954
	c3.589-2.158,7.157-4.35,10.637-6.681C250.719,189.287,251.379,188.916,252.178,188.959z M299.688,216.393
	c0.213-0.569-0.172-0.651-0.521-0.744c-6.771-1.795-13.132-4.628-19.384-7.725c-9.311-4.611-18.229-9.901-26.897-15.62
	c-0.494-0.326-0.838-0.354-1.35-0.015c-2.095,1.385-4.212,2.738-6.345,4.064c-12.671,7.878-25.726,14.969-40.063,19.406
	c-0.553,0.171-0.577,0.481-0.506,0.974c0.405,2.808,0.806,5.617,1.152,8.433c0.446,3.622,0.792,7.256,1.266,10.873
	c0.735,5.604,1.817,11.144,3.155,16.635c2.991,12.272,9.11,22.667,18.673,30.953c7.089,6.143,14.623,11.701,22.534,16.746
	c0.582,0.371,0.973,0.369,1.553,0.001c7.498-4.749,14.582-10.063,21.393-15.739c6.35-5.294,11.58-11.521,15.153-19.032
	c4.575-9.618,6.68-19.892,7.935-30.381c0.406-3.398,0.777-6.802,1.182-10.201C298.963,222.126,299.334,219.234,299.688,216.393z"/>
<path fill="#EDEDED" d="M252.26,195.188c0.723-0.023,1.334,0.323,1.938,0.717c6.528,4.254,13.169,8.322,20.09,11.911
	c6.012,3.118,12.108,6.049,18.606,8.045c1.381,0.425,2.779,0.788,4.195,1.071c0.424,0.085,0.566,0.228,0.495,0.703
	c-0.425,2.833-0.86,5.664-1.155,8.516c-0.303,2.926-0.66,5.846-1.014,8.766c-1.168,9.688-2.77,19.265-6.84,28.256
	c-3.646,8.055-9.074,14.698-15.916,20.213c-6.01,4.846-12.189,9.467-18.721,13.603c-1.188,0.752-2.258,0.805-3.459,0.038
	c-7.933-5.064-15.54-10.572-22.467-16.953c-7.421-6.835-12.396-15.22-15.139-24.913c-1.644-5.808-2.825-11.719-3.532-17.715
	c-0.737-6.24-1.481-12.479-2.387-18.698c-0.007-0.05-0.015-0.1-0.02-0.15c-0.135-1.457-0.138-1.469,1.266-1.813
	c7.943-1.95,15.294-5.325,22.411-9.272c6.637-3.681,13.078-7.691,19.57-11.616C250.816,195.511,251.457,195.152,252.26,195.188z
	 M210.04,219.715c0.014,0.182,0.016,0.284,0.031,0.384c0.703,4.84,1.336,9.688,1.848,14.554c0.576,5.47,1.616,10.865,2.847,16.229
	c2.513,10.952,7.698,20.359,16.124,27.854c6.481,5.764,13.466,10.878,20.777,15.546c0.471,0.301,0.771,0.147,1.157-0.098
	c6.009-3.818,11.675-8.108,17.251-12.521c6.211-4.914,11.331-10.74,14.902-17.866c3.987-7.953,5.793-16.504,6.974-25.227
	c0.429-3.165,0.796-6.34,1.168-9.513c0.354-3.021,0.63-6.053,1.117-9.058c0.069-0.425,0.011-0.684-0.497-0.818
	c-6.11-1.616-11.822-4.236-17.465-7.017c-8.068-3.976-15.758-8.609-23.279-13.526c-0.604-0.395-1.025-0.385-1.617-0.019
	c-2.892,1.788-5.805,3.544-8.721,5.293c-6.222,3.732-12.458,7.441-19.063,10.479c-4.149,1.909-8.399,3.547-12.812,4.748
	C210.463,219.226,209.94,219.188,210.04,219.715z"/>
<path fill="#EDEDED" d="M241.734,218.311c0,1.967,0.024,3.836-0.012,5.704c-0.014,0.743,0.284,1.02,0.994,0.965
	c0.354-0.027,0.711-0.019,1.066-0.003c0.48,0.021,0.912-0.012,1.393,0.328c0.458,0.323,1.207,0.198,1.78,0.046
	c0.495-0.131,0.239-0.692,0.274-1.069c0.034-0.365-0.193-0.418-0.517-0.476c-1.031-0.185-1.957,0.369-2.968,0.345
	c-1.295-0.032-1.281,0.009-1.3-1.296c-0.028-1.928,0.067-3.856-0.049-5.785c-0.03-0.504,0.369-0.898,0.737-1.498
	c0,2.337-0.001,4.461,0,6.585c0.001,1.252,0.13,1.379,1.407,1.38c1.042,0,2.083-0.021,3.124-0.007
	c0.573,0.007,1.242-0.219,1.562,0.56c0.034,0.082,0.271,0.113,0.414,0.115c0.762,0.01,1.524,0.002,2.286,0.003
	c0.244,0,0.459-0.012,0.455-0.35c-0.004-0.345-0.233-0.335-0.469-0.336c-0.407,0-0.813-0.011-1.22,0
	c-0.436,0.012-0.829,0.053-1.004-0.527c-0.109-0.361-0.556-0.298-0.875-0.302c-1.321-0.019-2.642-0.045-3.962-0.012
	c-0.658,0.016-0.938-0.135-0.923-0.88c0.05-2.361,0.034-4.724,0.007-7.086c-0.007-0.604,0.25-1.035,0.7-1.616
	c0,2.298,0,4.42,0,6.543c0,0.279,0.015,0.56-0.001,0.838c-0.033,0.594,0.265,0.821,0.829,0.816c1.194-0.012,2.388-0.005,3.582-0.01
	c0.358-0.001,0.713-0.047,0.82,0.452c0.054,0.257,0.317,0.302,0.556,0.303c0.482,0.003,0.965-0.002,1.448,0.001
	c0.275,0.002,0.509-0.029,0.517-0.393c0.008-0.359-0.203-0.413-0.492-0.406c-0.305,0.009-0.609,0.009-0.914-0.005
	c-0.145-0.007-0.393-0.021-0.416-0.092c-0.27-0.788-0.934-0.571-1.482-0.588c-0.99-0.03-1.981-0.039-2.971-0.01
	c-0.605,0.018-0.786-0.226-0.779-0.812c0.024-2.438,0.022-4.877,0.001-7.315c-0.005-0.563,0.257-0.938,0.754-1.467
	c0,0.543,0,0.907,0,1.271c0,1.956-0.006,3.912,0.004,5.868c0.005,0.911,0.158,1.053,1.077,1.061
	c0.762,0.006,1.524-0.003,2.286-0.003c0.468,0,0.871-0.023,1.252,0.45c0.344,0.427,1.002,0.17,1.521,0.142
	c0.182-0.01,0.156-0.229,0.143-0.378c-0.019-0.19-0.153-0.261-0.319-0.248c-0.431,0.033-0.767-0.017-0.929-0.523
	c-0.098-0.306-0.463-0.255-0.74-0.257c-0.965-0.004-1.931-0.018-2.896,0.004c-0.455,0.01-0.638-0.152-0.635-0.617
	c0.012-2.54,0.008-5.08,0.002-7.62c0-0.267,0.056-0.498,0.227-0.704c0.097-0.117,0.197-0.237,0.264-0.372
	c0.917-1.833,2.285-2.801,4.423-2.361c0.228,0.047,0.601,0.142,0.617-0.324c0.018-0.498-0.358-0.398-0.642-0.41
	c-0.431-0.017-0.864,0.01-1.294-0.02c-0.191-0.014-0.549,0.141-0.531-0.2c0.012-0.234,0.198-0.536,0.539-0.548
	c0.431-0.016,0.867-0.044,1.294-0.002c0.578,0.058,0.705-0.213,0.645-0.715c-0.043-0.348-0.046-0.7-0.078-1.244
	c0.377,0.465,0.646,0.787,0.904,1.117c3.398,4.338,6.75,8.703,9.205,13.681c1.428,2.896,2.296,5.894,2.062,9.157
	c-0.137,1.913-0.619,3.742-1.261,5.539c-2.01,5.63-4.015,11.26-6.023,16.89c-0.709,1.987-1.096,4.058-1.549,6.109
	c-0.102,0.46-0.268,0.632-0.748,0.619c-1.27-0.035-2.539-0.008-3.81-0.029c-0.997-0.016-1.465-0.405-1.715-1.382
	c-0.194-0.761-0.381-1.522-0.562-2.286c-0.051-0.214-0.275-0.527,0.215-0.518c0.309,0.006,0.708-0.122,0.712,0.414
	c0.005,0.711-0.002,1.422,0.014,2.134c0.022,0.998,0.125,1.095,1.094,1.102c0.381,0.003,0.763-0.009,1.144-0.003
	c0.305,0.006,0.386-0.165,0.392-0.433c0.007-0.298-0.137-0.38-0.416-0.4c-0.471-0.035-1.14,0.239-1.363-0.137
	c-0.238-0.399-0.086-1.031-0.103-1.562c-0.002-0.051-0.001-0.102-0.001-0.152c0-1.686,0.002-1.703-1.656-1.794
	c-0.367-0.02-0.474-0.187-0.556-0.476c-0.173-0.608-0.331-1.224-0.547-1.816c-0.167-0.46-0.028-0.57,0.421-0.564
	c1.143,0.018,2.286,0.014,3.428-0.009c0.309-0.006,0.791,0.185,0.779-0.419c-0.01-0.559-0.463-0.359-0.744-0.364
	c-1.269-0.021-2.54-0.018-3.809-0.012c-0.3,0.002-0.585-0.014-0.636-0.374c-0.063-0.449,0.307-0.293,0.52-0.32
	c0.46-0.062,0.663-0.327,0.667-0.772c0.002-0.229,0.006-0.457,0.001-0.686c-0.007-0.364-0.057-0.733,0.516-0.675
	c0.409,0.041,0.914-0.136,0.879,0.579c-0.032,0.653,0.322,0.88,0.947,0.866c2.053-0.046,1.641,0.229,1.686-1.61
	c0.018-0.762-0.018-1.524,0.006-2.285c0.017-0.501-0.189-0.702-0.676-0.644c-0.051,0.006-0.102,0-0.152,0
	c-1.632,0.015-1.881-0.231-1.826,1.686c0.012,0.409-0.129,0.631-0.572,0.577c-0.1-0.013-0.203-0.002-0.305-0.001
	c-1.313,0.004-1.329,0.019-1.334,1.312c0,0.076,0.011,0.154-0.002,0.229c-0.041,0.222,0.128,0.533-0.275,0.599
	c-0.391,0.063-0.527-0.16-0.646-0.479c-0.725-1.946-1.456-3.89-2.202-5.827c-0.382-0.993-0.793-1.976-1.207-2.955
	c-0.199-0.472-0.151-1.069-0.36-1.438c-0.509-0.899-0.3-1.832-0.443-2.742c-0.063-0.402-0.422-0.461-0.775-0.447
	c-0.231,0.009-0.412-0.062-0.43-0.319c-0.026-0.355,0.264-0.235,0.431-0.248c2.239-0.177,2.24-0.174,2.236,2.095
	c0,0.423-0.017,0.802-0.282,1.211c-0.351,0.543-0.243,1.261-0.08,1.848c0.132,0.473,0.709,0.169,1.084,0.227
	c0.234,0.036,0.51-0.005,0.49-0.317c-0.044-0.675,0.298-1.399-0.277-2.019c-0.11-0.117-0.075-0.385-0.08-0.583
	c-0.014-0.584-0.018-1.168-0.019-1.752c-0.003-1.555-0.046-1.604-1.625-1.644c-0.609-0.015-1.219-0.01-1.829-0.008
	c-0.266,0-0.523-0.016-0.605-0.331c-0.217-0.84-0.395-0.999,0.625-0.982c1.346,0.021,2.693,0.018,4.039-0.014
	c0.523-0.013,0.823,0.091,0.794,0.693c-0.023,0.484,0.215,0.721,0.746,0.72c1.625-0.007,3.249,0.028,4.874,0.047
	c0.076,0.001,0.152-0.005,0.229-0.005c0.262,0,0.441-0.074,0.429-0.39c-0.013-0.332-0.229-0.344-0.472-0.344
	c-1.474-0.002-2.947-0.022-4.42,0.002c-0.49,0.008-0.702-0.13-0.641-0.641c0.083-0.689-0.323-0.881-0.926-0.88
	c-1.626,0.004-3.252-0.031-4.876,0.003c-0.616,0.013-0.977-0.107-0.929-0.808c0.014-0.196-0.068-0.398-0.102-0.598
	c-0.088-0.518,0.105-0.729,0.654-0.724c2.057,0.014,4.115,0.001,6.172-0.021c0.501-0.006,0.773,0.13,0.707,0.688
	c-0.033,0.275-0.008,0.558-0.001,0.837c0.01,0.424,0.217,0.672,0.653,0.674c1.245,0.004,2.49-0.003,3.734-0.001
	c0.26,0,0.443-0.055,0.449-0.371c0.006-0.348-0.187-0.427-0.482-0.427c-0.966,0.002-1.932-0.027-2.896,0.002
	c-0.503,0.016-0.701-0.164-0.633-0.656c0.017-0.125,0.003-0.254,0.002-0.381c-0.005-0.992-0.106-1.104-1.078-1.107
	c-2.185-0.01-4.369-0.033-6.553-0.004c-0.615,0.008-0.826-0.189-0.747-0.784c0.075-0.551,0.112-1.107,0.16-1.662
	c0.014-0.158,0.026-0.333,0.198-0.376c0.762-0.188,0.675-0.793,0.656-1.343C240.974,220.415,241.014,219.345,241.734,218.311z
	 M250.05,236.71c0-0.001,0-0.003,0-0.005c0.633,0,1.266-0.004,1.899,0.002c0.262,0.003,0.438-0.054,0.439-0.371
	c0.002-0.314-0.111-0.474-0.442-0.459c-0.253,0.012-0.511,0.03-0.759-0.006c-1.092-0.162-2.292,0.436-3.278-0.611
	c-0.35-0.371-0.388-0.807-0.216-0.968c0.627-0.588,0.305-1.282,0.338-1.92c0.039-0.752-0.595-0.403-0.953-0.466
	c-0.354-0.062-0.57,0.009-0.633,0.489c-0.137,1.055,0.4,2.009,0.356,3.04c-0.003,0.086,0.063,0.202,0.134,0.26
	c0.667,0.542,1.227,1.312,2.281,1.025C249.477,236.65,249.771,236.71,250.05,236.71z M246.929,241.583
	c1.068-0.308,2.196-0.585,3.379-0.473c0.553,0.053,1.116-0.001,1.674,0.006c0.297,0.004,0.4-0.145,0.406-0.42
	c0.006-0.284-0.108-0.407-0.403-0.41c-1.778-0.018-3.549,0.021-5.32-0.349c-0.971-0.203-0.981-0.034-0.969,0.978
	C245.708,241.903,246.462,241.34,246.929,241.583z M251.196,239.604c0.178,0,0.356,0.015,0.532-0.004
	c0.268-0.027,0.653,0.148,0.658-0.371c0.004-0.472-0.324-0.422-0.63-0.435c-0.55-0.024-1.157,0.176-1.511-0.518
	c-0.115-0.225-0.469-0.115-0.718-0.123c-0.431-0.015-1.046,0.161-1.257-0.058c-0.614-0.637-1.315-0.311-1.974-0.389
	c-0.227-0.026-0.574-0.091-0.575,0.296c-0.001,0.416-0.176,0.876,0.135,1.238c0.168,0.196,1.968,0.022,2.183-0.163
	c0.317-0.272,1.551-0.382,1.647-0.096C249.971,239.822,250.629,239.564,251.196,239.604z M249.924,234.436
	c0.391-0.755,0.259-1.42,0.272-2.069c0.015-0.719-0.546-0.419-0.882-0.453c-0.324-0.033-0.74-0.135-0.716,0.463
	c0.032,0.783-0.063,1.557,0.411,2.293c0.194,0.302,0.306,0.55,0.679,0.563c0.731,0.027,1.464,0.043,2.196,0.071
	c0.343,0.013,0.517-0.112,0.507-0.48c-0.008-0.37-0.251-0.386-0.516-0.387C251.271,234.435,250.67,234.436,249.924,234.436z
	 M251.628,210.303c0.228-0.084,0.696,0.206,0.736-0.328c0.036-0.486-0.405-0.328-0.668-0.396c-0.144-0.038-0.296-0.04-0.4-0.178
	c-0.78-1.027-1.876-1.143-3.036-1.02c-0.606,0.064-0.351,0.573-0.383,0.905c-0.031,0.319-0.062,0.743,0.436,0.704
	c0.631-0.049,1.313,0.257,1.888-0.229c0.164-0.139,0.216-0.021,0.27,0.095C250.701,210.355,251.147,210.314,251.628,210.303z
	 M250.403,213.989c0.124,0.945,0.824,0.741,1.417,0.757c0.287,0.009,0.575,0.024,0.564-0.405c-0.008-0.366-0.243-0.399-0.516-0.39
	c-0.32,0.012-0.6,0.001-0.68-0.414c-0.023-0.116-0.193-0.242-0.322-0.293c-0.794-0.316-1.612-0.493-2.478-0.402
	c-0.274,0.029-0.536,0.036-0.509,0.396c0.029,0.384-0.197,0.841,0.208,1.129C248.45,214.623,250.021,214.37,250.403,213.989z
	 M249.073,210.591c-0.203,0-0.406,0.011-0.608-0.003c-0.699-0.045-0.582,0.455-0.599,0.876c-0.018,0.419,0.015,0.788,0.586,0.705
	c0.582-0.085,1.21,0.213,1.748-0.204c0.162-0.125,0.212-0.021,0.272,0.093c0.383,0.721,1.055,0.416,1.626,0.452
	c0.228,0.014,0.28-0.165,0.286-0.363c0.009-0.259-0.112-0.352-0.363-0.366c-0.241-0.015-0.547,0.126-0.713-0.112
	C250.762,210.878,250,210.574,249.073,210.591z M249.72,251.021c0.912,0.288,1.566-0.686,2.474-0.483
	c0.211,0.048,0.187-0.251,0.188-0.421c0.001-0.195-0.066-0.38-0.295-0.354c-0.886,0.102-1.672-0.409-2.574-0.358
	c-0.72,0.04-0.931,0.193-0.936,0.935C248.569,251.37,249.279,250.919,249.72,251.021z M250.561,226.801
	c0.56,0.245,1.064-0.24,1.623-0.448c0.33-0.122,0.293-0.462-0.004-0.63c-0.725-0.407-1.513-0.524-2.342-0.445
	c-0.348,0.033-0.461,0.164-0.479,0.512C249.306,226.803,249.289,226.803,250.561,226.801z"/>
<path fill="#EDEDED" d="M276.891,256.051c0.398-0.722,0.799-1.42,1.173-2.132c0.639-1.215,1.244-2.428,1.109-3.882
	c-0.204-2.215-2.142-4.038-4.358-4.115c-2.982-0.104-5.428,1.082-7.534,3.071c-1.839,1.736-3.499,3.617-4.188,6.143
	c-0.254,0.929-1.005,1.064-1.775,1.133c-1.091,0.097-2.178-0.069-3.266-0.127c-0.33-0.018-0.347-0.165-0.27-0.453
	c1.432-5.358,2.762-10.756,5.68-15.57c1.891-3.121,4.281-5.764,7.656-7.293c4.914-2.227,11.719-0.828,15.164,3.044
	c1.636,1.839,2.498,4.05,2.818,6.459c0.445,3.366-0.033,6.579-1.901,9.484C284.883,255.414,280.859,257.072,276.891,256.051z"/>
<path fill="#EDEDED" d="M249.698,286.938c-0.72-0.842-1.304-1.537-1.904-2.219c-0.193-0.22-0.169-0.467-0.169-0.717
	c-0.001-3.098,0.014-6.195-0.014-9.293c-0.005-0.577,0.177-0.754,0.734-0.741c1.142,0.026,2.285,0.007,3.428-0.011
	c0.228-0.004,0.563,0.101,0.597-0.286c0.04-0.455-0.348-0.377-0.591-0.382c-1.421-0.031-2.842-0.044-4.263-0.048
	c-0.599-0.003-0.746,0.361-0.743,0.905c0.015,2.793,0.007,5.587,0.007,8.38c0,0.278,0,0.557,0,0.915
	c-0.467-0.239-0.8-0.591-1.25-0.738c-0.254-0.084-0.185-0.333-0.187-0.525c-0.006-0.737-0.044-1.477,0.009-2.209
	c0.051-0.694-0.284-0.902-0.891-0.903c-0.863-0.001-1.727-0.009-2.59-0.017c-0.177-0.001-0.355-0.01-0.532-0.021
	c-0.219-0.014-0.316-0.163-0.325-0.354c-0.011-0.275,0.221-0.237,0.383-0.239c0.914-0.014,1.828-0.013,2.742-0.021
	c1.2-0.009,1.2-0.01,1.201-1.17c0-0.432,0.056-0.872-0.01-1.294c-0.228-1.433,0.278-2.613,1.156-3.695
	c0.292-0.36,1.483-0.544,2.101-0.234c0.659,0.329,1.351,0.204,2.009,0.132c0.594-0.066,0.281-0.652,0.338-1.012
	c0.051-0.322-0.076-0.578-0.455-0.515c-0.701,0.118-1.479-0.331-2.126,0.383c-0.168,0.187-0.717,0.028-1.097,0.028
	c0.344-1.427,0.344-1.427,1.73-1.43c0.965-0.003,1.93-0.008,2.895-0.007c0.278,0.001,0.513-0.026,0.504-0.394
	c-0.009-0.352-0.233-0.405-0.515-0.405c-1.092,0-2.183-0.018-3.275,0.001c-0.388,0.006-0.46-0.1-0.378-0.48
	c0.152-0.708,0.44-1.091,1.268-0.993c0.776,0.091,1.571,0.021,2.358,0.013c0.237-0.002,0.549,0.078,0.532-0.338
	c-0.017-0.391-0.311-0.333-0.556-0.334c-0.838-0.007-1.676-0.021-2.513,0c-0.402,0.01-0.542-0.081-0.439-0.517
	c0.16-0.677,0.445-1.08,1.235-0.953c0.445,0.072,0.919,0.06,1.367-0.005c0.312-0.044,0.889,0.311,0.894-0.333
	c0.005-0.677-0.601-0.353-0.938-0.391c-0.489-0.056-0.99-0.015-1.512-0.015c0.078-0.361,0.325-0.4,0.491-0.429
	c1.383-0.235,2.781-0.199,4.177-0.188c0.399,0.003,0.373,0.352,0.454,0.594c0.613,1.822,1.178,3.663,1.834,5.471
	c1.176,3.235,3.215,5.717,6.406,7.172c0.971,0.442,1.104,0.907,0.637,1.892c-0.959,2.024-2.658,3.087-4.766,3.531
	c-0.966,0.203-1.653,0.666-2.191,1.474c-1.105,1.657-2.521,3.048-3.936,4.435c-0.785,0.77-1.729,0.453-2.117-0.551
	c-0.197-0.512-0.401-0.968-0.398-1.529c0.002-0.464,0.154-0.65,0.611-0.626c0.304,0.017,0.609-0.009,0.914-0.015
	c0.252-0.004,0.357-0.134,0.359-0.383c0.004-0.266-0.129-0.356-0.375-0.354c-0.559,0.004-1.117,0.001-1.675,0
	c-0.345-0.001-0.507,0.182-0.531,0.513C249.775,285.889,249.743,286.315,249.698,286.938z M252.406,280.922
	c0-2.008,0.002-1.997-1.908-1.837c-0.465,0.039-0.709,0.236-0.717,0.693c-0.013,0.76-0.015,1.52-0.012,2.278
	c0.002,0.537,0.29,0.738,0.818,0.758c1.819,0.065,1.818,0.078,1.818-1.74C252.406,281.023,252.406,280.973,252.406,280.922z
	 M249.894,275.729c-0.219,0-0.372,0.015-0.523-0.002c-0.568-0.061-0.807,0.128-0.79,0.756c0.016,0.579,0.119,0.781,0.769,0.881
	c1.036,0.16,1.818-0.634,2.8-0.539c0.182,0.018,0.233-0.16,0.227-0.328c-0.008-0.14-0.082-0.293-0.212-0.262
	C251.299,276.446,250.689,275.506,249.894,275.729z"/>
<path fill="#EDEDED" d="M259.628,263.992c0.152,0,0.308,0.021,0.456-0.003c1.127-0.178,1.97,0.07,2.213,1.358
	c0.101,0.534,0.405,0.452,0.75,0.167c1.084-0.896,2.272-1.47,3.744-1.399c1.852,0.089,3.772,1.425,4.443,3.198
	c0.613,1.624,0.102,3.485-1.331,4.83c-2.491,2.338-6.396,2.242-8.755-0.233c-1.98-2.077-3.078-4.605-3.714-7.367
	c-0.097-0.422,0.038-0.556,0.443-0.546c0.583,0.014,1.167,0.003,1.75,0.003C259.628,263.998,259.628,263.995,259.628,263.992z"/>
<path fill="#EDEDED" d="M252.461,262.069c-3.706,0-7.412-0.011-11.117,0.012c-0.562,0.004-0.769-0.141-0.733-0.723
	c0.048-0.783,0.053-1.575-0.001-2.358c-0.044-0.642,0.178-0.808,0.808-0.806c5.254,0.016,10.509-0.004,15.763-0.013
	c2.106-0.003,4.214,0.013,6.32-0.019c0.533-0.008,0.705,0.143,0.679,0.68c-0.044,0.86-0.044,1.727,0,2.588
	c0.026,0.535-0.14,0.682-0.676,0.678c-3.681-0.022-7.361-0.012-11.042-0.012C252.461,262.087,252.461,262.078,252.461,262.069z"/>
<path fill="#EDEDED" d="M242.359,241.918c-0.342,0.324-0.939-0.051-0.995,0.372c-0.09,0.682-0.248,1.429,0.121,2.068
	c0.133,0.231,0.229,0.425,0.229,0.677c0.001,1.371-0.018,2.742,0.009,4.113c0.01,0.506-0.17,0.676-0.661,0.642
	c-0.952-0.065-0.766,0.647-0.796,1.208c-0.032,0.589,0.036,1.085,0.815,1.061c0.558-0.018,1.117-0.001,1.676,0
	c0.222,0.001,0.398,0.042,0.399,0.329c0.001,0.266-0.135,0.361-0.375,0.362c-0.66,0.003-1.32-0.002-1.98,0.01
	c-0.155,0.004-0.239-0.074-0.302-0.181c-0.494-0.833-1.113-1.559-1.015-2.687c0.135-1.552,0.022-1.674-1.498-1.529
	c-1.419,0.137-2.232-0.858-3.3-1.46c0.574,0,1.15-0.033,1.721,0.009c0.716,0.053,0.956-0.306,0.954-0.949
	c-0.003-1.371-0.005-2.742,0.006-4.112c0.002-0.239-0.123-0.589,0.156-0.686c0.279-0.096,0.581-0.091,0.914,0.124
	c0.598,0.386,1.349,0.259,1.975,0.098c0.395-0.103,0.139-0.717,0.173-1.1c0.031-0.336-0.239-0.297-0.465-0.341
	c-1.084-0.213-2.061,0.392-3.123,0.396c-0.395,0.003-0.415,0.449-0.416,0.788c-0.001,1.422-0.026,2.845,0.011,4.265
	c0.015,0.562-0.137,0.77-0.719,0.731c-1.489-0.097-2.991,0.137-4.476-0.182c-0.353-0.075-0.627-0.1-0.612-0.574
	c0.017-0.528-0.342-0.659-0.815-0.658c-2.666,0.007-5.332,0.004-7.997-0.009c-0.535-0.003-0.84,0.2-0.786,0.759
	c0.05,0.516-0.176,0.647-0.659,0.639c-1.421-0.027-2.844-0.03-4.265-0.008c-0.503,0.008-0.649-0.18-0.662-0.667
	c-0.013-0.513,0.168-0.659,0.658-0.642c0.862,0.031,1.727-0.015,2.589,0.013c0.614,0.019,1.006-0.194,1-0.842
	c-0.005-0.479,0.21-0.604,0.645-0.604c3.681-0.002,7.363-0.013,11.044-0.032c0.423-0.002,0.667,0.096,0.658,0.585
	c-0.014,0.678,0.355,0.888,1.022,0.881c2.201-0.023,1.881,0.039,1.895-1.89c0.008-1.168,0.017-2.336-0.006-3.503
	c-0.008-0.419,0.105-0.592,0.551-0.575c0.786,0.03,1.636-0.175,2.342,0.065c0.628,0.213,1.209,0.499,1.871,0.385
	c0.68-0.118,1.065,0.154,1.365,0.734C241.572,240.653,241.976,241.271,242.359,241.918z"/>
<path fill="#EDEDED" d="M239.428,237.532c-1.389,0.852-2.909,0.605-4.396,0.622c-0.583,0.006-0.648,0.372-0.649,0.813
	c-0.002,1.422,0.001,2.843-0.008,4.265c-0.003,0.624-0.707,1.007-1.257,0.691c-0.255-0.146-0.151-0.405-0.156-0.62
	c-0.011-0.568-0.31-0.85-0.859-0.832c-3.883,0.127-7.765-0.08-11.648-0.038c-1.208,0.013-1.223-0.002-1.425,1.163
	c-0.057,0.327-0.237,0.337-0.476,0.337c-0.813-0.002-1.625-0.019-2.437,0.004c-0.421,0.012-0.546-0.182-0.497-0.552
	c0.045-0.34-0.165-0.825,0.45-0.865c0.253-0.017,0.508-0.017,0.761-0.004c0.506,0.025,0.803-0.205,0.753-0.711
	c-0.061-0.62,0.241-0.709,0.762-0.695c1.091,0.027,2.183,0.009,3.275,0c0.975-0.007,1.13-0.168,1.132-1.166
	c0.003-2.006,0.046-4.013-0.021-6.016c-0.026-0.793,0.28-1.12,0.976-1.334c1.132-0.347,1.123-0.377,1.123,0.786
	c0,2.208-0.003,4.417,0.002,6.625c0.002,0.941,0.16,1.097,1.113,1.098c1.98,0.002,3.96-0.001,5.94-0.01
	c0.897-0.004,1.057-0.168,1.063-1.071c0.007-1.117,0.037-2.235-0.012-3.351c-0.027-0.622,0.2-0.779,0.781-0.751
	c0.887,0.043,1.776,0.014,2.665,0.007c0.35-0.003,0.718,0.047,0.91-0.379c0.13-0.289,0.292-0.083,0.401,0.029
	C238.324,236.225,238.96,236.869,239.428,237.532z"/>
<path fill="#EDEDED" d="M233.711,232.981c-1.193,0-2.387,0.019-3.58-0.008c-0.659-0.015-0.934,0.256-0.889,0.908
	c0.028,0.405,0.02,0.813,0.001,1.219c-0.017,0.369,0.087,0.644,0.446,0.795c0.542,0.229,0.428,0.721,0.188,0.977
	c-0.654,0.7-0.306,1.493-0.229,2.203c0.045,0.42,0.7,0.16,1.079,0.204c0.343,0.039,0.38-0.198,0.425-0.482
	c0.173-1.099-0.353-2.098-0.423-3.159c-0.013-0.193-0.146-0.306-0.327-0.38c-0.62-0.255-0.33-0.797-0.303-1.193
	c0.03-0.456,0.483-0.234,0.748-0.255c1.385-0.108,2.785,0.167,4.164-0.166c0.266-0.064,1.461,0.729,1.542,1.007
	c0.129,0.448-0.092,0.583-0.515,0.574c-0.965-0.021-1.931,0.004-2.896-0.025c-0.685-0.021-0.939,0.263-0.914,0.948
	c0.041,1.091-0.012,2.185,0.018,3.276c0.016,0.573-0.155,0.824-0.773,0.812c-1.701-0.035-3.404-0.04-5.105-0.014
	c-0.59,0.01-0.72-0.221-0.713-0.765c0.028-2.032,0.002-4.064,0.014-6.097c0.01-1.686-0.202-1.174,1.368-1.52
	c0.576-0.127,0.76,0.114,0.727,0.69c-0.027,0.469-0.292,0.47-0.609,0.443c-0.586-0.05-0.85,0.238-0.858,0.796
	c-0.007,0.457-0.014,0.915,0.009,1.37c0.016,0.305,0.068,0.602,0.42,0.742c0.462,0.185,0.423,0.663,0.23,0.891
	c-0.584,0.69-0.213,1.455-0.276,2.176c-0.042,0.489,0.421,0.341,0.683,0.33c0.311-0.013,0.854,0.201,0.834-0.348
	c-0.024-0.71,0.37-1.506-0.332-2.136c-0.108-0.097-0.053-0.387-0.056-0.588c-0.008-0.424,0.055-0.813-0.47-1.081
	c-0.366-0.188-0.156-0.698-0.146-1.062c0.01-0.344,0.324-0.259,0.531-0.256c0.752,0.011,0.91-0.454,0.828-1.058
	c-0.105-0.766,0.151-1.027,0.947-0.946C230.967,231.957,232.387,232.25,233.711,232.981z"/>
<path fill="#EDEDED" d="M242.927,243.268c0.454,0.851,1.036,1.63,0.965,2.649c-0.029,0.431,0.048,0.769,0.5,1.001
	c0.326,0.167,0.458,0.601,0.385,0.927c-0.076,0.339-0.482,0.191-0.732,0.177c-0.666-0.039-0.55,0.411-0.577,0.81
	c-0.031,0.461,0.083,0.68,0.619,0.683c1.433,0.009,1.626,0.263,1.646,1.757c0.006,0.453-0.25,1.02,0.414,1.297
	c0.091,0.038,0.243,0.373,0.009,0.438c-0.792,0.22-0.308,0.831-0.421,1.253c-0.043,0.16,0.068,0.324,0.251,0.292
	c0.817-0.143,0.8,0.489,0.928,0.981c0.057,0.219,0.077,0.447,0.132,0.779c-1,0-1.973-0.001-2.946,0.001
	c-0.222,0-0.333-0.075-0.262-0.318c0.035-0.121,0.057-0.247,0.066-0.373c0.094-1.253-0.038-1.365-1.312-1.353
	c-0.578,0.005-1.339,0.289-1.505-0.805c0.677,0,1.345-0.021,2.01,0.005c0.877,0.036,0.806-0.572,0.812-1.136
	c0.005-0.558,0.007-1.104-0.806-1.065c-0.557,0.027-1.117,0.001-1.675,0.003c-0.225,0.002-0.393-0.031-0.403-0.318
	c-0.012-0.313,0.143-0.412,0.416-0.381c0.863,0.101,1.041-0.379,0.993-1.11c-0.037-0.557-0.007-1.116-0.007-1.675
	c0-0.787,0.096-1.589-0.026-2.356C242.269,244.603,243.179,244.101,242.927,243.268z"/>
<path fill="#EDEDED" d="M242.875,272.472c0-0.461-0.031-0.734,0.006-0.998c0.095-0.669-0.158-0.89-0.838-0.859
	c-0.537,0.024-0.866,0.133-0.731,0.718c0.13,0.563-0.403,1.27,0.371,1.698c0.087,0.048-0.007,0.182-0.104,0.229
	c-0.159,0.078-0.319,0.151-0.481,0.222c-0.54,0.236-0.833,0.243-0.815-0.53c0.05-2.138,0.185-1.857-1.855-1.874
	c-1.319-0.012-2.638-0.006-3.958-0.012c-0.61-0.003-1.152-0.533-1.152-1.119c0-0.423,0.329-0.313,0.552-0.315
	c1.573-0.017,3.146-0.02,4.719-0.024c1.979-0.007,3.958-0.017,5.936-0.015c0.185,0.001,0.441-0.108,0.541,0.131
	c0.073,0.177-0.116,0.319-0.212,0.459C244.313,270.965,243.712,271.696,242.875,272.472z"/>
<path fill="#EDEDED" d="M246.232,267.36c-0.29,1.371-0.388,1.454-1.706,1.451c-3.578-0.01-7.156-0.02-10.734-0.027
	c-0.336-0.001-0.719,0.043-0.637-0.478c0.063-0.391-0.053-0.942,0.604-0.943C237.916,267.357,242.071,267.36,246.232,267.36z"/>
<path fill="#EDEDED" d="M233.811,266.549c0.449-0.77,0.897-1.396,1.96-1.348c1.543,0.07,3.094,0.03,4.64-0.002
	c0.516-0.01,0.906,0.149,1.31,0.459c0.556,0.427,0.495-0.579,1.108-0.499c1.197,0.155,2.429,0.053,3.646,0.034
	c0.413-0.006,0.515,0.097,0.415,0.527c-0.154,0.661-0.373,0.999-1.185,0.984c-3.702-0.067-7.405-0.042-11.108-0.057
	C234.354,266.647,234.097,266.715,233.811,266.549z"/>
<path fill="#EDEDED" d="M229.978,245.703c-0.241,0.329-0.702,0.137-1,0.337c-1.637,1.099-3.487,0.801-5.286,0.793
	c-0.703-0.004-1.072,0.219-0.999,0.962c0.038,0.381-0.179,0.481-0.508,0.479c-1.878-0.009-3.756-0.011-5.634-0.021
	c-0.698-0.004-0.611-0.574-0.657-0.992c-0.063-0.574,0.42-0.315,0.646-0.32c1.446-0.028,2.894-0.039,4.339-0.01
	c0.704,0.014,1.146-0.18,1.114-0.964c-0.013-0.312,0.116-0.478,0.438-0.478c2.436-0.001,4.872-0.005,7.308-0.003
	C229.839,245.487,229.941,245.522,229.978,245.703z"/>
<path fill="#EDEDED" d="M218.261,252.548c-0.151-0.119-0.234-0.15-0.256-0.207c-0.361-0.922-0.819-1.786-1.399-2.596
	c-0.316-0.441-0.053-0.595,0.424-0.593c1.723,0.011,3.446-0.002,5.169-0.012c1.072-0.007,1.084-0.01,1.183-1.044
	c0.027-0.279,0.097-0.413,0.397-0.41c0.877,0.011,1.755,0.004,2.721,0.004c-0.46,0.858-0.902,1.619-0.93,2.535
	c-0.013,0.447-0.414,0.285-0.652,0.287c-1.723,0.012-3.446,0.001-5.169-0.001c-1.482-0.002-1.482-0.001-1.489,1.456
	C218.261,252.119,218.261,252.271,218.261,252.548z"/>
<path fill="#EDEDED" d="M221.93,233.5c0,2.126-0.008,4.227,0.006,6.327c0.003,0.467-0.275,0.454-0.598,0.453
	c-1.192-0.007-2.385,0.021-3.576-0.016c-0.657-0.021-1.041,0.183-1.002,0.887c0.023,0.415-0.171,0.551-0.549,0.492
	c-0.457-0.07-0.299-0.396-0.236-0.643c0.355-1.384,0.36-1.382,1.848-1.385c0.863-0.001,1.725-0.012,2.587,0
	c0.603,0.008,0.868-0.24,0.856-0.868c-0.026-1.496,0.002-2.993-0.014-4.49C221.247,233.801,221.393,233.535,221.93,233.5z"/>
<path fill="#EDEDED" d="M222.442,251.337c0.86,0,1.721,0.006,2.581-0.003c0.318-0.003,0.661-0.013,0.67,0.402
	c0.011,0.474-0.397,0.269-0.616,0.272c-1.214,0.02-2.43,0.043-3.643-0.007c-0.747-0.03-1.01,0.315-1.008,0.983
	c0.001,0.379,0.027,0.758,0.036,1.137c0.013,0.501-0.176,0.484-0.53,0.235c-0.786-0.552-1.178-1.808-0.85-2.745
	c0.107-0.305,0.333-0.252,0.552-0.267c0.025-0.002,0.05-0.001,0.076-0.001c0.911,0,1.822,0,2.732,0
	C222.442,251.342,222.442,251.34,222.442,251.337z"/>
<path fill="#EDEDED" d="M223.753,252.862c0.657-0.001,1.314,0.003,1.972-0.003c0.259-0.002,0.481,0.078,0.479,0.357
	c-0.002,0.321-0.293,0.191-0.457,0.194c-0.708,0.017-1.416,0.018-2.123,0.002c-0.672-0.015-0.991,0.282-0.931,0.964
	c0.013,0.15,0.031,0.311-0.004,0.453c-0.075,0.299,0.238,0.766-0.222,0.877c-0.501,0.122-1.197-0.543-1.209-1.043
	c-0.043-1.798-0.043-1.798,1.737-1.801C223.247,252.863,223.5,252.863,223.753,252.862z"/>
<path fill="#EDEDED" d="M234.688,271.846c1.457,0,2.915,0,4.372-0.001c0.33,0,0.436,0.187,0.429,0.488
	c-0.008,0.354,0.007,0.708-0.004,1.063c-0.005,0.164,0.044,0.381-0.212,0.415c-0.148,0.021-0.326,0.045-0.408-0.117
	c-0.319-0.631-0.916-0.492-1.408-0.443C236.276,273.367,235.427,272.83,234.688,271.846z"/>
<path fill="#EDEDED" d="M220.463,234.405c0,1.297-0.011,2.513,0.005,3.728c0.006,0.489-0.179,0.672-0.677,0.651
	c-0.835-0.035-1.674-0.004-2.511-0.021c-0.162-0.003-0.463,0.133-0.441-0.224c0.016-0.253,0.225-0.31,0.445-0.311
	c0.533-0.004,1.066-0.009,1.598-0.01c0.651-0.001,0.986-0.313,0.98-0.977c-0.006-0.685,0.006-1.37-0.001-2.055
	C219.859,234.834,219.912,234.533,220.463,234.405z"/>
<path fill="#EDEDED" d="M244.633,274.81c0,0.872-0.018,1.555,0.007,2.236c0.015,0.407-0.088,0.598-0.542,0.583
	c-0.918-0.029-1.837-0.009-2.895-0.009c0.396-0.529,0.805-0.279,1.137-0.352c0.205-0.045,0.566,0.063,0.529-0.258
	c-0.094-0.806,0.547-1.063,0.986-1.479C244.069,275.327,244.289,275.128,244.633,274.81z"/>
<path fill="#EDEDED" d="M241.592,279.855c0.856,0,1.713,0.013,2.569-0.005c0.366-0.008,0.497,0.136,0.476,0.489
	c-0.019,0.328,0.035,0.663-0.014,0.984c-0.051,0.336,0.243,0.792-0.221,0.988c-0.283,0.12-1.527-0.714-1.482-0.986
	c0.183-1.101-0.339-1.442-1.453-1.229C241.508,280.018,241.55,279.937,241.592,279.855z"/>
<path fill="#EDEDED" d="M227.155,254.915c-0.73,0-1.415,0.022-2.096-0.007c-0.553-0.023-0.877,0.164-0.915,0.745
	c-0.017,0.259-0.031,0.532-0.418,0.472c-0.349-0.055-0.342-0.313-0.338-0.574c0.004-0.229,0.019-0.458-0.003-0.685
	c-0.038-0.397,0.14-0.549,0.523-0.546c0.862,0.007,1.724,0.001,2.585-0.005C226.845,254.313,227.072,254.455,227.155,254.915z"/>
<path fill="#EDEDED" d="M244.975,264.481c-0.631,0-1.262,0.004-1.893-0.003c-0.146-0.002-0.326-0.014-0.319-0.225
	c0.005-0.176,0.13-0.271,0.301-0.271c1.313-0.005,2.625-0.007,3.938-0.008c0.138,0,0.245,0.042,0.23,0.213
	c-0.019,0.225-0.17,0.298-0.363,0.3c-0.631,0.005-1.262,0.002-1.893,0.002C244.975,264.487,244.975,264.484,244.975,264.481z"/>
<path fill="#EDEDED" d="M227.789,255.769c-0.799,0.501-1.663,0.564-2.545,0.522c-0.153-0.008-0.309-0.015-0.324-0.229
	c-0.018-0.251,0.135-0.295,0.334-0.295C226.1,255.769,226.944,255.769,227.789,255.769z"/>
<path fill="#EDEDED" d="M218.812,235.731c0.18,0.271,0.122,0.504,0.123,0.723c0.003,0.793-0.165,0.93-0.933,0.834
	c-0.3-0.036-0.448-0.119-0.229-0.411C218.072,236.477,218.34,236.046,218.812,235.731z"/>
<path fill="#EDEDED" d="M241.813,255.017c0.355-0.119,0.709-0.054,1.058-0.055c0.235,0,0.29,0.158,0.288,0.356
	c-0.001,0.185-0.012,0.363-0.259,0.378C242.382,255.728,241.855,255.772,241.813,255.017z"/>
<path fill="#EDEDED" d="M238.77,250.106c-0.337-0.351-0.609-0.633-0.873-0.906C238.777,248.976,238.84,249.029,238.77,250.106z"/>
<path fill="#EDEDED" d="M236.909,264.421c0.806-0.369,1.639-0.372,2.467,0C238.554,264.421,237.731,264.421,236.909,264.421z"/>
</svg>
