<?xml version="1.0" encoding="utf-8"?>
<!-- Generator: Adobe Illustrator 16.0.0, SVG Export Plug-In . SVG Version: 6.00 Build 0)  -->
<!DOCTYPE svg PUBLIC "-//W3C//DTD SVG 1.0//EN" "http://www.w3.org/TR/2001/REC-SVG-20010904/DTD/svg10.dtd">
<svg version="1.0" id="Layer_1" xmlns="http://www.w3.org/2000/svg" xmlns:xlink="http://www.w3.org/1999/xlink" x="0px" y="0px"
	 width="500px" height="320px" viewBox="0 0 500 320" style="enable-background:new 0 0 500 320;" xml:space="preserve">
<g>
	<path style="fill:#E7E7E7;" d="M15.01,311.052c-3.8,0-5.6-1.7-6.4-3h93.8c-0.9,1.3-2.8,3-6.5,3H15.01 M16.91,306.752v-50.1
		c0-0.4,0.4-0.604,0.8-0.604h75.4c0.4,0,0.8,0.2,0.8,0.604v50.1H16.91 M93.21,253.352h-75.5c-1.7,0-3.4,1.4-3.4,3.2v49.3h-9.3
		l0.7,2.104c0.1,0.196,2,5.696,9.2,5.696h80.9c7,0,9-5.101,9.2-5.696l0.7-2.104h-9.2v-49.3
		C96.51,254.852,94.91,253.352,93.21,253.352"/>
	<polyline style="fill:#E7E7E7;" points="91.71,258.152 19.11,258.152 19.11,304.152 91.71,304.152 91.71,258.152 	"/>
	<path style="fill:#E7E7E7;" d="M342.216,170.452c1.194-0.9,2.594-1.9,3.394-3.2c2.104-3.5,2.2-10.5,2.104-12.7h22
		c0,2.1,0.2,9.2,2.3,12.7c1,1.4,2.4,2.4,3.6,3.2H342.216 M298.51,152.852c-0.5,0-0.8-0.6-0.8-1.2v-9.1h122.1v9.1h-0.1
		c0,0.5-0.3,1.2-0.8,1.2H298.51 M297.609,140.852v-72.1c0-0.5,0.301-1,0.801-1H418.81c0.5,0,0.8,0.5,0.8,1v72.1H297.609
		 M418.91,64.352h-120.4c-2.3,0-4.3,2.1-4.3,4.5v82.9c0,2.3,1.899,4.2,4.3,4.2h46.1c0,3.4-0.5,7.7-1.695,9.6
		c-0.7,1.101-2.2,2-3.305,2.7c-1.195,0.8-2.8,1.7-2.3,3.5c0.452,1.719,2.213,1.801,3.211,1.801c0.106,0,0.203-0.001,0.289-0.001
		h36.2c0.086,0,0.184,0.001,0.289,0.001c0.998,0,2.759-0.082,3.211-1.801c0.5-1.9-1.1-2.7-2.3-3.5c-1-0.6-2.7-1.6-3.3-2.7
		c-1.2-1.899-1.7-5.8-1.805-9.6h45.7c2.3,0,4.3-1.8,4.3-4.2v-83C423.105,66.452,421.21,64.352,418.91,64.352"/>
	<polyline style="fill:#E7E7E7;" points="416.714,70.752 300.609,70.752 300.609,137.852 416.714,137.852 416.714,70.752 	"/>
	<path style="fill:#E7E7E7;" d="M404.21,181.552l0.6-3.8h1.7c0.4,0,1.5,0.1,1.5,1.1c-0.1,2.301-1.2,2.601-2.3,2.7H404.21
		 M415.006,172.652h-0.1h-2.603c-0.1,0-0.1,0-0.1,0.1l-1.104,5.6c-0.195-1.699-1.3-2.699-3.396-2.896h-5
		c-0.104,0-0.104,0-0.104,0.101l-2.195,11v0.104h0.1h2.6c0.104,0,0.104,0,0.104-0.104l0.5-2.697h2.3c0.1,0,0.2,0,0.2,0
		c1.6,0,3.3-0.899,4.2-2.604l-0.5,2.396v0.104h0.1h2.6c0.103-0.004,0.103-0.004,0.103-0.104l1.2-6h1.896c0.4,0,0.604,0.1,0.7,0.199
		c0.1,0.101,0.1,0.396,0,0.801l-1,5v0.1h0.1h2.7c0.15,0.05,0.225,0.074,0.263,0.074c0.037,0,0.037-0.024,0.037-0.074l1-5.6
		c0.104-0.7,0-1.301-0.3-1.7c-0.5-0.601-1.3-1-2.5-1h-2.3l0.5-2.7V172.652"/>
	<path style="fill:#E7E7E7;" d="M422.41,181.552l0.6-3.8h1.7c0.396,0,1.5,0.1,1.5,1.1c-0.104,2.301-1.2,2.604-2.3,2.7H422.41
		 M420.771,175.455c-0.061,0-0.061,0.014-0.061,0.097l-2.2,11v0.101h0.1h2.604c0.1,0,0.1,0,0.1-0.101l0.5-2.7h2.302
		c0.103,0,0.198,0,0.198,0c2.4,0,4.802-1.896,4.802-5.199c0.103-1.896-1-3.101-3.302-3.196h-5
		C420.797,175.455,420.782,175.455,420.771,175.455"/>
	<path style="fill:#E7E7E7;" d="M414.109,243.552c-0.695,0-1.195-0.5-1.195-1.2v-38.8c0-0.7,0.5-1.2,1.195-1.2h55.601
		c0.7,0,1.2,0.5,1.2,1.2v38.8c0,0.7-0.5,1.2-1.2,1.2H414.109 M469.609,199.752H414.21c-1.9,0-3.4,1.5-3.4,3.4v39.1
		c0,1.9,1.5,3.4,3.4,3.4h55.399c1.9,0,3.4-1.5,3.4-3.4v-39.1C473.109,201.252,471.51,199.752,469.609,199.752"/>
	<polyline style="fill:#E7E7E7;" points="464.414,204.052 416.31,204.052 416.31,241.452 464.414,241.452 464.414,204.052 	"/>
	<path style="fill:#E7E7E7;" d="M467.71,220.752c-1.104,0-2.104,0.9-2.104,2.1c0,1.2,0.9,2.104,2.104,2.104
		c1.1,0,2.1-0.899,2.1-2.104C469.81,221.652,468.91,220.752,467.71,220.752"/>
	<path style="fill:#E7E7E7;" d="M68.41,64.352c-0.7,0-1.2-0.5-1.2-1.2v-55.6c0-0.7,0.5-1.2,1.2-1.2h38.8c0.7,0,1.2,0.5,1.2,1.2v55.6
		h0.1c0,0.7-0.5,1.2-1.2,1.2H68.41 M107.61,4.152h-39.1c-1.9,0-3.4,1.5-3.4,3.4v55.4c0,1.9,1.5,3.4,3.4,3.4h39.1
		c1.9,0,3.4-1.5,3.4-3.4v-55.4C111.11,5.652,109.51,4.152,107.61,4.152"/>
	<polyline style="fill:#E7E7E7;" points="106.81,9.752 69.41,9.752 69.41,57.852 106.81,57.852 106.81,9.752 	"/>
	<path style="fill:#E7E7E7;" d="M88.01,59.052c-1.1,0-2.1,0.9-2.1,2.1c0,1.1,0.9,2.1,2.1,2.1c1.1,0,2.1-0.9,2.1-2.1
		C90.01,59.952,89.11,59.052,88.01,59.052"/>
	<path style="fill:#E7E7E7;" d="M451.854,3.915c-2.293,0-4.624,0.303-6.944,0.937c-13.801,3.9-21.9,18.2-18.101,32.1l2.9,10.5
		c0.248,0.994,1.115,1.576,2.087,1.576c0.201,0,0.407-0.025,0.613-0.076l0.6,2.1c0.253,0.927,1.145,1.57,2.137,1.57
		c0.186,0,0.374-0.022,0.563-0.07l0.6,2.1c0.253,0.927,1.145,1.57,2.137,1.57c0.186,0,0.374-0.022,0.563-0.07l4.2-1.2
		c1.1-0.3,1.8-1.5,1.5-2.7l-4.7-16.7c-0.253-0.927-1.145-1.569-2.138-1.569c-0.185,0-0.374,0.022-0.563,0.069l-4.2,1.2
		c-1.1,0.3-1.8,1.5-1.5,2.7l-0.6-2.1c-3.2-11.6,3.5-23.6,15.1-26.8c1.926-0.536,3.865-0.791,5.774-0.791
		c9.497,0,18.262,6.316,20.926,15.891l0.591,2.068c-0.268-0.91-1.147-1.537-2.128-1.537c-0.185,0-0.374,0.022-0.563,0.069l-4.2,1.2
		c-1.1,0.3-1.8,1.5-1.5,2.7l4.7,16.7c0.253,0.927,1.145,1.57,2.137,1.57c0.186,0,0.375-0.022,0.563-0.07l2.199-0.6
		c1.66,0.73,4.51,1.637,8.405,1.637c1.972,0,4.211-0.232,6.699-0.837c0.552-0.13,1.062-0.196,1.519-0.196
		c0.951,0,1.676,0.289,2.081,0.896c0.7,1,0.302,2.8-0.8,4.4c-1.941,2.614-5.892,4.838-11.85,4.838c-2.02,0-4.269-0.255-6.75-0.838
		c0.1-0.4-0.2-0.8-0.5-0.8l-7-1.6c-0.104,0-0.104,0-0.2,0c-0.3,0-0.604,0.2-0.7,0.6v0.1l-0.898-0.2
		c-0.198-0.05-0.423-0.075-0.635-0.075c-0.213,0-0.412,0.025-0.563,0.075c-0.303,0.1-0.4,0.3-0.2,0.5s0.7,0.5,1.1,0.6l0.9,0.2
		l-0.103,0.3c-0.102,0.4,0.198,0.8,0.5,0.9l7,1.6c0.103,0,0.103,0,0.198,0c0.302,0,0.604-0.2,0.7-0.6c2.602,0.6,5,0.9,7.102,0.9
		c6.398,0,10.698-2.5,12.898-5.4c1.602-2.5,1.9-4.9,0.9-6.4c-0.654-1.017-1.838-1.506-3.318-1.506c-0.558,0-1.157,0.069-1.786,0.206
		c-2.286,0.582-4.347,0.801-6.169,0.801c-2.563,0-4.651-0.434-6.227-0.901c0.896-0.5,1.396-1.5,1.1-2.5l-0.6-2.1
		c1.1-0.3,1.8-1.5,1.5-2.7l-0.604-2.1c1.2-0.3,1.8-1.5,1.5-2.7l-2.8-10.4C473.761,11.456,463.294,3.915,451.854,3.915"/>
	<path style="fill:#E7E7E7;" d="M332.81,50.552c-1.3,0-2.396-1.1-2.396-2.4l-0.004-40.3c0-1.3,1.1-2.4,2.396-2.4h16.204
		c1.3,0,2.4,1.1,2.4,2.4v40.3c0,1.3-1.104,2.4-2.4,2.4H332.81 M349.01,4.152h-16.7c-2,0-3.7,1.7-3.7,3.7v40.8c0,2,1.7,3.7,3.7,3.7
		h16.7c2,0,3.7-1.7,3.7-3.7v-40.8C352.609,5.752,351.01,4.152,349.01,4.152"/>
	<polyline style="fill:#E7E7E7;" points="349.714,12.352 331.609,12.352 331.609,44.152 349.714,44.152 349.714,12.352 	"/>
	<path style="fill:#E7E7E7;" d="M343.01,9.352h-4.5c-0.2,0-0.4,0.2-0.4,0.4s0.2,0.4,0.4,0.4h4.5c0.2,0,0.4-0.2,0.4-0.4
		S343.21,9.352,343.01,9.352"/>
	<path style="fill:#E7E7E7;" d="M340.81,45.152c-1.2,0-2.3,1-2.3,2.3c0,1.3,1,2.3,2.3,2.3s2.3-1,2.3-2.3
		C343.01,46.152,342.01,45.152,340.81,45.152"/>
	<path style="fill:#E7E7E7;" d="M341.803,274.048c-1.297,0-2.393-1.098-2.393-2.396v-16.2c0-1.3,1.1-2.4,2.396-2.4h40.204
		c1.3,0,2.4,1.101,2.4,2.4v16.2h0.1c0,1.3-1.1,2.396-2.4,2.396h-40.3C341.808,274.048,341.805,274.048,341.803,274.048
		 M382.109,251.756h-40.8c-2,0-3.7,1.7-3.7,3.7v16.696c0,2,1.7,3.699,3.7,3.699h40.8c2,0,3.7-1.699,3.7-3.699v-16.696
		C385.71,253.352,384.109,251.756,382.109,251.756"/>
	<polyline style="fill:#E7E7E7;" points="378.01,254.752 346.21,254.752 346.21,272.852 378.01,272.852 378.01,254.752 	"/>
	<path style="fill:#E7E7E7;" d="M380.609,261.057c-0.195,0-0.396,0.199-0.396,0.399v4.5c-0.004,0.196,0.196,0.396,0.396,0.396
		c0.2,0,0.4-0.199,0.4-0.396v-4.5C381.01,261.256,380.81,261.057,380.609,261.057"/>
	<path style="fill:#E7E7E7;" d="M342.71,261.452c-1.3,0-2.3,1-2.3,2.3c0,1.2,1,2.3,2.3,2.3c1.2,0,2.3-1,2.3-2.3
		C344.91,262.452,343.91,261.452,342.71,261.452"/>
	<path style="fill:#E7E7E7;" d="M106.81,114.952c-4,0-7.2-3.2-7.2-7.2s3.2-7.2,7.2-7.2s7.2,3.2,7.2,7.2
		S110.71,114.952,106.81,114.952 M87.21,116.552v-18.5h9.4c2.4,0,4.3-1.3,4.9-3.4h10.5c0.5,2.1,2.5,3.4,4.9,3.4h9.4v18.5h-14.1
		c3-1.7,5-5.1,5.1-8.9c0-5.8-4.7-10.5-10.5-10.5c-5.8,0-10.5,4.7-10.5,10.5c0,3.8,2,7.2,5.1,8.9H87.21 M113.71,91.252h-14
		c-0.9,0-1.8,0.5-1.8,1.4v0.6c0,0.9-0.5,1.4-1.4,1.4h-0.7c-0.1-0.6-0.7-0.9-1.6-0.9h-5.4c-0.8,0-1.5,0.3-1.6,0.9h-1.8
		c-0.9,0-1.7,0.9-1.7,1.8v0.4v0.6v21.2c0,0.9,0.8,1.4,1.7,1.4h42.6c0.9,0,1.7-0.6,1.7-1.4v-21.3v-0.6v-0.4c0.1-0.8-0.8-1.7-1.7-1.7
		h-11.1c-0.9,0-1.8-0.5-1.8-1.4v-0.6C115.11,91.752,114.61,91.252,113.71,91.252"/>
	<path style="fill:#E7E7E7;" d="M106.81,102.652c-0.6,0-1.2,0.1-1.8,0.3c0.5,0.2,0.9,0.7,0.9,1.3c0,0.8-0.7,1.5-1.5,1.5
		c-0.8,0-1.4-0.6-1.5-1.4c-0.8,0.9-1.2,2-1.2,3.3c0,2.8,2.3,5.1,5.1,5.1c2.8,0,5.1-2.3,5.1-5.1
		C111.81,104.952,109.51,102.652,106.81,102.652"/>
	<path style="fill:#E7E7E7;" d="M452.03,174.931c-0.105,0-0.213-0.025-0.32-0.079c-0.4-0.199-0.604-0.699-0.4-1.1
		c0.149-0.293,0.455-0.479,0.768-0.479c0.114,0,0.229,0.024,0.337,0.078c0.396,0.2,0.6,0.7,0.396,1.104
		C452.59,174.745,452.317,174.931,452.03,174.931 M453.014,173.352c-0.1-0.199,0-0.399,0.102-0.5
		c0.054-0.028,0.107-0.041,0.159-0.041c0.14,0,0.267,0.094,0.341,0.237c0.395,0.204,0.595,0.804,0.494,1.404
		c-0.1,0.7-0.5,1.399-1.195,1.7c-0.059,0.029-0.116,0.041-0.173,0.041c-0.136,0-0.257-0.071-0.327-0.146
		c-0.104-0.196,0-0.396,0.1-0.5c0.4-0.196,0.8-0.696,0.8-1.196c0-0.399-0.1-0.699-0.3-1.104V173.352 M452.435,172.695
		c-0.134,0-0.255-0.072-0.329-0.144c-0.096-0.2-0.096-0.399,0.104-0.5c0.083-0.041,0.165-0.065,0.24-0.065
		c0.106,0,0.198,0.049,0.26,0.166c0.1,0.199,0,0.399-0.104,0.5C452.548,172.683,452.49,172.695,452.435,172.695 M450.81,176.956
		c-1.3-0.397-2.3-1.5-2.3-2.897v-38.703c-2.1-0.804-4.2-2.404-4.8-4.904c1.7,2.7,5.3,4.1,9.5,4.1c1.6,0,3.1-0.3,4.396-0.7
		c-0.6,0.3-1.3,1-2.195,1l-0.104,0.1c-0.8,0.3-1.6,0.5-2.5,0.6c-0.2,0-0.396,0-0.396,0.1v36c0,0-0.2,0-0.305,0
		c-0.195,0-0.5,0-0.5,0.1v-36c-0.396,0-0.396,0-0.896,0v36.3c-0.4,0.3-1,0.8-1.3,1.5c-0.104,0.2-0.104,0.5-0.104,0.8
		c0,0,0,0,0,0.104c0,0,0,0,0,0.103c0,1.102,0.604,2,1.604,2.397H450.81 M456.51,119.452v7.6l-4.7,2.7l-4.7-2.7v-7.6
		c-3,1.7-5.3,5-5.3,8.8c0,1.7,0.4,3.2,1.2,4.4c0.8,1.4,2.4,2.6,4.1,3.4v37.601c0,2.6,2.101,4.699,4.7,4.699
		c2.604,0,4.7-2.1,4.7-4.699v-37.601c1.7-0.8,3.1-1.9,4-3.4c0.8-1.2,1.2-2.7,1.2-4.5C461.81,124.452,459.71,121.152,456.51,119.452"
		/>
	<path style="fill:#E7E7E7;" d="M370.01,208.956c0.1,0.5,0.1,1,0.1,1.601c0,1.604-0.3,3.303-1.195,5.5l-4.7,13.699
		c4.596-2.704,7.696-7.704,7.696-13.404C371.91,213.752,371.21,211.252,370.01,208.956"/>
	<path style="fill:#E7E7E7;" d="M356.41,233.557c-9.4,0-17.104-7.697-17.104-17.101c0.004-9.404,7.704-17.104,17.104-17.104
		c9.396,0,17.1,7.7,17.1,17.104C373.51,225.852,365.91,233.557,356.41,233.557 M356.41,197.452c-10.4,0-18.9,8.5-18.9,18.899
		c0,10.4,8.5,18.9,18.9,18.9c10.396,0,18.896-8.5,18.896-18.9C375.41,205.952,366.91,197.452,356.41,197.452"/>
	<path style="fill:#E7E7E7;" d="M356.518,200.952c-5.396,0-10.199,2.8-12.896,7c0.396,0,0.697,0,1,0c1.589,0,4.089-0.2,4.089-0.2
		c0.8,0,0.896,1.2,0.1,1.3c0,0-0.8,0.101-1.8,0.101l5.6,16.699l3.4-10.1l-2.4-6.6c-0.8-0.104-1.6-0.104-1.6-0.104
		c-0.8-0.101-0.7-1.3,0.1-1.3c0,0,2.5,0.199,4.104,0.199c1.6,0,4.1-0.199,4.1-0.199c0.802,0,0.9,1.199,0.104,1.3
		c0,0-0.801,0.104-1.801,0.104l5.601,16.6l1.5-5.2c0.7-2.1,1.2-3.6,1.2-4.899c0-1.896-0.7-3.196-1.301-4.301
		c-0.804-1.3-1.5-2.396-1.5-3.6c0-1.4,1.101-2.7,2.601-2.7c0.101,0,0.101,0,0.2,0C364.117,202.552,360.518,200.952,356.518,200.952"
		/>
	<path style="fill:#E7E7E7;" d="M356.71,217.752l-4.601,13.5c1.4,0.4,2.805,0.6,4.4,0.6c1.8,0,3.5-0.3,5.1-0.896
		c0-0.104-0.1-0.104-0.1-0.2L356.71,217.752"/>
	<path style="fill:#E7E7E7;" d="M342.31,210.152c-0.8,1.899-1.3,4-1.3,6.304c0,6.096,3.6,11.396,8.7,13.896L342.31,210.152"/>
	<polyline style="fill:#E7E7E7;" points="163.91,103.452 161.41,103.452 161.41,106.052 158.81,106.052 158.81,103.452 
		156.21,103.452 156.21,111.652 158.81,111.652 158.81,108.552 161.41,108.552 161.41,111.652 163.91,111.652 163.91,103.452 	"/>
	<polyline style="fill:#E7E7E7;" points="172.51,103.452 165.21,103.452 165.21,106.052 167.41,106.052 167.41,111.652 
		170.01,111.652 170.01,106.052 172.51,106.052 172.51,103.452 	"/>
	<polyline style="fill:#E7E7E7;" points="182.91,103.452 179.91,103.452 178.21,106.252 176.51,103.452 173.81,103.452 
		173.81,111.652 176.41,111.652 176.41,107.452 178.11,110.352 178.21,110.352 179.81,107.452 179.81,111.652 182.91,111.652 
		182.91,103.452 	"/>
	<polyline style="fill:#E7E7E7;" points="186.71,103.452 184.11,103.452 184.11,111.652 190.61,111.652 190.61,108.552 
		186.71,108.552 186.71,103.452 	"/>
	<path style="fill:#E7E7E7;" d="M161.61,140.052l-1.3-14.5l-0.1-1.4h13.2h13.2l-0.3,1.3l-0.2,2.6l-0.1,1.2h-12.7h-7.4l0.5,5.2h7
		h10.8h1.4l-0.1,1.5l-1.2,14v0.9l-10.7,3h-0.1l-10.9-3l-0.7-8.2h2.4h2.9l0.4,4.2l5.9,1.5h0.1l5.8-1.5l0.5-6.8h-6.5H161.61
		 M194.31,115.052h-42.1l3.8,43l17.2,4.8l17.3-4.8L194.31,115.052"/>
	<path style="fill:#E7E7E7;" d="M150.11,209.352v-0.199l7.5-7.7l1.7,1.6c0.3,0.3,0.6,0.5,1,0.601c0.4,0.104,0.8,0.199,1.1,0.199
		c0.4,0,0.7,0,1.1-0.1c0.3-0.1,0.6-0.2,0.8-0.3c0.1,0,0.1-0.101,0.2-0.101l1.7-1.699l7.5,7.699H150.11 M174.31,207.452l-7.4-7.5
		l7.4-7.4V207.452 M148.51,207.452v-15h0.1l7.5,7.399l-7.5,7.601H148.51 M161.01,201.756c-0.1,0-0.2-0.104-0.3-0.199l-10.6-10.801
		l22.701-0.004l-10.501,10.6c-0.1,0.104-0.2,0.2-0.4,0.301c-0.2,0-0.3,0.104-0.5,0.104
		C161.31,201.756,161.21,201.756,161.01,201.756 M174.71,188.557h-27.2c-0.7,0-1.2,0.604-1.2,1.199v19.896
		c0,0.699,0.6,1.199,1.2,1.199h27.2c0.7,0,1.2-0.6,1.2-1.199v-19.896C176.01,189.057,175.41,188.557,174.71,188.557"/>
	<path style="fill:#E7E7E7;" d="M44.01,95.252v-8.2h16.8v8.2h-0.1H44.01 M60.71,84.952h-16.9c-1.1,0-2,0.9-2,2v8.4c0,1.1,0.8,2,2,2
		h16.9c1.1,0,2.2-0.9,2.2-2v-1h1.3c0.6,0,0.9-0.3,0.9-0.9v-4.7c-0.1-0.5-0.4-0.8-0.9-0.8h-1.3v-1
		C62.91,85.852,61.81,84.952,60.71,84.952"/>
	<polyline style="fill:#E7E7E7;" points="47.41,88.452 45.31,88.452 45.31,94.052 47.41,94.052 47.41,88.452 	"/>
	<polyline style="fill:#E7E7E7;" points="51.21,88.452 49.11,88.452 49.11,94.052 51.21,94.052 51.21,88.452 	"/>
	<path style="fill:#E7E7E7;" d="M285.01,22.252c0.5-0.9,0.7-1.5,0.7-2.3v0.1h6.2c0.6,0,1.1,0.5,1.1,1.1c0,0.7-0.5,1.1-1.1,1.1
		H285.01 M285.71,17.552v-2.1h6.2c0.6,0,1.1,0.5,1.1,1.1c0,0.5-0.5,1-1.1,1H285.71 M285.71,12.852v-2.1h6.2c0.6,0,1.1,0.5,1.1,1.1
		c0,0.5-0.5,1-1.1,1H285.71 M262.705,20.952c-0.604,0-1-0.6-1-1.1l0.005-15.6c0-0.5,0.5-0.9,1-0.9h20c0.5,0,0.899,0.3,0.899,0.9
		v15.6c0,0.6-0.304,1.1-0.899,1.1h-10c-0.3,0-0.601,0.1-0.8,0.3l-4.604,4.5v-3.9c0-0.6-0.396-0.9-1-0.9H262.705 M282.81,1.252h-20.2
		c-1.699,0-3.1,1.2-3.1,2.9v15.9c0,0.8,0.3,1.7,0.9,2.2c0.6,0.6,1.3,0.9,2.199,0.9h2.5v5.1c0,0.6,0.604,1.2,1.2,1.2
		c0.3,0,0.7-0.3,0.9-0.3l6-6h2.3c0,0.7,0.2,1.3,0.6,1.8c0.4,0.4,0.9,0.8,1.604,0.8h7.696l4.699,4.7c0.2,0,0.5,0.2,0.7,0.2
		c0.5,0,1-0.5,1-1v-3.9h1.9c1.3,0,2.399-1.2,2.399-2.6v-12.6c-0.104-1.3-1.104-2.4-2.5-2.4h-7.899v-4
		C285.71,2.452,284.51,1.252,282.81,1.252"/>
	<path style="fill:#E7E7E7;" d="M280.31,5.952h-15.7c-0.6,0-1.1,0.5-1.1,1.1c0,0.6,0.5,1.1,1.1,1.1h15.7
		c0.601,0,1.101-0.5,1.101-1.1C281.41,6.452,280.91,5.952,280.31,5.952"/>
	<path style="fill:#E7E7E7;" d="M280.31,10.652h-15.7c-0.6,0-1.1,0.5-1.1,1.1s0.5,1.1,1.1,1.1h15.7c0.601,0,1.101-0.5,1.101-1.1
		S280.91,10.652,280.31,10.652"/>
	<path style="fill:#E7E7E7;" d="M280.31,15.452h-15.7c-0.6,0-1.1,0.5-1.1,1.1c0,0.6,0.5,1.1,1.1,1.1h15.7
		c0.601,0,1.101-0.5,1.101-1.1C281.41,15.852,280.91,15.452,280.31,15.452"/>
	<path style="fill:#E7E7E7;" d="M398.51,17.152c-3.1,0-5.5,2.5-5.5,5.5c0,0.4,0,0.9,0.1,1.3c-4.6-0.2-8.695-2.4-11.396-5.8
		c-0.5,0.8-0.7,1.8-0.7,2.8c0,1.9,1,3.6,2.5,4.6c-0.9,0-1.6-0.3-2.5-0.7c0,0,0,0,0,0.1c0,2.7,1.9,4.9,4.4,5.4
		c-0.5,0.1-1,0.2-1.5,0.2c-0.4,0-0.7,0-1.104-0.1c0.7,2.2,2.7,3.8,5.2,3.8c-1.9,1.5-4.3,2.4-6.9,2.4c-0.399,0-0.899,0-1.3-0.1
		c2.4,1.6,5.4,2.5,8.5,2.5c10.2,0,15.7-8.4,15.7-15.7c0-0.2,0-0.5,0-0.7c1.1-0.8,1.9-1.8,2.8-2.9c-0.896,0.5-2.1,0.7-3.2,0.9
		c1.104-0.7,2-1.8,2.4-3.1c-1.1,0.6-2.3,1.1-3.5,1.3C401.51,17.752,400.109,17.152,398.51,17.152"/>
	<path style="fill:#E7E7E7;" d="M323.014,288.748l-8,1.699l-8.104,8.205h-4.9l-4.9,6.396c0,0,3.355-0.986,6.225-0.986
		c0.669,0,1.313,0.054,1.88,0.187l-8.104,10.5l10.7-8.301c1.5,3.396-0.896,8.301-0.896,8.301l6.5-4.896v-4.899l8-8.101
		L323.014,288.748"/>
	<path style="fill:#E7E7E7;" d="M46.41,212.552c-4.4,0-8.4,2-10.9,5.2l4,6.9c0.7-2.9,3.5-5.2,6.9-5.2c0.2,0,0.4,0,0.6,0h11.4
		C56.01,215.152,51.51,212.552,46.41,212.552"/>
	<path style="fill:#E7E7E7;" d="M59.41,221.652h-8c1.3,1.3,2.1,3,2.1,5c0,1.5-0.5,2.8-1.3,4l-5.7,9.896
		c7.6-0.096,13.8-6.296,13.8-13.896C60.31,224.852,60.01,222.952,59.41,221.652"/>
	<path style="fill:#E7E7E7;" d="M46.41,221.452c-2.8,0-5.1,2.3-5.1,5.1s2.3,5.101,5.1,5.101c2.8,0,5.1-2.301,5.1-5.101
		S49.21,221.452,46.41,221.452"/>
	<path style="fill:#E7E7E7;" d="M34.21,219.752c-1.1,2-1.8,4.3-1.8,6.8c0,7,5.2,12.8,11.9,13.8l4-7.1c-0.6,0.4-1.3,0.4-1.9,0.4
		c-2.9,0-5.3-1.604-6.5-4L34.21,219.752"/>
	<path style="fill:#E7E7E7;" d="M486.81,168.652c-0.5,0-1.2,0.104-2,0.399c-0.8,0.3-1.3,0.4-1.6,0.4s-0.8-0.101-1.604-0.3
		c-0.8-0.2-1.5-0.301-2-0.301c-1.3,0-2.396,0.601-3.3,1.696c-0.896,1.104-1.3,2.604-1.3,4.304c0,1.896,0.6,3.801,1.7,5.801
		c1.1,2,2.304,3,3.504,3c0.396,0,0.896-0.104,1.5-0.4c0.6-0.3,1.2-0.4,1.6-0.4c0.5,0,1.104,0.104,1.7,0.4c0.7,0.2,1.2,0.4,1.6,0.4
		c1,0,2-0.801,3-2.301c0.604-1.199,1.104-2.304,1.4-3.104c-0.7,0-1.3-0.7-1.8-1.396c-0.5-0.804-0.8-1.604-0.8-2.5
		c0-0.899,0.195-1.699,0.8-2.399c0.3-0.4,0.7-0.8,1.3-1.4c-0.4-0.5-0.8-0.899-1.2-1.2
		C488.609,168.852,487.81,168.652,486.81,168.652"/>
	<path style="fill:#E7E7E7;" d="M486.714,164.252c-1.404,0.3-2.304,0.9-2.904,1.7c-0.6,0.8-0.896,1.8-0.896,3
		c0.5,0,0.896-0.101,1.195-0.2c0.305-0.1,0.7-0.4,1.2-0.8c0.5-0.5,0.8-1,1.104-1.601c0.195-0.604,0.3-1.104,0.3-1.5
		c0,0,0-0.104,0-0.199c0-0.104,0-0.104,0-0.2v-0.101C486.714,164.252,486.714,164.252,486.714,164.252"/>
	<polyline style="fill:#E7E7E7;" points="44.71,3.952 15.11,3.952 13.91,9.752 37.71,9.752 36.91,13.652 13.21,13.652 12.01,19.152 
		35.81,19.152 34.41,25.952 24.91,29.152 16.61,25.952 17.21,23.052 11.31,23.052 9.91,30.052 23.61,35.352 39.41,30.152 
		44.71,3.952 	"/>
	<path style="fill:#E7E7E7;" d="M161.91,59.152c-0.4,0-0.7,0.1-1,0.4c-0.3,0.3-0.4,0.6-0.4,1v6c0,0.4,0.1,0.7,0.3,1
		c0.3,0.3,0.5,0.4,0.9,0.4c0.4,0,0.7-0.1,1-0.4c0.3-0.3,0.3-0.6,0.3-1v-6c0.1-0.4,0-0.7-0.2-1
		C162.51,59.252,162.31,59.152,161.91,59.152"/>
	<path style="fill:#E7E7E7;" d="M159.61,59.652h-12.5v9h0.1c0,0.4,0.1,0.9,0.4,1.2c0.3,0.3,0.6,0.5,1.1,0.5h1v3
		c0,0.4,0.1,0.6,0.4,0.9c0.3,0.3,0.6,0.4,1,0.4s0.7-0.1,1-0.4c0.3-0.3,0.3-0.6,0.3-1v-2.9h2.1v2.9c0,0.4,0.1,0.7,0.4,1
		c0.3,0.3,0.6,0.4,1,0.4s0.8-0.1,1.1-0.4s0.5-0.6,0.5-1v-2.9h0.8c0.4,0,0.7-0.2,1-0.5c0.3-0.3,0.3-0.8,0.3-1.2V59.652"/>
	<path style="fill:#E7E7E7;" d="M150.51,56.652c-0.2,0-0.3-0.1-0.4-0.2c-0.1-0.1-0.2-0.2-0.2-0.4c0-0.1,0.1-0.3,0.2-0.4
		s0.2-0.2,0.4-0.2c0.1,0,0.3,0.1,0.4,0.2s0.2,0.2,0.2,0.4c0,0.2,0,0.3-0.2,0.4C150.81,56.552,150.71,56.652,150.51,56.652
		 M156.41,56.652c-0.1,0-0.3-0.1-0.4-0.2c-0.1-0.1-0.2-0.2-0.2-0.4c0-0.2,0.1-0.3,0.2-0.4s0.2-0.2,0.4-0.2c0.1,0,0.3,0.1,0.4,0.2
		c0.1,0.1,0.2,0.2,0.2,0.4c-0.1,0.2-0.1,0.3-0.2,0.4C156.71,56.552,156.61,56.652,156.41,56.652 M157.422,51.71
		c-0.071,0-0.142,0.071-0.212,0.142l-1,1.8c-0.9-0.4-1.8-0.6-2.8-0.6s-1.9,0.2-2.8,0.6l-1-1.8c-0.1-0.1-0.2-0.1-0.3-0.1
		c-0.1,0.1-0.1,0.1-0.1,0.3l1,1.8c-1,0.5-1.8,1.2-2.4,2.1c-0.6,0.9-0.9,2-0.9,2.9h12.8c0-0.9-0.3-2-0.9-2.9c-0.4-1-1.2-1.6-2.2-2.1
		l1-1.8c0.1-0.1,0-0.2-0.1-0.3C157.48,51.723,157.451,51.71,157.422,51.71"/>
	<path style="fill:#E7E7E7;" d="M145.21,59.152c-0.4,0-0.7,0.1-1,0.4c-0.3,0.3-0.4,0.6-0.4,1v6c0,0.4,0.2,0.7,0.4,1
		c0.3,0.3,0.6,0.4,1,0.4c0.4,0,0.8-0.1,1-0.4c0.3-0.3,0.5-0.6,0.5-1v-6c0-0.4-0.2-0.7-0.5-1
		C146.01,59.252,145.61,59.152,145.21,59.152"/>
	<path style="fill:#E7E7E7;" d="M95.21,160.452v-2.6h8.2v2.6H95.21 M89.71,152.252h3v2.6h-3v3h-2.6v2.6h-3v-2.6h3v-3h2.6V152.252
		 M84.11,149.252v-2.6h3v2.6h2.6v3h-2.6v-3H84.11 M111.61,141.052h-32.7v27.5h32.7V141.052"/>
	<path style="fill:#E7E7E7;" d="M77.61,171.552c-0.9,0-1.7-0.8-1.7-1.7v-29.7c0-0.9,0.8-1.7,1.7-1.7h35.2c0.9,0,1.7,0.8,1.7,1.7
		v29.7h0.1c0,0.9-0.8,1.7-1.7,1.7H77.61 M113.01,136.252h-35.3c-2.1,0-3.9,1.7-3.9,3.9v29.7c0,2.104,1.7,3.9,3.9,3.9h35.3
		c2.1,0,3.9-1.7,3.9-3.9v-29.7C116.81,137.952,115.11,136.252,113.01,136.252"/>
	<path style="fill:#E7E7E7;" d="M220.81,115.652c-1.4,0-2.6-0.5-3.6-1.5s-1.5-2.2-1.5-3.6c0-1.4,0.5-2.6,1.5-3.6s2.2-1.5,3.6-1.5
		c1.4,0,2.6,0.5,3.6,1.5s1.5,2.2,1.5,3.6c0,1.3-0.5,2.6-1.5,3.6S222.21,115.652,220.81,115.652 M220.91,102.552
		c-1,0-2.1,0.2-3.1,0.6s-1.9,1-2.6,1.7c-0.7,0.7-1.3,1.6-1.7,2.6s-0.6,2.1-0.6,3.1s0.2,2.1,0.6,3.1s1,1.9,1.7,2.6
		c0.7,0.7,1.6,1.3,2.6,1.7c1,0.4,2.1,0.6,3.1,0.6c1.7,0,3.2-0.5,4.6-1.4l3.9,3.9c0.3,0.3,0.6,0.4,1,0.4s0.7-0.1,1-0.4
		c0.3-0.3,0.4-0.6,0.4-1c0-0.4-0.1-0.8-0.4-1l-3.9-3.9c1-1.4,1.4-2.9,1.4-4.6c0-1.1-0.2-2.1-0.6-3.1c-0.4-1-1-1.9-1.7-2.6
		c-0.7-0.7-1.6-1.3-2.6-1.7S221.91,102.552,220.91,102.552"/>
	<path style="fill:#E7E7E7;" d="M467.816,97.571c-0.43,0-0.819-0.284-0.906-0.719c-0.104-0.5,0.195-1,0.695-1.1
		c1.953-0.453,3.797-0.675,5.534-0.675c3.249,0,6.128,0.777,8.666,2.275c0.404,0.3,0.704,0.9,0.204,1.3
		c0,0.267-0.312,0.444-0.667,0.444c-0.178,0-0.366-0.044-0.533-0.144c-2.185-1.351-4.745-2.04-7.652-2.04
		c-1.611,0-3.328,0.212-5.147,0.64C467.945,97.564,467.881,97.571,467.816,97.571 M467.489,93.204c-0.483,0-0.919-0.358-1.079-0.852
		c-0.2-0.6,0.195-1.2,0.8-1.4c1.832-0.553,3.833-0.819,5.852-0.82c3.819,0,7.704,0.953,10.648,2.72c0.5,0.4,0.7,1.1,0.3,1.6
		c-0.203,0.34-0.592,0.541-1.009,0.541c-0.196,0-0.398-0.044-0.591-0.141c-2.557-1.573-6.058-2.416-9.463-2.416
		c-1.791,0-3.555,0.233-5.142,0.715C467.699,93.188,467.593,93.204,467.489,93.204 M466.839,88.403c-0.59,0-1.164-0.373-1.329-0.951
		c-0.2-0.7,0.2-1.5,0.9-1.7c1.971-0.607,4.433-0.94,7.023-0.94c4.239,0,8.823,0.893,12.172,2.94c0.7,0.4,0.9,1.2,0.5,1.9
		c-0.243,0.431-0.679,0.634-1.116,0.634c-0.274,0-0.55-0.08-0.779-0.234c-2.923-1.741-7.044-2.515-10.825-2.515
		c-2.3,0-4.473,0.286-6.175,0.815C467.088,88.387,466.963,88.403,466.839,88.403 M475.01,78.452c-8.2,0-14.9,6.7-14.9,14.9
		c0,3.8,1.4,7.2,3.7,9.8c2.217-2.217,5.271-3.505,8.804-3.505c0.131,0,0.264,0.002,0.396,0.005c4.7,0.2,8.4,2.4,10.5,6
		c3.9-2.7,6.4-7.2,6.4-12.2C489.806,85.152,483.21,78.452,475.01,78.452"/>
	<path style="fill:#E7E7E7;" d="M472.462,104.144c-1.94,0-3.524,0.798-4.752,2.309c2.1,1.2,4.6,1.9,7.2,1.9c1.3,0,2.5-0.2,3.699-0.5
		c-1.1-2.4-3.1-3.7-5.8-3.7C472.692,104.146,472.576,104.144,472.462,104.144"/>
	<path style="fill:#E7E7E7;" d="M155.41,23.252c0.7,0,1.5,0,2.5-0.1s1.8-0.1,2.5-0.2c0.7,0,1.4,0,2.1,0s1.4,0.1,1.9,0.3
		c0.6,0.2,1.1,0.5,1.5,0.9c1.4,1.3,2.2,2.8,2.2,4.4c-0.1,1-0.2,1.9-0.5,2.6c-0.2,0.7-0.5,1.3-0.9,1.8c-0.4,0.5-0.9,0.9-1.5,1.3
		c-0.7,0.3-1.3,0.6-1.9,0.8c-0.6,0.2-1.4,0.3-2.4,0.4c-1,0.1-1.8,0.2-2.6,0.2c-0.8,0-1.7,0-2.9,0c-1.2,0-2.2,0-2.9,0
		c-0.8,0-1.6-0.1-2.6-0.2c-1-0.1-1.8-0.3-2.4-0.4c-0.6-0.2-1.3-0.5-1.9-0.8c-0.7-0.3-1.2-0.8-1.5-1.3c-0.4-0.5-0.7-1.2-0.9-1.9
		c-0.2-0.7-0.4-1.3-0.4-2.6c0-1.3,0.7-3,2.2-4.3c0.4-0.4,0.9-0.7,1.5-0.9s1.2-0.3,1.9-0.3c0.7,0,1.4,0,2.1,0s1.5,0.1,2.4,0.2
		C153.91,23.252,154.71,23.252,155.41,23.252 M142.073,10.308c-0.074,0-0.13,0.011-0.163,0.044c-0.1,0.1-0.2,0-0.3,0.1
		c-0.3,0.8-0.6,1.7-0.7,2.5c-0.1,0.8-0.2,1.5-0.1,2.2c0.1,0.7,0.1,1.1,0.2,1.4c0.1,0.3,0.2,0.7,0.3,1c-1.8,2-2.7,4.2-2.7,7.2
		c0,1.3,0.1,2.8,0.4,4.1c0.3,1.2,0.7,2.3,1.2,3.2c0.5,0.9,1.2,1.7,1.9,2.4c0.8,0.7,1.6,1.3,2.5,1.7s2,0.8,3.1,1.1
		c1.2,0.3,2.4,0.5,3.6,0.6c1.2,0.1,2.6,0.2,4,0.2c1.5,0,2.8-0.1,4.1-0.2c1.2-0.1,2.4-0.3,3.6-0.6s2.2-0.6,3.2-1.1
		c0.9-0.4,1.8-1,2.6-1.7c0.8-0.7,1.4-1.5,2-2.4c0.5-0.9,0.9-2,1.2-3.2c0.3-1.2,0.4-2.6,0.4-4.2c0-2.9-1-5.3-2.8-7.3
		c0.1-0.3,0.2-0.6,0.3-0.9c0.1-0.3,0.2-0.8,0.2-1.4c0.1-0.6,0-1.3-0.1-2.2c-0.1-0.8-0.4-1.6-0.7-2.5h-0.2c-0.2,0-0.5,0-0.9,0
		c-0.4,0-0.9,0.1-1.4,0.3c-0.5,0.1-1.2,0.4-2.1,0.9c-0.8,0.4-1.7,1-2.7,1.6c-1.6-0.4-3.8-0.7-6.6-0.7c-2.8,0-5,0.2-6.6,0.7
		c-0.9-0.6-1.8-1.2-2.7-1.6c-0.9-0.4-1.5-0.7-2-0.9c-0.5-0.1-1-0.2-1.4-0.3C142.443,10.352,142.221,10.308,142.073,10.308"/>
	<path style="fill:#E7E7E7;" d="M149.11,25.052c-1.16,0-2.1,1.433-2.1,3.2s0.94,3.2,2.1,3.2s2.1-1.433,2.1-3.2
		S150.27,25.052,149.11,25.052"/>
	<path style="fill:#E7E7E7;" d="M161.81,25.052c-1.16,0-2.1,1.433-2.1,3.2s0.94,3.2,2.1,3.2c1.16,0,2.1-1.433,2.1-3.2
		S162.97,25.052,161.81,25.052"/>
	<path style="fill:#E7E7E7;" d="M257.609,127.052c-0.3-0.8-0.699-1.5-1.199-2s-1.101-0.9-2-1.2l0.804-4.1l1.5-1.5
		c0.601,0.5,1.396,0.9,2.3,1.2c0.896,0.3,1.7,0.5,2.396,0.5c0,0.7,0.199,1.6,0.5,2.5c0.304,0.9,0.699,1.7,1.199,2.3l-1.399,1.5
		L257.609,127.052 M264.21,123.752c-0.3-0.4-0.601-0.9-0.8-1.5c-0.2-0.6-0.301-1.2-0.301-1.7s0-1,0.101-1.4l8.899-8.9l0.196,0.2
		c0.5,0.5,0.899,1.2,1,2c0.304,0.9,0.204,1.6,0.004,2.2L264.21,123.752 M260.91,118.352c-0.5,0-1.101-0.1-1.696-0.3
		c-0.604-0.2-1.104-0.5-1.5-0.8l8.796-8.7c0.332-0.332,0.869-0.525,1.612-0.525c0.153,0,0.316,0.008,0.487,0.025
		c1,0.1,1.801,0.5,2.4,1.1l0.2,0.2l-8.9,8.9C261.91,118.352,261.51,118.352,260.91,118.352 M275.214,112.952
		c-0.2-1.3-0.7-2.4-1.5-3.3l-1.7-1.7c-0.8-0.8-1.896-1.3-3.3-1.5l1.296-1.3c0.311-0.388,0.801-0.535,1.471-0.535
		c0.194,0,0.404,0.012,0.629,0.035c1,0.1,1.801,0.5,2.4,1.1l1.3,1.3c0.601,0.6,1,1.4,1.101,2.4c0.104,1,0,1.7-0.5,2.2
		L275.214,112.952 M271.552,102.915c-0.186,0-0.367,0.013-0.542,0.038c-0.7,0.1-1.3,0.3-1.7,0.7l-15.5,15.5l-2.6,11.1l11.1-2.6
		l15.5-15.5c0.4-0.4,0.601-1,0.7-1.7c0.2-0.6,0.1-1.4-0.2-2.2s-0.7-1.5-1.2-2.1l-1.699-1.7c-0.601-0.6-1.196-1-2.101-1.2
		C272.71,103.027,272.11,102.915,271.552,102.915"/>
	<path style="fill:#E7E7E7;" d="M228.71,26.352v-4.3h2.4c0.8,0,1.4,0.3,1.6,0.6c0.3,0.3,0.7,0.7,0.7,1.5c0,0.9-0.4,1.3-0.7,1.6
		c-0.3,0.3-0.8,0.6-1.6,0.6H228.71 M217.71,17.752c-2.2,0-4.3-0.3-6-0.9c-1.1-0.4-1.7-0.7-2.1-1c0.3-0.3,1-0.6,2.1-1
		c1.7-0.6,3.8-0.9,6-0.9c2.2,0,4.3,0.3,6,0.9c1.1,0.4,1.7,0.7,2.1,1c-0.4,0.3-1,0.7-2.1,1
		C222.01,17.452,219.91,17.752,217.71,17.752 M217.71,11.352c-6.2,0-11,2.1-11,4.6v16.6c0,2.6,4.8,4.6,11,4.6c6.2,0,11-2.1,11-4.6
		v-2.7h1.9c3,0,5.5-2.5,5.5-5.6s-2.4-5.6-5.5-5.6h-1.9v-2.7C228.71,13.352,223.91,11.352,217.71,11.352"/>
	<path style="fill:#E7E7E7;" d="M383.21,295.952h-2c-0.104,0-0.2,0.1-0.2,0.3l-0.7,3.3l-0.7,3.4c0,0.1-0.1,0.3-0.195,0.3h-1.404
		h-0.2c-1.396,0-1.2-1.1-1-2.4v-0.1v-0.2l0.104-0.3l0.1-0.4c0-0.1,0.1-0.3,0.1-0.396l0.305-1.604l0.3-1.6c0-0.1,0-0.3-0.2-0.3h-2.1
		c-0.104,0-0.2,0.1-0.2,0.3l-0.4,2.1l-0.407,2.101v0.2c-0.5,2.3-0.4,4.6,2.396,4.699l0.104,0.101h4.396c0.104,0,0.2-0.101,0.2-0.2
		l0.9-4.4l0.3-1.5l0.704-3.1C383.41,296.152,383.41,295.952,383.21,295.952"/>
	<path style="fill:#E7E7E7;" d="M357.81,302.152l-0.3,1.6l0.3-1.4C357.81,302.252,357.81,302.252,357.81,302.152"/>
	<polyline style="fill:#E7E7E7;" points="358.21,300.552 357.91,301.952 357.91,302.052 358.21,300.552 	"/>
	<path style="fill:#E7E7E7;" d="M361.609,296.052h-2.1c-0.1,0-0.2,0.101-0.2,0.2l-0.2,0.9l-0.195,0.8c0,0.1,0,0.1,0.195,0.1h2.2
		c0.104,0,0.2,0,0.2-0.1l0.1-0.9l0.104-0.899C361.71,296.152,361.71,296.052,361.609,296.052"/>
	<path style="fill:#E7E7E7;" d="M361.014,299.048l-2.204,0.004c-0.1,0-0.2,0.101-0.2,0.2l-0.3,1.4l-0.3,1.399
		c0,0.101-0.1,0.3-0.1,0.4l-0.301,1.399l-0.3,1.4c0,0.1-0.1,0.3-0.1,0.4c0,0-0.4,1.199-1.104,1.199h-0.096c-0.3,0-0.6,0-0.6,0
		c-0.104,0-0.2,0.101-0.2,0.196l-0.2,1l-0.2,1c0,0.104,0,0.2,0.2,0.2c0.4,0,1.3,0,1.8,0c1.7,0,2.7-1,3.3-3.801l0.7-3.199l0.604-3
		C361.214,299.048,361.109,299.048,361.014,299.048"/>
	<path style="fill:#E7E7E7;" d="M396.414,295.952h-0.104h-1.7c-0.1,0-0.3,0.2-0.3,0.3l-0.1,0.4l-0.104,0.5v0.1l-0.8,3.9l-0.8,3.699
		v0.196c0,0,0,0,0,0.104l0.13,0.168l0.271,0.132h1.695c0.104,0,0.305-0.101,0.305-0.101s0,0,0.1-0.104l0.1-0.104v-0.093v-0.1
		l0.305-1.5l0.3-1.5v-0.101c0-0.1,0-0.1,0-0.199l0.3-1.601l0.3-1.5c0-0.1,0.104-0.2,0.2-0.2l5.3,0.104
		c0.1-0.004,0.199-0.104,0.199-0.204l-0.1-0.4l-0.101-0.399v-0.2c-0.2-0.7-0.7-1.1-1.896-1.1l-1.805-0.101L396.414,295.952"/>
	<path style="fill:#E7E7E7;" d="M409.51,294.752h-0.6c-0.4,0-0.4,0-0.604,0h-1.7c-0.1,0-0.3,0.1-0.3,0.2l-3.7,5.5
		c-0.05,0.05-0.075,0.075-0.1,0.075c-0.023,0-0.048-0.025-0.096-0.075l-0.301-1.2c0-0.1-0.1-0.2-0.195-0.2h-2.4
		c-0.1,0-0.2,0.101-0.1,0.2l1.1,3.8c0,0.101,0,0.3,0,0.4l-0.504,1.8c0,0.1,0,0.2,0.2,0.2h2.396c0.104,0,0.2-0.101,0.305-0.2l0.5-1.8
		c0-0.101,0.1-0.3,0.195-0.4l6.104-8.1C409.609,294.852,409.609,294.752,409.51,294.752"/>
	<path style="fill:#E7E7E7;" d="M386.51,299.952c-0.1,0-0.2-0.2-0.1-0.2c0,0,0,0,0-0.1c0.3-0.801,0.896-1.301,2-1.301
		c0.091-0.008,0.175-0.012,0.253-0.012c0.958,0,1.047,0.564,1.047,1.208c-0.101,0.104-0.101,0.404-0.2,0.404H386.51
		 M388.479,296.049c-3.705,0-4.578,2.351-5.068,4.703c-0.5,2.4-0.4,4.7,3.6,4.7h0.1h0.104h0.1h0.104c0.099,0,0.195,0,0.3,0h0.2
		h0.199h0.101c0.902,0,1.8,0,2.3,0c0.104,0,0.2-0.101,0.2-0.2l0.2-0.8l0.1,0.8l0.2-0.8v-0.2v-0.1l0.2-0.801c0,0,0,0,0-0.104
		s-0.104-0.2-0.2-0.2v0.2h-3.608c-1.3,0-1.8-0.396-1.695-1.396c0-0.104,0.1-0.304,0.195-0.304h5.604c0.1,0,0.2,0,0.2-0.101
		c0.896-3.295,0.695-5.396-3.204-5.396C388.632,296.05,388.554,296.049,388.479,296.049"/>
	<path style="fill:#E7E7E7;" d="M366.91,302.852c-1.805,0-2.2-1.3-1.805-3.396c0.4-2.104,1.305-3.304,3-3.5
		c0.067-0.003,0.134-0.005,0.198-0.005c2.135,0,2.592,1.656,2.106,3.501l-0.104,0.2l-0.396,1.6l-0.4,1.5c0,0.1-0.1,0.1-0.3,0.1
		H366.91 M368.609,293.652c-4,0-5.695,2.8-6.3,5.896c-0.688,3.053,0.171,5.806,3.911,5.806c0.064,0,0.128,0,0.193-0.002h3.1h2.9
		c0.1,0,0.195-0.104,0.3-0.199l0.5-1.9c0-0.1,0-0.2-0.2-0.2h-0.4h-0.1h-0.4h-0.104c-0.1,0-0.1-0.1-0.1-0.1s1.1-2.7,1.3-4.2
		C373.609,296.652,372.609,293.652,368.609,293.652"/>
	<path style="fill:#E7E7E7;" d="M342.395,296.626l-0.896,1.103c-1.104,1.6-1,3.6-0.104,5.299c0,0,0,0.102,0.104,0.102v0.1v0.104
		l0.1,0.104v0.101l0.101,0.101c0,0,0,0,0,0.104c0,0.1,0.104,0.1,0.104,0.195c0,0.104,0.101,0.104,0.101,0.201c0,0,0,0,0,0.102
		l0.104,0.102c0,0,0,0,0,0.104c0.1,0.101,0.1,0.101,0.199,0.201c0.101,0.1,0.101,0.1,0.197,0.195c0,0,0,0,0,0.104l0.104,0.101
		c0,0,0,0,0.1,0c0.104,0.101,0.104,0.101,0.2,0.2c0.101,0,0.101,0.1,0.2,0.1c0,0,0,0,0.1,0.102l0.104,0.103c0,0,0,0,0.101,0.104
		l0.104,0.1c0,0,0,0,0.101,0l0.1,0.1c0,0,0,0,0.104,0c0.101,0,0.101,0.104,0.201,0.104c0,0,0,0,0.1,0s0.1,0.101,0.199,0.101h0.101
		c0,0,0.104,0,0.104,0.104c0.1,0,0.1,0.1,0.195,0.1c0.104,0,0.104,0.1,0.2,0.1c0,0,0,0,0.104,0c0.1,0,0.1,0.104,0.196,0.104
		c0.104,0,0.199,0.101,0.199,0.101s0,0,0.104,0c0.1,0,0.196,0.104,0.196,0.104c0.563,0.106,1.086,0.154,1.566,0.154
		c4.04,0,5.237-3.354,5.237-3.354c-0.536,1.192-1.971,1.771-3.544,1.771c-0.517,0-1.049-0.063-1.568-0.187c-0.1,0-0.2,0-0.2-0.1
		c0,0,0,0-0.1,0s-0.2,0-0.2-0.101c-0.1,0-0.1,0-0.2-0.104c0,0,0,0-0.1,0s-0.1-0.104-0.2-0.104c-0.1,0-0.1-0.101-0.2-0.101
		c0,0,0,0-0.1,0c0,0-0.1,0-0.1-0.101c0,0-0.104,0-0.104-0.104c-0.101,0-0.101-0.1-0.2-0.1c0,0,0,0-0.1,0
		c-0.104,0-0.2-0.104-0.2-0.104s0,0-0.101,0c-0.104,0-0.104-0.101-0.199-0.101c0,0,0,0-0.104,0c-0.101,0-0.101-0.101-0.197-0.101
		c0,0,0,0-0.104-0.104l-0.1-0.102c0,0,0,0-0.104,0c-0.101,0-0.101-0.102-0.2-0.102c-0.101-0.102-0.101-0.102-0.196-0.201
		c0,0,0,0-0.104,0l-0.101-0.1c0,0,0,0-0.104-0.1c-0.1-0.103-0.1-0.103-0.195-0.201c-0.103-0.101-0.104-0.101-0.2-0.199l-0.104-0.1
		c0,0,0,0,0-0.103c0-0.104-0.1-0.104-0.1-0.199C341.895,300.824,341.493,298.527,342.395,296.626"/>
	<path style="fill:#E7E7E7;" d="M345.914,295.252l-0.604,0.9c-0.8,1.1-0.7,2.699-0.101,3.896c0.101,0.2,0.201,0.396,0.301,0.604
		c0.1,0.199,0.199,0.396,0.4,0.5c0.1,0.1,0.1,0.1,0.195,0.199c0.104,0.101,0.104,0.101,0.2,0.196c0.104,0.104,0.104,0.104,0.2,0.2
		s0.1,0.104,0.199,0.199c0,0,0.101,0,0.101,0.101c0.104,0,0.104,0.104,0.2,0.104l0.1,0.1c0,0,0,0,0.104,0c0,0,0.1,0,0.1,0.1
		c0.104,0,0.104,0.104,0.2,0.104s0.1,0,0.2,0.101c0,0,0,0,0.1,0c0.104,0,0.104,0,0.2,0.104c0,0,0,0,0.1,0c0.104,0,0.2,0.1,0.2,0.1
		c0.404,0.069,0.778,0.101,1.123,0.101c3.149,0,3.877-2.601,3.877-2.601c-0.609,0.985-1.743,1.568-3,1.568
		c-0.393,0-0.796-0.057-1.2-0.176c-0.1,0-0.195,0-0.195-0.104c0,0,0,0-0.104,0c-0.1,0-0.1,0-0.2-0.101c0,0,0,0-0.1,0
		s-0.1,0-0.2-0.104c-0.1,0-0.1-0.1-0.2-0.1c0,0-0.1,0-0.1-0.1c0,0,0,0-0.1,0l-0.101-0.093c-0.1,0-0.1-0.1-0.2-0.1
		c0,0-0.1,0-0.1-0.101c-0.1-0.104-0.1-0.104-0.2-0.199c-0.8-0.604-1.396-1.4-1.7-2.4
		C345.31,297.252,345.414,296.152,345.914,295.252"/>
	<path style="fill:#E7E7E7;" d="M348.21,294.852l-0.3,0.5c-0.5,0.7-0.5,1.5-0.2,2.301c0.396,0.804,1.1,1.399,2,1.699h0.1h0.104
		c0.254,0.044,0.487,0.064,0.701,0.064c1.725,0,2.206-1.285,2.299-1.46c-0.354,0.565-0.907,0.831-1.589,0.831
		c-0.283,0-0.589-0.046-0.911-0.135c-0.104,0-0.2-0.101-0.305-0.101c-0.1,0-0.195-0.1-0.3-0.1c-0.2-0.101-0.396-0.2-0.6-0.3
		C348.21,297.452,347.605,295.952,348.21,294.852"/>
	<path style="fill:#E7E7E7;" d="M203.61,87.052c-0.9,0-1.7-0.8-1.7-1.7v-28.4c0-0.9,0.8-1.7,1.7-1.7h61.9c0.9,0,1.7,0.8,1.7,1.7
		v28.4c0,0.9-0.8,1.7-1.7,1.7H203.61 M265.51,53.052h-61.9c-2.1,0-3.9,1.7-3.9,3.9v28.4c0,2.1,1.7,3.9,3.9,3.9h61.9
		c2.1,0,3.9-1.7,3.9-3.9v-28.4C269.306,54.852,267.609,53.052,265.51,53.052"/>
	<path style="fill:#E7E7E7;" d="M223.01,74.252h-3c-0.5,0-1,0.5-1,1v2c0,0.5,0.5,1,1,1h3c0.5,0,1-0.5,1-1v-2
		C224.01,74.752,223.51,74.252,223.01,74.252"/>
	<path style="fill:#E7E7E7;" d="M229.01,74.252h-3c-0.5,0-1,0.5-1,1v2c0,0.5,0.5,1,1,1h3c0.5,0,1-0.5,1-1v-2
		C230.01,74.752,229.51,74.252,229.01,74.252"/>
	<path style="fill:#E7E7E7;" d="M235.01,74.252h-2c-0.5,0-1,0.5-1,1v2c0,0.5,0.5,1,1,1h2c0.5,0,1-0.5,1-1v-2
		C236.01,74.752,235.51,74.252,235.01,74.252"/>
	<path style="fill:#E7E7E7;" d="M242.01,74.252h-2c-0.5,0-1,0.5-1,1v2c0,0.5,0.5,1,1,1h2c0.5,0,1-0.5,1-1v-2
		C243.01,74.752,242.51,74.252,242.01,74.252"/>
	<path style="fill:#E7E7E7;" d="M249.01,74.252h-3c-0.5,0-1,0.5-1,1v2c0,0.5,0.5,1,1,1h3c0.5,0,1-0.5,1-1v-2
		C250.01,74.752,249.51,74.252,249.01,74.252"/>
	<path style="fill:#E7E7E7;" d="M263.01,74.252h-9c-0.5,0-1,0.5-1,1v2c0,0.5,0.5,1,1,1h9c0.5,0,1-0.5,1-1v-2
		C264.01,74.752,263.51,74.252,263.01,74.252"/>
	<path style="fill:#E7E7E7;" d="M216.01,74.252h-10c-0.5,0-1,0.5-1,1v2c0,0.5,0.5,1,1,1h10c0.5,0,1-0.5,1-1v-2
		C217.01,74.752,216.51,74.252,216.01,74.252"/>
	<path style="fill:#E7E7E7;" d="M219.01,67.252h-3c-0.5,0-1,0.5-1,1v3c0,0.5,0.5,1,1,1h3c0.5,0,1-0.5,1-1v-3
		C220.01,67.752,219.51,67.252,219.01,67.252"/>
	<path style="fill:#E7E7E7;" d="M224.01,67.252h-1c-0.5,0-1,0.5-1,1v3c0,0.5,0.5,1,1,1h1c0.5,0,1-0.5,1-1v-3
		C225.01,67.752,224.51,67.252,224.01,67.252"/>
	<path style="fill:#E7E7E7;" d="M232.01,67.252h-3c-0.5,0-1,0.5-1,1v3c0,0.5,0.5,1,1,1h3c0.5,0,1-0.5,1-1v-3
		C233.01,67.752,232.51,67.252,232.01,67.252"/>
	<path style="fill:#E7E7E7;" d="M238.01,67.252h-3c-0.5,0-1,0.5-1,1v3c0,0.5,0.5,1,1,1h3c0.5,0,1-0.5,1-1v-3
		C239.01,67.752,238.51,67.252,238.01,67.252"/>
	<path style="fill:#E7E7E7;" d="M245.01,67.252h-2c-0.5,0-1,0.5-1,1v3c0,0.5,0.5,1,1,1h2c0.5,0,1-0.5,1-1v-3
		C246.01,67.752,245.51,67.252,245.01,67.252"/>
	<path style="fill:#E7E7E7;" d="M252.01,67.252h-3c-0.5,0-1,0.5-1,1v3c0,0.5,0.5,1,1,1h3c0.5,0,1-0.5,1-1v-3
		C253.01,67.752,252.51,67.252,252.01,67.252"/>
	<path style="fill:#E7E7E7;" d="M263.01,67.252h-7c-0.5,0-1,0.5-1,1v3c0,0.5,0.5,1,1,1h7c0.5,0,1-0.5,1-1v-3
		C264.01,67.752,263.51,67.252,263.01,67.252"/>
	<path style="fill:#E7E7E7;" d="M212.01,67.252h-6c-0.5,0-1,0.5-1,1v3c0,0.5,0.5,1,1,1h6c0.5,0,1-0.5,1-1v-3
		C213.01,67.752,212.51,67.252,212.01,67.252"/>
	<path style="fill:#E7E7E7;" d="M217.01,61.252h-3c-0.5,0-1,0.5-1,1v2c0,0.5,0.5,1,1,1h3c0.5,0,1-0.5,1-1v-2
		C218.01,61.752,217.51,61.252,217.01,61.252"/>
	<path style="fill:#E7E7E7;" d="M224.01,61.252h-3c-0.5,0-1,0.5-1,1v2c0,0.5,0.5,1,1,1h3c0.5,0,1-0.5,1-1v-2
		C225.01,61.752,224.51,61.252,224.01,61.252"/>
	<path style="fill:#E7E7E7;" d="M230.01,61.252h-3c-0.5,0-1,0.5-1,1v2c0,0.5,0.5,1,1,1h3c0.5,0,1-0.5,1-1v-2
		C231.01,61.752,230.51,61.252,230.01,61.252"/>
	<path style="fill:#E7E7E7;" d="M236.01,61.252h-2c-0.5,0-1,0.5-1,1v2c0,0.5,0.5,1,1,1h2c0.5,0,1-0.5,1-1v-2
		C237.01,61.752,236.51,61.252,236.01,61.252"/>
	<path style="fill:#E7E7E7;" d="M243.01,61.252h-3c-0.5,0-1,0.5-1,1v2c0,0.5,0.5,1,1,1h3c0.5,0,1-0.5,1-1v-2
		C244.01,61.752,243.51,61.252,243.01,61.252"/>
	<path style="fill:#E7E7E7;" d="M250.01,61.252h-2c-0.5,0-1,0.5-1,1v2c0,0.5,0.5,1,1,1h2c0.5,0,1-0.5,1-1v-2
		C251.01,61.752,250.51,61.252,250.01,61.252"/>
	<path style="fill:#E7E7E7;" d="M257.01,61.252h-3c-0.5,0-1,0.5-1,1v2c0,0.5,0.5,1,1,1h3c0.5,0,1-0.5,1-1v-2
		C258.01,61.752,257.51,61.252,257.01,61.252"/>
	<path style="fill:#E7E7E7;" d="M263.01,61.252h-2c-0.5,0-1,0.5-1,1v2c0,0.5,0.5,1,1,1h2c0.5,0,1-0.5,1-1v-2
		C264.01,61.752,263.51,61.252,263.01,61.252"/>
	<path style="fill:#E7E7E7;" d="M210.01,61.252h-4c-0.5,0-1,0.5-1,1v2c0,0.5,0.5,1,1,1h4c0.5,0,1-0.5,1-1v-2
		C211.01,61.752,210.51,61.252,210.01,61.252"/>
	<path style="fill:#E7E7E7;" d="M217.01,80.252h-4c-0.5,0-1,0.5-1,1v3c0,0.5,0.5,1,1,1h4c0.5,0,1-0.5,1-1v-3
		C218.01,80.752,217.51,80.252,217.01,80.252"/>
	<path style="fill:#E7E7E7;" d="M208.01,80.252h-2c-0.5,0-1,0.5-1,1v3c0,0.5,0.5,1,1,1h2c0.5,0,1-0.5,1-1v-3
		C209.01,80.752,208.51,80.252,208.01,80.252"/>
	<path style="fill:#E7E7E7;" d="M244.01,80.252h-23c-0.5,0-1,0.5-1,1v3c0,0.5,0.5,1,1,1h23c0.5,0,1-0.5,1-1v-3
		C245.01,80.752,244.51,80.252,244.01,80.252"/>
	<path style="fill:#E7E7E7;" d="M253.01,80.252h-5c-0.5,0-1,0.5-1,1v3c0,0.5,0.5,1,1,1h5c0.5,0,1-0.5,1-1v-3
		C254.01,80.752,253.51,80.252,253.01,80.252"/>
	<path style="fill:#E7E7E7;" d="M262.71,82.752c-0.601,0-1,0.4-1,1s0.5,1,1,1c0.6,0,1-0.5,1-1S263.31,82.852,262.71,82.752"/>
	<path style="fill:#E7E7E7;" d="M259.81,82.752c-0.6,0-1,0.4-1,1s0.5,1,1,1c0.601,0,1-0.5,1-1S260.31,82.852,259.81,82.752"/>
	<path style="fill:#E7E7E7;" d="M259.81,79.852c-0.6,0-1,0.4-1,1s0.5,1,1,1c0.601,0,1-0.5,1-1S260.31,79.852,259.81,79.852"/>
	<path style="fill:#E7E7E7;" d="M256.81,82.752c-0.6,0-1,0.4-1,1s0.5,1,1,1c0.601,0,1-0.5,1-1S257.41,82.852,256.81,82.752"/>
	<path style="fill:#E7E7E7;" d="M23.21,158.052c-1.3,0-2.4-1.1-2.4-2.4v-40.3c0-1.3,1.1-2.4,2.4-2.4h16.2c1.3,0,2.4,1.1,2.4,2.4
		v40.3h0.1c0,1.3-1.1,2.4-2.4,2.4H23.21 M39.51,111.652h-16.7c-2,0-3.7,1.7-3.7,3.7v40.8c0,2,1.7,3.7,3.7,3.7h16.7
		c2,0,3.7-1.7,3.7-3.7v-40.9C43.21,113.252,41.51,111.652,39.51,111.652"/>
	<polyline style="fill:#E7E7E7;" points="40.21,119.752 22.11,119.752 22.11,151.552 40.21,151.552 40.21,119.752 	"/>
	<path style="fill:#E7E7E7;" d="M33.41,116.852h-4.5c-0.2,0-0.4,0.2-0.4,0.4c0.1,0.1,0.2,0.4,0.4,0.4h4.5c0.2,0,0.4-0.2,0.4-0.4
		S33.61,116.852,33.41,116.852"/>
	<path style="fill:#E7E7E7;" d="M31.21,152.652c-1.2,0-2.3,1-2.3,2.3c0,1.3,1,2.3,2.3,2.3c1.3,0,2.3-1,2.3-2.3
		C33.51,153.652,32.41,152.652,31.21,152.652"/>
	<path style="fill:#E7E7E7;" d="M32.11,71.752c0.5-0.7,1.2-1.3,1.7-2.1C33.91,70.652,33.01,71.452,32.11,71.752 M14.797,75.461
		c-0.296,0-0.595-0.063-0.888-0.209c-0.5-1.1,0-2.3,0.6-3c1-1.2,2.7-2.1,3.8-2.8c0.1,0,0.1-0.1,0.2-0.1s0.1,0.1,0.1,0.1
		c0.4,1.9-0.3,3.7-1.4,4.8C16.605,74.856,15.714,75.461,14.797,75.461 M37.61,70.552c0.1-1.3,0.8-2,1.4-2.6
		C39.51,69.252,38.61,70.352,37.61,70.552 M23.91,71.752c-0.3-0.1-0.4-0.4-0.4-0.7c-0.4-2.2,1.1-6.1,2.9-6.2
		c0.1,1.3-0.4,2.6-0.9,3.8c-0.2,0.6-0.5,1.1-0.7,1.7C24.61,70.852,24.41,71.452,23.91,71.752 M29.01,48.352c-0.9,0-1.8,0-2.7,0
		c-3.5,0.4-7.2,2.1-9.9,3.9c-2.8,1.7-5.6,4.3-6.4,7.4c0,0.4,0,0.9,0,1.3c1.2,3.8,4.8,5.3,7.6,7.5c-2,1.3-6.4,3.1-6.4,6.6
		c0,1.4,0.9,2.5,2.1,2.7c0.6,0,1.1,0,1.7,0c3.7-0.5,6.6-4.7,4.9-8.9c0.6-0.5,1.5-0.8,2.1-1.3c-0.1,0.8-0.5,2.2-0.4,3.5
		c0.1,1.3,0.7,2.8,1.5,3.1c0.217,0.076,0.417,0.111,0.602,0.111c1.509,0,1.964-2.331,2.499-3.311c0.2,1.2,0,2.7,1.1,2.8
		c0.5,0,1.2-0.5,1.5-1c0.3-0.5,0.7-1.2,1-1.8c0.7-1.4,1.5-3,2.2-4.6c0.1-0.3,0.1-0.7,0.4-0.9c0.1,1.2,0.6,2.2,1.1,3.1
		c-0.7,0.9-1.5,1.8-2.3,2.9c-0.2,0.4-0.6,0.7-0.6,1.1c0.057,0.458,0.572,0.621,1.17,0.621c0.449,0,0.944-0.092,1.33-0.22
		c1.3-0.5,2.8-1.5,2.6-3.6c0-0.5-0.2-0.8-0.4-1.4c0.7-0.9,1.3-1.9,1.8-2.9c0.2-0.3,0.3-0.7,0.6-0.9c0.1,1.1,0.5,2.1,1,2.9
		c-0.6,0.6-1.3,1.1-1.8,2c-0.4,0.7-1,2.6,0.1,2.8c0.073,0.012,0.15,0.018,0.23,0.018c1.243,0,3.294-1.397,3.669-2.618
		c0.2-0.8,0-1.4-0.2-2.2c0.772-0.316,1.716-0.472,2.673-0.472c1.77,0,3.583,0.533,4.427,1.572c0.4,0.5,0.8,1.3,0.6,2.1
		c-0.2,0.8-1,0.9-1.4,1.7c0.051,0.004,0.101,0.006,0.15,0.006c1.101,0,1.667-1.045,2.05-1.907c0-0.4,0-0.9,0-1.3
		c-0.545-2.385-2.994-3.609-5.543-3.609c-1.192,0-2.406,0.268-3.457,0.809c-0.5-0.8-1-1.9-0.9-3.2c0-0.7,0.4-1.3,0.4-1.9
		c-0.281-0.225-0.846-0.354-1.357-0.354c-0.4,0-0.768,0.079-0.943,0.254c-0.4,0.3-0.3,1.1-0.5,1.6c-0.5,1.5-1.8,3.2-2.3,4.3
		c-0.8-1-0.7-3.3-0.1-4.5c-0.189-0.331-0.58-0.438-1.013-0.438c-0.482,0-1.018,0.133-1.387,0.239c-1.2,3.3-2.6,6.3-4.1,9.3
		c-0.2-2,0.8-3.5,0.9-5.2c-0.136-0.342-0.553-0.497-0.899-0.497c-0.16,0-0.306,0.033-0.4,0.097c0.2-1,0-2-0.6-2.3
		c-0.201-0.088-0.406-0.127-0.613-0.127c-1.443,0-2.962,1.902-3.487,2.427c-1.2,0.7-2.5,1.4-3.7,2.1c-0.9-0.8-1.9-1.6-2.9-2.4
		c-1-0.8-2.1-1.6-2.7-2.6c-0.4-0.7-0.7-1.5-0.6-2.6c0.3-2.7,3.1-4.8,5.5-6.2c1.3-0.8,2.6-1.4,3.9-1.9c1.3-0.5,2.9-1.1,4.6-1.2
		c0.427-0.042,0.851-0.064,1.261-0.064c2.572,0,4.656,0.877,4.139,3.464c-0.7,3.3-5.1,6-9.1,6.3c-1.1,0-2-0.1-2.8-0.4
		c-0.6-0.3-0.8-0.8-1.5-1c-0.1,1.1,0.6,1.6,1.2,2c0.8,0.6,2.1,0.8,3.2,0.8c2.9,0,6.3-1.2,8.4-3.1c1.5-1.4,2.8-3.5,2.8-5.6
		C34.71,50.052,32.01,48.752,29.01,48.352"/>
	<path style="fill:#E5E5E5;" d="M252.178,188.959c0.844-0.04,1.523,0.348,2.189,0.784c5.664,3.721,11.424,7.291,17.357,10.567
		c7.422,4.098,14.949,7.971,22.957,10.826c2.533,0.904,5.109,1.661,7.734,2.25c0.521,0.117,0.747,0.289,0.645,0.898
		c-0.673,3.979-1.129,7.986-1.607,11.99c-0.399,3.351-0.744,6.707-1.158,10.056c-1.366,11.028-3.675,21.81-8.736,31.819
		c-3.688,7.293-8.885,13.396-15.123,18.61c-7.156,5.98-14.615,11.558-22.529,16.511c-1.206,0.756-2.258,0.764-3.453,0.002
		c-8.779-5.584-17.186-11.676-24.89-18.672c-9.471-8.602-15.391-19.317-18.339-31.726c-1.166-4.905-2.164-9.845-2.854-14.839
		c-0.49-3.539-0.82-7.102-1.26-10.646c-0.406-3.271-0.867-6.531-1.299-9.799c-0.124-0.93-0.204-1.865-0.356-2.791
		c-0.101-0.609,0.099-0.896,0.69-1.103c4.068-1.414,8.175-2.722,12.166-4.351c8.76-3.574,17.039-8.086,25.133-12.953
		c3.589-2.158,7.157-4.351,10.637-6.682C250.719,189.287,251.379,188.916,252.178,188.959z M299.688,216.393
		c0.213-0.568-0.172-0.65-0.521-0.744c-6.771-1.795-13.132-4.627-19.384-7.725c-9.311-4.611-18.229-9.9-26.897-15.619
		c-0.493-0.326-0.838-0.354-1.35-0.016c-2.095,1.385-4.212,2.738-6.345,4.064c-12.671,7.877-25.726,14.969-40.063,19.405
		c-0.553,0.171-0.577,0.481-0.506,0.974c0.405,2.809,0.806,5.617,1.152,8.434c0.446,3.622,0.792,7.256,1.266,10.873
		c0.735,5.604,1.817,11.145,3.155,16.635c2.991,12.271,9.11,22.667,18.673,30.953c7.089,6.143,14.623,11.701,22.534,16.746
		c0.582,0.371,0.973,0.369,1.553,0.001c7.498-4.749,14.582-10.063,21.393-15.739c6.35-5.294,11.58-11.521,15.153-19.031
		c4.575-9.619,6.681-19.893,7.935-30.381c0.406-3.398,0.777-6.803,1.183-10.201C298.963,222.126,299.334,219.234,299.688,216.393z"
		/>
	<path style="fill:#E5E5E5;" d="M252.26,195.188c0.723-0.022,1.334,0.323,1.938,0.718c6.528,4.254,13.169,8.321,20.09,11.911
		c6.012,3.117,12.108,6.049,18.606,8.045c1.381,0.425,2.778,0.787,4.194,1.07c0.425,0.086,0.565,0.229,0.495,0.703
		c-0.425,2.833-0.859,5.664-1.154,8.516c-0.304,2.927-0.66,5.847-1.015,8.767c-1.168,9.688-2.771,19.265-6.84,28.256
		c-3.646,8.056-9.074,14.698-15.916,20.213c-6.011,4.847-12.188,9.468-18.722,13.604c-1.188,0.752-2.258,0.805-3.458,0.038
		c-7.933-5.064-15.54-10.572-22.467-16.953c-7.421-6.835-12.396-15.221-15.139-24.913c-1.644-5.808-2.825-11.72-3.532-17.715
		c-0.737-6.24-1.481-12.479-2.387-18.698l-0.02-0.15c-0.135-1.457-0.138-1.469,1.266-1.813c7.943-1.95,15.294-5.325,22.411-9.271
		c6.637-3.682,13.078-7.691,19.57-11.617C250.816,195.511,251.457,195.152,252.26,195.188z M210.04,219.715
		c0.014,0.182,0.016,0.284,0.031,0.385c0.703,4.84,1.336,9.688,1.848,14.553c0.576,5.471,1.616,10.865,2.847,16.229
		c2.513,10.952,7.698,20.359,16.124,27.854c6.481,5.764,13.466,10.877,20.777,15.546c0.472,0.301,0.771,0.147,1.157-0.099
		c6.009-3.817,11.675-8.107,17.251-12.521c6.211-4.914,11.331-10.74,14.901-17.866c3.987-7.953,5.793-16.504,6.975-25.227
		c0.429-3.165,0.796-6.34,1.168-9.514c0.354-3.021,0.63-6.053,1.117-9.058c0.068-0.425,0.011-0.685-0.497-0.817
		c-6.11-1.617-11.822-4.236-17.466-7.018c-8.067-3.977-15.758-8.609-23.278-13.525c-0.604-0.396-1.024-0.386-1.617-0.02
		c-2.892,1.788-5.805,3.544-8.721,5.293c-6.222,3.732-12.458,7.441-19.063,10.479c-4.149,1.909-8.399,3.547-12.812,4.748
		C210.463,219.227,209.94,219.188,210.04,219.715z"/>
	<path style="fill:#E5E5E5;" d="M241.734,218.311c0,1.967,0.024,3.836-0.012,5.705c-0.014,0.742,0.284,1.02,0.994,0.965
		c0.354-0.027,0.711-0.02,1.066-0.004c0.48,0.021,0.912-0.012,1.393,0.328c0.458,0.323,1.207,0.198,1.78,0.047
		c0.495-0.132,0.239-0.692,0.274-1.069c0.034-0.365-0.193-0.418-0.517-0.476c-1.031-0.186-1.957,0.368-2.968,0.344
		c-1.295-0.031-1.281,0.01-1.3-1.295c-0.028-1.929,0.067-3.856-0.049-5.785c-0.03-0.504,0.369-0.898,0.737-1.498
		c0,2.337-0.001,4.461,0,6.585c0.001,1.252,0.13,1.379,1.407,1.38c1.042,0,2.083-0.021,3.124-0.007
		c0.573,0.007,1.242-0.22,1.562,0.56c0.034,0.082,0.271,0.113,0.414,0.115c0.762,0.01,1.524,0.002,2.286,0.003
		c0.244,0,0.459-0.012,0.455-0.351c-0.004-0.344-0.233-0.334-0.469-0.336c-0.407,0-0.813-0.011-1.22,0
		c-0.437,0.013-0.83,0.054-1.004-0.526c-0.109-0.361-0.556-0.298-0.875-0.302c-1.321-0.02-2.642-0.045-3.962-0.012
		c-0.658,0.016-0.938-0.136-0.923-0.881c0.05-2.361,0.034-4.724,0.007-7.086c-0.007-0.604,0.25-1.035,0.7-1.615
		c0,2.297,0,4.42,0,6.543c0,0.278,0.015,0.56-0.001,0.838c-0.033,0.594,0.265,0.82,0.829,0.815c1.194-0.012,2.388-0.005,3.582-0.01
		c0.358-0.001,0.713-0.047,0.82,0.452c0.054,0.257,0.317,0.302,0.556,0.303c0.482,0.003,0.965-0.002,1.448,0.001
		c0.274,0.002,0.509-0.028,0.517-0.394c0.008-0.358-0.203-0.412-0.492-0.405c-0.305,0.009-0.608,0.009-0.914-0.005
		c-0.145-0.008-0.393-0.021-0.416-0.092c-0.27-0.789-0.934-0.571-1.481-0.588c-0.99-0.031-1.981-0.039-2.971-0.011
		c-0.605,0.019-0.786-0.226-0.779-0.812c0.024-2.438,0.022-4.877,0.001-7.315c-0.005-0.563,0.257-0.938,0.754-1.467
		c0,0.543,0,0.907,0,1.271c0,1.957-0.006,3.912,0.004,5.868c0.005,0.911,0.158,1.054,1.077,1.062
		c0.762,0.006,1.524-0.004,2.286-0.004c0.468,0,0.871-0.022,1.252,0.451c0.344,0.426,1.002,0.17,1.521,0.142
		c0.182-0.011,0.155-0.229,0.143-0.378c-0.02-0.19-0.153-0.262-0.319-0.248c-0.431,0.033-0.767-0.018-0.929-0.523
		c-0.098-0.306-0.463-0.255-0.74-0.257c-0.965-0.004-1.931-0.019-2.896,0.004c-0.455,0.011-0.638-0.151-0.635-0.616
		c0.012-2.541,0.008-5.08,0.002-7.621c0-0.267,0.056-0.498,0.227-0.703c0.097-0.117,0.197-0.237,0.264-0.373
		c0.917-1.832,2.285-2.801,4.423-2.36c0.229,0.047,0.602,0.142,0.617-0.324c0.018-0.498-0.357-0.397-0.642-0.409
		c-0.431-0.018-0.864,0.01-1.294-0.021c-0.191-0.015-0.549,0.141-0.531-0.2c0.012-0.234,0.198-0.536,0.539-0.548
		c0.431-0.017,0.867-0.044,1.294-0.002c0.578,0.058,0.705-0.213,0.646-0.715c-0.043-0.349-0.047-0.7-0.078-1.244
		c0.377,0.465,0.646,0.787,0.904,1.116c3.397,4.339,6.75,8.703,9.204,13.682c1.429,2.896,2.296,5.895,2.062,9.157
		c-0.137,1.913-0.618,3.741-1.26,5.539c-2.011,5.63-4.016,11.26-6.023,16.89c-0.709,1.987-1.096,4.059-1.549,6.109
		c-0.103,0.46-0.269,0.632-0.748,0.619c-1.271-0.035-2.539-0.008-3.811-0.029c-0.997-0.016-1.465-0.405-1.715-1.383
		c-0.194-0.76-0.381-1.521-0.562-2.285c-0.051-0.215-0.275-0.527,0.215-0.518c0.309,0.006,0.708-0.123,0.712,0.414
		c0.005,0.711-0.002,1.422,0.014,2.133c0.022,0.998,0.125,1.096,1.094,1.103c0.381,0.003,0.764-0.009,1.145-0.003
		c0.305,0.006,0.386-0.165,0.393-0.434c0.006-0.297-0.138-0.379-0.416-0.399c-0.472-0.035-1.141,0.239-1.363-0.138
		c-0.238-0.398-0.086-1.03-0.104-1.562l-0.001-0.151c0-1.687,0.002-1.703-1.656-1.795c-0.367-0.02-0.474-0.187-0.556-0.476
		c-0.173-0.608-0.331-1.224-0.547-1.815c-0.167-0.461-0.028-0.57,0.421-0.564c1.143,0.018,2.286,0.014,3.429-0.009
		c0.309-0.007,0.791,0.185,0.778-0.419c-0.01-0.56-0.463-0.359-0.744-0.364c-1.269-0.021-2.54-0.019-3.809-0.013
		c-0.3,0.002-0.585-0.014-0.636-0.373c-0.063-0.449,0.307-0.293,0.52-0.32c0.46-0.063,0.663-0.327,0.667-0.771
		c0.002-0.229,0.006-0.457,0.001-0.687c-0.007-0.364-0.057-0.733,0.516-0.675c0.409,0.041,0.914-0.137,0.879,0.578
		c-0.032,0.654,0.322,0.881,0.947,0.867c2.053-0.047,1.641,0.229,1.686-1.61c0.019-0.763-0.018-1.524,0.007-2.285
		c0.017-0.501-0.188-0.702-0.677-0.644h-0.151c-1.632,0.015-1.881-0.231-1.826,1.686c0.012,0.409-0.129,0.631-0.572,0.577
		c-0.1-0.013-0.203-0.002-0.305-0.001c-1.313,0.004-1.329,0.019-1.334,1.313l-0.002,0.229c-0.041,0.222,0.128,0.533-0.275,0.599
		c-0.391,0.063-0.527-0.159-0.646-0.479c-0.725-1.945-1.456-3.889-2.202-5.826c-0.382-0.993-0.793-1.977-1.207-2.955
		c-0.199-0.473-0.151-1.069-0.36-1.438c-0.509-0.899-0.3-1.832-0.443-2.742c-0.063-0.402-0.422-0.461-0.775-0.447
		c-0.231,0.009-0.412-0.063-0.43-0.319c-0.026-0.354,0.264-0.235,0.431-0.248c2.239-0.177,2.24-0.174,2.236,2.095
		c0,0.424-0.017,0.803-0.282,1.211c-0.351,0.543-0.243,1.262-0.08,1.849c0.132,0.474,0.709,0.169,1.084,0.228
		c0.234,0.035,0.51-0.006,0.49-0.317c-0.044-0.675,0.298-1.399-0.277-2.019c-0.11-0.117-0.075-0.386-0.08-0.584
		c-0.014-0.584-0.018-1.168-0.019-1.752c-0.003-1.555-0.046-1.604-1.625-1.644c-0.609-0.015-1.219-0.011-1.829-0.009
		c-0.266,0-0.523-0.016-0.605-0.33c-0.217-0.84-0.395-0.999,0.625-0.982c1.346,0.021,2.693,0.018,4.039-0.014
		c0.523-0.014,0.823,0.091,0.794,0.693c-0.023,0.483,0.215,0.721,0.746,0.72c1.625-0.007,3.249,0.028,4.875,0.047l0.229-0.005
		c0.262,0,0.441-0.074,0.43-0.391c-0.014-0.332-0.229-0.344-0.473-0.344c-1.474-0.002-2.947-0.021-4.42,0.002
		c-0.49,0.008-0.702-0.13-0.641-0.641c0.083-0.689-0.323-0.881-0.926-0.881c-1.626,0.005-3.252-0.03-4.876,0.004
		c-0.616,0.013-0.977-0.107-0.929-0.809c0.014-0.195-0.068-0.397-0.102-0.598c-0.088-0.518,0.105-0.729,0.654-0.725
		c2.057,0.015,4.115,0.002,6.172-0.021c0.501-0.006,0.773,0.13,0.707,0.688c-0.033,0.274-0.008,0.558-0.001,0.836
		c0.01,0.425,0.217,0.673,0.653,0.675c1.245,0.004,2.49-0.003,3.734-0.001c0.26,0,0.442-0.055,0.449-0.371
		c0.006-0.348-0.188-0.428-0.482-0.428c-0.967,0.003-1.932-0.026-2.896,0.003c-0.503,0.016-0.701-0.164-0.633-0.656
		c0.017-0.125,0.003-0.254,0.002-0.381c-0.005-0.992-0.106-1.104-1.078-1.107c-2.185-0.01-4.369-0.032-6.553-0.004
		c-0.615,0.009-0.826-0.188-0.747-0.784c0.075-0.551,0.112-1.106,0.16-1.662c0.014-0.158,0.026-0.332,0.198-0.375
		c0.762-0.188,0.675-0.793,0.656-1.344C240.974,220.415,241.014,219.345,241.734,218.311z M250.05,236.71v-0.005
		c0.634,0,1.267-0.004,1.899,0.002c0.262,0.003,0.438-0.055,0.439-0.371c0.002-0.314-0.111-0.475-0.443-0.459
		c-0.252,0.012-0.51,0.03-0.758-0.006c-1.092-0.162-2.292,0.436-3.278-0.611c-0.35-0.371-0.388-0.807-0.216-0.968
		c0.627-0.588,0.305-1.282,0.338-1.92c0.039-0.752-0.595-0.403-0.953-0.466c-0.354-0.063-0.57,0.009-0.633,0.488
		c-0.137,1.056,0.4,2.01,0.356,3.041l0.134,0.26c0.667,0.541,1.227,1.312,2.281,1.024C249.477,236.65,249.771,236.71,250.05,236.71z
		 M246.929,241.583c1.068-0.308,2.196-0.585,3.379-0.474c0.553,0.054,1.116,0,1.674,0.007c0.297,0.004,0.399-0.146,0.406-0.421
		c0.006-0.283-0.109-0.406-0.404-0.409c-1.777-0.019-3.548,0.021-5.319-0.349c-0.971-0.203-0.981-0.035-0.969,0.978
		C245.708,241.902,246.462,241.34,246.929,241.583z M251.195,239.604c0.179,0,0.356,0.016,0.533-0.004
		c0.268-0.026,0.652,0.148,0.657-0.371c0.005-0.472-0.323-0.422-0.63-0.435c-0.55-0.024-1.156,0.176-1.511-0.519
		c-0.115-0.225-0.469-0.114-0.718-0.123c-0.431-0.014-1.046,0.162-1.257-0.058c-0.614-0.637-1.315-0.311-1.974-0.389
		c-0.227-0.026-0.574-0.091-0.575,0.296c-0.001,0.416-0.176,0.876,0.135,1.238c0.168,0.195,1.968,0.021,2.183-0.163
		c0.317-0.272,1.551-0.382,1.647-0.097C249.971,239.822,250.629,239.564,251.195,239.604z M249.924,234.436
		c0.391-0.754,0.259-1.42,0.272-2.068c0.015-0.719-0.546-0.419-0.882-0.453c-0.324-0.033-0.74-0.135-0.716,0.463
		c0.032,0.783-0.063,1.557,0.411,2.293c0.194,0.303,0.306,0.55,0.679,0.563c0.731,0.027,1.464,0.043,2.196,0.072
		c0.343,0.012,0.517-0.113,0.507-0.48c-0.008-0.37-0.25-0.387-0.516-0.387C251.271,234.436,250.67,234.436,249.924,234.436z
		 M251.628,210.303c0.228-0.084,0.696,0.206,0.736-0.328c0.036-0.485-0.405-0.328-0.669-0.396c-0.144-0.038-0.295-0.04-0.399-0.179
		c-0.78-1.026-1.876-1.143-3.036-1.02c-0.606,0.064-0.351,0.573-0.383,0.905c-0.031,0.319-0.062,0.743,0.436,0.704
		c0.631-0.049,1.313,0.257,1.888-0.229c0.164-0.139,0.216-0.021,0.27,0.095C250.701,210.355,251.146,210.314,251.628,210.303z
		 M250.403,213.989c0.125,0.944,0.824,0.741,1.417,0.757c0.287,0.009,0.574,0.023,0.563-0.405c-0.008-0.366-0.243-0.399-0.516-0.39
		c-0.32,0.012-0.601,0.001-0.681-0.414c-0.022-0.116-0.192-0.242-0.321-0.293c-0.794-0.316-1.612-0.493-2.478-0.402
		c-0.274,0.029-0.536,0.036-0.509,0.396c0.029,0.384-0.197,0.841,0.208,1.129C248.45,214.623,250.021,214.37,250.403,213.989z
		 M249.073,210.591c-0.203,0-0.406,0.011-0.608-0.003c-0.699-0.045-0.582,0.455-0.599,0.876c-0.018,0.419,0.015,0.788,0.586,0.705
		c0.582-0.085,1.21,0.213,1.748-0.204c0.162-0.125,0.212-0.021,0.272,0.094c0.383,0.721,1.055,0.416,1.625,0.451
		c0.229,0.014,0.28-0.164,0.286-0.363c0.009-0.258-0.112-0.352-0.362-0.365c-0.242-0.016-0.547,0.126-0.713-0.112
		C250.762,210.878,250,210.574,249.073,210.591z M249.72,251.021c0.912,0.287,1.566-0.687,2.473-0.483
		c0.211,0.048,0.188-0.251,0.188-0.421c0.001-0.195-0.065-0.381-0.295-0.354c-0.886,0.102-1.672-0.41-2.574-0.359
		c-0.72,0.041-0.931,0.193-0.936,0.936C248.569,251.37,249.279,250.919,249.72,251.021z M250.561,226.801
		c0.561,0.245,1.064-0.24,1.623-0.447c0.33-0.123,0.293-0.463-0.004-0.631c-0.725-0.406-1.513-0.523-2.342-0.445
		c-0.348,0.033-0.461,0.164-0.479,0.513C249.306,226.803,249.289,226.803,250.561,226.801z"/>
	<path style="fill:#E5E5E5;" d="M276.891,256.051c0.398-0.722,0.799-1.42,1.174-2.132c0.639-1.215,1.244-2.428,1.108-3.882
		c-0.204-2.215-2.142-4.038-4.358-4.115c-2.981-0.104-5.428,1.082-7.533,3.071c-1.84,1.735-3.499,3.616-4.188,6.143
		c-0.254,0.929-1.005,1.064-1.774,1.134c-1.092,0.097-2.178-0.069-3.266-0.127c-0.33-0.019-0.348-0.166-0.271-0.453
		c1.432-5.358,2.762-10.756,5.68-15.57c1.892-3.121,4.281-5.764,7.656-7.293c4.914-2.227,11.719-0.828,15.164,3.044
		c1.636,1.839,2.498,4.05,2.817,6.459c0.445,3.366-0.033,6.579-1.9,9.483C284.883,255.414,280.859,257.072,276.891,256.051z"/>
	<path style="fill:#E5E5E5;" d="M249.698,286.938c-0.72-0.842-1.304-1.537-1.904-2.219c-0.193-0.22-0.169-0.467-0.169-0.717
		c-0.001-3.098,0.014-6.195-0.014-9.293c-0.005-0.577,0.177-0.754,0.734-0.741c1.142,0.026,2.285,0.007,3.429-0.011
		c0.228-0.004,0.563,0.102,0.597-0.286c0.04-0.455-0.349-0.377-0.591-0.382c-1.421-0.031-2.842-0.044-4.263-0.048
		c-0.599-0.003-0.746,0.36-0.743,0.905c0.015,2.793,0.007,5.586,0.007,8.379c0,0.279,0,0.558,0,0.916
		c-0.467-0.239-0.8-0.592-1.25-0.738c-0.254-0.084-0.185-0.333-0.187-0.525c-0.006-0.736-0.044-1.477,0.009-2.209
		c0.051-0.693-0.284-0.902-0.891-0.902c-0.863-0.002-1.727-0.01-2.59-0.018c-0.177-0.001-0.355-0.01-0.532-0.021
		c-0.219-0.014-0.316-0.162-0.325-0.354c-0.011-0.275,0.221-0.236,0.383-0.238c0.914-0.015,1.828-0.014,2.742-0.021
		c1.2-0.01,1.2-0.01,1.201-1.17c0-0.432,0.056-0.872-0.01-1.294c-0.228-1.433,0.278-2.613,1.156-3.695
		c0.292-0.36,1.483-0.544,2.101-0.233c0.659,0.328,1.351,0.203,2.009,0.131c0.594-0.065,0.281-0.651,0.338-1.012
		c0.051-0.322-0.076-0.578-0.455-0.515c-0.701,0.118-1.479-0.331-2.126,0.383c-0.168,0.187-0.717,0.028-1.097,0.028
		c0.344-1.428,0.344-1.428,1.73-1.43c0.965-0.004,1.93-0.008,2.895-0.008c0.278,0.002,0.514-0.025,0.504-0.394
		c-0.009-0.353-0.232-0.405-0.515-0.405c-1.093,0-2.183-0.018-3.275,0.001c-0.388,0.007-0.46-0.1-0.378-0.479
		c0.152-0.709,0.44-1.092,1.268-0.993c0.776,0.091,1.572,0.021,2.358,0.013c0.237-0.002,0.55,0.078,0.532-0.338
		c-0.018-0.391-0.311-0.333-0.557-0.334c-0.838-0.007-1.675-0.021-2.512,0c-0.402,0.01-0.542-0.081-0.439-0.518
		c0.16-0.676,0.445-1.08,1.235-0.953c0.445,0.072,0.919,0.061,1.367-0.004c0.313-0.045,0.889,0.311,0.895-0.334
		c0.005-0.676-0.602-0.353-0.938-0.391c-0.489-0.056-0.99-0.015-1.512-0.015c0.078-0.361,0.325-0.4,0.491-0.429
		c1.383-0.235,2.782-0.199,4.177-0.188c0.399,0.003,0.373,0.353,0.454,0.594c0.613,1.822,1.178,3.663,1.834,5.472
		c1.176,3.234,3.215,5.717,6.406,7.172c0.971,0.441,1.104,0.906,0.637,1.892c-0.959,2.024-2.658,3.087-4.766,3.531
		c-0.967,0.203-1.653,0.666-2.191,1.474c-1.105,1.657-2.521,3.049-3.936,4.436c-0.785,0.77-1.729,0.453-2.117-0.551
		c-0.197-0.513-0.401-0.969-0.398-1.529c0.002-0.465,0.154-0.65,0.611-0.626c0.304,0.017,0.609-0.009,0.914-0.015
		c0.252-0.004,0.356-0.135,0.359-0.384c0.004-0.266-0.13-0.356-0.375-0.354c-0.56,0.005-1.117,0.002-1.676,0
		c-0.345,0-0.507,0.183-0.531,0.514C249.775,285.889,249.743,286.314,249.698,286.938z M252.406,280.922
		c0-2.008,0.002-1.997-1.908-1.837c-0.465,0.039-0.709,0.235-0.717,0.692c-0.013,0.761-0.015,1.521-0.012,2.279
		c0.002,0.536,0.29,0.737,0.818,0.758c1.819,0.064,1.817,0.078,1.817-1.74L252.406,280.922z M249.894,275.729
		c-0.219,0-0.372,0.016-0.523-0.002c-0.568-0.061-0.807,0.129-0.79,0.756c0.016,0.58,0.119,0.781,0.769,0.882
		c1.036,0.159,1.818-0.634,2.8-0.539c0.182,0.018,0.232-0.16,0.227-0.328c-0.008-0.14-0.082-0.293-0.212-0.263
		C251.299,276.446,250.689,275.506,249.894,275.729z"/>
	<path style="fill:#E5E5E5;" d="M259.628,263.992c0.151,0,0.308,0.021,0.456-0.003c1.127-0.179,1.971,0.069,2.213,1.358
		c0.102,0.533,0.405,0.451,0.75,0.166c1.084-0.896,2.271-1.47,3.744-1.398c1.852,0.089,3.771,1.425,4.443,3.197
		c0.613,1.625,0.102,3.485-1.332,4.83c-2.49,2.338-6.396,2.242-8.754-0.232c-1.98-2.077-3.078-4.605-3.715-7.367
		c-0.097-0.422,0.039-0.557,0.443-0.546c0.583,0.014,1.167,0.003,1.75,0.003L259.628,263.992z"/>
	<path style="fill:#E5E5E5;" d="M252.461,262.068c-3.706,0-7.412-0.01-11.117,0.013c-0.562,0.004-0.769-0.142-0.733-0.724
		c0.048-0.782,0.053-1.574-0.001-2.357c-0.044-0.643,0.178-0.809,0.808-0.807c5.254,0.017,10.509-0.004,15.764-0.012
		c2.105-0.004,4.213,0.012,6.319-0.02c0.533-0.008,0.705,0.143,0.679,0.68c-0.044,0.86-0.044,1.727,0,2.588
		c0.026,0.535-0.14,0.682-0.676,0.678c-3.682-0.021-7.361-0.012-11.042-0.012L252.461,262.068z"/>
	<path style="fill:#E5E5E5;" d="M242.359,241.918c-0.342,0.324-0.939-0.051-0.995,0.372c-0.09,0.683-0.248,1.429,0.121,2.067
		c0.133,0.231,0.229,0.426,0.229,0.678c0.001,1.371-0.018,2.742,0.009,4.113c0.01,0.506-0.17,0.676-0.661,0.642
		c-0.952-0.065-0.766,0.647-0.796,1.208c-0.032,0.589,0.036,1.085,0.815,1.061c0.558-0.018,1.117,0,1.676,0
		c0.222,0.002,0.398,0.043,0.399,0.33c0.001,0.266-0.135,0.36-0.375,0.361c-0.66,0.003-1.32-0.002-1.98,0.01
		c-0.155,0.004-0.239-0.074-0.302-0.181c-0.494-0.833-1.113-1.56-1.015-2.687c0.135-1.553,0.022-1.675-1.498-1.529
		c-1.419,0.137-2.232-0.858-3.3-1.461c0.574,0,1.15-0.032,1.721,0.01c0.716,0.053,0.956-0.307,0.954-0.949
		c-0.003-1.371-0.005-2.742,0.006-4.111c0.002-0.24-0.123-0.59,0.156-0.687s0.581-0.091,0.914,0.124
		c0.598,0.386,1.349,0.259,1.975,0.098c0.395-0.103,0.139-0.717,0.173-1.1c0.031-0.336-0.239-0.297-0.465-0.342
		c-1.084-0.213-2.061,0.393-3.123,0.396c-0.395,0.003-0.415,0.449-0.416,0.788c-0.001,1.422-0.026,2.845,0.011,4.265
		c0.015,0.563-0.137,0.771-0.719,0.731c-1.489-0.097-2.991,0.137-4.476-0.183c-0.353-0.074-0.627-0.1-0.612-0.573
		c0.017-0.528-0.342-0.659-0.815-0.658c-2.666,0.007-5.332,0.004-7.997-0.009c-0.535-0.003-0.84,0.199-0.786,0.759
		c0.05,0.517-0.176,0.647-0.659,0.64c-1.421-0.027-2.844-0.031-4.265-0.009c-0.503,0.009-0.649-0.18-0.662-0.667
		c-0.013-0.513,0.168-0.658,0.658-0.642c0.862,0.03,1.727-0.015,2.589,0.013c0.614,0.02,1.006-0.193,1-0.842
		c-0.005-0.479,0.21-0.604,0.645-0.604c3.681-0.002,7.363-0.014,11.044-0.033c0.423-0.002,0.667,0.097,0.658,0.586
		c-0.014,0.678,0.354,0.888,1.021,0.881c2.201-0.023,1.881,0.039,1.896-1.891c0.008-1.168,0.017-2.336-0.006-3.502
		c-0.008-0.42,0.105-0.593,0.551-0.576c0.786,0.03,1.636-0.174,2.342,0.065c0.628,0.213,1.209,0.499,1.871,0.386
		c0.68-0.119,1.065,0.153,1.365,0.733C241.572,240.652,241.976,241.271,242.359,241.918z"/>
	<path style="fill:#E5E5E5;" d="M239.428,237.532c-1.389,0.852-2.909,0.604-4.396,0.622c-0.583,0.006-0.648,0.371-0.649,0.813
		c-0.002,1.422,0.001,2.844-0.008,4.266c-0.003,0.623-0.707,1.007-1.257,0.69c-0.255-0.146-0.151-0.405-0.156-0.62
		c-0.011-0.568-0.31-0.85-0.859-0.832c-3.883,0.127-7.765-0.08-11.648-0.037c-1.208,0.012-1.223-0.002-1.425,1.162
		c-0.057,0.327-0.237,0.338-0.476,0.338c-0.813-0.002-1.625-0.02-2.437,0.004c-0.421,0.012-0.546-0.183-0.497-0.553
		c0.045-0.34-0.165-0.824,0.45-0.865c0.253-0.017,0.508-0.017,0.761-0.004c0.506,0.025,0.803-0.205,0.753-0.711
		c-0.061-0.619,0.241-0.709,0.762-0.695c1.091,0.027,2.183,0.01,3.275,0c0.975-0.006,1.13-0.168,1.132-1.166
		c0.003-2.006,0.046-4.012-0.021-6.016c-0.026-0.793,0.28-1.119,0.976-1.334c1.132-0.347,1.123-0.377,1.123,0.786
		c0,2.208-0.003,4.417,0.002,6.625c0.002,0.94,0.16,1.097,1.113,1.099c1.98,0.002,3.96-0.002,5.94-0.011
		c0.897-0.004,1.057-0.168,1.063-1.071c0.007-1.117,0.037-2.234-0.012-3.351c-0.027-0.622,0.2-0.778,0.781-0.751
		c0.887,0.043,1.776,0.014,2.665,0.007c0.35-0.003,0.718,0.048,0.91-0.379c0.13-0.289,0.292-0.083,0.401,0.029
		C238.324,236.225,238.96,236.869,239.428,237.532z"/>
	<path style="fill:#E5E5E5;" d="M233.711,232.98c-1.193,0-2.387,0.02-3.58-0.008c-0.659-0.015-0.934,0.256-0.889,0.908
		c0.028,0.405,0.02,0.813,0.001,1.219c-0.017,0.369,0.087,0.645,0.446,0.795c0.542,0.229,0.428,0.722,0.188,0.978
		c-0.654,0.7-0.306,1.493-0.229,2.203c0.045,0.42,0.7,0.159,1.079,0.204c0.343,0.039,0.38-0.198,0.425-0.482
		c0.173-1.099-0.353-2.098-0.423-3.158c-0.013-0.193-0.146-0.307-0.327-0.381c-0.62-0.255-0.33-0.797-0.303-1.193
		c0.03-0.455,0.483-0.233,0.748-0.254c1.385-0.108,2.785,0.166,4.164-0.166c0.266-0.064,1.461,0.729,1.542,1.006
		c0.129,0.449-0.092,0.584-0.515,0.574c-0.965-0.021-1.931,0.004-2.896-0.024c-0.685-0.021-0.939,0.263-0.914,0.948
		c0.041,1.091-0.012,2.185,0.018,3.275c0.016,0.573-0.155,0.824-0.773,0.813c-1.701-0.035-3.404-0.04-5.105-0.014
		c-0.59,0.01-0.72-0.222-0.713-0.766c0.028-2.032,0.002-4.064,0.014-6.098c0.01-1.686-0.202-1.174,1.368-1.52
		c0.576-0.127,0.76,0.114,0.727,0.69c-0.027,0.469-0.292,0.47-0.609,0.442c-0.586-0.05-0.85,0.238-0.858,0.797
		c-0.007,0.457-0.014,0.914,0.009,1.369c0.016,0.305,0.068,0.603,0.42,0.742c0.462,0.186,0.423,0.663,0.23,0.891
		c-0.584,0.69-0.213,1.455-0.276,2.177c-0.042,0.489,0.421,0.341,0.683,0.329c0.311-0.012,0.854,0.201,0.834-0.348
		c-0.024-0.71,0.37-1.506-0.332-2.136c-0.108-0.097-0.053-0.387-0.056-0.588c-0.008-0.424,0.055-0.813-0.47-1.081
		c-0.366-0.188-0.156-0.698-0.146-1.063c0.01-0.344,0.324-0.258,0.531-0.256c0.752,0.012,0.91-0.453,0.828-1.058
		c-0.105-0.767,0.151-1.026,0.947-0.946C230.967,231.957,232.387,232.25,233.711,232.98z"/>
	<path style="fill:#E5E5E5;" d="M242.927,243.268c0.454,0.852,1.036,1.631,0.965,2.649c-0.029,0.431,0.048,0.769,0.5,1.001
		c0.326,0.167,0.458,0.602,0.385,0.928c-0.076,0.338-0.482,0.19-0.732,0.176c-0.666-0.039-0.55,0.412-0.577,0.811
		c-0.031,0.461,0.083,0.68,0.619,0.684c1.433,0.008,1.626,0.262,1.646,1.756c0.006,0.453-0.25,1.021,0.414,1.297
		c0.091,0.039,0.243,0.373,0.009,0.438c-0.792,0.22-0.308,0.831-0.421,1.253c-0.043,0.16,0.068,0.324,0.251,0.292
		c0.817-0.143,0.8,0.489,0.928,0.981c0.057,0.219,0.077,0.447,0.132,0.779c-1,0-1.973-0.002-2.946,0
		c-0.222,0-0.333-0.074-0.262-0.317c0.035-0.121,0.057-0.247,0.066-0.373c0.094-1.253-0.038-1.365-1.312-1.353
		c-0.578,0.004-1.339,0.289-1.505-0.806c0.677,0,1.345-0.021,2.01,0.005c0.877,0.036,0.806-0.572,0.812-1.136
		c0.005-0.558,0.007-1.104-0.806-1.065c-0.557,0.027-1.117,0.002-1.675,0.004c-0.225,0.002-0.393-0.031-0.403-0.318
		c-0.012-0.313,0.143-0.412,0.416-0.381c0.863,0.101,1.041-0.379,0.993-1.11c-0.037-0.557-0.007-1.116-0.007-1.675
		c0-0.787,0.096-1.589-0.026-2.355C242.269,244.604,243.179,244.102,242.927,243.268z"/>
	<path style="fill:#E5E5E5;" d="M242.875,272.473c0-0.462-0.031-0.734,0.006-0.998c0.095-0.67-0.158-0.891-0.838-0.859
		c-0.537,0.023-0.866,0.133-0.731,0.718c0.13,0.563-0.403,1.271,0.371,1.698c0.087,0.048-0.007,0.182-0.104,0.229
		c-0.159,0.078-0.319,0.151-0.481,0.223c-0.54,0.235-0.833,0.242-0.815-0.53c0.05-2.138,0.185-1.857-1.855-1.874
		c-1.319-0.012-2.638-0.006-3.958-0.012c-0.61-0.004-1.152-0.533-1.152-1.119c0-0.424,0.329-0.313,0.552-0.315
		c1.573-0.017,3.146-0.021,4.719-0.024c1.979-0.006,3.958-0.017,5.936-0.015c0.185,0.001,0.441-0.108,0.541,0.132
		c0.073,0.176-0.116,0.318-0.212,0.459C244.313,270.965,243.712,271.696,242.875,272.473z"/>
	<path style="fill:#E5E5E5;" d="M246.232,267.359c-0.29,1.371-0.388,1.455-1.706,1.451c-3.578-0.01-7.156-0.02-10.734-0.026
		c-0.336-0.001-0.719,0.043-0.637-0.478c0.063-0.392-0.053-0.942,0.604-0.943C237.916,267.357,242.071,267.359,246.232,267.359z"/>
	<path style="fill:#E5E5E5;" d="M233.811,266.549c0.449-0.77,0.897-1.396,1.96-1.348c1.543,0.07,3.094,0.029,4.64-0.002
		c0.516-0.01,0.906,0.148,1.31,0.459c0.556,0.427,0.495-0.579,1.108-0.499c1.197,0.155,2.429,0.053,3.646,0.034
		c0.413-0.006,0.515,0.097,0.415,0.527c-0.154,0.66-0.373,0.998-1.185,0.983c-3.702-0.067-7.405-0.042-11.108-0.058
		C234.354,266.646,234.097,266.715,233.811,266.549z"/>
	<path style="fill:#E5E5E5;" d="M229.978,245.703c-0.241,0.329-0.702,0.137-1,0.337c-1.637,1.099-3.487,0.801-5.286,0.793
		c-0.703-0.004-1.072,0.219-0.999,0.962c0.038,0.381-0.179,0.48-0.508,0.479c-1.878-0.008-3.756-0.01-5.634-0.021
		c-0.698-0.004-0.611-0.573-0.657-0.992c-0.063-0.573,0.42-0.314,0.646-0.319c1.446-0.028,2.894-0.039,4.339-0.01
		c0.704,0.014,1.146-0.181,1.114-0.965c-0.013-0.312,0.116-0.478,0.438-0.478c2.436-0.001,4.872-0.005,7.308-0.003
		C229.839,245.486,229.941,245.521,229.978,245.703z"/>
	<path style="fill:#E5E5E5;" d="M218.261,252.548c-0.151-0.118-0.234-0.149-0.256-0.207c-0.361-0.922-0.819-1.786-1.399-2.596
		c-0.316-0.44-0.053-0.595,0.424-0.593c1.723,0.011,3.446-0.002,5.169-0.012c1.072-0.008,1.084-0.011,1.183-1.045
		c0.027-0.279,0.097-0.412,0.397-0.41c0.877,0.012,1.755,0.004,2.721,0.004c-0.46,0.858-0.902,1.619-0.93,2.535
		c-0.013,0.447-0.414,0.285-0.652,0.287c-1.723,0.012-3.446,0.002-5.169-0.001c-1.482-0.002-1.482-0.001-1.489,1.456
		C218.261,252.119,218.261,252.271,218.261,252.548z"/>
	<path style="fill:#E5E5E5;" d="M221.93,233.5c0,2.126-0.008,4.227,0.006,6.327c0.003,0.467-0.275,0.454-0.598,0.453
		c-1.192-0.007-2.385,0.021-3.576-0.017c-0.657-0.021-1.041,0.184-1.002,0.887c0.023,0.416-0.171,0.552-0.549,0.492
		c-0.457-0.069-0.299-0.396-0.236-0.643c0.355-1.384,0.36-1.382,1.848-1.385c0.863-0.001,1.725-0.012,2.587,0
		c0.603,0.008,0.868-0.24,0.856-0.868c-0.026-1.496,0.002-2.993-0.014-4.49C221.247,233.801,221.393,233.535,221.93,233.5z"/>
	<path style="fill:#E5E5E5;" d="M222.442,251.337c0.86,0,1.721,0.006,2.581-0.003c0.318-0.003,0.661-0.014,0.67,0.402
		c0.011,0.474-0.397,0.269-0.616,0.271c-1.214,0.02-2.43,0.043-3.643-0.007c-0.747-0.03-1.01,0.315-1.008,0.983
		c0.001,0.379,0.027,0.758,0.036,1.137c0.013,0.501-0.176,0.484-0.53,0.234c-0.786-0.552-1.178-1.808-0.85-2.744
		c0.107-0.305,0.333-0.252,0.552-0.268l0.076-0.001c0.911,0,1.822,0,2.732,0V251.337z"/>
	<path style="fill:#E5E5E5;" d="M223.753,252.861c0.657,0,1.314,0.004,1.972-0.002c0.259-0.002,0.481,0.078,0.479,0.356
		c-0.002,0.321-0.293,0.191-0.457,0.194c-0.708,0.017-1.416,0.018-2.123,0.002c-0.672-0.016-0.991,0.281-0.931,0.964
		c0.013,0.149,0.031,0.312-0.004,0.453c-0.075,0.299,0.238,0.766-0.222,0.877c-0.501,0.122-1.197-0.543-1.209-1.043
		c-0.043-1.798-0.043-1.798,1.737-1.802C223.247,252.863,223.5,252.863,223.753,252.861z"/>
	<path style="fill:#E5E5E5;" d="M234.688,271.846c1.457,0,2.915,0,4.372-0.001c0.33,0,0.436,0.188,0.429,0.488
		c-0.008,0.354,0.007,0.708-0.004,1.063c-0.005,0.164,0.044,0.381-0.212,0.414c-0.148,0.021-0.326,0.045-0.408-0.117
		c-0.319-0.631-0.916-0.491-1.408-0.442C236.276,273.367,235.427,272.83,234.688,271.846z"/>
	<path style="fill:#E5E5E5;" d="M220.463,234.405c0,1.297-0.011,2.513,0.005,3.728c0.006,0.489-0.179,0.672-0.677,0.651
		c-0.835-0.035-1.674-0.004-2.511-0.021c-0.162-0.004-0.463,0.133-0.441-0.225c0.016-0.253,0.225-0.311,0.445-0.311
		c0.533-0.004,1.066-0.01,1.598-0.011c0.651-0.001,0.986-0.313,0.98-0.977c-0.006-0.685,0.006-1.37-0.001-2.056
		C219.859,234.834,219.912,234.533,220.463,234.405z"/>
	<path style="fill:#E5E5E5;" d="M244.633,274.811c0,0.871-0.018,1.555,0.007,2.235c0.015,0.407-0.088,0.599-0.542,0.583
		c-0.918-0.029-1.837-0.009-2.895-0.009c0.396-0.529,0.805-0.279,1.137-0.353c0.205-0.045,0.566,0.063,0.529-0.258
		c-0.094-0.806,0.547-1.063,0.986-1.479C244.069,275.327,244.289,275.128,244.633,274.811z"/>
	<path style="fill:#E5E5E5;" d="M241.592,279.855c0.856,0,1.713,0.013,2.569-0.006c0.366-0.008,0.497,0.137,0.476,0.489
		c-0.019,0.328,0.035,0.663-0.014,0.984c-0.051,0.336,0.243,0.792-0.221,0.987c-0.283,0.121-1.527-0.713-1.482-0.985
		c0.183-1.101-0.339-1.442-1.453-1.229L241.592,279.855z"/>
	<path style="fill:#E5E5E5;" d="M227.155,254.915c-0.73,0-1.415,0.022-2.096-0.007c-0.553-0.023-0.877,0.164-0.915,0.744
		c-0.017,0.26-0.031,0.533-0.418,0.473c-0.349-0.055-0.342-0.313-0.338-0.574c0.004-0.229,0.019-0.458-0.003-0.685
		c-0.038-0.397,0.14-0.55,0.523-0.546c0.862,0.007,1.724,0,2.585-0.006C226.845,254.313,227.072,254.455,227.155,254.915z"/>
	<path style="fill:#E5E5E5;" d="M244.975,264.48c-0.631,0-1.262,0.004-1.893-0.002c-0.146-0.002-0.326-0.015-0.319-0.226
		c0.005-0.176,0.13-0.271,0.301-0.271c1.313-0.006,2.625-0.008,3.938-0.008c0.138,0,0.245,0.041,0.23,0.213
		c-0.019,0.225-0.17,0.297-0.363,0.299c-0.631,0.006-1.262,0.003-1.893,0.003L244.975,264.48z"/>
	<path style="fill:#E5E5E5;" d="M227.789,255.77c-0.799,0.5-1.663,0.563-2.545,0.521c-0.153-0.008-0.309-0.016-0.324-0.229
		c-0.018-0.252,0.135-0.295,0.334-0.295C226.1,255.77,226.944,255.77,227.789,255.77z"/>
	<path style="fill:#E5E5E5;" d="M218.812,235.73c0.18,0.271,0.122,0.504,0.123,0.724c0.003,0.793-0.165,0.93-0.933,0.834
		c-0.3-0.036-0.448-0.119-0.229-0.411C218.072,236.477,218.34,236.046,218.812,235.73z"/>
	<path style="fill:#E5E5E5;" d="M241.813,255.018c0.355-0.119,0.709-0.055,1.058-0.056c0.235,0,0.29,0.158,0.288,0.356
		c-0.001,0.185-0.012,0.363-0.259,0.378C242.382,255.729,241.855,255.771,241.813,255.018z"/>
	<path style="fill:#E5E5E5;" d="M238.77,250.105c-0.337-0.351-0.609-0.633-0.873-0.905
		C238.777,248.977,238.84,249.029,238.77,250.105z"/>
	<path style="fill:#E5E5E5;" d="M236.909,264.421c0.806-0.369,1.639-0.372,2.467,0C238.554,264.421,237.731,264.421,236.909,264.421
		z"/>
	<path style="fill-rule:evenodd;clip-rule:evenodd;fill:#E5E5E5;" d="M24.962,201.183c-2.714-0.427-2.727-0.404-2.756,2.019
		c-0.013,1.108-0.099,2.215-0.151,3.322c-0.288-0.001-0.575-0.002-0.863-0.004c-0.048-1.239-0.092-2.479-0.146-3.719
		c-0.037-0.854,0.254-1.844-1.227-1.843c-1.497,0-1.175,1.005-1.203,1.849c-0.041,1.238-0.059,2.478-0.086,3.717
		c-0.3,0.002-0.6,0.005-0.9,0.007c-0.065-1.171-0.18-2.341-0.183-3.511c-0.003-1.121-0.475-1.501-1.428-2.254
		c-1.807-1.428-3.624-0.977-5.447-1.277c-0.193-0.031-0.362-0.218-0.542-0.332c0.003-0.182,0.006-0.362,0.008-0.544
		c1.023-0.07,2.045-0.158,3.069-0.205c0.875-0.041,1.829,0.211,1.812-1.255c-0.017-1.502-1.035-1.156-1.868-1.181
		c-1.001-0.029-2.003-0.007-3.005-0.007c-0.004-0.323-0.009-0.646-0.014-0.969c0.91-0.066,1.819-0.175,2.73-0.189
		c2.33-0.036,2.45-0.186,1.868-2.756c-1.506-0.073-3.045-0.146-4.585-0.221c-0.016-0.286-0.032-0.572-0.048-0.858
		c1.54-0.143,3.079-0.286,4.758-0.442c0-0.662,0-1.334,0-2.098c-1.613-0.098-3.158-0.19-4.703-0.284
		c-0.015-0.239-0.03-0.479-0.045-0.719c1.38-0.896,3.104-0.085,4.735-0.561c0-0.681,0-1.409,0-2.272
		c-1.602-0.106-3.165-0.211-4.729-0.315c0.006-0.271,0.012-0.541,0.018-0.812c0.875-0.063,1.749-0.17,2.624-0.182
		c2.457-0.034,2.495-0.067,2.018-2.685c-1.523-0.093-3.086-0.188-4.65-0.283c0.001-0.291,0.003-0.582,0.004-0.873
		c1.035-0.077,2.069-0.169,3.105-0.228c0.809-0.047,1.745,0.21,1.973-0.999c0.028-0.147,0.219-0.372,0.344-0.379
		c2.83-0.139,1.812-2.274,1.985-3.791c0.075-0.656,0.166-1.312,0.249-1.968c0.257-0.006,0.514-0.012,0.771-0.018
		c0.052,1.318,0.039,2.645,0.189,3.953c0.061,0.533,0.368,1.347,0.75,1.476c0.97,0.325,1.737,0.032,1.665-1.292
		c-0.074-1.362-0.017-2.73-0.017-4.097c0.316-0.012,0.631-0.022,0.947-0.034c0.074,1.08,0.194,2.16,0.21,3.241
		c0.037,2.454,0.02,2.458,2.991,2.064c0-1.726,0-3.524,0-5.323c0.308-0.002,0.615-0.004,0.923-0.007
		c0.067,1.213,0.166,2.425,0.193,3.638c0.047,2.051,0.044,2.063,2.535,1.621c0-1.7,0-3.475,0-5.25c0.225-0.01,0.45-0.021,0.675-0.03
		c1.105,1.598,0.045,3.581,0.618,5.273c2.207,0.584,2.398,0.446,2.419-1.696c0.012-1.173,0.046-2.345,0.07-3.518
		c0.304-0.01,0.608-0.02,0.913-0.029c0.062,1.104,0.16,2.209,0.177,3.314c0.036,2.415,0.114,2.489,2.711,1.965
		c0.082-1.736,0.166-3.51,0.25-5.284c0.197-0.003,0.393-0.005,0.59-0.008c1.206,1.589,0.009,3.624,0.973,5.03
		c0.803,0.635,1.541,1.396,2.433,1.857c0.58,0.301,1.385,0.178,2.09,0.226c1.108,0.075,2.218,0.136,3.327,0.202
		c0.004,0.309,0.009,0.616,0.013,0.924c-1.794,0.082-3.588,0.164-5.513,0.252c0,0.808,0,1.55,0,2.501
		c1.791,0.097,3.62,0.197,5.449,0.296c0.011,0.295,0.022,0.59,0.033,0.885c-1.769,0.115-3.537,0.23-5.46,0.355
		c0,0.715,0,1.441,0,2.284c1.834,0.105,3.644,0.21,5.453,0.313c0.002,0.283,0.004,0.567,0.007,0.851
		c-1.804,0.116-3.608,0.232-5.506,0.354c0,0.719,0,1.346,0,2.155c1.84,0.084,3.665,0.167,5.49,0.251
		c0.011,0.309,0.022,0.619,0.034,0.929c-1.781,0.112-3.562,0.225-5.488,0.347c0,0.798,0,1.593,0,2.502
		c1.82,0.12,3.642,0.24,5.463,0.359c0,0.276,0,0.552,0,0.828c-1.811,0.1-3.622,0.2-5.512,0.305c0,0.748,0,1.38,0,2.148
		c1.872,0.108,3.693,0.213,5.514,0.317c0.025,0.276,0.049,0.554,0.074,0.83c-2.832,0.147-5.762-0.056-8.464,2.583
		c0,1.032,0,2.819,0,4.606c-0.259,0.018-0.518,0.034-0.777,0.051c-0.875-1.634-0.033-3.564-0.525-5.438c-0.751,0-1.544,0-2.511,0
		c-0.111,1.781-0.225,3.586-0.337,5.391c-0.303-0.008-0.605-0.016-0.908-0.023c-0.022-1.18-0.054-2.359-0.065-3.539
		c-0.021-2.131-0.015-2.131-2.444-1.824c-0.096,1.766-0.195,3.572-0.293,5.379c-0.221-0.001-0.441-0.002-0.662-0.002
		c-1.034-1.633-0.021-3.619-0.65-5.432c-0.632,0-1.256,0-2.037,0c-0.125,1.839-0.246,3.642-0.368,5.445
		c-0.287-0.007-0.574-0.013-0.861-0.019C25.15,204.774,25.059,203.026,24.962,201.183z M27.788,197.03
		c2.149,0,4.298-0.032,6.445,0.012c1.196,0.025,1.789-0.457,1.787-1.667c-0.006-3.998-0.008-7.997-0.001-11.995
		c0.002-1.121-0.548-1.625-1.653-1.623c-4.297,0.009-8.594,0.012-12.891-0.002c-1.21-0.004-1.723,0.585-1.719,1.762
		c0.012,3.938,0.005,7.878,0.005,11.816c0,1.174,0.54,1.734,1.761,1.709C23.61,196.998,25.699,197.029,27.788,197.03z"/>
	<path style="fill-rule:evenodd;clip-rule:evenodd;fill:#E5E5E5;" d="M212.996,176.88c-2.649-2.071-2.312-2.192-1.965-5.293
		c0.39-3.482-0.504-6.924-2.489-9.961c-2.938-4.493-3.26-9.2-0.546-13.815c2.774-4.717,7.153-6.982,12.606-6.515
		c5.429,0.464,9.376,3.346,11.369,8.485c1.557,4.017,1.1,7.976-1.336,11.55c-1.844,2.705-2.355,5.752-2.745,8.866
		c-0.042,0.331,0.026,0.725,0.176,1.023c1.445,2.893,1.361,3.388-1.099,5.391c0.977,1.351,0.697,2.477-0.772,3.335
		c-0.197,0.114-0.269,0.486-0.342,0.755c-0.045,0.164,0.046,0.36,0.029,0.537c-0.192,1.986-2.704,3.188-6.383,3.063
		c-3.328-0.115-5.274-1.351-5.381-3.356c-0.021-0.392-0.204-0.905-0.492-1.128C212.581,179.009,212.031,178.146,212.996,176.88z
		 M214.368,168.823c3.214,0,6.276,0.037,9.335-0.047c0.386-0.011,1.01-0.606,1.091-1.018c0.623-3.155,1.629-6.092,3.405-8.853
		c2.479-3.853,1.449-8.873-2.099-11.913c-3.736-3.203-9.151-3.279-12.964-0.183c-3.627,2.945-4.856,7.963-2.436,11.844
		C212.633,161.754,213.769,165.02,214.368,168.823z M215.32,173.405c2.593,1.131,6.847,1.074,8.72-0.083
		C221.112,172.486,218.351,172.47,215.32,173.405z"/>
	<path style="fill-rule:evenodd;clip-rule:evenodd;fill:#E5E5E5;" d="M101.049,188.591c3.512,0,7.023-0.003,10.534,0.001
		c7.446,0.008,13.045,4.949,13.813,12.306c0.573,5.485,1.031,10.982,1.508,16.478c0.086,0.994,0.088,2.008,0.014,3.004
		c-0.41,5.523-4.821,8.24-9.71,5.632c-2.324-1.239-4.554-3.14-6.086-5.273c-2.988-4.162-6.639-5.653-11.691-5.161
		c-2.525,0.245-4.48,0.625-6.042,2.734c-1.231,1.661-2.688,3.178-4.184,4.613c-1.176,1.128-2.448,2.261-3.88,2.996
		c-5.294,2.722-10.097-0.113-10.056-6.067c0.03-4.213,0.588-8.423,0.943-12.632c0.187-2.213,0.451-4.418,0.668-6.627
		c0.663-6.756,6.36-11.95,13.203-11.998C93.739,188.57,97.395,188.591,101.049,188.591z M100.991,191.863
		c-3.658,0-7.317-0.032-10.975,0.008c-4.913,0.053-9.139,3.43-9.763,8.312c-0.808,6.322-1.317,12.69-1.682,19.055
		c-0.077,1.354,0.68,3.529,1.663,3.974c1.185,0.534,3.084-0.2,4.553-0.724c0.873-0.311,1.558-1.23,2.249-1.952
		c1.241-1.293,2.61-2.519,3.594-3.993c2.225-3.337,5.23-3.872,9.091-4.158c6.052-0.448,10.413,1.258,13.805,6.237
		c1.174,1.723,2.901,3.239,4.69,4.334c3.052,1.865,5.362,0.461,5.565-3.103c0.053-0.927,0.028-1.868-0.06-2.793
		c-0.496-5.21-1.023-10.417-1.537-15.626c-0.582-5.897-4.657-9.563-10.648-9.571C108.021,191.857,104.506,191.861,100.991,191.863z"
		/>
	<path style="fill-rule:evenodd;clip-rule:evenodd;fill:#E5E5E5;" d="M90.27,210.497c-3.98-0.022-7.006-3.128-6.97-7.15
		c0.036-3.977,3.171-7.057,7.143-7.017c3.904,0.04,7.082,3.292,7.027,7.188C97.414,207.466,94.262,210.521,90.27,210.497z
		 M92.061,205.244c1.071-0.121,2.102-0.237,3.175-0.358c0-0.94,0-1.753,0-2.604c-1.127-0.109-2.107-0.205-3.144-0.306
		c-0.092-1.227-0.176-2.34-0.262-3.477c-0.95,0-1.756,0-2.649,0c-0.094,1.27-0.176,2.384-0.265,3.585
		c-1.205,0.096-2.245,0.179-3.331,0.265c0,0.956,0,1.771,0,2.622c1.187,0.108,2.229,0.204,3.304,0.303
		c0.126,1.074,0.233,1.979,0.35,2.966c0.904,0,1.714,0,2.615,0C91.922,207.259,91.98,206.415,92.061,205.244z"/>
	<path style="fill-rule:evenodd;clip-rule:evenodd;fill:#E5E5E5;" d="M110.294,203.452c-1.382,1.045-2.177,2.111-2.893,2.061
		c-0.742-0.053-1.933-1.166-1.96-1.854c-0.028-0.691,1.061-1.897,1.798-2.016C107.945,201.531,108.828,202.526,110.294,203.452z"/>
	<path style="fill-rule:evenodd;clip-rule:evenodd;fill:#E5E5E5;" d="M114.835,207.36c-1.361,1.046-2.156,2.128-2.856,2.069
		c-0.767-0.064-1.981-1.155-2.013-1.844c-0.032-0.689,1.076-1.889,1.833-2.023C112.491,205.439,113.382,206.443,114.835,207.36z"/>
	<path style="fill-rule:evenodd;clip-rule:evenodd;fill:#E5E5E5;" d="M113.569,203.423c1.475-0.906,2.371-1.896,3.088-1.779
		c0.743,0.121,1.843,1.345,1.804,2.031c-0.039,0.693-1.254,1.794-2.006,1.838C115.73,205.555,114.939,204.477,113.569,203.423z"/>
	<path style="fill-rule:evenodd;clip-rule:evenodd;fill:#E5E5E5;" d="M114.661,199.103c-1.391,1.047-2.19,2.113-2.919,2.068
		c-0.743-0.048-1.934-1.161-1.973-1.86c-0.037-0.673,1.08-1.882,1.817-1.991C112.31,197.213,113.194,198.194,114.661,199.103z"/>
	<path style="fill-rule:evenodd;clip-rule:evenodd;fill:#E5E5E5;" d="M121.893,249.662c0-3.518,0.061-6.55-0.023-9.577
		c-0.051-1.835,0.668-2.542,2.511-2.532c9.551,0.05,19.103,0.043,28.654,0.008c1.715-0.006,2.398,0.667,2.354,2.394
		c-0.081,3.104-0.023,6.211-0.023,9.708c2.883,0,5.525-0.028,8.167,0.006c4.483,0.058,6.348,1.926,6.363,6.382
		c0.019,5.98,0.023,11.962-0.003,17.942c-0.018,4.2-1.84,6.027-6.026,6.077c-2.759,0.033-5.518,0.007-8.569,0.007
		c-0.075,1.59-0.208,2.981-0.188,4.371c0.023,1.677-0.648,2.408-2.387,2.4c-9.551-0.043-19.103-0.041-28.654-0.003
		c-1.701,0.008-2.48-0.623-2.38-2.365c0.076-1.32,0.015-2.648,0.015-4.402c-2.878,0-5.525,0.021-8.171-0.006
		c-4.295-0.043-6.208-1.943-6.225-6.217c-0.023-5.98-0.026-11.962,0-17.942c0.019-4.183,2.023-6.169,6.284-6.241
		C116.245,249.625,118.9,249.662,121.893,249.662z M163.886,274.139c0-6.25,0-12.332,0-18.681c-1.27,0-2.324,0-3.379,0
		c-13.832,0-27.663,0-41.494,0c-5.896,0-5.896,0-5.896,5.882c0,4.25,0,8.498,0,12.8c3.009,0.096,5.644,0.886,7.754-1.693
		c0.581-0.71,2.126-0.867,3.232-0.874c9.726-0.064,19.453-0.066,29.179,0.003c1.1,0.008,2.63,0.213,3.215,0.933
		C158.623,275.123,161.239,274.178,163.886,274.139z"/>
	<path style="fill-rule:evenodd;clip-rule:evenodd;fill:#E5E5E5;" d="M132.699,264.734c-1.079-1.357-1.735-2.185-2.392-3.012
		c0.801-0.628,1.659-1.815,2.388-1.74c0.881,0.09,1.653,1.25,2.472,1.946C134.508,262.679,133.849,263.428,132.699,264.734z"/>
	<path style="fill-rule:evenodd;clip-rule:evenodd;fill:#E5E5E5;" d="M117.632,264.714c-0.871-1.458-1.993-2.706-1.756-3.068
		c0.54-0.829,1.749-1.66,2.679-1.652c0.68,0.006,1.35,1.345,2.024,2.089C119.773,262.802,118.968,263.521,117.632,264.714z"/>
	<path style="fill-rule:evenodd;clip-rule:evenodd;fill:#E5E5E5;" d="M125.209,264.869c-1.139-1.518-1.77-2.359-2.4-3.2
		c0.817-0.61,1.638-1.698,2.452-1.693c0.803,0.004,2.244,1.119,2.24,1.74C127.495,262.549,126.371,263.374,125.209,264.869z"/>
	<path style="fill-rule:evenodd;clip-rule:evenodd;fill:#E5E5E5;" d="M189.151,305.281c0.527-2.587,0.509-2.618-1.785-3.251
		c-5.357-1.475-8.873-6.439-8.808-12.7c2.024,0,4.06,0,6.235,0c0-2.051,0.002-3.85,0-5.647c-0.005-3.143-0.048-6.285-0.009-9.427
		c0.038-3.106,2.361-5.494,5.39-5.639c2.992-0.143,5.635,2.063,5.828,5.154c0.196,3.132,0.121,6.28,0.148,9.422
		c0.017,1.912,0.003,3.823,0.003,5.917c2.179,0,4.221,0,6.211,0c1.46,5.63-2.963,11.212-10.533,13.46c0,0.814,0,1.653,0,2.755
		c2.16,0,4.318-0.005,6.476,0.002c2.16,0.007,2.747,0.639,2.691,2.761c-0.038,1.429-0.722,2.205-2.146,2.217
		c-5.698,0.045-11.396,0.08-17.094,0.077c-1.617,0-2.138-0.669-2.148-2.469c-0.009-1.808,0.509-2.481,2.095-2.525
		c1.969-0.057,3.94-0.021,5.911-0.037C188.139,305.347,188.659,305.305,189.151,305.281z M196.307,292.025
		c-0.704,3.046-2.356,5.205-5.696,5.254c-3.41,0.051-5.15-2.09-5.887-5.13c-1.094,0-2.078,0-3.075,0
		c0.704,4.55,4.844,7.781,9.51,7.529c4.269-0.23,8.143-3.737,8.35-7.653C198.464,292.025,197.423,292.025,196.307,292.025z"/>
	<path style="fill-rule:evenodd;clip-rule:evenodd;fill:#E5E5E5;" d="M304.89,182.981c-0.279,0.347-0.678,0.653-0.82,1.051
		c-0.66,1.829-1.717,3.312-3.432,4.282c0.805-1.514,1.073-3.409,3.022-4.119c0.167-0.062,0.118-0.721,0.169-1.103
		c-0.401,0.104-0.948,0.081-1.181,0.34c-0.745,0.831-1.375,1.769-2.051,2.665c0.923-1.897,1.934-3.758,2.741-5.703
		c0.617-1.484,0.089-3.012-1.225-3.682c-4.983-2.541-10.121-4.654-15.796-5.011c-1.41-0.087-2.681,0.083-3.869,1.234
		c-0.627,0.607-2.104,0.643-3.117,0.468c-1.235-0.212-2.098-1.322-2.048-2.568c0.057-1.443-0.647-2.281-1.581-3.118
		c-4.409-3.958-9.824-5.873-15.352-7.549c-0.356-0.109-0.795,0.051-1.195,0.087c2.816,1.418,5.629,2.507,8.421,3.65
		c1.827,0.748,2.516,2.24,1.964,4.12c-0.145,0.497-0.354,0.975-0.548,1.457c-1.043,2.585-2.525,3.222-5.15,2.191
		c-2.373-0.93-4.735-1.883-7.108-2.814c-0.327-0.129-0.682-0.191-1.12-0.313c-0.102,2.359,0.99,4.035,2.744,5.053
		c2.882,1.672,5.874,3.182,8.921,4.528c3.088,1.366,5.177,0.633,7.395-1.878c0.617-0.698,1.693-1.262,2.615-1.361
		c2.121-0.227,3.658,1.569,3.516,3.786c-0.188,2.885,0.803,5.003,2.854,5.944c4.01,1.838,8.169,3.177,12.587,3.594
		c0.305,0.029,0.673,0.03,0.924-0.111c1.181-0.673,2.331-1.4,3.493-2.107c-0.279,0.365-0.631,0.695-0.821,1.102
		c-0.328,0.701-0.485,1.41,0.728,1.287c-1.501,1.775-3.538,2.053-5.657,1.904c-4.634-0.326-8.944-1.927-12.978-4.04
		c-2.699-1.413-3.546-4.228-3.517-7.255c0.006-0.577-0.352-1.156-0.541-1.733c-0.585,0.262-1.338,0.375-1.728,0.813
		c-2.202,2.464-5.706,3.957-9.313,2.409c-3.297-1.416-6.656-2.651-9.604-4.779c-2.544-1.839-4.012-4.178-4.052-7.375
		c-0.006-0.409-0.314-0.922-0.641-1.204c-1.191-1.022-1.644-2.314-1.088-3.794c0.378-1.008,0.786-2.035,1.376-2.924
		c0.329-0.494,1.056-1.016,1.606-1.02c2.328-0.016,4.076-1.93,6.579-1.644c2.257,0.258,4.599-0.237,6.903-0.397
		c1.554-0.108,3.107-0.257,4.662-0.306c3.001-0.095,5.243,1.765,5.565,4.522c0.105,0.904-0.066,1.675-1.063,1.838
		c-0.995,0.162-1.47-0.479-1.568-1.404c-0.157-1.469-1.044-2.252-2.432-2.265c-1.756-0.016-3.515,0.171-5.389,0.277
		c2.494,1.414,4.858,2.643,7.099,4.067c1.258,0.799,2.477,1.79,3.4,2.944c0.712,0.89,1.044,2.142,1.355,3.284
		c0.267,0.979,0.916,1.487,1.515,0.809c1.898-2.149,4.37-1.897,6.713-1.556c3.048,0.444,6.038,1.277,9.147,1.965
		c-1.255-1.287-2.49-2.669-3.85-3.915c-0.966-0.886-2.088-0.75-3.096,0.061c-0.771,0.62-1.574,0.83-2.191-0.086
		c-0.618-0.918-0.014-1.6,0.711-2.146c2.145-1.617,4.933-1.422,6.938,0.647c3.116,3.217,6.147,6.517,9.208,9.787
		c1.188,1.27,1.248,2.875,1.293,4.479C305.586,181.225,305.238,182.103,304.89,182.981z M259.676,167.546
		c1.664,0.659,3.364,1.239,4.98,2.002c1.513,0.711,1.855-0.205,2.303-1.298c0.464-1.135,0.686-1.966-0.832-2.517
		c-3.054-1.107-6.052-2.367-9.07-3.57c-2.343-0.937-2.459-0.864-3.315,1.494c-0.345,0.95-0.153,1.506,0.811,1.866
		C256.271,166.166,257.971,166.866,259.676,167.546z"/>
	<path style="fill-rule:evenodd;clip-rule:evenodd;fill:#E5E5E5;" d="M443.043,288.959c-4.399,0-8.799,0.004-13.197-0.001
		c-2.554-0.002-3.325-0.776-3.328-3.345c-0.006-5.554-0.008-11.107-0.003-16.662c0.003-2.393,0.776-3.236,3.107-3.242
		c8.798-0.02,17.6-0.152,26.392,0.078c2.679,0.071,5.345,1.123,7.992,1.816c3.557,0.932,7.091,1.945,10.633,2.935
		c1.956,0.547,2.376,1.145,2.364,3.16c-0.016,2.522-0.033,5.046,0.008,7.567c0.025,1.546-0.597,2.416-2.148,2.824
		c-5.571,1.471-11.116,3.044-16.681,4.542c-0.783,0.211-1.621,0.302-2.436,0.308c-4.234,0.03-8.469,0.014-12.703,0.014V288.959z
		 M429.561,268.706c0,5.861,0,11.548,0,17.247c8.623,0,17.123,0,25.688,0c0-5.78,0-11.468,0-17.247
		C446.656,268.706,438.16,268.706,429.561,268.706z M458.354,285.549c5.361-1.465,10.508-2.872,15.69-4.289
		c0-2.436,0.062-4.686-0.053-6.928c-0.022-0.431-0.666-1.057-1.141-1.2c-2.832-0.854-5.7-1.593-8.557-2.372
		c-1.939-0.53-3.879-1.065-5.94-1.633C458.354,274.637,458.354,279.942,458.354,285.549z"/>
	<path style="fill-rule:evenodd;clip-rule:evenodd;fill:#E5E5E5;" d="M434.822,290.709c3.131-0.347,3.349-0.213,3.855,2.724
		c0.205,1.187,0.333,2.399,0.358,3.604c0.021,1.039,0.458,1.379,1.423,1.228c1.463-0.229,2.92-0.568,4.39-0.646
		c2.601-0.137,3.861,1.312,3.233,3.804c-0.558,2.218-1.379,4.369-2.113,6.642c6.367,0,12.79,0,19.378,0
		c-1.371-2.741-2.522-5.554-1.789-8.46c0.934-3.702,2.202-7.352,3.72-10.854c0.409-0.946,2.234-1.281,3.839-2.122
		c-1.294,3.286-2.313,6.106-3.506,8.85c-2.031,4.67-1.53,8.962,1.553,13.01c0.345,0.452,0.618,1.366,0.39,1.743
		c-0.289,0.478-1.123,0.873-1.725,0.877c-8.025,0.055-16.05,0.044-24.075,0.026c-1.854-0.004-2.338-0.827-1.596-2.526
		c1.131-2.589,2.241-5.187,3.538-8.193c-1.544,0.246-2.551,0.42-3.562,0.563c-0.703,0.1-1.413,0.214-2.12,0.22
		c-2.563,0.021-3.566-0.896-3.845-3.466c-0.131-1.2-0.154-2.42-0.377-3.604C435.582,293.009,435.177,291.927,434.822,290.709z"/>
	<path style="fill-rule:evenodd;clip-rule:evenodd;fill:#E5E5E5;" d="M472.498,268.443c-2.432-0.945-4.215-1.821-5.709-3.682
		c-5.784-7.198-17.165-8.145-24.225-2.028c-1.653,1.432-3.198,1.479-5.377,1.352c4.524-5.869,10.348-8.45,17.3-8.214
		C462.906,256.156,468.786,260.463,472.498,268.443z"/>
	<path style="fill-rule:evenodd;clip-rule:evenodd;fill:#FFFFFF;" d="M255.386,171.288c-0.202-0.005-0.405-0.011-0.607-0.016
		c-0.346,0.521-0.967,1.051-0.955,1.564c0.01,0.458,0.72,0.9,1.119,1.351c0.47-0.429,1.239-0.807,1.322-1.3
		C256.343,172.418,255.708,171.827,255.386,171.288z"/>
	<path style="fill-rule:evenodd;clip-rule:evenodd;fill:#E5E5E5;" d="M257.291,162.781c0.102,0.62,0.474,1.402,0.228,1.811
		c-0.259,0.428-1.113,0.496-1.708,0.722c-0.205-0.566-0.702-1.239-0.543-1.668c0.179-0.482,0.951-0.745,1.465-1.103
		C256.918,162.622,257.105,162.702,257.291,162.781z"/>
	<path style="fill-rule:evenodd;clip-rule:evenodd;fill:#E5E5E5;" d="M431.993,270.62c0.837,0,1.583,0,2.325,0
		c0.223,3.021-1.04,7.452-2.325,7.791C431.993,275.853,431.993,273.324,431.993,270.62z"/>
</g>
</svg>
