<svg version="1" xmlns="http://www.w3.org/2000/svg" width="1066.667" height="1066.667" viewBox="0 0 800.000000 800.000000"><path d="M390 28.2c-3 1.9-11.8 7.5-19.5 12.4-82.2 53-163.7 96.6-225.5 120.7-8 3.2-28.4 10.6-45.5 16.5l-31 10.8.2 7c.1 3.8 2.5 23.6 5.3 43.9 2.7 20.4 6.4 49.4 8 64.5 8.6 78.9 22.9 147.7 40.1 193.9 21.7 57.8 57.8 112.2 101.4 152.5 32.3 29.8 88.7 73.3 137 105.7 30.6 20.4 35 22.9 40.8 22.9 5.9 0 8.3-1.4 42.7-24.5C500.3 716.7 557 672 588 641c41.5-41.4 67.4-80.5 88.2-133 21.7-54.8 33.8-109.6 43.8-198.5 4.6-41.1 11.2-93.3 13.9-111 1.1-6.6 1.8-12 1.8-12.1-.1 0-6.9-1.8-15.2-3.9-39.9-10-79.9-26.1-137.5-55.1-55.2-27.8-96.7-51.9-165.9-96.4-7.6-5-9-5.5-15-5.8-6.1-.3-7.1-.1-12.1 3zm32.7 30.1c107.8 69.2 209.7 120.3 278.4 139.8 6.3 1.7 11.5 3.3 11.7 3.4.2.2-2 18.2-4.7 40.1-2.8 22-6.4 52.5-8.1 67.9-9.1 82.6-21.3 137.4-42.7 191.5-17.4 44.1-36.9 75.3-70 112.4-19.3 21.5-49.5 47.5-97.3 83.8-32.3 24.4-85.4 60.8-88.8 60.8-2.2 0-49.9-32-72.2-48.4-96.5-70.9-138.3-114.8-170.9-179.6-17.8-35.5-28.3-67.4-39.5-120-7.6-35.8-11.7-62.3-17.1-110-1.9-17.3-5.5-46.3-8-64.4-2.5-18.1-4.4-33-4.2-33.1.1-.1 11.7-4.1 25.7-9 67.9-23.4 126.9-51.7 206-98.8 24.4-14.6 60.8-37.1 72.6-45.1 3.8-2.5 7.2-4.6 7.6-4.6.4 0 10.1 6 21.5 13.3z"/><path d="M397.7 65.7c-1.5.3-23.3 12.8-48.5 28-94.1 56.8-133.7 77.8-180.2 95.6-17 6.5-39.2 13.6-54.2 17.3l-10.8 2.6v5.4c0 2.9 2 19.9 4.5 37.6 2.5 17.8 6.1 46.5 8 63.8 5.7 50.4 12 87.1 22 126.7 16.3 64.9 42.7 114.9 85.9 162.4 19.6 21.6 57.8 53.6 105.9 88.7 15.1 11 58 39.9 63.4 42.6 5.1 2.6 10.8 2 17.2-1.5 20.7-11.7 74-49.8 115.6-82.7 74-58.6 115.2-121.6 138.5-211.6 10.1-38.9 15.5-72.7 25-157.1 3.6-31.2 7.8-63.1 9.6-71.6.5-2.6.4-2.6-11.3-5.4-62.8-14.7-155.3-60.1-261.7-128.4-10.4-6.6-19.9-12.1-21.2-12.1-1.2 0-2.8-.2-3.6-.3-.7-.2-2.6-.2-4.1 0zm14.5 27c75.4 48.8 149.6 88.9 209.4 113.1 15.4 6.2 40.6 14.9 50.2 17.3 5.8 1.4 5.9 1.6 4.2 11-.5 3-3.5 27.2-6.5 53.9-3.1 26.7-6.7 56.4-8.1 66-14.6 103.8-39.8 168.7-87.8 226-9.6 11.5-29.8 31.7-42.6 42.6-12.3 10.4-46.8 37.2-69 53.5-20 14.6-59 40.9-60.7 40.9-.7 0-7.9-4.3-15.9-9.5-53.4-34.9-112.6-81.4-141.1-110.7-35.7-36.9-62.3-81.1-78.3-130.5-12.4-38.1-24.2-98.8-30-154.8-1.1-11-4.1-34.8-6.6-52.9s-4.1-33.2-3.7-33.6c.4-.4 7.3-2.7 15.3-5 30.2-8.9 66.8-24 102.5-42.4 31-16 71.1-39.3 151.5-88.2 3-1.9 5.8-3.4 6.2-3.4.4 0 5.4 3 11 6.7z"/><path d="M402 124.2v6.8h-6.9c-6.6 0-7.1.2-9.1 3l-2.1 3h9c8.4 0 9.1.1 9.1 2s-.7 2-10.7 2h-10.8l-7.2 9.8-7.3 9.7.3 28.5.2 28.5 13.5.5c12.8.5 13.6.6 14.5 2.7.7 1.7 1.8 2.3 4.2 2.3 2.6 0 3.3.4 3.3 2 0 1.7-.7 2-5 2-3.9 0-5.2-.4-6-2-1-1.8-2.1-2-13.3-2-8.3 0-12.9-.4-14-1.3-1.5-1.1-1.7-4.2-1.9-27.7l-.3-26.5-2.7 4-2.8 4V233h16.4c15.6 0 16.5.1 17.1 2 .5 1.7 1.5 2 6.6 2 5.6 0 5.9.1 5.9 2.5s-.2 2.5-6.4 2.5c-7.7 0-9.6-.6-9.6-3.1 0-1.8-1-1.9-15.1-1.9-8.4 0-15.9-.5-17-1-1.8-1-1.9-2.4-1.9-27.8l-.1-26.7-2.4 4-2.5 4V247h37l1 2.5c.9 2.4 1.3 2.5 9 2.5 7.3 0 8 .2 8 2 0 1.9-.7 2-10 2-9.8 0-10.1-.1-11-2.5l-1-2.5h-17.9c-13.3 0-18.2-.3-18.8-1.3-.4-.6-1-12.4-1.3-26.1l-.5-24.9-2.5 4.9c-2.5 4.9-2.5 5-2.2 28.6l.3 23.8h8.4c4.6 0 8.7-.5 9-1 .3-.6 3.5-1 7.1-1h6.4v10h-6.5c-4.9 0-6.7-.4-7.1-1.5-.5-1.2-2.6-1.5-9.8-1.5-5.8 0-9.6-.4-10.4-1.2-.9-.9-1.2-7.4-1.3-22.8l-.1-21.5-2.6 5.5c-2.1 4.5-2.7 7.3-3 15.2-.4 9-.5 9.7-2.7 10.2-2.5.6-3.5 4.3-3.5 13.8v5.8h25.6c15.7 0 26.3.4 27.5 1 1.5.9 1.9 2.2 1.9 7v6h26v5h-14.4c-10.5 0-14.6-.3-15.4-1.3-.6-.7-1.2-4-1.4-7.2l-.3-6-24.7-.3-24.8-.2v3.7c0 2.1.3 5.5.6 7.5l.7 3.8h19.9c11.8 0 20.7.4 21.9 1 1.4.8 1.9 2.1 1.9 5v4h18c17.4 0 18 .1 18 2 0 2-.5 2-19.7 1.8l-19.8-.3-.3-4.3-.3-4.2h-38.8l1.3 4.2 1.2 4.3 11.9.6c9.8.6 12.1 1 13.2 2.5.9 1.2 1.3 5.3 1.3 13.1 0 6.9.4 11.3 1 11.3s1 3 1 7v7h-10v-6.4c0-4.4.5-6.7 1.5-7.6 1.2-1 1.5-3.6 1.5-11.6V304h-9.5c-5.2 0-9.5.4-9.5.9 0 2.6 1.5 4.1 3.9 4.1 4.2 0 5.1 1.7 5.1 9.7 0 5.8.3 7.3 1.5 7.3 1.1 0 1.5 1.1 1.5 4.1 0 2.7 2.8 11.1 8.8 26.2 4.9 12.2 10.6 27 12.8 32.9 3.6 10.2 4 10.8 6.6 10.8 2.7 0 2.8-.1 2.8-5.8 0-3.2.5-6.3 1.2-7 .7-.7 3.9-1.2 7.5-1.2h6.3v-6.5c0-7.7.9-8.5 9.9-8.5h6.1v29.1l-7.7-.3-7.8-.3-.3-4.3-.3-4.2H376v5.2c0 6.6-.9 7.9-5.3 8.7-3.1.5-3.4.8-2.6 2.8.8 2.3 1.1 2.3 17.4 2.3H402v5h-15.5c-8.5 0-15.5.3-15.5.7 0 .3 1.2 4.6 2.7 9.5l2.6 8.8h5.7c3.1 0 6.1.5 6.8 1.2.8.8 1.2 4.9 1.2 12V458h6c5.7 0 6 .1 6 2.5s-.2 2.5-6.4 2.5c-10 0-9.6.5-9.6-12.6V439h-4c-2.2 0-4 .2-4 .5s1.2 5.4 2.6 11.3c2.1 8.7 3.2 11.2 5.5 13.5l3 2.7 17.1-.2 17.2-.3 3.8-16.5c4.1-18.2 9-33 29.9-91.3 24.1-67.1 24.9-70 24.9-90.4 0-19.5-4-34.3-15.4-56.7-12.7-24.9-26.9-45.7-63.3-92.5-1-1.3-1.2-.4-1.3 5.1zm-14 30.3c0 1 1 1.5 3 1.5 2.3 0 3.3.6 4 2.5.7 1.9 1.7 2.5 4 2.5s3 .4 3 2c0 1.7-.7 2-4.4 2-4.3 0-6.8-1.4-7.9-4.2-.3-.9-.9-.8-1.9.5-1.1 1.5-2.5 1.8-7.8 1.5l-6.5-.3-.3-4.8-.3-4.7h7.5c6.1 0 7.6.3 7.6 1.5zm-.4 13.9c.3.8 1.9 1.6 3.6 2 1.8.4 3.2 1.4 3.5 2.6.4 1.5 1.4 2 3.9 2 2.8 0 3.4.4 3.4 2.1 0 1.8-.5 2-5.2 1.7-4.4-.2-5.5-.7-6.3-2.6-1.1-2.5-2.5-2.9-2.5-.7 0 1.2-1.5 1.5-7.5 1.5H373v-4.3c0-2.4.3-4.7.7-5 .3-.4 3.5-.7 7-.7 4.5 0 6.5.4 6.9 1.4zm.2 14.5c.9.5 2.9 1.4 4.5 2 1.5.6 2.7 1.7 2.7 2.6 0 1.1 1 1.5 3.5 1.5 3.1 0 3.5.3 3.5 2.5 0 2.3-.4 2.5-4.4 2.5-4.3 0-6.8-1.4-7.9-4.2-.3-.9-.9-.8-1.9.5-1.1 1.5-2.5 1.8-7.8 1.5l-6.5-.3-.3-4.8-.3-4.7h6.6c3.6 0 7.3.4 8.3.9zM397 265c0 .5 1.1 1 2.5 1 1.8 0 2.5.5 2.5 2 0 1.3-.7 2-2 2-1.1 0-2.3.7-2.6 1.5-.5 1.1-2.3 1.5-7.5 1.5H383v-9h7c4 0 7 .4 7 1zm-23 48.5c0 4.9-.4 6.7-1.5 7.1-1 .4-1.5 2-1.5 4.5 0 3.3.3 3.9 2.1 3.9 1.2 0 2.3.8 2.6 2 .5 1.9 1.4 2 13.4 2H402v5h-14.5c-14.4 0-14.6 0-15.6-2.4-.6-1.3-2.2-2.9-3.5-3.5-2-.9-2.4-1.8-2.4-5.5 0-2.5-.4-4.8-1-5.1-.5-.3-1-3.7-1-7.6V307h10v6.5zm14-.1c0 3.6-.4 6.8-1 7.1-.5.3-1 1.3-1 2.1 0 1.1 1.7 1.4 8 1.4 7.9 0 8 0 8 2.6v2.6l-9.7-.7c-5.4-.4-10.1-.9-10.5-1.2-.5-.2-.8-1.7-.8-3.4 0-1.9-.5-2.9-1.5-2.9-1.2 0-1.5-1.4-1.5-7v-7h10v6.4zm-14.4 33.1c.5 1.1 2.3 1.5 7.5 1.5 5.8 0 7.1.3 8.1 2 1 1.6 2.4 2 7 2 5.5 0 5.8.1 5.8 2.5 0 2.6 0 2.6-7.7 2.3-7.2-.3-7.8-.5-8.1-2.6-.3-2-.9-2.2-6.2-2.2-4.2 0-5.9.4-6.4 1.5-.4 1.1-2.2 1.5-7.6 1.5h-7v-10h7c5.4 0 7.2.4 7.6 1.5zm-.1 14.5c.4.6 6.3 1 14.6 1H402v5h-14c-8.7 0-14 .4-14 1s-3.2 1-7.5 1H359v-9h6.9c3.9 0 7.3.4 7.6 1zm19 62c.3.5 2.6 1 5.1 1 4 0 4.4.2 4.4 2.5s-.4 2.5-4.4 2.5c-3 0-4.6.5-5 1.5-.4 1.1-2.2 1.5-7.6 1.5h-7v-10h6.9c3.9 0 7.3.4 7.6 1zM230.3 306.7l-3.3.4V362h44v-33h28.1l-.3-2.7c-.4-3.4-9.3-10.2-11.1-8.4-.7.7-6.3 1.1-16.4 1.1H256v4.9c0 3.9.4 5 1.8 5.4 2 .5 3.6 5.6 2.6 8.2-.4.8.1 1.7 1 2.1 1.3.5 1.6 2.1 1.6 8v7.4h-10v-7.5c0-6 .3-7.5 1.5-7.5 1 0 1.5-1 1.5-3.3 0-2.6-.6-3.6-2.5-4.5-2.3-1.1-2.5-1.6-2.5-8.5 0-4.3.5-7.8 1.2-8.5.8-.8 5.9-1.2 15.8-1.3l14.5-.1-4.1-1.9c-6.5-3-15.2-5-24.1-5.6l-8.3-.6v5.6c0 6.1-1.3 7.7-6.4 7.7-2.4 0-2.6.3-2.6 4.9 0 4 .3 5 2 5.4 1.7.4 2 1.4 2 5.5 0 3.6.4 5.2 1.5 5.6 1.3.5 1.5 2 1.3 7.3l-.3 6.8-4.7.3-4.8.3v-7.5c0-6.1.3-7.6 1.5-7.6 1 0 1.5-1 1.5-3.3 0-2.6-.6-3.6-2.5-4.5-2.4-1.1-2.5-1.6-2.5-9.1 0-8.6.4-9.1 6.1-9.1 2.7 0 2.9-.2 2.9-4 0-4 0-4-3.7-3.8-2.1 0-5.3.3-7 .5zM541 307.4c-17.6 3.8-31.8 12.4-47.9 29.1-17.3 18-32.9 47.7-43.5 82.8-6 19.8-12.8 45.9-12.1 46.5.4.4 7.4.7 15.6.7 17.6 0 17.4.1 21.8-11.8 1.6-4.2 4-9.6 5.4-11.9 3.8-6.5 16.4-20.5 24-26.9 16.6-13.9 38.4-20.1 53.8-15.2 7.2 2.3 15.8 10.7 18.2 17.7 3.6 10.6 1.7 19.7-7.8 36.7-3.2 5.5-5.4 10.3-5 10.7 1.2 1.3 22.1 1.4 27.9.2 3.1-.6 9.4-3 13.9-5.2 10.3-5.2 22.5-16.9 28.2-27.1 15.5-28 14.4-67.2-2.7-93.4-9.2-14.2-27.1-26.4-46.3-31.4-10.3-2.7-33.8-3.5-43.5-1.5z"/><path d="M213.8 311.2l-5.8 2v25.1c0 14.1-.4 25.9-1 26.7-.7 1.2-4 1.6-17 1.8l-16 .3v3.3c0 4.5-1.6 5.6-7.7 5.6H161v10h23v-4c0-3.5.4-4.2 2.7-5.1 3.7-1.4 85.3-.2 87 1.3.7.6 1.3 2.6 1.3 4.4v3.4h10l.2-18.8.3-18.7 12.8-.3c10.1-.2 12.7-.5 12.7-1.7 0-.9 1.4-1.5 4.1-1.7l4-.3-7.1-7.8c-7.1-7.6-9-9-9-6.3 0 2.2-2.4 2.6-15.6 2.6H275v15.4c0 12.7-.3 15.7-1.6 17-2.3 2.4-47.5 2.4-49.8 0-1.4-1.3-1.6-5.4-1.6-29 0-21.3-.3-27.4-1.2-27.3-.7 0-3.9 1-7 2.1zM332.1 315.6c0 1.1.3 1.4.6.6.3-.7.2-1.6-.1-1.9-.3-.4-.6.2-.5 1.3z"/><path d="M200.3 317.2c-2.3 1.1-2.3 1.4-2.3 19.3 0 13.9-.3 18.5-1.3 19.3-.8.7-7.3 1.3-16.2 1.4l-15 .3-1.7 6.5c-.9 3.6-1.7 6.6-1.8 6.7 0 .2 1.6.3 3.5.3 3.1 0 3.5-.3 3.5-2.6 0-1.4.5-3.4 1-4.5 1-1.8 2.3-1.9 17-1.9h16v-23c0-12.7-.1-23-.2-22.9-.2 0-1.3.5-2.5 1.1z"/><path d="M190.8 323.4c-1.5 1.1-1.8 2.9-1.8 11 0 12.7-.8 13.6-11.9 13.6-6.4 0-8 .3-8.5 1.6-.4.9-.5 1.8-.3 2 .7.7 24 .5 24.7-.2.5-.5.6-7.3.2-15.1-.7-13.2-.8-14.1-2.4-12.9z"/><path d="M177.6 335.7c-2.5 3.2-4.6 6.2-4.6 6.6 0 .4 2.4.7 5.3.5l5.2-.3.3-6.3c.2-3.5-.1-6.2-.7-6.2-.5 0-3 2.6-5.5 5.7zM289 370.3c0 12.9-.4 18.7-1.2 19.5-1.4 1.4-13.6 1.6-15.7.3-.7-.5-1.4-2.7-1.5-5l-.1-4.1h-81.2l-.6 4.1c-.3 2.3-1.1 4.6-1.9 5-.7.5-6.8.9-13.5.9H161v9h37v-3.3c0-1.8.5-3.8 1.2-4.5 1.7-1.7 59.4-1.7 60.4 0 .5.7.7 2.4.6 3.9-.2 2.5.1 2.7 5 3.3 2.9.3 11.7.6 19.6.6H299v-17.8c0-12.5.4-18.2 1.2-19 .7-.7 3.1-1.2 5.4-1.2 2.4 0 4.6-.5 4.9-1 .3-.6 3.7-1 7.6-1h6.9v9h-7c-4 0-7-.4-7-1s-1.6-1-3.5-1H304v16.4c0 9.1-.4 17.6-1 19-.9 2.5-1.2 2.6-10.2 2.6h-9.3l5.1 2.9c2.9 1.5 6.5 3.8 8.2 4.9 2.5 1.8 4.4 2.2 11.5 2.2 9.9 0 9.7-.2 9.7 10.6 0 6.9.3 7.8 3.6 12.9l3.7 5.5h8.3c8.3 0 8.4 0 8.4-2.5s-.1-2.5-7.9-2.5c-9.4 0-11.1-1.1-11.1-7.1 0-6.1 1.4-7.9 6-7.9h4v-17.4c0-14.5-.2-17.5-1.5-18-1.1-.4-1.5-2.2-1.5-7.6v-7h3.5c1.9 0 3.5-.4 3.5-.9 0-.4-2.4-4.8-5.3-9.6l-5.3-8.8-7.7.2c-6.4.2-7.7 0-7.7-1.3 0-1.4-1.7-1.6-11-1.6h-11v18.3z"/><path d="M340 383.3c0 3.3-.5 4.9-1.5 5.3-1.3.5-1.5 3.6-1.5 19.3 0 13.2-.4 19.1-1.2 19.9-.7.7-2.7 1.2-4.5 1.2-2.9 0-3.3.3-3.3 2.5 0 2.5.1 2.5 8.5 2.5 9.4 0 10.5.8 10.5 7s-1.1 7-10.5 7c-4.7 0-8.5.2-8.5.5 0 .2.5 1.6 1.2 3 1.1 2.4 1.7 2.6 6.7 2.5 10.1-.3 9.9-.4 10.7 3.7.4 2 .2 4.9-.4 6.5l-1 2.8H368l-.7-3.3c-1.5-7.7-1.8-8.2-5.1-8.5-3.1-.3-3.2-.5-3.2-4.8 0-3.7.3-4.4 2-4.4 1.1 0 2-.4 2-.9 0-2.1-1.3-4.1-2.6-4.1-1 0-1.4-1.5-1.4-5.6 0-3.1-.5-7.4-1.2-9.5l-1.1-3.9H344v-9h9.8l-1.1-3.5c-.5-1.9-2.1-4.2-3.4-5-1.9-1.3-2.3-2.4-2.3-6.3 0-3.2-1.1-7-3.5-12.2l-3.5-7.5v4.8zM202.7 399.1c-.3 2.3-1.1 4.6-1.9 5-.7.5-9.7.9-20 .9-10.4 0-18.8.3-18.8.6s.5 2.5 1.1 5l1.1 4.4H208v-3.8c0-2.1.5-4.3 1.2-5 .8-.8 5.7-1.2 15.3-1.2 13.6 0 14.2-.1 19.9-3 3.2-1.7 7.2-3 8.7-3 2.2 0 2.9-.5 2.9-2 0-1.9-.7-2-26.4-2h-26.3l-.6 4.1z"/><path d="M211.8 414.2l-.3 4.3-22.7.3c-13.7.1-22.8.6-22.8 1.2 0 2.8 3.4 8.9 5.6 9.8 1.8.9 2.4 1.9 2.4 4.5 0 2 1 4.7 2.5 6.7l2.5 3.4v-6.7c0-5.5.3-6.8 1.9-7.7 1.2-.6 10.7-1 24-1H227v-2.5c0-3.3 3.4-12.2 5.6-14.6 1.7-1.9 1.4-1.9-9.4-1.9h-11.1l-.3 4.2zM309.5 423c2.1 2.2 4 4 4.2 4 .2 0 .3-1.8.3-4v-4h-8.4l3.9 4z"/><path d="M183 441.4v7.4l4.8 4.1c2.6 2.3 5.1 4.1 5.6 4.1s.6-2.9.3-6.5c-.4-3.6-.2-7.7.3-9l1-2.5h33.1l-.3-2.3c-.3-2.2-.3-2.2-22.5-2.5L183 434v7.4z"/><path d="M198 452c0 8.6.4 9.2 7.8 11.4 2.1.7 2.2.5 2.2-5.8 0-9.1.7-9.6 13.6-9.6 10.2 0 10.4-.1 9.4-2s-2.1-2-17-2h-16v8z"/><path d="M212 459.5v6.5h2.9c2.7 0 3-.3 3.3-3.8l.3-3.7 9.8-.3c5.3-.1 9.7-.6 9.7-1.1 0-.4-.8-1.5-1.8-2.4-1.5-1.4-4-1.7-13-1.7H212v6.5zM333.2 460.2c1 1.6 2.7 2.4 5.2 2.6 3.3.3 3.6.1 3.6-2.2 0-2.5-.3-2.6-5.1-2.6-5.1 0-5.1 0-3.7 2.2z"/><path d="M222 465c0 1.8.7 2 5.6 2 5.9 0 14.1-1.7 15-3.1.3-.5-4.2-.9-10-.9-9.9 0-10.6.1-10.6 2zM325 492v13h155v-26H325v13zM390.1 517c-1.8.4-4 1.5-4.9 2.4-1.5 1.5-.9 1.6 7.6 1.6s9.2.1 9.2 2-.7 2-10.5 2h-10.4l-1.4 4.7-1.4 4.8 11.8.3c11 .2 11.9.4 11.9 2.2 0 1.8-.9 2-12.6 2.2l-12.7.3-1.3 4.5c-.8 2.5-1.4 4.6-1.4 4.7 0 .2 6.3.3 14 .3h14v5h-30.1l-1.9 4.6c-1.1 2.5-2 4.8-2 5 0 .2 2.3.4 5 .4 3.8 0 5-.4 5-1.5 0-1.2 1.5-1.5 7.6-1.5h7.5l-.3 4.7-.3 4.8-6.4.3c-3.6.2-6.9-.2-7.4-.7-.6-.6-3.9-1.1-7.4-1.1h-6.2l-4.3 6.2-4.3 6.3-.5 14.5-.5 14.5-14.2.3c-12.8.2-14.3.4-14.3 2 0 3.8 1.3 4.1 15 4.4l13.5.3.3 11.3c.2 9.6.5 11.4 2 11.9.9.3 3.2 1.7 5 3l3.2 2.4v-33c0-31.6.1-33.1 1.9-34.1 2.1-1.1 25.9-1.4 31-.4 1.7.4 3.1 1.3 3.1 2 0 1.1-3 1.4-15.5 1.4H371v70.1l7.3 8.6 7.2 8.5.5-6.9.5-6.8 7.8-.3c7.2-.3 7.7-.1 7.7 1.8 0 1.8-.6 2-6 2h-6v6c0 4.5.4 6.2 1.5 6.6.8.4 1.5 1.8 1.5 3.3 0 3.8 1.7 5.1 7 5.1 4.6 0 4.8-.1 14.6-10.3 5.5-5.6 12.8-13.9 16.2-18.5 7.2-9.4 8.7-10.5 16.2-12.2 13.4-3 24.4-10.7 29.9-20.9 5.2-9.9 4.8-10.8-10-19.1-7.8-4.3-17.7-13.4-23.5-21.6-6.3-8.8-10.5-18.4-18-41.3l-6.5-20.1-12.7.1c-7 .1-14.2.5-16.1.9zm2.9 79.5c0 1.1 1.2 1.5 4.5 1.5s4.5.4 4.5 1.5-1.2 1.5-4.5 1.5-4.5.4-4.5 1.5c0 1.2-1.5 1.5-7.5 1.5H378v-9h7.5c6 0 7.5.3 7.5 1.5zm9 32v11.6l-7.7-.3-7.8-.3-.3-9.9c-.1-5.5 0-10.6.2-11.3.4-.9 2.7-1.3 8.1-1.3h7.5v11.5zM338.7 519c-.5 1.9 0 2 14.9 2 14.7 0 15.4-.1 15.4-2s-.7-2-14.9-2c-14 0-14.9.1-15.4 2zM435 518.9c0 2.9 4.6 18 7.5 24.5 7.2 16.4 20.4 31.4 31.2 35.7 4.7 1.9 7.7 2.3 15.8 2.4 9.2 0 10.5-.3 16.7-3.2 13.1-6.2 20.7-16.2 21.6-28.3.4-5.7.1-7.6-2-12.2-5.4-11.6-15.7-18.8-28.2-19.6-9.2-.6-13.9.8-22 6.3-6.6 4.6-6.6 4.6-7.5 2.3-.5-1.3-1.6-4-2.5-6.1L464 517h-14.5c-13.5 0-14.5.1-14.5 1.9zM299.3 519.1c-1.8.5-3.3 1.2-3.3 1.4 0 .3 5.7.5 12.8.4 11.6-.1 12.4-.2 9.7-1.4-3.4-1.6-14.4-1.8-19.2-.4zM283.6 529.2c-2 2.3-3.6 4.5-3.6 5 0 .4 19.1.8 42.5.8h42.4l1-3.8c1.9-6.5 2.5-6.2-14.3-6.2-14.6 0-15.5.1-16.1 2-.3 1.1-1 2-1.4 2-.4 0-1.6-.9-2.6-2-1.7-1.9-3.1-2-23.1-2h-21.2l-3.6 4.2zM276.6 541.2c-.3 1.3-.6 3.5-.6 5v2.8h82.6l2.2-4.5c1.2-2.5 2.2-4.8 2.2-5 0-.3-19.3-.5-42.9-.5h-42.9l-.6 2.2zM277.6 557.7c.9 2.1 1.8 4.4 2.1 5 .4 1 5.6 1.3 21.3 1.3 23.8 0 22-.8 22 10.1 0 7.7.3 7.9 6.4 5.4 3.7-1.5 4.8-3.5 2.1-3.5-1.2 0-1.5-1.5-1.5-7.5V561h10v12.4l4-3.9c2.2-2.1 5.8-6.5 8.1-9.7l4-5.8H276l1.6 3.7z"/><path d="M285.6 570.2c1 1.1 3.9 3.4 6.3 5 3.7 2.3 5.6 2.8 10.5 2.8 7.5 0 10.6.8 10.6 2.6 0 .8 1 1.4 2.5 1.4 2.4 0 2.5-.2 2.5-7v-7h-34.3l1.9 2.2zM345.8 592.6c-4.4 4.2-5.8 6.3-5.8 8.4 0 2.8-.2 2.9-5.2 3.2-3 .2-5.3.8-5.6 1.5-.3 1 2.4 1.3 11.2 1.3H352v-10c0-5.5-.1-10-.2-10-.2 0-2.9 2.5-6 5.6zM330.6 621.9c.5.5 2.7 1.1 4.9 1.3l4 .3.3 4.7c.3 4.1.7 5 3.5 6.7 1.8 1.1 4.5 2.4 6 3l2.7 1.1v-18h-11.2c-6.9 0-10.8.4-10.2.9z"/></svg>